<svg width="171" height="110" viewBox="0 0 171 110" fill="none" xmlns="http://www.w3.org/2000/svg">
<g clip-path="url(#clip0_990_4700)">
<path d="M120.261 91.2178L120.369 91.4014H130.229L130.175 91.2178H120.261Z" stroke="#231F20" stroke-miterlimit="10"/>
<path d="M117.291 86.142L120.261 91.2181H130.176L133.318 84.2412L117.291 86.142Z" fill="#3E6D9C" stroke="#231F20" stroke-miterlimit="10"/>
<path d="M117.161 85.9586L120.239 91.2183H120.26L117.29 86.1422L133.318 84.2414V84.2306L133.415 84.0254L117.161 85.9586Z" stroke="#231F20" stroke-miterlimit="10"/>
<path d="M90.3988 42.3575C91.3481 43.6829 92.5126 44.8401 93.844 45.7811C99.9245 50.1012 107.506 48.5136 112.064 45.4895C114.777 43.6204 116.897 41.012 118.172 37.9738C119.447 34.9356 119.824 31.5953 119.257 28.3496H119.16C119.696 31.5784 119.301 34.8932 118.021 37.9057C116.742 40.9183 114.63 43.5039 111.934 45.3599C107.377 48.384 99.7949 49.9392 93.7144 45.6515C92.4413 44.7365 91.3221 43.6246 90.3988 42.3575Z" stroke="#231F20" stroke-miterlimit="10"/>
<path d="M135.208 12.7116C135.167 11.8379 134.996 10.9751 134.7 10.152C134.376 9.29725 133.884 8.51595 133.253 7.85387C132.623 7.19178 131.866 6.66225 131.028 6.29631C130.271 5.89308 129.439 5.65129 128.584 5.58623C127.729 5.52116 126.869 5.63424 126.06 5.9183C125.256 6.26546 124.523 6.75996 123.9 7.37633" fill="#D3756B"/>
<path d="M135.208 12.7116C135.167 11.8379 134.996 10.9751 134.7 10.152C134.376 9.29725 133.884 8.51595 133.253 7.85387C132.623 7.19178 131.866 6.66225 131.028 6.29631C130.271 5.89308 129.439 5.65129 128.584 5.58623C127.729 5.52116 126.869 5.63424 126.06 5.9183C125.256 6.26546 124.523 6.75996 123.9 7.37633" stroke="#231F20" stroke-linecap="round" stroke-linejoin="round"/>
<path d="M59.9417 11.3184C59.8147 13.7033 60.4297 16.069 61.7021 18.0901" stroke="#231F20" stroke-miterlimit="10"/>
<path d="M66.7246 3.87731C65.4051 3.85058 64.1089 4.22738 63.0093 4.95733C61.5909 6.05149 60.6134 7.61936 60.2553 9.37461C60.1006 9.98304 60.0066 10.6053 59.9745 11.2322" stroke="#231F20" stroke-miterlimit="10"/>
<path d="M78.0429 9.41699C78.0806 9.44239 78.1075 9.48087 78.1185 9.52499C78.1642 9.58202 78.204 9.64353 78.2373 9.7086" stroke="#231F20" stroke-miterlimit="10"/>
<path d="M31.6451 86.6279C31.7315 86.6927 31.8071 86.7683 31.8935 86.8223L34.4531 86.8871C34.4474 86.8152 34.4474 86.743 34.4531 86.6711L31.6451 86.6279Z" stroke="#231F20" stroke-miterlimit="10"/>
<path d="M8.10125 109.168V126.751C9.09589 125.638 10.1795 124.609 11.3413 123.673C13.4386 121.966 15.7793 120.583 18.2858 119.569L18.6854 119.396C18.5664 118.989 18.4762 118.574 18.4154 118.154C18.0814 116.582 18.3431 114.942 19.1498 113.553C19.6565 112.766 20.3326 112.103 21.1287 111.612C21.9247 111.12 22.8206 110.813 23.7507 110.712C27.0556 110.464 29.0536 113.294 29.356 113.736C29.9243 114.537 30.3248 115.445 30.5333 116.404C31.6133 116.242 32.6933 116.404 33.7733 116.328C36.2471 116.105 38.7326 116.04 41.2147 116.134C41.3993 115.681 41.6348 115.249 41.9167 114.849C42.425 114.15 43.063 113.556 43.7959 113.099L37.1106 112.872C36.8907 112.865 36.6744 112.815 36.4739 112.725C36.2735 112.634 36.0929 112.505 35.9424 112.344C35.792 112.184 35.6746 111.995 35.5971 111.789C35.5195 111.583 35.4833 111.364 35.4905 111.144V110.205L33.7301 110.14L8.32806 109.19L8.10125 109.168Z" fill="#841618" stroke="#231F20" stroke-miterlimit="10"/>
<path d="M82.1681 111.684V133.133C83.3346 134.213 84.1338 135.056 84.5658 135.52C85.9868 137.039 87.3175 138.64 88.5511 140.315C89.3545 139.717 90.2802 139.304 91.2619 139.106C93.0916 138.647 95.0208 138.795 96.7592 139.527C96.7635 139.491 96.7635 139.455 96.7592 139.419C97.0039 138.899 97.1259 138.33 97.1156 137.756L96.662 111.004L96.446 96.4232C96.4849 95.0964 96.1877 93.7812 95.582 92.6L95.42 92.3084C95.3368 92.1475 95.243 91.9924 95.1392 91.844L95.0528 91.7036L94.934 91.5416L94.8152 91.3795L94.6856 91.2175C94.3828 90.8256 94.0428 90.4639 93.6704 90.1375C93.4062 89.9039 93.1246 89.6909 92.8279 89.5003C92.6766 89.4367 92.5215 89.3826 92.3635 89.3383C91.5961 89.113 90.7977 89.011 89.9983 89.0359L87.3414 89.7379C86.3485 90.105 85.5049 90.7903 84.9423 91.687C84.3796 92.5838 84.1295 93.6415 84.231 94.6952V107.375C84.501 109.275 83.8638 111.101 82.1681 111.684Z" fill="#841618" stroke="#231F20" stroke-miterlimit="10"/>
<path d="M31.2022 86.2607L31.645 86.6279H34.4639" stroke="#231F20" stroke-miterlimit="10"/>
<path d="M6.30762 66.5068C6.05921 66.8092 5.8216 67.1224 5.5948 67.4573C1.95513 72.7385 2.11715 78.5383 2.50596 81.9403" stroke="#231F20" stroke-miterlimit="10"/>
<path d="M31.5799 58.4609C33.5635 58.7168 35.5193 59.1543 37.4229 59.7678" stroke="#231F20" stroke-miterlimit="10"/>
<path d="M56.5176 74.2838L56.3232 73.9922" stroke="#231F20" stroke-miterlimit="10"/>
<path d="M57.0368 75.0176L57.1016 75.0932" stroke="#231F20" stroke-miterlimit="10"/>
<path d="M60.6221 81.2926C59.7241 79.3608 58.6844 77.4981 57.5116 75.7197" stroke="#231F20" stroke-miterlimit="10"/>
<path d="M8.10123 109.168H8.38203L33.8057 110.161L35.5661 110.226L35.7065 106.241C35.7135 106.02 35.7641 105.803 35.8554 105.602C35.9467 105.4 36.077 105.219 36.2386 105.069C36.4002 104.918 36.5901 104.801 36.7972 104.724C37.0043 104.647 37.2246 104.612 37.4454 104.621L50.2976 105.074C50.5175 105.081 50.7338 105.132 50.9343 105.222C51.1347 105.313 51.3153 105.442 51.4658 105.603C51.6162 105.763 51.7336 105.952 51.8111 106.157C51.8886 106.363 51.9248 106.582 51.9176 106.802L51.7772 110.82L80.9378 111.9C81.3459 111.897 81.7508 111.828 82.1366 111.695C83.8322 111.112 84.4694 109.286 84.113 107.375V94.6953C84.0116 93.6416 84.2617 92.5839 84.8243 91.6872C85.387 90.7905 86.2305 90.1051 87.2235 89.738L89.8803 89.036C90.6798 89.0111 91.4781 89.1132 92.2456 89.3384C92.4036 89.3827 92.5587 89.4369 92.71 89.5004C91.365 88.6098 89.787 88.1364 88.1739 88.1396H86.4998L82.8494 87.8372L53.5269 86.9624L34.3997 86.6924C34.394 86.7643 34.394 86.8365 34.3997 86.9084L31.8401 86.8436H31.1488C31.1532 89.2605 30.7026 91.6567 29.8204 93.9069L29.7016 94.1661C29.0997 95.7602 28.1861 97.2184 27.0141 98.4553C25.8421 99.6921 24.4353 100.683 22.8759 101.37C22.1263 101.676 21.3433 101.894 20.5431 102.018C18.4191 102.313 16.2553 102.091 14.2357 101.37C13.9117 101.262 13.5985 101.143 13.2961 101.024H13.2421C12.9937 100.916 12.7561 100.808 12.5293 100.689L12.2269 100.527C12.0001 100.414 11.7801 100.288 11.5681 100.149C10.2485 99.3027 9.07718 98.2445 8.10123 97.0174C7.32966 96.0855 6.64631 95.084 6.05999 94.0257V94.3497L5.14197 105.15C5.06997 105.608 5.08959 106.076 5.19968 106.527C5.30977 106.978 5.50815 107.403 5.78335 107.776C6.05855 108.15 6.40511 108.465 6.80297 108.704C7.20083 108.943 7.64208 109.1 8.10123 109.168Z" fill="#841618" stroke="#231F20" stroke-miterlimit="10"/>
<path d="M31.2024 86.6172V86.8116H31.8612L34.4209 86.8764C34.4152 86.8045 34.4152 86.7323 34.4209 86.6604H31.602H31.1592L31.2024 86.6172Z" stroke="#231F20" stroke-miterlimit="10"/>
<path d="M35.5335 111.145C35.5263 111.364 35.5625 111.584 35.64 111.789C35.7175 111.995 35.8349 112.184 35.9853 112.344C36.1358 112.505 36.3164 112.634 36.5168 112.725C36.7173 112.815 36.9336 112.866 37.1535 112.873L43.8388 113.099C44.628 112.597 45.5223 112.283 46.4525 112.181C47.9116 112.049 49.3712 112.431 50.5781 113.261C50.9019 113.159 51.1859 112.958 51.391 112.687C51.596 112.417 51.712 112.089 51.723 111.749V110.842L51.8634 106.825C51.8706 106.605 51.8344 106.386 51.7568 106.18C51.6793 105.974 51.562 105.785 51.4115 105.625C51.261 105.464 51.0804 105.335 50.88 105.244C50.6795 105.154 50.4632 105.103 50.2433 105.096L37.3911 104.643C37.1703 104.634 36.9501 104.669 36.7429 104.746C36.5358 104.823 36.346 104.94 36.1843 105.091C36.0227 105.241 35.8925 105.423 35.8011 105.624C35.7098 105.825 35.6592 106.042 35.6523 106.263L35.5119 110.248L35.5335 111.145Z" fill="#FBE225" stroke="#231F20" stroke-miterlimit="10"/>
<path d="M149.033 44.1835C149.033 44.2375 149.108 44.3023 149.152 44.3671C152.207 42.6701 154.618 40.0128 156.01 36.807L155.913 36.5586C154.526 39.7914 152.106 42.473 149.033 44.1835Z" stroke="#231F20" stroke-miterlimit="10"/>
<path d="M133.805 35.3379C133.805 35.3919 133.805 35.4567 133.805 35.5107C136.823 35.8314 139.743 36.7728 142.38 38.2755C144.701 39.5447 146.743 41.2672 148.385 43.3408L148.32 43.2436C146.667 41.1325 144.602 39.3797 142.25 38.0919C139.651 36.6114 136.777 35.6744 133.805 35.3379Z" stroke="#231F20" stroke-miterlimit="10"/>
<path d="M90.3988 42.3575C91.3481 43.6829 92.5126 44.8401 93.844 45.7811C99.9245 50.1012 107.506 48.5136 112.064 45.4895C114.777 43.6204 116.897 41.012 118.172 37.9738C119.447 34.9356 119.824 31.5953 119.257 28.3496H119.16C119.696 31.5784 119.301 34.8932 118.021 37.9057C116.742 40.9183 114.63 43.5039 111.934 45.3599C107.377 48.384 99.7949 49.9392 93.7144 45.6515C92.4413 44.7365 91.3221 43.6246 90.3988 42.3575Z" stroke="#231F20" stroke-miterlimit="10"/>
<path d="M57.512 75.7197C57.512 75.7197 58.3004 77.1454 60.1148 80.5258M37.6936 59.4006C37.8367 59.5995 38.0208 59.7653 38.2336 59.8866M151.171 28.2421L151.279 28.4257M155.891 36.5906L156.01 36.7958M78.0432 9.41732C77.0752 7.33821 75.4234 5.65396 73.3636 4.64565C71.3037 3.63734 68.9603 3.36597 66.7245 3.87682" stroke="#231F20" stroke-linecap="round" stroke-linejoin="round"/>
<path d="M6.30806 66.507C6.33325 66.4649 6.36217 66.4251 6.39446 66.3882L6.49166 66.2694C11.1033 60.6425 17.9507 59.4005 21.828 58.7093C25.0356 58.1194 28.3165 58.0428 31.5481 58.4825C33.7082 58.9577 35.5874 59.5625 37.391 59.7893L38.1146 60.0269C39.5924 60.5333 41.0355 61.1358 42.4347 61.8305C47.1273 64.2355 51.2544 67.6115 54.5417 71.7343C55.179 72.4903 55.7622 73.2463 56.313 73.9915C56.0862 73.6675 55.773 73.2247 55.2977 72.5983C55.2977 72.5983 54.6929 71.7991 54.0881 71.0755C50.7798 66.9592 46.6489 63.5787 41.9595 61.1501C39.6267 60.0701 38.8059 60.1457 38.2226 59.8325C42.0351 59.8325 39.9399 53.5144 44.4868 41.9582C49.3684 29.5595 53.1269 25.6607 58.4514 20.6278C59.715 19.4397 60.8275 18.4677 61.5943 17.9061C60.2527 15.9882 59.6715 13.6403 59.9634 11.318C59.9634 11.318 59.9634 11.2316 59.9634 11.1884C60.2842 9.47142 61.0827 7.8797 62.2671 6.59593C63.4515 5.31217 64.9739 4.3884 66.6596 3.93066C68.5719 3.97091 70.4564 4.39704 72.2001 5.18349C73.1397 5.59389 76.5201 7.00872 78.043 9.41716C78.0685 9.45067 78.0902 9.48689 78.1078 9.52516C81.8014 8.44515 85.3115 7.67833 88.422 7.03032C95.0209 5.6587 105.097 3.56346 123.717 7.19232L123.955 7.27872C126.968 8.35874 132.195 10.3028 135.068 12.5276L135.198 12.6248C142.639 18.4137 148.233 23.9866 151.16 28.2419L133.156 27.9395C132.855 30.4143 133.042 32.9241 133.707 35.3268H133.794C133.794 35.3808 133.794 35.4456 133.794 35.4996C136.812 35.8204 139.732 36.7617 142.369 38.2645C144.69 39.5336 146.732 41.2561 148.374 43.3298C148.404 43.3509 148.427 43.3812 148.439 43.4162C148.628 43.6586 148.805 43.9109 148.968 44.1722C148.968 44.2262 149.043 44.291 149.087 44.3558C152.142 42.6587 154.553 40.0015 155.945 36.7957C157.619 40.7593 159.185 46.3322 160.654 55.9336C161.507 61.4417 162.349 68.2782 163.192 76.886C164.844 93.0323 165.168 102.601 165.319 109.924C165.514 119.352 165.417 124.958 167.317 135.909C161.73 135.16 156.067 135.16 150.48 135.909C144.961 136.579 135.986 136.492 128.966 143.07L134.301 108.282C134.479 107.106 134.401 105.905 134.074 104.761L130.23 91.4231H130.305L133.545 84.2301H133.318L133.383 84.0249L117.183 85.9581L120.261 91.2178L122.259 108.779L123.145 141.482H123.08C121.836 141.417 120.592 141.621 119.434 142.082C118.277 142.542 117.232 143.248 116.373 144.15C113.522 147.498 115.088 152.109 115.368 152.876C115.853 154.223 116.628 155.447 117.636 156.462C112.809 164.13 109.839 173.029 107.657 185.46C107.665 185.5 107.665 185.54 107.657 185.579C107.506 185.936 106.836 183.851 106.091 181.345C103.324 169.28 98.8392 157.674 92.7744 146.882C93.2064 146.709 93.6817 146.493 94.1677 146.245C95.1596 146.993 96.0492 147.868 96.8137 148.848V148.913L96.8785 148.999L97.4185 149.766C98.2237 151.169 98.8514 152.668 99.287 154.226V154.421C99.287 154.421 99.395 154.982 99.449 155.501C99.557 156.656 98.9629 158.6 99.3734 158.741C99.4224 158.757 99.4755 158.757 99.5246 158.741C99.5298 158.802 99.5298 158.863 99.5246 158.924L101.814 158.87C102.389 159.014 102.99 159.014 103.564 158.87H103.996C103.996 158.73 103.996 158.589 103.996 158.438C104.07 158.082 104.07 157.714 103.996 157.358C103.91 156.044 103.678 154.744 103.305 153.481L105.335 153.049C105.335 152.963 105.335 152.865 105.335 152.757C105.713 152.228 105.238 150.597 104.579 149.01C104.132 147.584 103.481 146.231 102.646 144.992L102.225 144.366L101.836 143.836L101.598 143.545C100.585 142.211 99.3281 141.083 97.8937 140.218C97.6487 140.019 97.3887 139.838 97.1161 139.678C97.1161 139.678 96.8677 139.581 96.7705 139.527C97.0152 139.007 97.1372 138.438 97.1269 137.864L96.6625 111.004L96.4465 96.4235C96.4854 95.0967 96.1882 93.7815 95.5825 92.6003C95.5477 92.4936 95.4927 92.3946 95.4205 92.3087C95.3373 92.1478 95.2435 91.9927 95.1397 91.8443L95.0533 91.7039L94.9345 91.5419L94.8157 91.3799L94.6861 91.2178C94.3833 90.8259 94.0433 90.4643 93.6709 90.1378C93.3681 89.84 93.0432 89.5656 92.6988 89.317C92.0562 88.886 91.3539 88.5512 90.6144 88.3234C89.8153 88.1009 88.9919 87.9775 88.1627 87.9562C87.4283 87.9562 86.9747 87.9562 86.4887 87.9562C85.2663 87.9404 84.0466 87.8394 82.8382 87.6538C77.0709 86.9518 53.5157 86.779 53.5157 86.779C48.3208 86.779 40.7067 86.6278 31.2565 86.2822V86.833C31.2609 89.2499 30.8102 91.6461 29.9281 93.8963L29.8093 94.1555C29.0857 95.6891 26.5692 100.636 21.1691 101.899L20.6507 102.007C18.5268 102.302 16.363 102.08 14.3434 101.359C14.0194 101.251 13.7062 101.132 13.4038 101.014H13.3498C13.1014 100.906 12.8638 100.798 12.637 100.679L12.3346 100.517C12.1078 100.404 11.8878 100.278 11.6758 100.139C10.3185 99.3049 9.1102 98.25 8.1009 97.0176C7.32932 96.0857 6.64598 95.0842 6.05966 94.0259C4.7888 91.6421 3.84086 89.0997 3.24081 86.4658C3.24081 86.239 3.15441 86.0338 3.11121 85.8394C3.06801 85.645 3.11121 85.6666 3.05721 85.5693C3.00321 85.4721 3.0572 85.3101 2.9708 85.1589C2.94785 84.9881 2.9154 84.8186 2.87361 84.6513V84.4245C2.87361 84.2085 2.84121 84.0249 2.77641 83.8737C2.77641 83.7765 2.77641 83.6793 2.77641 83.5713C2.77641 83.4633 2.77641 83.4957 2.77641 83.4633L2.71159 83.0421C2.71159 82.7721 2.63599 82.4697 2.59279 82.1457C2.59279 82.0701 2.59279 82.0053 2.59279 81.9297C2.08518 77.7608 2.31199 71.7235 6.30806 66.507ZM128.134 42.617L128.221 42.7358C128.38 42.9686 128.557 43.1889 128.75 43.3946C130.629 45.371 134.01 44.8526 135.986 43.7942C136.661 43.4664 137.272 43.0201 137.79 42.4766C138.05 42.1767 138.196 41.7938 138.2 41.3965C138.185 41.0947 138.072 40.8062 137.876 40.5757C137.85 40.5282 137.817 40.4846 137.779 40.4461C137.056 39.6976 136.146 39.1568 135.144 38.8801C132.13 37.8973 128.048 38.7829 127.583 40.7161C127.54 41.0538 127.567 41.3968 127.661 41.7238C127.756 42.0508 127.917 42.3548 128.134 42.617ZM89.988 41.7746C90.1176 41.9798 90.258 42.1742 90.3984 42.3578C91.3478 43.6832 92.5123 44.8404 93.8437 45.7814C99.9242 50.1015 107.506 48.5139 112.064 45.4898C114.777 43.6207 116.897 41.0123 118.172 37.9741C119.447 34.9359 119.823 31.5956 119.257 28.3499H119.159V28.1663L88.2815 27.0863C87.3895 29.496 87.0791 32.0824 87.3757 34.6348C87.6722 37.1872 88.5672 39.6335 89.988 41.7746ZM57.5118 75.7196C57.4083 75.4907 57.2699 75.2794 57.1014 75.0932C57.2418 75.2984 57.3822 75.5036 57.5118 75.7196ZM56.9502 74.9096C56.8771 74.774 56.794 74.6441 56.7018 74.5207C56.7882 74.6827 56.8638 74.8016 56.9502 74.9096Z" fill="#D3756B" stroke="#231F20" stroke-linecap="round" stroke-linejoin="round"/>
<path d="M133.805 35.3378C136.792 35.6686 139.681 36.6058 142.294 38.0919C144.641 39.367 146.706 41.1048 148.363 43.2004L148.428 43.2976C148.458 43.3187 148.481 43.349 148.493 43.384C148.683 43.6264 148.859 43.8787 149.022 44.14C152.077 42.4423 154.487 39.7852 155.88 36.5798L155.978 36.8282L156.064 36.7202C157.202 34.1424 157.738 31.3389 157.63 28.5229L151.323 28.4149L133.297 28.0801C132.999 30.5095 133.171 32.9736 133.805 35.3378Z" fill="#20262E" stroke="#231F20" stroke-linecap="round" stroke-linejoin="round"/>
<path d="M89.9878 41.7752C90.1174 41.9804 90.2578 42.1748 90.3982 42.3584C91.3259 43.6063 92.4449 44.6998 93.7139 45.5984C99.7944 49.9185 107.376 48.3309 111.934 45.3068C114.62 43.455 116.726 40.8782 118.005 37.8763C119.284 34.8744 119.684 31.571 119.159 28.3505L88.3786 27.2705C87.5044 29.6475 87.1947 32.1952 87.474 34.7125C87.7533 37.2297 88.6139 39.6476 89.9878 41.7752Z" fill="#20262E" stroke="#231F20" stroke-linecap="round" stroke-linejoin="round"/>
<path d="M149.152 44.3672C152.705 49.7673 152.392 55.7938 152.165 59.4227C151.81 65.1902 149.976 70.7693 146.841 75.623" stroke="#231F20" stroke-miterlimit="10"/>
<path d="M133.848 35.511C132.771 35.396 131.69 35.3384 130.608 35.3382C127.799 35.3238 125.006 35.7577 122.335 36.6235" stroke="#231F20" stroke-miterlimit="10"/>
<path d="M128.134 42.6169L128.22 42.7357C128.345 42.9013 128.478 43.0599 128.62 43.2109C130.499 45.1873 133.88 44.6689 135.856 43.6105C136.547 43.2871 137.172 42.8406 137.703 42.2929C137.964 41.993 138.109 41.6101 138.113 41.2128C138.098 40.9883 138.032 40.7703 137.919 40.5756C137.893 40.5281 137.86 40.4845 137.822 40.446C137.105 39.7848 136.249 39.2938 135.316 39.0096C132.303 38.0268 128.22 38.9124 127.756 40.8456C127.699 41.1512 127.704 41.4649 127.769 41.7689C127.834 42.0728 127.958 42.3609 128.134 42.6169Z" fill="#20262E" stroke="#231F20" stroke-linecap="round" stroke-linejoin="round"/>
<path d="M128.221 42.7362C128.38 42.969 128.557 43.1893 128.75 43.395C130.629 45.3715 134.01 44.853 135.986 43.7946C136.661 43.4668 137.272 43.0205 137.79 42.477C138.05 42.1771 138.196 41.7943 138.2 41.397C138.186 41.0952 138.072 40.8066 137.876 40.5762C137.989 40.7709 138.055 40.9889 138.071 41.2134C138.066 41.6107 137.921 41.9935 137.66 42.2934C137.143 42.8369 136.532 43.2832 135.857 43.611C133.88 44.691 130.456 45.1879 128.62 43.2114C128.479 43.0605 128.345 42.9018 128.221 42.7362Z" stroke="#231F20" stroke-miterlimit="10"/>
<path d="M120.261 91.2183L120.369 91.4019H130.305L133.545 84.209L133.318 84.2306V84.2414L130.175 91.2183H120.261Z" stroke="#231F20" stroke-miterlimit="10"/>
<path d="M120.239 91.2178L122.259 108.779L123.144 141.482C125.098 141.469 127.016 142 128.685 143.016H128.966L134.301 108.228C134.471 107.069 134.393 105.888 134.074 104.761L130.229 91.423H120.369L120.261 91.2394L120.239 91.2178Z" fill="#3E6D9C" stroke="#231F20" stroke-linecap="round" stroke-linejoin="round"/>
<path d="M120.261 91.2178L120.369 91.4014H130.229L130.175 91.2178H120.261Z" stroke="#231F20" stroke-linecap="round" stroke-linejoin="round"/>
<path opacity="0.21" d="M117.182 85.9586L120.26 91.2183L122.259 108.779L122.896 132.205L123.144 141.482C123.694 141.496 124.242 141.543 124.786 141.623H124.851C125.287 141.688 125.72 141.778 126.147 141.893C127.04 142.1 127.889 142.466 128.652 142.973L128.825 143.102L128.933 142.994L129.03 142.325L130.413 133.361L134.268 108.207C134.366 107.582 134.388 106.947 134.333 106.317C134.333 106.09 134.333 105.874 134.247 105.647L134.182 105.259C134.183 105.233 134.183 105.208 134.182 105.183C134.182 105.183 134.182 105.183 134.182 105.118C134.156 104.968 134.12 104.82 134.074 104.675L131.698 96.424L130.229 91.3371V91.1535L133.318 84.2414L133.383 84.0254L117.182 85.9586Z" stroke="#231F20" stroke-miterlimit="10"/>
<path opacity="0.21" d="M90.3982 42.3583C91.3476 43.6837 92.5121 44.8409 93.8435 45.7819C95.5586 46.9628 97.4991 47.7766 99.5434 48.1724C101.588 48.5683 103.692 48.5376 105.724 48.0824C106.059 48.0176 106.383 47.942 106.707 47.8556L107.463 47.618C107.884 47.4884 108.305 47.348 108.705 47.186L109.029 47.0564C109.288 46.9592 109.536 46.8511 109.785 46.7323C110.56 46.3754 111.307 45.9602 112.02 45.4903C113.226 44.6927 114.316 43.7333 115.26 42.6391C115.401 42.4771 115.541 42.3151 115.66 42.1531C115.779 41.9911 115.93 41.8183 116.049 41.6563V41.5915C116.232 41.3322 116.416 41.073 116.578 40.8138C116.74 40.5546 116.902 40.3062 117.042 40.0578L117.15 39.8742C117.377 39.4746 117.572 39.0966 117.744 38.7942C117.917 38.4918 117.928 38.4054 118.004 38.2218L118.263 37.617L118.49 37.0338L118.652 36.7206C119.526 34.0315 119.734 31.17 119.256 28.3828H119.159C119.596 31.1129 119.378 33.9078 118.522 36.537C118.125 37.7297 117.604 38.8773 116.967 39.9606C116.837 40.1982 116.675 40.4466 116.513 40.695C116.351 40.9434 116.167 41.2134 115.962 41.4835C115.392 42.2601 114.752 42.9831 114.051 43.6435C113.859 43.8447 113.653 44.0324 113.435 44.2051C112.969 44.5963 112.479 44.9571 111.966 45.2851C111.078 45.8734 110.134 46.3726 109.147 46.7755H109.061L108.672 46.9375C108.262 47.0996 107.83 47.2508 107.398 47.3804C105.138 48.1382 102.733 48.3649 100.371 48.0427C98.0092 47.7205 95.7533 46.8582 93.7787 45.5227C92.4924 44.6523 91.3516 43.5843 90.3982 42.3583Z" stroke="#231F20" stroke-miterlimit="10"/>
<path opacity="0.21" d="M123.857 7.3765L135.208 12.7118V12.6254C135.184 12.2116 135.129 11.8002 135.046 11.3942C134.96 10.9761 134.845 10.5646 134.7 10.163C134.475 9.53551 134.151 8.94839 133.739 8.42412C133.025 7.4942 132.094 6.75273 131.028 6.26408C130.271 5.86086 129.439 5.61907 128.584 5.554C127.729 5.48894 126.869 5.60201 126.06 5.88607C125.287 6.21178 124.577 6.67258 123.965 7.2469L123.857 7.3765Z" fill="#841618"/>
<path opacity="0.21" d="M59.9417 11.3184C59.8147 13.7033 60.4297 16.069 61.7021 18.0901" stroke="#231F20" stroke-miterlimit="10"/>
<path opacity="0.21" d="M66.7246 3.87731C65.4051 3.85058 64.1089 4.22738 63.0093 4.95733C61.5909 6.05149 60.6134 7.61936 60.2553 9.37461C60.1006 9.98304 60.0066 10.6053 59.9745 11.2322" stroke="#231F20" stroke-miterlimit="10"/>
<path opacity="0.21" d="M78.0429 9.41699C78.0806 9.44239 78.1075 9.48087 78.1185 9.52499C78.1642 9.58202 78.204 9.64353 78.2373 9.7086" stroke="#231F20" stroke-miterlimit="10"/>
<path opacity="0.21" d="M31.6451 86.6279C31.7315 86.6927 31.8071 86.7683 31.8935 86.8223L34.4531 86.8871C34.4474 86.8152 34.4474 86.743 34.4531 86.6711L31.6451 86.6279Z" stroke="#231F20" stroke-miterlimit="10"/>
<path opacity="0.21" d="M31.2022 86.2607L31.645 86.6279H34.4639" stroke="#231F20" stroke-miterlimit="10"/>
<path opacity="0.21" d="M6.30762 66.5068C6.05921 66.8092 5.8216 67.1224 5.5948 67.4573C1.95513 72.7385 2.11715 78.5383 2.50596 81.9403" stroke="#231F20" stroke-miterlimit="10"/>
<path opacity="0.21" d="M31.5799 58.4609C33.5635 58.7168 35.5193 59.1543 37.4229 59.7678" stroke="#231F20" stroke-miterlimit="10"/>
<path opacity="0.21" d="M56.5176 74.2838L56.3232 73.9922" stroke="#231F20" stroke-miterlimit="10"/>
<path opacity="0.21" d="M57.0368 75.0176L57.1016 75.0932" stroke="#231F20" stroke-miterlimit="10"/>
<path opacity="0.21" d="M60.6221 81.2926C59.7241 79.3608 58.6844 77.4981 57.5116 75.7197" stroke="#231F20" stroke-miterlimit="10"/>
<path d="M8.10066 109.168H8.38146L33.8051 110.162L35.5656 110.227L35.706 106.382V106.241C35.7129 106.021 35.7635 105.803 35.8548 105.602C35.9461 105.401 36.0764 105.22 36.238 105.069C36.3997 104.919 36.5895 104.802 36.7966 104.725C37.0037 104.648 37.224 104.613 37.4448 104.621L40.5012 104.762L50.2214 105.107C50.4413 105.114 50.6576 105.165 50.8581 105.255C51.0585 105.346 51.2391 105.475 51.3896 105.636C51.54 105.796 51.6574 105.985 51.7349 106.191C51.8125 106.396 51.8487 106.616 51.8415 106.835L51.7011 110.853L80.8616 111.933C81.2697 111.93 81.6746 111.861 82.0604 111.728C82.5592 111.562 83.001 111.259 83.3348 110.853C83.6235 110.506 83.8335 110.101 83.9504 109.665C84.1327 109.075 84.1843 108.452 84.1016 107.84L84.0368 107.44V98.8V94.7176C83.947 93.7562 84.1469 92.7899 84.6107 91.943C85.0746 91.0961 85.7812 90.4074 86.6397 89.9655C86.8042 89.886 86.9738 89.8174 87.1473 89.7603L88.0761 89.5119L89.8041 89.0583C90.6036 89.0333 91.4019 89.1354 92.1694 89.3607C92.3274 89.405 92.4825 89.4591 92.6338 89.5227C91.8781 89.0222 91.0413 88.6568 90.1606 88.4426C89.4884 88.2593 88.7944 88.1685 88.0977 88.1726H86.7153H86.4237L82.7732 87.8702L53.4507 86.9954L36.6672 86.7578H34.3235C34.3179 86.8297 34.3179 86.9019 34.3235 86.9738L31.7639 86.909H31.0727C31.0771 89.326 30.6264 91.7221 29.7442 93.9723L29.6254 94.2315L29.5282 94.4368C28.681 96.4874 27.3509 98.3029 25.651 99.7288C24.7943 100.441 23.8325 101.017 22.7997 101.435C22.0501 101.742 21.2671 101.959 20.4669 102.083C18.6051 102.354 16.7067 102.214 14.9048 101.673L14.1596 101.435C13.8356 101.327 13.5224 101.208 13.22 101.09H13.166C12.9175 100.982 12.6799 100.874 12.4531 100.755L12.1507 100.593C11.9239 100.48 11.7039 100.354 11.4919 100.215C10.1942 99.342 9.0485 98.262 8.10066 97.018C7.32909 96.0861 6.64574 95.0846 6.05942 94.0263V94.3503L5.1414 105.151C5.0694 105.609 5.08902 106.077 5.19911 106.528C5.3092 106.979 5.50758 107.403 5.78278 107.777C6.05797 108.15 6.40454 108.466 6.8024 108.705C7.20025 108.943 7.64151 109.101 8.10066 109.168Z" fill="#841618" stroke="#231F20" stroke-miterlimit="10"/>
<path opacity="0.21" d="M31.2024 86.6172V86.8116H31.8612L34.4209 86.8764C34.4152 86.8045 34.4152 86.7323 34.4209 86.6604H31.602H31.1592L31.2024 86.6172Z" stroke="#231F20" stroke-miterlimit="10"/>
<path opacity="0.21" d="M35.5335 111.145C35.5263 111.364 35.5625 111.584 35.64 111.789C35.7175 111.995 35.8349 112.184 35.9853 112.344C36.1358 112.505 36.3164 112.634 36.5168 112.725C36.7173 112.815 36.9336 112.866 37.1535 112.873L43.8388 113.099C44.628 112.597 45.5223 112.283 46.4525 112.181C47.9116 112.049 49.3712 112.431 50.5781 113.261C50.9019 113.159 51.1859 112.958 51.391 112.687C51.596 112.417 51.712 112.089 51.723 111.749V110.842L51.8634 106.825C51.8706 106.605 51.8344 106.386 51.7568 106.18C51.6793 105.974 51.562 105.785 51.4115 105.625C51.261 105.464 51.0804 105.335 50.88 105.244C50.6795 105.154 50.4632 105.103 50.2433 105.096L40.5232 104.751L37.4343 104.643C37.2136 104.634 36.9933 104.669 36.7861 104.746C36.579 104.823 36.3892 104.94 36.2275 105.091C36.0659 105.241 35.9357 105.423 35.8443 105.624C35.753 105.825 35.7024 106.042 35.6955 106.263V106.403L35.5551 110.248L35.5335 111.145Z" fill="#841618"/>
<path opacity="0.21" d="M149.033 44.1832C149.068 44.226 149.097 44.2732 149.119 44.3236L149.616 44.0428C149.825 43.9248 150.027 43.795 150.221 43.654L150.318 43.5892C150.442 43.5138 150.561 43.4308 150.674 43.3408C150.847 43.2244 151.013 43.0982 151.171 42.9628C151.279 42.8893 151.38 42.8062 151.474 42.7144L151.787 42.4336C151.984 42.2793 152.168 42.1096 152.338 41.926C152.521 41.764 152.694 41.5804 152.867 41.3968L152.953 41.2996C153.212 41.0188 153.472 40.7164 153.72 40.4032C154.225 39.7549 154.68 39.0689 155.081 38.3511C155.178 38.1999 155.264 38.0379 155.351 37.8759L155.534 37.5195C155.642 37.3035 155.75 37.0875 155.848 36.8607L155.75 36.6123C155.198 37.8693 154.491 39.0521 153.644 40.1332C153.188 40.716 152.694 41.268 152.165 41.7856L151.679 42.2392L151.387 42.4984C151.011 42.8115 150.618 43.1035 150.21 43.3732C150.08 43.4704 149.94 43.5568 149.8 43.6432H149.735L149.411 43.8484L149.27 43.924C149.198 43.9572 149.13 43.9969 149.065 44.0428L149.033 44.1832Z" stroke="#231F20" stroke-miterlimit="10"/>
<path opacity="0.21" d="M133.805 35.3379C133.805 35.3919 133.805 35.4567 133.805 35.5107C136.823 35.8314 139.743 36.7728 142.38 38.2755L142.564 38.3835C142.931 38.5995 143.395 38.8696 143.924 39.226L144.216 39.4312L144.594 39.7012C144.983 39.982 145.393 40.2952 145.814 40.6624L146.225 41.0188C146.365 41.1376 146.495 41.2672 146.635 41.4076C146.776 41.548 147.024 41.7856 147.208 41.98C147.596 42.3904 147.985 42.844 148.363 43.33L148.298 43.2328C147.192 41.7913 145.878 40.5212 144.4 39.4636C143.644 38.9236 142.974 38.5131 142.477 38.2215L142.229 38.0811C139.635 36.6071 136.769 35.6739 133.805 35.3379Z" stroke="#231F20" stroke-miterlimit="10"/>
<path opacity="0.21" d="M90.3982 42.3583C91.3476 43.6837 92.5121 44.8409 93.8435 45.7819C95.5586 46.9628 97.4991 47.7766 99.5434 48.1724C101.588 48.5683 103.692 48.5376 105.724 48.0824C106.059 48.0176 106.383 47.942 106.707 47.8556L107.463 47.618C107.884 47.4884 108.305 47.348 108.705 47.186L109.029 47.0564C109.288 46.9592 109.536 46.8511 109.785 46.7323C110.56 46.3754 111.307 45.9602 112.02 45.4903C113.226 44.6927 114.316 43.7333 115.26 42.6391C115.401 42.4771 115.541 42.3151 115.66 42.1531C115.779 41.9911 115.93 41.8183 116.049 41.6563V41.5915C116.232 41.3322 116.416 41.073 116.578 40.8138C116.74 40.5546 116.902 40.3062 117.042 40.0578L117.15 39.8742C117.377 39.4746 117.572 39.0966 117.744 38.7942C117.917 38.4918 117.928 38.4054 118.004 38.2218L118.263 37.617L118.49 37.0338L118.652 36.7206C119.526 34.0315 119.734 31.17 119.256 28.3828H119.159C119.596 31.1129 119.378 33.9078 118.522 36.537C118.125 37.7297 117.604 38.8773 116.967 39.9606C116.837 40.1982 116.675 40.4466 116.513 40.695C116.351 40.9434 116.167 41.2134 115.962 41.4835C115.392 42.2601 114.752 42.9831 114.051 43.6435C113.859 43.8447 113.653 44.0324 113.435 44.2051C112.969 44.5963 112.479 44.9571 111.966 45.2851C111.078 45.8734 110.134 46.3726 109.147 46.7755H109.061L108.672 46.9375C108.262 47.0996 107.83 47.2508 107.398 47.3804C105.138 48.1382 102.733 48.3649 100.371 48.0427C98.0092 47.7205 95.7533 46.8582 93.7787 45.5227C92.4924 44.6523 91.3516 43.5843 90.3982 42.3583Z" stroke="#231F20" stroke-miterlimit="10"/>
<path opacity="0.21" d="M57.512 75.7197C57.512 75.7197 58.3004 77.1454 60.1148 80.5258M37.6936 59.4006C37.8367 59.5995 38.0208 59.7653 38.2336 59.8866M151.171 28.2421L151.279 28.4257M155.891 36.5906L156.01 36.7958M78.0432 9.41732C77.0752 7.33821 75.4234 5.65396 73.3636 4.64565C71.3037 3.63734 68.9603 3.36597 66.7245 3.87682" stroke="#231F20" stroke-linecap="round" stroke-linejoin="round"/>
<path opacity="0.21" d="M116.102 41.5912V41.6884M143.967 39.226L142.714 38.6212L142.606 38.3836C142.973 38.5996 143.438 38.8804 143.967 39.226ZM149.032 28.0802V28.1666L146.073 28.1126L142.833 28.0586L149.032 28.0802ZM153.017 41.3536L153.104 41.2564C153.363 40.9756 153.622 40.6732 153.871 40.36L153.968 40.6084L153.017 41.3536Z" stroke="#231F20" stroke-linecap="round" stroke-linejoin="round"/>
<path opacity="0.21" d="M89.9877 41.7745C90.1173 41.9797 90.2577 42.1741 90.3981 42.3577C91.3258 43.6056 92.4448 44.6991 93.7137 45.5977C95.6883 46.9332 97.9443 47.7955 100.306 48.1177C102.668 48.4399 105.073 48.2132 107.333 47.4554C107.765 47.3258 108.197 47.1746 108.607 47.0126L108.996 46.8506H109.082C110.08 46.4496 111.035 45.9503 111.934 45.3601C112.446 45.0321 112.937 44.6713 113.402 44.2801C113.62 44.1074 113.826 43.9197 114.018 43.7185C114.72 43.0582 115.36 42.3351 115.93 41.5585C116.135 41.2885 116.319 41.0293 116.481 40.7701C116.643 40.5109 116.805 40.2732 116.934 40.0356C117.57 38.9591 118.091 37.8189 118.489 36.6336C119.345 34.0045 119.563 31.2096 119.127 28.4794L88.346 27.3994C87.4977 29.7607 87.2045 32.2857 87.4891 34.7785C87.7738 37.2714 88.6288 39.6652 89.9877 41.7745Z" stroke="#231F20" stroke-linecap="round" stroke-linejoin="round"/>
<path opacity="0.21" d="M146.84 75.5998V75.5898" stroke="#231F20" stroke-miterlimit="10"/>
<path opacity="0.21" d="M133.848 35.511C132.771 35.396 131.69 35.3384 130.608 35.3382C127.799 35.3238 125.006 35.7577 122.335 36.6235" stroke="#231F20" stroke-miterlimit="10"/>
<path opacity="0.21" d="M128.134 42.6169L128.22 42.7357C128.345 42.9013 128.478 43.0599 128.62 43.2109C130.499 45.1873 133.88 44.6689 135.856 43.6105C136.547 43.2871 137.172 42.8406 137.703 42.2929C137.964 41.993 138.109 41.6101 138.113 41.2128C138.098 40.9883 138.032 40.7703 137.919 40.5756C137.893 40.5281 137.86 40.4845 137.822 40.446C137.105 39.7848 136.249 39.2938 135.316 39.0096C132.303 38.0268 128.22 38.9124 127.756 40.8456C127.699 41.1512 127.704 41.4649 127.769 41.7689C127.834 42.0728 127.958 42.3609 128.134 42.6169Z" stroke="#231F20" stroke-miterlimit="10"/>
<path opacity="0.21" d="M128.221 42.7362C128.38 42.969 128.557 43.1893 128.75 43.395C130.629 45.3715 134.01 44.853 135.986 43.7946C136.661 43.4668 137.272 43.0205 137.79 42.477C138.05 42.1771 138.196 41.7943 138.2 41.397C138.186 41.0952 138.072 40.8066 137.876 40.5762C137.989 40.7709 138.055 40.9889 138.071 41.2134C138.066 41.6107 137.921 41.9935 137.66 42.2934C137.143 42.8369 136.532 43.2832 135.857 43.611C133.88 44.691 130.456 45.1879 128.62 43.2114C128.479 43.0605 128.345 42.9018 128.221 42.7362Z" stroke="#231F20" stroke-miterlimit="10"/>
<path opacity="0.21" d="M117.291 86.1422L120.261 91.2183L120.369 91.4019H130.305L132.875 85.6994V85.6886L133.545 84.209L133.318 84.2306V84.2414L121.751 85.613L117.291 86.1422Z" stroke="#231F20" stroke-miterlimit="10"/>
<path opacity="0.21" d="M120.239 91.2182L122.259 108.779L122.896 132.205L123.144 141.482C123.694 141.496 124.242 141.543 124.786 141.623H124.851C125.287 141.688 125.72 141.778 126.147 141.893C127.04 142.1 127.889 142.465 128.652 142.973H128.933L129.03 142.303L130.413 133.339L134.268 108.185C134.366 107.56 134.388 106.926 134.333 106.295C134.333 106.069 134.333 105.853 134.247 105.626L134.182 105.237C134.183 105.212 134.183 105.186 134.182 105.161C134.182 105.161 134.182 105.161 134.182 105.096C134.156 104.947 134.12 104.799 134.074 104.654L131.698 96.4023L130.229 91.3154V91.1318L120.239 91.2182Z" stroke="#231F20" stroke-linecap="round" stroke-linejoin="round"/>
<path opacity="0.21" d="M142.844 28.0801H146.084L149.043 28.1341L153.763 40.0143C153.307 40.5971 152.812 41.1492 152.283 41.6667L151.797 42.1203L152.337 41.7099L153.061 41.1699L153.925 40.5219L153.828 40.2735V40.2195L153.752 40.0467L149.032 28.1665V28.0801H142.844Z" fill="#E6E7E8"/>
<path opacity="0.69" d="M138.2 28.3281L142.542 38.2319L142.606 38.3831L142.714 38.6207L143.967 39.2255L143.989 39.2363L144.464 39.4739L144.604 39.5387L139.863 28.4253L138.2 28.3281Z" fill="#E6E7E8"/>
<path opacity="0.69" d="M108.607 47.0125L114.126 43.7616L107.052 28.1229L99.9345 27.9609L108.607 47.0125Z" fill="#E6E7E8"/>
<path opacity="0.69" d="M110.195 28.3712L115.962 41.4286L116.07 41.6555L116.081 41.6878L116.113 41.5906L116.146 41.5366L116.513 40.6402L117.204 38.9554L112.247 28.3496L110.195 28.3712Z" fill="#E6E7E8"/>
<path opacity="0.69" d="M142.865 28.1445L149.529 43.2L149.767 43.74H149.831L151.808 42.228L152.294 41.7744C152.823 41.2568 153.317 40.7048 153.773 40.122L149.054 28.2417L146.094 28.1877H142.854L142.865 28.1445Z" fill="#E6E7E8"/>
<path opacity="0.21" d="M142.844 28.1445L149.519 43.2L149.746 43.7184L150.232 43.3512L151.409 42.4764L152.273 41.8284L152.878 41.3748L153.839 40.662L153.742 40.4136L153.644 40.176C153.188 40.7588 152.694 41.3108 152.165 41.8284L151.679 42.282L149.713 43.7616H149.648L149.411 43.2216L142.747 28.1553L142.844 28.1445Z" fill="#E6E7E8"/>
<path opacity="0.3" d="M146.84 75.6009C152.824 74.0996 157.468 64.8007 157.468 56.5601C157.468 56.1209 157.468 55.6889 157.468 55.2641C157.263 50.944 156.042 46.4943 153.979 43.5999C155.34 41.9258 156.528 39.7874 156.582 38.1998V38.135C156.582 36.9793 156.431 36.5365 156.085 36.9469C155.942 37.1177 155.823 37.3065 155.729 37.5086L155.545 37.865C155.465 38.0286 155.375 38.1873 155.275 38.3402C154.853 39.0123 154.395 39.6612 153.904 40.2842C153.659 40.6082 153.4 40.9322 153.126 41.2562L153.072 41.3318L152.586 41.9042C151.886 42.7596 151.072 43.5154 150.167 44.1507C150.052 44.2441 149.918 44.3109 149.774 44.3464C149.63 44.3818 149.48 44.3851 149.335 44.3559C149.432 44.5269 149.519 44.7036 149.594 44.8851C149.875 45.3495 150.124 45.8031 150.35 46.2675V46.3539C150.437 46.5375 150.523 46.7211 150.599 46.9047C150.882 47.5288 151.124 48.171 151.322 48.8272C151.322 48.9568 151.409 49.0864 151.441 49.2268C151.603 49.7884 151.744 50.3068 151.852 50.89C151.852 51.052 151.916 51.2032 151.938 51.3544C152.003 51.6784 152.046 52.0024 152.089 52.3264V52.5748C152.089 52.6936 152.089 52.8124 152.089 52.9312C152.089 53.4388 152.186 53.9357 152.208 54.4217C152.208 54.5945 152.208 54.7781 152.208 54.9509C152.262 56.6141 152.208 58.1153 152.111 59.3466C151.787 65.1288 149.971 70.7285 146.84 75.6009Z" fill="#3C2A21"/>
<path opacity="0.3" d="M149.507 44.9393C149.432 44.7578 149.345 44.5811 149.248 44.4101C149.393 44.4393 149.543 44.436 149.687 44.4005C149.831 44.3651 149.965 44.2982 150.08 44.2049C150.985 43.5696 151.799 42.8138 152.499 41.9584C152.48 41.928 152.454 41.9022 152.423 41.8828L151.937 42.3364L149.972 43.816H149.907L149.669 43.276L149.475 43.9673C149.477 44.0032 149.477 44.0393 149.475 44.0753C149.453 44.1688 149.421 44.2594 149.378 44.3453C149.281 44.5613 149.399 44.7449 149.507 44.9393Z" fill="#3C2A21"/>
<path opacity="0.21" d="M89.9882 87.7295C90.9781 87.9415 91.929 88.3059 92.8071 88.8095C93.1467 89.0052 93.4716 89.2254 93.7791 89.4683C94.2067 89.788 94.6011 90.1498 94.9563 90.5483C95.0103 90.6027 95.0608 90.6604 95.1075 90.7211C95.1558 90.7709 95.1992 90.8251 95.2371 90.8831C95.2878 90.9336 95.3348 90.9878 95.3775 91.0452L95.4747 91.1964C95.5961 91.3452 95.7045 91.5042 95.7987 91.6716L95.9823 91.974C96.7018 93.1581 97.0759 94.5198 97.0624 95.9052L97.3108 110.928V118.629V138.264C97.3883 138.722 97.3398 139.192 97.1704 139.624C97.3313 139.201 97.3761 138.742 97.3 138.296V118.683V110.961L97.0516 95.9376C97.0651 94.5522 96.691 93.1905 95.9715 92.0064L95.7879 91.704C95.6937 91.5366 95.5853 91.3776 95.4639 91.2288L95.3667 91.0776C95.324 91.0202 95.277 90.966 95.2263 90.9155C95.1884 90.8575 95.145 90.8033 95.0967 90.7535C95.05 90.6928 94.9995 90.6351 94.9455 90.5807C94.5903 90.1822 94.1959 89.8204 93.7683 89.5007C93.4608 89.2578 93.1359 89.0376 92.7963 88.8419C91.9086 88.3342 90.9463 87.9697 89.945 87.7619L89.9882 87.7295Z" fill="#841618"/>
<path opacity="0.21" d="M32.1312 82.3832C32.8404 81.6856 33.6863 81.1423 34.6156 80.7873C35.5449 80.4323 36.5376 80.2733 37.5313 80.3204C43.3634 80.2016 48.3315 85.5153 47.7374 86.5845H45.4262L39.6049 86.4981L36.9265 86.4225H36.8077L32.4876 86.2821C31.6344 86.1633 31.3535 85.9689 31.1807 85.6665C30.4895 84.7161 31.4724 83.1608 32.1312 82.3832ZM45.5558 60.3724C44.9618 60.0916 42.4238 56.7651 42.8018 54.4863C44.1842 46.127 46.0418 42.9733 47.489 39.366C51.1935 29.8403 60.9245 19.1697 62.6093 19.9257C63.8945 20.5089 57.5548 27.691 54.0556 35.9424C52.0505 40.4714 50.4529 45.17 49.2819 49.9826C47.9643 55.1667 46.7978 60.9664 45.5558 60.3724ZM63.7541 7.14905C61.2485 8.88788 61.4537 12.4411 60.9029 12.3871C60.6113 12.3871 60.2333 11.3071 60.2765 10.0219C60.8312 8.24541 61.9214 6.68374 63.3977 5.55062C64.0997 5.46421 64.9638 5.69102 65.0286 6.04743C65.0934 6.40383 64.3374 6.74944 63.7541 7.14905ZM67.7178 5.70182C69.5884 5.7794 71.3717 6.51383 72.7544 7.77603C74.1371 9.03822 75.0306 10.7474 75.2779 12.6031C71.5195 14.0504 67.1778 16.0052 64.4778 18.1544C63.3733 16.6861 62.7848 14.894 62.8037 13.0568C62.7389 8.90948 64.2617 5.70182 67.7178 5.70182ZM96.8783 119.104C97.0318 118.961 97.1941 118.827 97.3644 118.704V138.317C97.4404 138.764 97.3957 139.223 97.2347 139.646L97.1052 139.57C97.1052 139.57 96.8567 139.473 96.7595 139.419C97.0042 138.899 97.1262 138.33 97.1159 137.756L96.8783 119.104ZM109.072 47.0558C109.331 46.9586 109.579 46.8398 109.828 46.7318C110.603 46.3748 111.351 45.9596 112.063 45.4897C113.269 44.6921 114.359 43.7327 115.303 42.6385C115.444 42.4765 115.584 42.3145 115.703 42.1525C115.822 41.9905 115.973 41.8177 116.092 41.6557V41.5585C116.287 41.3122 116.463 41.0523 116.621 40.7809C116.829 40.522 117.017 40.2476 117.183 39.96L117.291 39.7764C117.518 39.3768 117.712 38.9988 117.885 38.6964C118.058 38.394 118.068 38.3076 118.144 38.124C119.138 36.2664 119.224 35.1324 119.375 35.1756C120.455 35.5428 119.516 40.7917 118.9 42.9625C118.439 44.8909 117.32 46.5981 115.735 47.7902C115.002 48.3671 114.157 48.7867 113.254 49.0227C112.351 49.2587 111.409 49.306 110.487 49.1618C109.353 48.9429 108.304 48.4074 107.463 47.6174C107.884 47.4878 108.305 47.3474 108.705 47.1854L109.072 47.0558ZM128.048 8.81228C129.782 9.50273 131.467 10.311 133.091 11.2315C133.769 11.6097 134.418 12.0356 135.035 12.5059L135.165 12.6031V12.6895L123.857 7.37585L123.965 7.27865C125.099 7.66745 126.536 8.18586 128.048 8.81228ZM132.875 85.6989C132.692 86.9949 132.433 88.9389 132.227 91.3474C131.968 94.5874 132.001 96.4451 131.698 96.4883L130.229 91.4014H130.305L132.875 85.6989Z" fill="#841618"/>
<path opacity="0.21" d="M6.30794 66.5076C6.33313 66.4655 6.36205 66.4258 6.39434 66.3888L6.49154 66.27C11.1032 60.6431 17.9506 59.4011 21.8278 58.7099C25.0354 58.12 28.3164 58.0434 31.548 58.4831C33.708 58.9583 35.5873 59.5631 37.3909 59.7899L38.1145 60.0275C39.5923 60.5339 41.0354 61.1364 42.4346 61.8311C47.1272 64.2361 51.2542 67.6121 54.5416 71.7349C55.1788 72.4909 55.762 73.247 56.3128 73.9922C56.086 73.6682 55.7728 73.2254 55.2976 72.5989C55.2976 72.5989 54.6928 71.7997 54.088 71.0761C50.7797 66.9598 46.6488 63.5793 41.9594 61.1507C39.6265 60.0707 38.8057 60.1463 38.2225 59.8331C42.035 59.8331 39.9398 53.515 44.4866 41.9588C49.3683 29.5602 53.1268 25.6613 58.4513 20.6284C59.7149 19.4404 60.8273 18.4684 61.5941 17.9067C60.2525 15.9888 59.6713 13.6409 59.9633 11.3186C59.9633 11.3186 59.9633 11.2322 59.9633 11.189C60.0262 10.8217 60.1201 10.4604 60.2441 10.109C60.2441 11.405 60.5789 12.4526 60.8705 12.4742C61.4213 12.4742 61.2161 8.97498 63.7218 7.23615C64.305 6.83655 65.0718 6.49094 65.007 6.15613C64.9422 5.82133 64.0782 5.57292 63.3762 5.65932C64.3368 4.89796 65.4377 4.33284 66.6162 3.99609C68.5387 4.0101 70.4383 4.41427 72.1999 5.18412C73.1396 5.59452 76.52 7.00935 78.0428 9.41779C78.0684 9.4513 78.0901 9.48752 78.1076 9.52579C81.8013 8.44577 85.3114 7.67896 88.4218 7.03095C95.0208 5.65932 105.097 3.56409 123.717 7.19295L123.954 7.27935L123.846 7.37655L135.208 12.7119V12.6255C142.65 18.4144 148.244 23.9873 151.171 28.2425H149.065V28.1561H142.876L133.156 27.9941C132.855 30.4689 133.042 32.9788 133.707 35.3815H133.793C133.793 35.4355 133.793 35.5003 133.793 35.5543C136.812 35.875 139.731 36.8163 142.369 38.3191L142.552 38.4271L142.66 38.6647L143.913 39.2695L144.205 39.4747L144.583 39.7447C144.972 40.0255 145.382 40.3388 145.803 40.706L146.214 41.0624C146.354 41.1812 146.484 41.3108 146.624 41.4512C146.764 41.5916 147.013 41.8292 147.197 42.0236C147.585 42.434 147.974 42.8876 148.352 43.3736C148.382 43.3947 148.405 43.425 148.417 43.46L148.676 43.8056L148.946 44.216C148.981 44.2587 149.01 44.306 149.033 44.3564C149.162 44.5508 149.281 44.7344 149.389 44.9288C149.512 45.2074 149.61 45.4966 149.681 45.7929C149.695 45.9166 149.748 46.0328 149.831 46.1256C149.914 46.2183 150.024 46.2832 150.145 46.3113V46.3977C150.231 46.5813 150.318 46.7649 150.393 46.9485C150.677 47.5726 150.919 48.2148 151.117 48.8709C151.117 49.0005 151.203 49.1301 151.236 49.2705C151.398 49.8321 151.538 50.3505 151.646 50.9337C151.646 51.0957 151.711 51.247 151.733 51.3982C151.797 51.7222 151.841 52.0462 151.884 52.3702V52.6186C151.884 52.7374 151.884 52.8562 151.884 52.975C151.884 53.4826 151.981 53.9794 152.003 54.4654C152.003 54.6382 152.003 54.8218 152.003 54.9946C152.057 56.6578 152.003 58.1591 151.905 59.3903C151.556 65.1589 149.722 70.7393 146.581 75.5906C152.823 74.1002 157.467 64.8012 157.467 56.5606C157.467 56.1214 157.467 55.6894 157.467 55.2646C157.262 50.9445 156.042 46.4949 153.979 43.6004C155.34 41.9264 156.528 39.7879 156.582 38.2003C158.051 42.0668 159.422 47.4237 160.751 55.9882C161.042 57.8999 161.334 59.9627 161.636 62.2091L165.114 102.17C165.233 105.097 165.308 107.656 165.352 109.978C165.535 118.845 165.46 124.332 167.026 134.063C167.123 134.678 167.231 135.316 167.339 135.964C162.488 135.302 157.576 135.215 152.705 135.704C151.808 135.791 151.074 135.888 150.545 135.953C146.97 136.385 141.904 136.504 136.947 138.318C134.289 139.258 131.828 140.682 129.689 142.519C129.473 142.703 129.247 142.908 129.031 143.113L129.128 142.444L130.51 133.48L134.366 108.326C134.463 107.701 134.485 107.066 134.431 106.436C134.431 106.22 134.431 105.993 134.344 105.766C134.258 105.54 134.344 105.507 134.279 105.378C134.281 105.352 134.281 105.327 134.279 105.302C134.279 105.302 134.279 105.302 134.279 105.237C134.254 105.087 134.218 104.939 134.171 104.794L131.795 96.543C132.098 96.543 132.065 94.6853 132.325 91.4021C132.53 89.0044 132.789 87.082 132.973 85.7536L133.545 84.2416H133.318L133.383 84.0256L117.183 85.9588L120.261 91.2185L122.259 108.78L122.896 132.205L123.144 141.483H123.08C122.625 141.473 122.17 141.495 121.719 141.547L121.233 141.612C120.84 141.677 120.45 141.764 120.066 141.871L119.602 142.012C119.451 142.066 119.3 142.12 119.138 142.195L118.673 142.411C118.511 142.483 118.355 142.57 118.209 142.671C118.055 142.758 117.907 142.855 117.766 142.962C117.622 143.052 117.484 143.153 117.356 143.265C117.162 143.422 116.978 143.592 116.805 143.772C116.675 143.891 116.567 144.021 116.448 144.15C115.91 144.786 115.499 145.519 115.239 146.31C115.199 146.39 115.166 146.473 115.142 146.559C115.142 146.677 115.066 146.785 115.044 146.861C115.039 146.89 115.039 146.919 115.044 146.947C114.689 148.464 114.689 150.042 115.044 151.559V151.7C115.044 151.754 115.044 151.808 115.044 151.862C115.477 153.614 116.372 155.218 117.636 156.506L116.848 157.802L116.438 158.493C116.297 158.752 116.157 159.022 115.995 159.303L115.552 160.124C115.25 160.685 114.958 161.204 114.688 161.819L114.623 161.96C114.472 162.262 114.321 162.565 114.191 162.867C113.694 163.947 113.262 164.93 112.895 165.859C112.528 166.787 112.269 167.479 112.009 168.202L111.707 169.077C111.61 169.347 111.523 169.617 111.437 169.887L111.189 170.632C111.102 170.881 111.027 171.129 110.951 171.378L110.433 173.106V173.214C110.271 173.764 110.119 174.294 109.968 174.898L109.806 175.536C109.698 175.957 109.601 176.356 109.504 176.756L109.104 178.462L108.975 179.024C108.813 179.715 108.672 180.374 108.543 181.011L108.413 181.649C108.262 182.419 108.111 183.197 107.959 183.981C107.862 184.521 107.776 185.061 107.689 185.504C107.698 185.543 107.698 185.584 107.689 185.623C107.538 185.979 106.869 183.895 106.123 181.389C105.983 180.785 105.832 180.147 105.659 179.467C105.605 179.229 105.551 179.002 105.486 178.765C105.421 178.527 105.367 178.29 105.303 178.041C105.119 177.307 104.903 176.529 104.687 175.719C104.557 175.244 104.417 174.769 104.277 174.272C104.136 173.775 103.899 172.987 103.693 172.317C103.607 172.026 103.51 171.723 103.413 171.421L103.121 170.503C103.024 170.19 102.927 169.876 102.818 169.563C102.71 169.25 102.613 168.937 102.505 168.613C102.019 167.155 101.425 165.632 100.896 164.077C100.669 163.461 100.421 162.835 100.172 162.208C99.4812 160.437 98.7144 158.623 97.8936 156.808C97.6884 156.344 97.4724 155.89 97.2564 155.426C96.8244 154.486 96.3708 153.536 95.8956 152.585C95.4204 151.635 94.956 150.76 94.4699 149.842L93.7031 148.438C93.4439 147.974 93.1847 147.509 92.9147 147.045L92.8391 146.915C93.2603 146.742 93.7355 146.537 94.2107 146.289C95.2027 147.037 96.0922 147.912 96.8568 148.892V148.956L96.9216 149.043L97.4616 149.81C98.2668 151.213 98.8945 152.712 99.33 154.27V154.464C99.33 154.464 99.438 155.026 99.492 155.544C99.6 156.7 99.006 158.644 99.4164 158.785C99.4655 158.801 99.5186 158.801 99.5676 158.785C99.5729 158.846 99.5729 158.907 99.5676 158.968L101.857 158.914C102.432 159.058 103.033 159.058 103.607 158.914H104.039C104.039 158.774 104.039 158.633 104.039 158.482C104.113 158.126 104.113 157.758 104.039 157.402C103.953 156.088 103.721 154.788 103.348 153.525L105.378 153.093C105.378 153.006 105.378 152.909 105.378 152.801C105.756 152.272 105.281 150.641 104.622 149.054C104.175 147.628 103.524 146.275 102.689 145.036L102.268 144.409L101.879 143.88L101.641 143.589C101.146 142.962 100.609 142.37 100.032 141.817C99.7296 141.547 99.4056 141.277 99.06 141.018C98.716 140.754 98.3552 140.512 97.98 140.295C97.7208 140.1 97.5048 139.938 97.3644 139.852C97.5338 139.419 97.5823 138.949 97.5048 138.491V118.856V111.156L97.2564 96.1326C97.27 94.7471 96.8959 93.3854 96.1764 92.2013L95.9928 91.8989C95.8986 91.7315 95.7902 91.5725 95.6688 91.4237L95.5716 91.2725C95.5288 91.2151 95.4819 91.161 95.4312 91.1105C95.3933 91.0524 95.3499 90.9982 95.3016 90.9485C95.2548 90.8878 95.2043 90.83 95.1504 90.7757C94.7951 90.3772 94.4007 90.0153 93.9731 89.6957C93.6656 89.4527 93.3407 89.2325 93.0011 89.0368C92.123 88.5332 91.1721 88.1689 90.1823 87.9568H90.1067C91.108 88.1646 92.0702 88.5291 92.9579 89.0368C93.2975 89.2325 93.6224 89.4527 93.9299 89.6957C94.3575 90.0153 94.7519 90.3772 95.1072 90.7757C95.1611 90.83 95.2116 90.8878 95.2584 90.9485C95.3067 90.9982 95.3501 91.0524 95.388 91.1105C95.4387 91.161 95.4856 91.2151 95.5284 91.2725L95.6256 91.4237C95.747 91.5725 95.8553 91.7315 95.9496 91.8989L96.1332 92.2013C96.8527 93.3854 97.2268 94.7471 97.2132 96.1326L97.4616 111.156V118.878C97.2913 119.001 97.129 119.134 96.9756 119.277L96.846 111.177L96.63 96.597C96.6427 95.1955 96.281 93.8159 95.5824 92.6009C95.5476 92.4942 95.4926 92.3952 95.4204 92.3093C95.3372 92.1484 95.2433 91.9933 95.1396 91.8449L95.0532 91.7045L94.9344 91.5425L94.8155 91.3805L94.6859 91.2185C94.3832 90.8266 94.0432 90.4649 93.6707 90.1385C92.8846 89.3407 91.9176 88.7442 90.8519 88.3996L90.6143 88.324C89.8152 88.1015 88.9918 87.9782 88.1626 87.9568C87.4282 87.9568 86.9746 87.9568 86.4886 87.9568H86.197C85.6855 87.8251 85.1592 87.7598 84.631 87.7624H83.4105L82.8813 87.6976C79.1877 87.244 68.1931 87.0172 60.7625 86.9092H60.2225L55.654 86.7688L47.8131 86.6608C48.3531 85.5808 43.439 80.2779 37.6069 80.3967C36.6132 80.3496 35.6205 80.5086 34.6912 80.8636C33.7619 81.2186 32.9161 81.7619 32.2068 82.4595C31.548 83.2155 30.5652 84.7924 31.1268 85.7644C31.2996 86.0668 31.5804 86.2612 32.4336 86.38H31.2996V86.9308C31.304 89.3477 30.8533 91.7439 29.9712 93.9941L29.8524 94.2533L29.7552 94.4585C28.7929 96.485 27.4126 98.2849 25.7051 99.7398C24.3447 100.805 22.7544 101.537 21.061 101.878L20.5426 101.986C18.6808 102.257 16.7824 102.117 14.9805 101.576L14.2353 101.338C13.9113 101.23 13.5981 101.111 13.2957 100.993H13.2417C12.9933 100.885 12.7557 100.777 12.5289 100.658L12.2265 100.496C11.9997 100.383 11.7797 100.257 11.5676 100.118C10.2505 99.2809 9.07938 98.2338 8.10078 97.0182C7.3292 96.0863 6.64586 95.0848 6.05954 94.0265C4.78868 91.6427 3.84074 89.1003 3.24069 86.4664C3.24069 86.2396 3.15429 86.0344 3.11109 85.84C3.06789 85.6456 3.11109 85.6672 3.05709 85.57C3.00309 85.4728 3.05708 85.3108 2.97068 85.1596C2.94773 84.9887 2.91528 84.8192 2.87348 84.652V84.4252C2.87348 84.2092 2.84109 84.0256 2.77629 83.8744C2.77629 83.7771 2.77629 83.6799 2.77629 83.5719C2.77629 83.4639 2.77629 83.4963 2.77629 83.4639L2.71147 83.0427C2.71147 82.7727 2.63587 82.4703 2.59267 82.1463C2.59267 82.0707 2.59267 82.0059 2.59267 81.9303C2.08506 77.7614 2.31187 71.7241 6.30794 66.5076ZM128.134 42.6176L128.221 42.7364C128.38 42.9692 128.557 43.1895 128.75 43.3952C130.629 45.3716 134.009 44.8532 135.986 43.7948C136.661 43.467 137.272 43.0207 137.79 42.4772C138.05 42.1773 138.196 41.7945 138.2 41.3972C138.185 41.0953 138.071 40.8068 137.876 40.5764C137.85 40.5288 137.817 40.4852 137.779 40.4468C137.056 39.6983 136.146 39.1574 135.143 38.8807C132.13 37.8979 128.048 38.7835 127.583 40.7168C127.54 41.0544 127.567 41.3974 127.661 41.7244C127.756 42.0514 127.917 42.3554 128.134 42.6176ZM89.9879 41.7752C90.1175 41.9804 90.2579 42.1748 90.3983 42.3584C91.3477 43.6838 92.5122 44.841 93.8435 45.7821C95.5586 46.9629 97.4992 47.7767 99.5435 48.1726C101.588 48.5684 103.692 48.5378 105.724 48.0825C106.059 48.0177 106.383 47.9421 106.707 47.8557L107.463 47.6181C108.282 48.39 109.298 48.9207 110.4 49.1517C111.322 49.296 112.264 49.2486 113.168 49.0126C114.071 48.7766 114.915 48.3571 115.649 47.7801C117.233 46.588 118.353 44.8808 118.814 42.9524C119.429 40.7924 120.369 35.5327 119.289 35.1655C119.159 35.1655 119.051 36.2455 118.058 38.1139L118.263 37.6171C118.36 37.4011 118.425 37.2067 118.49 37.0339L118.652 36.7207C119.526 34.0316 119.734 31.1701 119.256 28.3829H119.159V28.1993L88.2814 27.1193C87.3948 29.5246 87.0872 32.1048 87.3837 34.6511C87.6802 37.1974 88.5723 39.638 89.9879 41.7752ZM75.2348 12.6147C74.9875 10.7589 74.0939 9.04973 72.7112 7.78753C71.3285 6.52534 69.5452 5.7909 67.6747 5.71332C64.2186 5.71332 62.6958 8.95338 62.6958 13.0683C62.6769 14.9055 63.2653 16.6976 64.3698 18.166C67.1346 16.0059 71.4763 14.0403 75.2348 12.6039V12.6147ZM62.6526 19.9372C60.9245 19.1488 51.1936 29.8194 47.5323 39.3775C46.1175 43.0172 44.2274 46.1709 42.845 54.4978C42.467 56.7766 45.005 60.1031 45.5991 60.3839C46.8411 60.9779 48.0075 55.1782 49.3683 49.9941C50.5394 45.1815 52.1369 40.4829 54.142 35.9539C57.5981 27.6917 63.9378 20.5204 62.6526 19.9264V19.9372ZM57.5117 75.731C57.4082 75.5022 57.2698 75.2908 57.1013 75.1046C57.2417 75.299 57.3821 75.5042 57.5117 75.7202V75.731ZM56.9501 74.921C56.8774 74.7817 56.7944 74.6482 56.7017 74.5214C56.7881 74.6834 56.8637 74.8022 56.9501 74.9102V74.921Z" fill="#841618"/>
<path opacity="0.21" d="M89.9118 87.7297C90.9131 87.9375 91.8754 88.3019 92.7631 88.8097C93.1027 89.0054 93.4275 89.2255 93.7351 89.4685C94.1627 89.7882 94.5571 90.15 94.9123 90.5485C94.9663 90.6029 95.0168 90.6606 95.0635 90.7213C95.1118 90.771 95.1552 90.8253 95.1931 90.8833C95.2438 90.9338 95.2908 90.988 95.3335 91.0453L95.4307 91.1965C95.5521 91.3454 95.6605 91.5044 95.7547 91.6717L95.9383 91.9742C96.6578 93.1583 97.0319 94.5199 97.0184 95.9054L97.2668 110.928V118.651V138.264C97.3429 138.71 97.2981 139.169 97.1372 139.592C97.3066 139.16 97.3551 138.689 97.2776 138.231V118.597V110.896L97.0292 95.873C97.0427 94.4875 96.6686 93.1258 95.9491 91.9417L95.7655 91.6393C95.6713 91.472 95.5629 91.313 95.4415 91.1641L95.3443 91.0129C95.3016 90.9556 95.2546 90.9014 95.2039 90.8509C95.166 90.7929 95.1226 90.7386 95.0743 90.6889C95.0276 90.6282 94.9771 90.5705 94.9231 90.5161C94.5679 90.1176 94.1735 89.7558 93.7459 89.4361C93.4384 89.1931 93.1135 88.973 92.7739 88.7773C91.8958 88.2736 90.9449 87.9093 89.955 87.6973L89.9118 87.7297Z" fill="#841618"/>
<path opacity="0.3" d="M149.508 44.9395C149.631 45.2181 149.728 45.5072 149.799 45.8035C149.814 45.9272 149.866 46.0434 149.949 46.1362C150.033 46.229 150.142 46.2938 150.264 46.3219C150.037 45.8575 149.788 45.3607 149.508 44.9395Z" fill="#3C2A21"/>
<path opacity="0.3" d="M149.032 44.1829C149.067 44.2256 149.096 44.2729 149.119 44.3233C149.147 44.3317 149.177 44.3317 149.205 44.3233C149.202 44.2982 149.202 44.2728 149.205 44.2477C149.173 44.1943 149.137 44.1437 149.097 44.0965C149.011 44.0857 148.989 44.0857 149.032 44.1829Z" fill="#3C2A21"/>
<path d="M121.751 85.6123L123.404 91.2176L126.136 105.701C126.341 106.79 126.417 107.899 126.363 109.006L124.851 141.655L123.144 141.503L122.399 108.347L120.369 91.4012L117.129 86.0011L121.751 85.6123Z" fill="#2E3192"/>
<path opacity="0.38" d="M124.063 85.6123L125.715 91.2176L128.448 105.701C128.653 106.79 128.729 107.899 128.674 109.006L127.162 141.655H124.851L124.743 108.347L122.713 91.4012L119.473 86.0011L124.063 85.6123Z" fill="#2E3192"/>
<path d="M132.239 105.96L134.193 105.247V107.062L132.239 107.98H128.966L129.42 106.619L132.239 105.96Z" fill="#2E3192"/>
<path opacity="0.3" d="M127.54 7.98069C127.745 7.27868 130.218 7.39748 131.493 7.61349C132.313 7.67331 133.101 7.95724 133.771 8.4343C134.851 9.29832 135.499 10.8751 135.046 11.3828C134.949 11.5016 134.614 11.7608 132.691 11.102C130.769 10.4431 127.302 8.84471 127.54 7.98069Z" fill="#3C2A21"/>
<path opacity="0.3" d="M62.7387 13.0571C62.7197 14.8943 63.3082 16.6864 64.4127 18.1548C67.1343 15.9947 71.476 14.0507 75.2129 12.6035C74.9656 10.7477 74.072 9.03855 72.6893 7.77635C71.3066 6.51416 69.5233 5.77973 67.6528 5.70215C64.2615 5.70215 62.7387 8.90981 62.7387 13.0571Z" fill="#3C2A21"/>
<path opacity="0.36" d="M60.2762 10.0002C60.2762 11.2962 60.611 12.3438 60.9026 12.3654C61.4535 12.3654 61.2482 8.86616 63.7539 7.12733C64.3371 6.72772 65.1039 6.38212 65.0391 6.04731C64.9743 5.71251 64.1103 5.4641 63.4083 5.5505C62.903 5.66981 62.4289 5.89522 62.0174 6.21177C61.6059 6.52832 61.2664 6.92876 61.0214 7.38654V7.45134V7.51614C60.7884 7.92803 60.6174 8.372 60.5138 8.83376C60.3877 9.2115 60.3079 9.60318 60.2762 10.0002Z" fill="white"/>
<path opacity="0.36" d="M45.5562 60.3727C46.7982 60.9667 47.9646 55.167 49.3255 49.9829C50.4965 45.1703 52.0941 40.4717 54.0991 35.9427C57.5984 27.6913 63.9381 20.52 62.6529 19.926C60.9249 19.1376 51.1939 29.8082 47.5326 39.3663C46.1178 43.006 44.2278 46.1597 42.8453 54.4866C42.4241 56.7654 44.9622 60.0919 45.5562 60.3727Z" fill="white"/>
<path opacity="0.3" d="M22.1407 102.148C22.2271 102.375 22.9724 102.267 23.8364 102.148C25.7075 101.96 27.5218 101.398 29.1717 100.495C31.4937 99.1561 32.6817 97.4388 34.2262 95.2032C35.4104 93.3389 36.426 91.3726 37.261 89.3279C37.702 88.3841 38.0633 87.4051 38.341 86.401C40.6847 86.401 41.1815 86.3038 42.8339 86.401C43.9139 86.401 44.6699 86.4982 45.3072 86.5738L46.3872 86.6926C47.0568 86.7682 47.3916 86.8114 47.5428 86.6926C47.5849 86.6717 47.619 86.6376 47.64 86.5954C48.18 85.5154 43.2659 80.2125 37.4338 80.3313C36.4401 80.2843 35.4474 80.4432 34.5181 80.7982C33.5888 81.1532 32.743 81.6966 32.0337 82.3942C31.3749 83.1502 30.3921 84.727 30.9537 85.699C31.0202 85.8135 31.1089 85.9136 31.2146 85.9934C31.3203 86.0731 31.4409 86.1309 31.5693 86.1634C31.4181 86.7898 31.2561 87.4162 31.0833 88.0427C30.6189 90.0731 30.1437 92.1143 29.6793 94.1448L27.1412 98.7997C24.7652 100.074 21.9247 101.673 22.1407 102.148Z" fill="#3C2A21"/>
<path opacity="0.3" d="M130.143 91.2181C130.138 91.2792 130.138 91.3406 130.143 91.4017C130.985 95.6354 131.396 96.5102 131.623 96.4886C131.849 96.467 131.893 94.631 132.152 91.3477C132.357 88.9501 132.616 87.0276 132.8 85.6992C131.979 87.5461 131.072 89.3713 130.143 91.2181Z" fill="#3C2A21"/>
<path opacity="0.3" d="M107.322 47.4449L107.495 47.6069C108.314 48.3789 109.331 48.9096 110.432 49.1406C111.354 49.2848 112.296 49.2374 113.2 49.0014C114.103 48.7655 114.947 48.3459 115.681 47.7689C117.265 46.5769 118.385 44.8696 118.846 42.9412C119.461 40.7812 120.401 35.5215 119.321 35.1543C119.191 35.1543 119.083 36.2343 118.09 38.1027C117.757 38.7462 117.382 39.3668 116.966 39.9604C116.862 40.1192 116.746 40.2708 116.621 40.414C116.405 40.7164 116.156 41.0188 115.897 41.332C115.287 42.0335 114.634 42.6972 113.942 43.3192C113.294 43.9241 112.571 44.5397 111.782 45.1661L109.169 46.7861H109.082L108.801 46.8833H108.683L107.322 47.4449Z" fill="#3C2A21"/>
<path opacity="0.3" d="M93.6919 146.429C93.2167 146.677 92.7415 146.882 92.3203 147.055C92.3203 147.055 92.3203 147.152 92.3203 147.196C92.3607 147.273 92.3968 147.352 92.4283 147.433C93.0871 148.87 93.9079 150.22 95.4091 153.373C95.5819 153.719 95.7547 154.086 95.9383 154.453C96.3163 155.253 96.7267 156.149 97.1803 157.164L97.5151 157.92L97.8284 158.644C98.6168 160.458 99.7832 163.191 101.068 166.582L101.133 166.744C101.385 167.378 101.634 168.036 101.878 168.72C103.947 174.303 105.717 179.992 107.181 185.763C107.268 185.299 107.354 184.78 107.451 184.24C107.581 183.52 107.732 182.743 107.905 181.907L108.035 181.27C108.164 180.633 108.305 179.974 108.467 179.283L108.596 178.721L108.996 177.015C109.093 176.615 109.19 176.216 109.298 175.795L109.46 175.157C109.601 174.617 109.752 174.077 109.925 173.472V173.364L110.443 171.636C110.519 171.388 110.594 171.14 110.681 170.891L110.929 170.146C111.015 169.876 111.102 169.606 111.199 169.336L111.501 168.461C111.761 167.738 112.041 166.96 112.387 166.118C112.733 165.275 113.186 164.195 113.683 163.126C113.823 162.813 113.975 162.51 114.115 162.219L114.18 162.078C114.45 161.506 114.741 160.944 115.044 160.383L115.487 159.562C115.649 159.281 115.789 159.011 115.929 158.752L116.34 158.061L117.128 156.765C115.899 155.45 115.01 153.856 114.536 152.12C114.536 152.066 114.536 152.012 114.536 151.958V151.818C114.104 150.311 114.104 148.713 114.536 147.206C114.531 147.178 114.531 147.149 114.536 147.12C114.536 147.044 114.59 146.936 114.633 146.818C114.658 146.732 114.691 146.649 114.731 146.569C115.082 145.642 115.614 144.794 116.297 144.074C116.469 143.902 116.653 143.74 116.847 143.567C116.976 143.456 117.114 143.354 117.258 143.264C117.393 143.15 117.542 143.052 117.701 142.973C117.847 142.872 118.003 142.786 118.165 142.714C118.312 142.626 118.468 142.554 118.63 142.498C118.792 142.422 118.943 142.368 119.094 142.314L119.558 142.173C119.942 142.066 120.332 141.979 120.725 141.914C120.885 141.882 121.048 141.86 121.211 141.849C122.695 141.823 124.178 141.942 125.639 142.206C127.475 142.454 128.08 142.606 128.523 142.67C128.707 142.714 128.895 142.739 129.084 142.746C131.223 140.909 133.684 139.484 136.342 138.545C141.342 136.73 146.364 136.611 149.939 136.179C150.49 136.115 151.225 136.017 152.099 135.931C157.012 135.417 161.968 135.489 166.863 136.147C166.962 135.828 166.985 135.49 166.93 135.16C166.876 134.83 166.746 134.517 166.55 134.246C164.682 134.365 161.949 134.505 158.677 134.603C150.217 134.999 141.741 134.815 133.307 134.052C132.155 133.937 131.053 133.807 130.002 133.663C128.987 133.533 128.026 133.404 127.118 133.263C126.211 133.123 125.552 133.015 124.829 132.885L124.364 132.799C123.716 132.691 123.09 132.572 122.496 132.453C118.682 131.8 114.973 130.638 111.469 128.997L110.875 128.684C103.25 124.58 101.49 120.044 99.6212 118.737L99.2324 94.5338C99.1676 90.905 95.8303 88.0537 91.7802 88.0537H90.1278H89.5554C90.5567 88.2615 91.519 88.626 92.4067 89.1337C92.7462 89.3294 93.0711 89.5496 93.3787 89.7925C93.8063 90.1122 94.2006 90.474 94.5559 90.8726C94.6099 90.9269 94.6604 90.9847 94.7071 91.0454C94.7554 91.0951 94.7988 91.1493 94.8367 91.2074C94.8874 91.2578 94.9343 91.312 94.9771 91.3694L95.0743 91.5206C95.1957 91.6694 95.3041 91.8284 95.3983 91.9958L95.5819 92.2982C96.3014 93.4823 96.6755 94.844 96.6619 96.2295L96.9103 111.253V118.953V138.588C96.9879 139.046 96.9393 139.516 96.7699 139.949C96.9103 140.035 97.1263 140.197 97.3855 140.391C97.7608 140.609 98.1215 140.851 98.4656 141.115C98.822 141.385 99.1568 141.666 99.47 141.947V141.86C100.063 142.413 100.616 143.009 101.122 143.642L101.36 143.934L101.749 144.463L102.17 145.09C103.005 146.328 103.657 147.682 104.103 149.107C104.492 150.325 104.745 151.582 104.859 152.855C104.859 152.963 104.859 153.06 104.859 153.147L102.829 153.579C103.202 154.841 103.434 156.142 103.52 157.456C103.52 157.845 103.52 158.201 103.52 158.536C103.52 158.687 103.52 158.827 103.52 158.968H103.142H101.392H99.1028C99.108 158.907 99.108 158.845 99.1028 158.784C99.294 157.376 99.2575 155.947 98.9948 154.551C98.627 152.823 97.9343 151.181 96.9535 149.712L96.4135 148.945L96.3487 148.859V148.794C95.5656 147.898 94.673 147.103 93.6919 146.429Z" fill="#3C2A21"/>
<path opacity="0.3" d="M82.1685 111.684V133.133L84.0477 135.002C83.7561 127.204 84.8361 121.329 86.0781 112.786C86.471 111.898 86.7679 110.971 86.9638 110.021C87.6118 108.304 87.6658 107.98 88.6594 103.087C89.0776 100.227 89.2186 97.3339 89.0806 94.447C89.0158 90.4618 88.681 89.7598 88.2166 89.5762C87.007 89.1117 84.8901 91.9738 84.5337 92.4706C84.4041 94.5514 84.2817 96.6323 84.1665 98.7131C84.1665 101.705 84.1665 104.696 84.2529 107.677L83.4429 110.917C83.6285 110.997 83.8198 111.062 84.0153 111.112C83.38 111.232 82.7603 111.424 82.1685 111.684Z" fill="#3C2A21"/>
<path opacity="0.36" d="M27.9951 60.2324C24.5583 60.3254 21.144 60.8183 17.8213 61.7012C15.6342 62.3454 13.5791 63.373 11.7516 64.7361C10.2772 65.8308 9.01454 67.1849 8.02549 68.7322C7.12084 70.2234 6.47113 71.855 6.10305 73.5599C5.99505 74.0351 5.02304 78.1607 5.96266 78.528C6.69708 78.8196 8.36031 76.4543 11.0604 72.5986C13.4256 69.2182 13.404 68.8186 14.646 67.6306C15.6504 66.6801 16.104 66.5505 20.1649 64.0449C25.2194 60.956 29.7015 60.416 27.9951 60.2324Z" fill="white"/>
<path opacity="0.36" d="M48.5473 106.37C45.1632 106.37 41.898 106.234 38.7515 105.96V108.001L47.8561 107.872L50.4697 106.349C49.8325 106.381 49.1413 106.381 48.5473 106.37Z" fill="white"/>
<path opacity="0.36" d="M7.32309 98.7886C6.85868 98.9182 7.6687 100.949 7.04229 103.616C6.89227 104.201 6.84476 104.808 6.90188 105.409C6.88456 105.74 6.93718 106.07 7.05628 106.379C7.17538 106.688 7.3583 106.968 7.59309 107.202C7.84401 107.401 8.14867 107.521 8.46807 107.546C8.78747 107.571 9.10707 107.5 9.38593 107.342C9.87194 106.964 9.80713 106.165 9.66673 104.577C9.61958 103.74 9.47829 102.91 9.24552 102.104C8.77031 100.538 7.7659 98.659 7.32309 98.7886Z" fill="white"/>
<path opacity="0.36" d="M131.547 39.6473C131.824 39.5043 132.131 39.4297 132.443 39.4297C132.755 39.4297 133.062 39.5043 133.339 39.6473C133.62 39.8082 133.839 40.0579 133.962 40.3571C134.086 40.6562 134.106 40.9879 134.02 41.2998C133.758 41.605 133.391 41.8017 132.992 41.8516C132.593 41.9015 132.189 41.8011 131.86 41.5698C130.974 41.5698 130.283 41.2782 130.207 40.8786C130.132 40.479 131.007 39.8417 131.547 39.6473Z" fill="white"/>
<path d="M117.183 85.9586L120.261 91.2183L122.259 108.779L123.144 141.482C125.098 141.47 127.016 142.001 128.685 143.016L128.858 143.146L128.966 143.038L134.301 108.25C134.474 107.084 134.396 105.895 134.074 104.762L130.229 91.4235V91.2399L133.318 84.2414L133.383 84.0254L117.183 85.9586Z" stroke="#231F20" stroke-miterlimit="10"/>
<path d="M90.3988 42.3575C91.3481 43.6829 92.5126 44.8401 93.844 45.7811C99.9245 50.1012 107.506 48.5136 112.064 45.4895C114.777 43.6204 116.897 41.012 118.172 37.9738C119.447 34.9356 119.824 31.5953 119.257 28.3496H119.16C119.696 31.5784 119.301 34.8932 118.021 37.9057C116.742 40.9183 114.63 43.5039 111.934 45.3599C107.377 48.384 99.7949 49.9392 93.7144 45.6515C92.4413 44.7365 91.3221 43.6246 90.3988 42.3575Z" stroke="#231F20" stroke-miterlimit="10"/>
<path d="M50.5992 113.218C51.2194 113.614 51.7765 114.102 52.2516 114.665C53.0135 115.606 53.536 116.718 53.7744 117.905C57.3273 118.788 60.7992 119.969 64.1534 121.436C70.7734 124.285 76.8641 128.232 82.1681 133.112C83.3346 134.192 84.1338 135.034 84.5658 135.498C85.9868 137.018 87.3175 138.619 88.5511 140.294C89.3564 139.703 90.282 139.298 91.2619 139.106C93.0916 138.647 95.0208 138.795 96.7592 139.527C96.7635 139.491 96.7635 139.455 96.7592 139.419C97.0039 138.899 97.1259 138.33 97.1156 137.756L96.662 111.004L96.446 96.4232C96.4849 95.0964 96.1877 93.7812 95.582 92.6L95.42 92.3084C95.3368 92.1475 95.243 91.9924 95.1392 91.844L95.0528 91.7036L94.934 91.5416L94.8152 91.3795L94.6856 91.2175C94.3828 90.8256 94.0428 90.4639 93.6704 90.1375C93.4062 89.9039 93.1246 89.6909 92.8279 89.5003C92.6766 89.4367 92.5215 89.3826 92.3635 89.3383C91.5961 89.113 90.7977 89.011 89.9983 89.0359L87.3414 89.7379C86.3485 90.105 85.5049 90.7903 84.9423 91.687C84.3796 92.5838 84.1295 93.6415 84.231 94.6952V107.375C84.5874 109.254 83.9502 111.079 82.2546 111.695C81.8687 111.828 81.4638 111.897 81.0557 111.9L51.8952 110.82V111.727C51.8702 112.083 51.7302 112.42 51.4964 112.689C51.2626 112.958 50.9477 113.143 50.5992 113.218Z" stroke="#231F20" stroke-miterlimit="10"/>
<path d="M135.208 12.7116C135.167 11.8379 134.996 10.9751 134.7 10.152C134.376 9.29725 133.884 8.51595 133.253 7.85387C132.623 7.19178 131.866 6.66225 131.028 6.29631C130.271 5.89308 129.439 5.65129 128.584 5.58623C127.729 5.52116 126.869 5.63424 126.06 5.9183C125.256 6.26546 124.523 6.75996 123.9 7.37633" stroke="#231F20" stroke-miterlimit="10"/>
<path d="M59.9417 11.3184C59.8147 13.7033 60.4297 16.069 61.7021 18.0901" stroke="#231F20" stroke-miterlimit="10"/>
<path d="M66.7246 3.87731C65.4051 3.85058 64.1089 4.22738 63.0093 4.95733C61.5909 6.05149 60.6134 7.61936 60.2553 9.37461C60.1006 9.98304 60.0066 10.6053 59.9745 11.2322" stroke="#231F20" stroke-miterlimit="10"/>
<path d="M78.0429 9.41699C78.0806 9.44239 78.1075 9.48087 78.1185 9.52499C78.1642 9.58202 78.204 9.64353 78.2373 9.7086" stroke="#231F20" stroke-miterlimit="10"/>
<path d="M31.6451 86.6279C31.7315 86.6927 31.8071 86.7683 31.8935 86.8223L34.4531 86.8871C34.4474 86.8152 34.4474 86.743 34.4531 86.6711L31.6451 86.6279Z" stroke="#231F20" stroke-miterlimit="10"/>
<path d="M51.7445 111.706V110.798L80.905 111.878C81.3131 111.876 81.718 111.806 82.1039 111.673C83.7995 111.09 84.4367 109.265 84.0803 107.353V94.6737C83.9789 93.62 84.229 92.5623 84.7916 91.6656C85.3543 90.7688 86.1978 90.0835 87.1908 89.7164L89.8476 89.0144C90.6471 88.9895 91.4454 89.0915 92.2128 89.3168C92.3709 89.3611 92.526 89.4152 92.6773 89.4788C92.9739 89.6694 93.2556 89.8824 93.5197 90.116C93.8921 90.4425 94.2321 90.8042 94.5349 91.1961L94.6645 91.3581L94.7833 91.5201L94.9021 91.6821L94.9885 91.8225C95.0923 91.9709 95.1861 92.126 95.2693 92.2869L95.4313 92.5785C96.0707 93.7508 96.4015 95.0664 96.3925 96.4018L96.6085 110.982L97.0189 137.734C97.0292 138.309 96.9072 138.878 96.6625 139.397C96.6668 139.433 96.6668 139.469 96.6625 139.505C94.9507 138.801 93.0592 138.661 91.2624 139.106C90.292 139.309 89.3778 139.722 88.584 140.315C87.3504 138.64 86.0197 137.039 84.5987 135.52C84.1667 135.056 83.3675 134.224 82.2011 133.133C76.8873 128.251 70.7854 124.304 64.1539 121.458C60.7998 119.991 57.3278 118.81 53.7749 117.927C53.5365 116.739 53.014 115.628 52.2521 114.686C51.777 114.124 51.2199 113.636 50.5997 113.239C50.9269 113.135 51.2133 112.932 51.4187 112.657C51.6241 112.381 51.738 112.049 51.7445 111.706Z" stroke="#231F20" stroke-miterlimit="10"/>
<path d="M8.10096 109.168V126.751C9.09561 125.638 10.1792 124.609 11.341 123.673C13.4383 121.966 15.779 120.583 18.2855 119.569L18.6852 119.407C18.5662 118.999 18.4759 118.584 18.4152 118.165C18.0811 116.593 18.3428 114.953 19.1496 113.564C19.6562 112.777 20.3323 112.114 21.1284 111.622C21.9244 111.131 22.8203 110.824 23.7505 110.723C27.0553 110.475 29.0533 113.304 29.3557 113.747C29.924 114.548 30.3245 115.455 30.533 116.415C30.5562 116.515 30.5742 116.616 30.587 116.717C31.667 116.555 32.747 116.426 33.827 116.339C36.3008 116.116 38.7863 116.051 41.2684 116.145C41.4531 115.691 41.6886 115.26 41.9704 114.86C42.4787 114.161 43.1167 113.567 43.8496 113.11L37.1643 112.883C36.9444 112.876 36.7281 112.826 36.5276 112.735C36.3272 112.645 36.1466 112.515 35.9961 112.355C35.8457 112.195 35.7283 112.006 35.6508 111.8C35.5733 111.594 35.5371 111.375 35.5443 111.155V110.216L33.7838 110.151L8.38176 109.2L8.10096 109.168Z" stroke="#231F20" stroke-miterlimit="10"/>
<path d="M82.1681 111.684V133.133C83.3346 134.213 84.1338 135.056 84.5658 135.52C85.9868 137.039 87.3175 138.64 88.5511 140.315C89.3545 139.717 90.2802 139.304 91.2619 139.106C93.0916 138.647 95.0208 138.795 96.7592 139.527C96.7635 139.491 96.7635 139.455 96.7592 139.419C97.0039 138.899 97.1259 138.33 97.1156 137.756L96.662 111.004L96.446 96.4232C96.4849 95.0964 96.1877 93.7812 95.582 92.6L95.42 92.3084C95.3368 92.1475 95.243 91.9924 95.1392 91.844L95.0528 91.7036L94.934 91.5416L94.8152 91.3795L94.6856 91.2175C94.3828 90.8256 94.0428 90.4639 93.6704 90.1375C93.4062 89.9039 93.1246 89.6909 92.8279 89.5003C92.6766 89.4367 92.5215 89.3826 92.3635 89.3383C91.5961 89.113 90.7977 89.011 89.9983 89.0359L87.3414 89.7379C86.3485 90.105 85.5049 90.7903 84.9423 91.687C84.3796 92.5838 84.1295 93.6415 84.231 94.6952V107.375C84.501 109.275 83.8638 111.101 82.1681 111.684Z" stroke="#231F20" stroke-miterlimit="10"/>
<path d="M53.5908 86.9409L34.4637 86.6709H31.6448L31.202 86.3037" stroke="#231F20" stroke-miterlimit="10"/>
<path d="M29.7012 94.1338C29.0993 95.7279 28.1856 97.186 27.0136 98.4229C25.8416 99.6598 24.4348 100.651 22.8754 101.338C22.1258 101.644 21.3429 101.861 20.5426 101.986" stroke="#231F20" stroke-miterlimit="10"/>
<path d="M6.30762 66.5068C6.05921 66.8092 5.8216 67.1224 5.5948 67.4573C1.95513 72.7385 2.11715 78.5383 2.50596 81.9403" stroke="#231F20" stroke-miterlimit="10"/>
<path d="M31.5799 58.4609C33.5635 58.7168 35.5193 59.1543 37.4229 59.7678" stroke="#231F20" stroke-miterlimit="10"/>
<path d="M56.5176 74.2838L56.3232 73.9922" stroke="#231F20" stroke-miterlimit="10"/>
<path d="M57.0368 75.0176L57.1016 75.0932" stroke="#231F20" stroke-miterlimit="10"/>
<path d="M60.6221 81.2926C59.7241 79.3608 58.6844 77.4981 57.5116 75.7197" stroke="#231F20" stroke-miterlimit="10"/>
<path d="M8.10123 109.168H8.38203L33.8057 110.161L35.5661 110.226L35.7065 106.241C35.7135 106.02 35.7641 105.803 35.8554 105.602C35.9467 105.4 36.077 105.219 36.2386 105.069C36.4002 104.918 36.5901 104.801 36.7972 104.724C37.0043 104.647 37.2246 104.612 37.4454 104.621L50.2976 105.074C50.5175 105.081 50.7338 105.132 50.9343 105.222C51.1347 105.313 51.3153 105.442 51.4658 105.603C51.6162 105.763 51.7336 105.952 51.8111 106.157C51.8886 106.363 51.9248 106.582 51.9176 106.802L51.7772 110.82L80.9378 111.9C81.3459 111.897 81.7508 111.828 82.1366 111.695C83.8322 111.112 84.4694 109.286 84.113 107.375V94.6953C84.0116 93.6416 84.2617 92.5839 84.8243 91.6872C85.387 90.7905 86.2305 90.1051 87.2235 89.738L89.8803 89.036C90.6798 89.0111 91.4781 89.1132 92.2456 89.3384C92.4036 89.3827 92.5587 89.4369 92.71 89.5004C91.365 88.6098 89.787 88.1364 88.1739 88.1396H86.4998L82.8494 87.8372L53.5269 86.9624L34.3997 86.6924C34.394 86.7643 34.394 86.8365 34.3997 86.9084L31.8401 86.8436H31.1488C31.1532 89.2605 30.7026 91.6567 29.8204 93.9069L29.7016 94.1661C29.0997 95.7602 28.1861 97.2184 27.0141 98.4553C25.8421 99.6921 24.4353 100.683 22.8759 101.37C22.1263 101.676 21.3433 101.894 20.5431 102.018C18.4191 102.313 16.2553 102.091 14.2357 101.37C13.9117 101.262 13.5985 101.143 13.2961 101.024H13.2421C12.9937 100.916 12.7561 100.808 12.5293 100.689L12.2269 100.527C12.0001 100.414 11.7801 100.288 11.5681 100.149C10.2485 99.3027 9.07718 98.2445 8.10123 97.0174C7.32966 96.0855 6.64631 95.084 6.05999 94.0257V94.3497L5.14197 105.15C5.06997 105.608 5.08959 106.076 5.19968 106.527C5.30977 106.978 5.50815 107.403 5.78335 107.776C6.05855 108.15 6.40511 108.465 6.80297 108.704C7.20083 108.943 7.64208 109.1 8.10123 109.168Z" stroke="#231F20" stroke-miterlimit="10"/>
<path d="M31.2024 86.6172V86.8116H31.8612L34.4209 86.8764C34.4152 86.8045 34.4152 86.7323 34.4209 86.6604H31.602H31.1592L31.2024 86.6172Z" stroke="#231F20" stroke-miterlimit="10"/>
<path d="M35.5335 111.145C35.5263 111.364 35.5625 111.584 35.64 111.789C35.7175 111.995 35.8349 112.184 35.9853 112.344C36.1358 112.505 36.3164 112.634 36.5168 112.725C36.7173 112.815 36.9336 112.866 37.1535 112.873L43.8388 113.099C44.628 112.597 45.5223 112.283 46.4525 112.181C47.9116 112.049 49.3712 112.431 50.5781 113.261C50.9019 113.159 51.1859 112.958 51.391 112.687C51.596 112.417 51.712 112.089 51.723 111.749V110.842L51.8634 106.825C51.8706 106.605 51.8344 106.386 51.7568 106.18C51.6793 105.974 51.562 105.785 51.4115 105.625C51.261 105.464 51.0804 105.335 50.88 105.244C50.6795 105.154 50.4632 105.103 50.2433 105.096L37.3911 104.643C37.1703 104.634 36.9501 104.669 36.7429 104.746C36.5358 104.823 36.346 104.94 36.1843 105.091C36.0227 105.241 35.8925 105.423 35.8011 105.624C35.7098 105.825 35.6592 106.042 35.6523 106.263L35.5119 110.248L35.5335 111.145Z" stroke="#231F20" stroke-miterlimit="10"/>
<path d="M149.033 44.1835C149.033 44.2375 149.108 44.3023 149.152 44.3671C152.207 42.6701 154.618 40.0128 156.01 36.807L155.913 36.5586C154.526 39.7914 152.106 42.473 149.033 44.1835Z" stroke="#231F20" stroke-miterlimit="10"/>
<path d="M133.805 35.3379C133.805 35.3919 133.805 35.4567 133.805 35.5107C136.823 35.8314 139.743 36.7728 142.38 38.2755C144.701 39.5447 146.743 41.2672 148.385 43.3408L148.32 43.2436C146.667 41.1325 144.602 39.3797 142.25 38.0919C139.651 36.6114 136.777 35.6744 133.805 35.3379Z" stroke="#231F20" stroke-miterlimit="10"/>
<path d="M90.3988 42.3575C91.3481 43.6829 92.5126 44.8401 93.844 45.7811C99.9245 50.1012 107.506 48.5136 112.064 45.4895C114.777 43.6204 116.897 41.012 118.172 37.9738C119.447 34.9356 119.824 31.5953 119.257 28.3496H119.16C119.696 31.5784 119.301 34.8932 118.021 37.9057C116.742 40.9183 114.63 43.5039 111.934 45.3599C107.377 48.384 99.7949 49.9392 93.7144 45.6515C92.4413 44.7365 91.3221 43.6246 90.3988 42.3575Z" stroke="#231F20" stroke-miterlimit="10"/>
<path d="M57.512 75.7197C57.512 75.7197 58.3004 77.1454 60.1148 80.5258M37.6936 59.4006C37.8367 59.5995 38.0208 59.7653 38.2336 59.8866M151.171 28.2421L151.279 28.4257M155.891 36.5906L156.01 36.7958M78.0432 9.41732C77.0752 7.33821 75.4234 5.65396 73.3636 4.64565C71.3037 3.63734 68.9603 3.36597 66.7245 3.87682" stroke="#231F20" stroke-linecap="round" stroke-linejoin="round"/>
<path d="M6.30806 66.507C6.33325 66.4649 6.36217 66.4251 6.39446 66.3882L6.49166 66.2694C11.1033 60.6425 17.9507 59.4005 21.828 58.7093C25.0356 58.1194 28.3165 58.0428 31.5481 58.4825C33.7082 58.9577 35.5874 59.5625 37.391 59.7893L38.1146 60.0269C39.5924 60.5333 41.0355 61.1358 42.4347 61.8305C47.1273 64.2355 51.2544 67.6115 54.5417 71.7343C55.179 72.4903 55.7622 73.2463 56.313 73.9915C56.0862 73.6675 55.773 73.2247 55.2977 72.5983C55.2977 72.5983 54.6929 71.7991 54.0881 71.0755C50.7798 66.9592 46.6489 63.5787 41.9595 61.1501C39.6267 60.0701 38.8059 60.1457 38.2226 59.8325C42.0351 59.8325 39.9399 53.5144 44.4868 41.9582C49.3684 29.5595 53.1269 25.6607 58.4514 20.6278C59.715 19.4397 60.8275 18.4677 61.5943 17.9061C60.2527 15.9882 59.6715 13.6403 59.9634 11.318C59.9634 11.318 59.9634 11.2316 59.9634 11.1884C60.2842 9.47142 61.0827 7.8797 62.2671 6.59593C63.4515 5.31217 64.9739 4.3884 66.6596 3.93066C68.5719 3.97091 70.4564 4.39704 72.2001 5.18349C73.1397 5.59389 76.5201 7.00872 78.043 9.41716C78.0685 9.45067 78.0902 9.48689 78.1078 9.52516C81.8014 8.44515 85.3115 7.67833 88.422 7.03032C95.0209 5.6587 105.097 3.56346 123.717 7.19232L123.955 7.27872C126.968 8.35874 132.195 10.3028 135.068 12.5276L135.198 12.6248C142.639 18.4137 148.233 23.9866 151.16 28.2419L133.156 27.9395C132.855 30.4143 133.042 32.9241 133.707 35.3268H133.794C133.794 35.3808 133.794 35.4456 133.794 35.4996C136.812 35.8204 139.732 36.7617 142.369 38.2645C144.69 39.5336 146.732 41.2561 148.374 43.3298C148.404 43.3509 148.427 43.3812 148.439 43.4162C148.628 43.6586 148.805 43.9109 148.968 44.1722C148.968 44.2262 149.043 44.291 149.087 44.3558C152.142 42.6587 154.553 40.0015 155.945 36.7957C157.619 40.7593 159.185 46.3322 160.654 55.9336C161.507 61.4417 162.349 68.2782 163.192 76.886C164.844 93.0323 165.168 102.601 165.319 109.924C165.514 119.352 165.417 124.958 167.317 135.909C161.73 135.16 156.067 135.16 150.48 135.909C144.961 136.579 135.986 136.492 128.966 143.07L134.301 108.282C134.479 107.106 134.401 105.905 134.074 104.761L130.23 91.4231H130.305L133.545 84.2301H133.318L133.383 84.0249L117.183 85.9581L120.261 91.2178L122.259 108.779L123.145 141.482H123.08C121.836 141.417 120.592 141.621 119.434 142.082C118.277 142.542 117.232 143.248 116.373 144.15C113.522 147.498 115.088 152.109 115.368 152.876C115.853 154.223 116.628 155.447 117.636 156.462C112.809 164.13 109.839 173.029 107.657 185.46C107.665 185.5 107.665 185.54 107.657 185.579C107.506 185.936 106.836 183.851 106.091 181.345C103.324 169.28 98.8392 157.674 92.7744 146.882C93.2064 146.709 93.6817 146.493 94.1677 146.245C95.1596 146.993 96.0492 147.868 96.8137 148.848V148.913L96.8785 148.999L97.4185 149.766C98.2237 151.169 98.8514 152.668 99.287 154.226V154.421C99.287 154.421 99.395 154.982 99.449 155.501C99.557 156.656 98.9629 158.6 99.3734 158.741C99.4224 158.757 99.4755 158.757 99.5246 158.741C99.5298 158.802 99.5298 158.863 99.5246 158.924L101.814 158.87C102.389 159.014 102.99 159.014 103.564 158.87H103.996C103.996 158.73 103.996 158.589 103.996 158.438C104.07 158.082 104.07 157.714 103.996 157.358C103.91 156.044 103.678 154.744 103.305 153.481L105.335 153.049C105.335 152.963 105.335 152.865 105.335 152.757C105.713 152.228 105.238 150.597 104.579 149.01C104.132 147.584 103.481 146.231 102.646 144.992L102.225 144.366L101.836 143.836L101.598 143.545C100.585 142.211 99.3281 141.083 97.8937 140.218C97.6487 140.019 97.3887 139.838 97.1161 139.678C97.1161 139.678 96.8677 139.581 96.7705 139.527C97.0152 139.007 97.1372 138.438 97.1269 137.864L96.6625 111.004L96.4465 96.4235C96.4854 95.0967 96.1882 93.7815 95.5825 92.6003C95.5477 92.4936 95.4927 92.3946 95.4205 92.3087C95.3373 92.1478 95.2435 91.9927 95.1397 91.8443L95.0533 91.7039L94.9345 91.5419L94.8157 91.3799L94.6861 91.2178C94.3833 90.8259 94.0433 90.4643 93.6709 90.1378C93.3681 89.84 93.0432 89.5656 92.6988 89.317C92.0562 88.886 91.3539 88.5512 90.6144 88.3234C89.8153 88.1009 88.9919 87.9775 88.1627 87.9562C87.4283 87.9562 86.9747 87.9562 86.4887 87.9562C85.2663 87.9404 84.0466 87.8394 82.8382 87.6538C77.0709 86.9518 53.5157 86.779 53.5157 86.779C48.3208 86.779 40.7067 86.6278 31.2565 86.2822V86.833C31.2609 89.2499 30.8102 91.6461 29.9281 93.8963L29.8093 94.1555C29.0857 95.6891 26.5692 100.636 21.1691 101.899L20.6507 102.007C18.5268 102.302 16.363 102.08 14.3434 101.359C14.0194 101.251 13.7062 101.132 13.4038 101.014H13.3498C13.1014 100.906 12.8638 100.798 12.637 100.679L12.3346 100.517C12.1078 100.404 11.8878 100.278 11.6758 100.139C10.3185 99.3049 9.1102 98.25 8.1009 97.0176C7.32932 96.0857 6.64598 95.0842 6.05966 94.0259C4.7888 91.6421 3.84086 89.0997 3.24081 86.4658C3.24081 86.239 3.15441 86.0338 3.11121 85.8394C3.06801 85.645 3.11121 85.6666 3.05721 85.5693C3.00321 85.4721 3.0572 85.3101 2.9708 85.1589C2.94785 84.9881 2.9154 84.8186 2.87361 84.6513V84.4245C2.87361 84.2085 2.84121 84.0249 2.77641 83.8737C2.77641 83.7765 2.77641 83.6793 2.77641 83.5713C2.77641 83.4633 2.77641 83.4957 2.77641 83.4633L2.71159 83.0421C2.71159 82.7721 2.63599 82.4697 2.59279 82.1457C2.59279 82.0701 2.59279 82.0053 2.59279 81.9297C2.08518 77.7608 2.31199 71.7235 6.30806 66.507ZM128.134 42.617L128.221 42.7358C128.38 42.9686 128.557 43.1889 128.75 43.3946C130.629 45.371 134.01 44.8526 135.986 43.7942C136.661 43.4664 137.272 43.0201 137.79 42.4766C138.05 42.1767 138.196 41.7938 138.2 41.3965C138.185 41.0947 138.072 40.8062 137.876 40.5757C137.85 40.5282 137.817 40.4846 137.779 40.4461C137.056 39.6976 136.146 39.1568 135.144 38.8801C132.13 37.8973 128.048 38.7829 127.583 40.7161C127.54 41.0538 127.567 41.3968 127.661 41.7238C127.756 42.0508 127.917 42.3548 128.134 42.617ZM89.988 41.7746C90.1176 41.9798 90.258 42.1742 90.3984 42.3578C91.3478 43.6832 92.5123 44.8404 93.8437 45.7814C99.9242 50.1015 107.506 48.5139 112.064 45.4898C114.777 43.6207 116.897 41.0123 118.172 37.9741C119.447 34.9359 119.823 31.5956 119.257 28.3499H119.159V28.1663L88.2815 27.0863C87.3895 29.496 87.0791 32.0824 87.3757 34.6348C87.6722 37.1872 88.5672 39.6335 89.988 41.7746ZM57.5118 75.7196C57.4083 75.4907 57.2699 75.2794 57.1014 75.0932C57.2418 75.2984 57.3822 75.5036 57.5118 75.7196ZM56.9502 74.9096C56.8771 74.774 56.794 74.6441 56.7018 74.5207C56.7882 74.6827 56.8638 74.8016 56.9502 74.9096Z" stroke="#231F20" stroke-linecap="round" stroke-linejoin="round"/>
<path d="M89.9878 41.7752C90.1174 41.9804 90.2578 42.1748 90.3982 42.3584C91.3259 43.6063 92.4449 44.6998 93.7139 45.5984C99.7944 49.9185 107.376 48.3309 111.934 45.3068C114.62 43.455 116.726 40.8782 118.005 37.8763C119.284 34.8744 119.684 31.571 119.159 28.3505L88.3786 27.2705C87.5044 29.6475 87.1947 32.1952 87.474 34.7125C87.7533 37.2297 88.6139 39.6476 89.9878 41.7752Z" stroke="#231F20" stroke-linecap="round" stroke-linejoin="round"/>
<path d="M149.152 44.3672C152.705 49.7673 152.392 55.7938 152.165 59.4227C151.81 65.1902 149.976 70.7693 146.841 75.623" stroke="#231F20" stroke-miterlimit="10"/>
<path d="M133.848 35.511C132.771 35.396 131.69 35.3384 130.608 35.3382C127.799 35.3238 125.006 35.7577 122.335 36.6235" stroke="#231F20" stroke-miterlimit="10"/>
<path d="M128.134 42.6169L128.22 42.7357C128.345 42.9013 128.478 43.0599 128.62 43.2109C130.499 45.1873 133.88 44.6689 135.856 43.6105C136.547 43.2871 137.172 42.8406 137.703 42.2929C137.964 41.993 138.109 41.6101 138.113 41.2128C138.098 40.9883 138.032 40.7703 137.919 40.5756C137.893 40.5281 137.86 40.4845 137.822 40.446C137.105 39.7848 136.249 39.2938 135.316 39.0096C132.303 38.0268 128.22 38.9124 127.756 40.8456C127.699 41.1512 127.704 41.4649 127.769 41.7689C127.834 42.0728 127.958 42.3609 128.134 42.6169Z" stroke="#231F20" stroke-miterlimit="10"/>
<path d="M128.221 42.7362C128.38 42.969 128.557 43.1893 128.75 43.395C130.629 45.3715 134.01 44.853 135.986 43.7946C136.661 43.4668 137.272 43.0205 137.79 42.477C138.05 42.1771 138.196 41.7943 138.2 41.397C138.186 41.0952 138.072 40.8066 137.876 40.5762C137.989 40.7709 138.055 40.9889 138.071 41.2134C138.066 41.6107 137.921 41.9935 137.66 42.2934C137.143 42.8369 136.532 43.2832 135.857 43.611C133.88 44.691 130.456 45.1879 128.62 43.2114C128.479 43.0605 128.345 42.9018 128.221 42.7362Z" stroke="#231F20" stroke-miterlimit="10"/>
<path d="M117.291 86.1422L120.261 91.2183L120.369 91.4019H130.305L133.545 84.209L133.318 84.2306V84.2414L117.291 86.1422Z" stroke="#231F20" stroke-miterlimit="10"/>
<path d="M120.239 91.2178L122.259 108.779L123.144 141.482C125.098 141.469 127.016 142 128.685 143.016H128.966L134.301 108.228C134.471 107.069 134.393 105.888 134.074 104.761L130.229 91.423V91.2394L120.239 91.2178Z" stroke="#231F20" stroke-linecap="round" stroke-linejoin="round"/>
<path d="M142.53 59.0879C143.967 59.9519 145.144 61.5827 144.269 62.6412C140.522 67.2528 125.909 66 113.391 60.5567" stroke="#231F20" stroke-miterlimit="10"/>
<path d="M133.21 30.4453L119.494 30.6289" stroke="#231F20" stroke-miterlimit="10"/>
<path d="M87.666 29.0409L67.9881 27.6152C67.582 27.9017 67.24 28.2695 66.9836 28.6953C66.6776 29.2585 66.4979 29.8816 66.4568 30.5213C66.4158 31.161 66.5145 31.802 66.746 32.3997" stroke="#231F20" stroke-miterlimit="10"/>
<path d="M151.171 28.2421L157.327 28.0801C157.861 31.0582 157.398 34.1293 156.009 36.8174" stroke="#231F20" stroke-miterlimit="10"/>
</g>
<defs>
<clipPath id="clip0_990_4700">
<rect width="170.103" height="110" fill="white" transform="matrix(-1 0 0 1 170.104 0)"/>
</clipPath>
</defs>
</svg>
