<svg width="93" height="93" viewBox="0 0 93 93" fill="none" xmlns="http://www.w3.org/2000/svg">
<path d="M46.0063 92.0125C71.4148 92.0125 92.0125 71.4148 92.0125 46.0063C92.0125 20.5977 71.4148 0 46.0063 0C20.5977 0 0 20.5977 0 46.0063C0 71.4148 20.5977 92.0125 46.0063 92.0125Z" fill="#008082"/>
<path opacity="0.7" d="M40.7263 3.99133C45.9813 1.25122 51.2988 2.31473 55.6404 3.14052C61.7071 4.33709 67.3998 6.96679 72.2437 10.8103C76.2187 13.9772 79.5451 17.8814 82.0406 22.3088C83.6352 25.2943 84.9222 28.4343 85.8817 31.6802C89.0222 40.8639 90.5737 45.5559 89.2849 50.448C87.9962 55.3402 84.5179 59.4065 83.3293 58.9686C82.1406 58.5307 83.079 54.9648 83.3293 51.7242C84.1926 40.0381 78.825 26.275 69.2659 18.4801C65.2775 14.9898 60.4248 12.6348 55.215 11.6611C52.1083 11.262 48.9731 11.128 45.8436 11.2607C38.0862 11.3734 34.9708 12.5119 34.3452 11.2607C33.5945 9.75932 36.8726 5.99323 40.7263 3.99133Z" fill="white"/>
<path opacity="0.7" d="M34.3698 4.36709C35.2206 5.36804 32.7683 9.24673 30.1032 11.6115C29.0772 12.5123 28.7019 12.5999 24.573 15.0147C19.4806 17.9925 18.5422 18.7683 18.1794 18.418C17.4912 17.7798 19.5682 13.8386 22.4459 10.7607C26.8126 6.06871 33.2938 3.1159 34.3698 4.36709Z" fill="white"/>
<path opacity="0.2" d="M6.25574 58.8808C5.27981 59.669 8.37025 65.1367 10.0969 67.8268C13.0334 72.4407 16.7856 76.4812 21.1699 79.7506C24.224 81.9494 27.509 83.808 30.9667 85.2934C36.2092 87.7958 39.2121 89.1596 43.316 89.122C46.8944 89.122 50.9232 88.3963 50.9858 87.4204C51.0483 86.4445 47.6701 86.0941 40.3382 83.5918C36.6906 82.4172 33.1287 80.9916 29.678 79.3252C25.2863 77.1607 23.0842 76.0721 20.7445 73.7949C17.2412 70.4042 17.8543 68.7026 13.9255 64.4235C11.2605 61.4207 7.16911 58.1801 6.25574 58.8808Z" fill="#231F20"/>
</svg>
