<svg width="170" height="170" viewBox="0 0 170 170" fill="none" xmlns="http://www.w3.org/2000/svg">
<path d="M84.5115 169.023C131.186 169.023 169.023 131.186 169.023 84.5115C169.023 37.8371 131.186 0 84.5115 0C37.8371 0 0 37.8371 0 84.5115C0 131.186 37.8371 169.023 84.5115 169.023Z" fill="#008082"/>
<path opacity="0.7" d="M74.8125 7.3318C84.4657 2.29835 94.2338 4.25197 102.209 5.7689C113.353 7.96694 123.811 12.7976 132.709 19.858C140.01 25.6754 146.121 32.8472 150.705 40.9801C153.634 46.4644 155.999 52.2324 157.761 58.195C163.53 75.0651 166.38 83.684 164.013 92.6707C161.645 101.657 155.256 109.127 153.072 108.323C150.889 107.518 152.613 100.968 153.072 95.0151C154.658 73.5482 144.798 48.266 127.239 33.9471C119.912 27.5355 110.998 23.2094 101.428 21.4209C95.7207 20.6876 89.9617 20.4416 84.2129 20.6854C69.9629 20.8923 64.24 22.9838 63.0908 20.6854C61.7117 17.9273 67.7335 11.0092 74.8125 7.3318Z" fill="white"/>
<path opacity="0.7" d="M63.1368 8.02121C64.6997 9.85992 60.1949 16.9849 55.2993 21.3288C53.4147 22.9837 52.7251 23.1446 45.1405 27.5804C35.7861 33.0506 34.0623 34.4756 33.3958 33.832C32.1316 32.6599 35.947 25.42 41.2332 19.7659C49.2546 11.147 61.1602 5.72283 63.1368 8.02121Z" fill="white"/>
<path opacity="0.2" d="M11.4918 108.162C9.69909 109.61 15.3761 119.654 18.5479 124.595C23.9421 133.071 30.8348 140.493 38.8885 146.499C44.4987 150.538 50.5332 153.952 56.8849 156.681C66.5151 161.277 72.0312 163.783 79.5699 163.714C86.1433 163.714 93.544 162.381 93.659 160.588C93.7739 158.795 87.5683 158.152 74.0997 153.555C67.3993 151.397 60.8563 148.778 54.5175 145.717C46.4502 141.741 42.4051 139.742 38.1071 135.559C31.6716 129.33 32.7978 126.204 25.5809 118.344C20.6854 112.828 13.1696 106.875 11.4918 108.162Z" fill="#231F20"/>
</svg>
