<svg width="93" height="93" viewBox="0 0 93 93" fill="none" xmlns="http://www.w3.org/2000/svg">
<path d="M46.0063 92.0125C71.4148 92.0125 92.0125 71.4148 92.0125 46.0063C92.0125 20.5977 71.4148 0 46.0063 0C20.5977 0 0 20.5977 0 46.0063C0 71.4148 20.5977 92.0125 46.0063 92.0125Z" fill="#008082"/>
<path opacity="0.7" d="M40.7253 3.99133C45.9803 1.25122 51.2978 2.31473 55.6395 3.14052C61.7062 4.33709 67.3988 6.96679 72.2428 10.8103C76.2177 13.9772 79.5441 17.8814 82.0396 22.3088C83.6343 25.2943 84.9213 28.4343 85.8807 31.6802C89.0212 40.8639 90.5727 45.5559 89.284 50.448C87.9952 55.3402 84.5169 59.4065 83.3283 58.9686C82.1397 58.5307 83.0781 54.9648 83.3283 51.7242C84.1916 40.0381 78.824 26.275 69.2649 18.4801C65.2765 14.9898 60.4238 12.6348 55.2141 11.6611C52.1073 11.262 48.9722 11.128 45.8427 11.2607C38.0853 11.3734 34.9698 12.5119 34.3442 11.2607C33.5935 9.75932 36.8716 5.99323 40.7253 3.99133Z" fill="white"/>
<path opacity="0.7" d="M34.3698 4.36709C35.2206 5.36804 32.7683 9.24673 30.1032 11.6115C29.0772 12.5123 28.7019 12.5999 24.573 15.0147C19.4806 17.9925 18.5422 18.7683 18.1794 18.418C17.4912 17.7798 19.5682 13.8386 22.4459 10.7607C26.8126 6.06871 33.2938 3.1159 34.3698 4.36709Z" fill="white"/>
<path opacity="0.2" d="M6.25671 58.8808C5.28079 59.669 8.37122 65.1367 10.0979 67.8268C13.0344 72.4407 16.7866 76.4812 21.1709 79.7506C24.2249 81.9494 27.51 83.808 30.9677 85.2934C36.2102 87.7958 39.2131 89.1596 43.317 89.122C46.8954 89.122 50.9242 88.3963 50.9868 87.4204C51.0493 86.4445 47.6711 86.0941 40.3391 83.5918C36.6916 82.4172 33.1297 80.9916 29.679 79.3252C25.2873 77.1607 23.0852 76.0721 20.7455 73.7949C17.2422 70.4042 17.8552 68.7026 13.9265 64.4235C11.2615 61.4207 7.17008 58.1801 6.25671 58.8808Z" fill="#231F20"/>
</svg>
