<svg width="138" height="138" viewBox="0 0 138 138" fill="none" xmlns="http://www.w3.org/2000/svg">
<path d="M68.5093 137.019C106.346 137.019 137.019 106.346 137.019 68.5093C137.019 30.6727 106.346 0 68.5093 0C30.6727 0 0 30.6727 0 68.5093C0 106.346 30.6727 137.019 68.5093 137.019Z" fill="#008082"/>
<path opacity="0.7" d="M60.6463 5.9439C68.4717 1.86352 76.3902 3.44723 82.8555 4.67693C91.8896 6.45877 100.367 10.3747 107.58 16.0983C113.499 20.8141 118.453 26.628 122.169 33.2209C124.543 37.6668 126.46 42.3426 127.889 47.1762C132.565 60.852 134.876 67.8389 132.957 75.124C131.037 82.409 125.858 88.4644 124.088 87.8122C122.318 87.1601 123.715 81.8501 124.088 77.0244C125.373 59.6223 117.38 39.1272 103.146 27.5196C97.2063 22.3221 89.98 18.8151 82.222 17.3652C77.5956 16.7708 72.927 16.5714 68.2667 16.769C56.715 16.9367 52.0757 18.6322 51.1441 16.769C50.0261 14.5332 54.9077 8.92499 60.6463 5.9439Z" fill="white"/>
<path opacity="0.7" d="M51.1819 6.5021C52.4489 7.99264 48.7971 13.7685 44.8285 17.2899C43.3007 18.6314 42.7417 18.7619 36.5932 22.3578C29.01 26.7922 27.6126 27.9474 27.0723 27.4257C26.0476 26.4754 29.1405 20.6064 33.4258 16.023C39.9283 9.03603 49.5796 4.63891 51.1819 6.5021Z" fill="white"/>
<path opacity="0.2" d="M9.31566 87.6819C7.86238 88.8557 12.4644 96.9978 15.0356 101.004C19.4085 107.874 24.996 113.891 31.5248 118.76C36.0727 122.034 40.9646 124.802 46.1136 127.014C53.9203 130.74 58.392 132.771 64.5032 132.715C69.8319 132.715 75.8314 131.634 75.9245 130.181C76.0177 128.728 70.9871 128.206 60.0688 124.48C54.6371 122.731 49.333 120.608 44.1945 118.126C37.6547 114.903 34.3755 113.282 30.8913 109.891C25.6744 104.842 26.5874 102.308 20.737 95.9358C16.7684 91.4642 10.6758 86.6385 9.31566 87.6819Z" fill="#231F20"/>
</svg>
