<svg width="111" height="111" viewBox="0 0 111 111" fill="none" xmlns="http://www.w3.org/2000/svg">
<path d="M55.0075 110.015C85.3873 110.015 110.015 85.3873 110.015 55.0075C110.015 24.6277 85.3873 0 55.0075 0C24.6277 0 0 24.6277 0 55.0075C0 85.3873 24.6277 110.015 55.0075 110.015Z" fill="#008082"/>
<path opacity="0.7" d="M48.6941 4.77197C54.9772 1.49575 61.3352 2.76734 66.5263 3.75469C73.7799 5.18537 80.5864 8.32958 86.378 12.9251C91.1306 16.7116 95.1079 21.3796 98.0916 26.6732C99.9983 30.2429 101.537 33.9972 102.684 37.8782C106.439 48.8587 108.294 54.4687 106.753 60.318C105.213 66.1673 101.054 71.0293 99.6325 70.5057C98.2113 69.9821 99.3333 65.7185 99.6325 61.8439C100.665 47.8714 94.2469 31.4155 82.8176 22.0955C78.0488 17.9223 72.2467 15.1065 66.0176 13.9424C62.303 13.4651 58.5545 13.305 54.8127 13.4637C45.5375 13.5983 41.8125 14.9596 41.0645 13.4637C40.167 11.6685 44.0864 7.16555 48.6941 4.77197Z" fill="white"/>
<path opacity="0.7" d="M41.0946 5.22129C42.1119 6.41808 39.1798 11.0556 35.9933 13.8831C34.7666 14.9602 34.3178 15.0649 29.3811 17.9521C23.2924 21.5126 22.1704 22.4401 21.7366 22.0212C20.9138 21.2583 23.3971 16.5459 26.8379 12.8658C32.0589 7.25583 39.8081 3.7253 41.0946 5.22129Z" fill="white"/>
<path opacity="0.2" d="M7.48068 70.4016C6.31381 71.3441 10.0089 77.8816 12.0734 81.0979C15.5844 86.6145 20.0708 91.4456 25.3129 95.3547C28.9644 97.9837 32.8923 100.206 37.0264 101.982C43.2946 104.974 46.885 106.605 51.7919 106.56C56.0704 106.56 60.8875 105.692 60.9623 104.525C61.0371 103.358 56.9979 102.939 48.2314 99.9474C43.8702 98.543 39.6114 96.8385 35.4856 94.8461C30.2347 92.258 27.6017 90.9565 24.8042 88.2338C20.6155 84.1797 21.3485 82.1451 16.6511 77.0288C13.4646 73.4385 8.57276 69.5639 7.48068 70.4016Z" fill="#231F20"/>
</svg>
