<svg width="63" height="63" viewBox="0 0 63 63" fill="none" xmlns="http://www.w3.org/2000/svg">
<path d="M31.0042 62.0084C48.1274 62.0084 62.0084 48.1274 62.0084 31.0042C62.0084 13.8811 48.1274 0 31.0042 0C13.8811 0 0 13.8811 0 31.0042C0 48.1274 13.8811 62.0084 31.0042 62.0084Z" fill="#008082"/>
<path opacity="0.7" d="M27.4453 2.68962C30.9867 0.843025 34.5702 1.55974 37.4961 2.11625C41.5845 2.92263 45.4209 4.69482 48.6853 7.28502C51.364 9.41922 53.6058 12.0503 55.2875 15.034C56.3622 17.046 57.2295 19.162 57.8761 21.3495C59.9925 27.5385 61.0381 30.7005 60.1696 33.9974C59.3011 37.2943 56.957 40.0346 56.156 39.7395C55.355 39.4444 55.9873 37.0413 56.156 34.8574C56.7378 26.982 53.1205 17.7069 46.6785 12.4538C43.9906 10.1016 40.7204 8.51455 37.2094 7.85839C35.1157 7.5894 33.0029 7.49913 30.8939 7.58857C25.6661 7.66446 23.5666 8.43176 23.145 7.58857C22.6391 6.57674 24.8482 4.03873 27.4453 2.68962Z" fill="white"/>
<path opacity="0.7" d="M23.1623 2.9431C23.7357 3.61766 22.083 6.23156 20.287 7.82519C19.5956 8.43229 19.3427 8.49131 16.5601 10.1187C13.1283 12.1255 12.4959 12.6483 12.2514 12.4122C11.7877 11.9821 13.1874 9.32608 15.1267 7.25182C18.0694 4.08985 22.4372 2.09991 23.1623 2.9431Z" fill="white"/>
<path opacity="0.2" d="M4.21546 39.6803C3.55777 40.2115 5.64046 43.8963 6.80407 45.7092C8.78301 48.8185 11.3117 51.5415 14.2663 53.7448C16.3245 55.2266 18.5383 56.4791 20.8685 57.4801C24.4015 59.1665 26.4252 60.0856 29.1908 60.0603C31.6024 60.0603 34.3175 59.5713 34.3596 58.9136C34.4018 58.2559 32.1252 58.0198 27.184 56.3334C24.7259 55.5418 22.3255 54.5811 20 53.4581C17.0404 51.9994 15.5564 51.2658 13.9796 49.7312C11.6187 47.4461 12.0319 46.2994 9.38424 43.4157C7.58824 41.392 4.83099 39.2081 4.21546 39.6803Z" fill="#231F20"/>
</svg>
