<svg width="86" height="86" viewBox="0 0 86 86" fill="none" xmlns="http://www.w3.org/2000/svg">
<path d="M42.5058 85.0116C65.9811 85.0116 85.0116 65.9811 85.0116 42.5058C85.0116 19.0305 65.9811 0 42.5058 0C19.0305 0 0 19.0305 0 42.5058C0 65.9811 19.0305 85.0116 42.5058 85.0116Z" fill="#008082"/>
<path opacity="0.7" d="M37.628 3.68721C42.4832 1.15559 47.3962 2.13818 51.4075 2.90113C57.0125 4.00666 62.2721 6.43627 66.7475 9.98736C70.4199 12.9133 73.4933 16.5204 75.7989 20.6109C77.2722 23.3693 78.4613 26.2703 79.3478 29.2693C82.2493 37.7543 83.6827 42.0892 82.492 46.6091C81.3014 51.1291 78.0877 54.886 76.9895 54.4814C75.8913 54.0768 76.7583 50.7823 76.9895 47.7883C77.7872 36.9913 72.828 24.2754 63.9962 17.0736C60.3112 13.8488 55.8278 11.673 51.0144 10.7734C48.144 10.4046 45.2474 10.2809 42.356 10.4035C35.1889 10.5076 32.3105 11.5595 31.7325 10.4035C31.0389 9.01632 34.0676 5.53679 37.628 3.68721Z" fill="white"/>
<path opacity="0.7" d="M31.7548 4.03463C32.5408 4.95942 30.2751 8.54299 27.8128 10.7278C26.8649 11.5601 26.5181 11.6411 22.7034 13.8721C17.9985 16.6234 17.1315 17.3401 16.7963 17.0164C16.1605 16.4269 18.0794 12.7855 20.7382 9.94174C24.7726 5.60678 30.7606 2.87864 31.7548 4.03463Z" fill="white"/>
<path opacity="0.2" d="M5.77964 54.4008C4.87797 55.129 7.73326 60.1807 9.32853 62.6661C12.0416 66.9289 15.5083 70.662 19.5591 73.6827C22.3807 75.7142 25.4159 77.4314 28.6105 78.8037C33.4541 81.1157 36.2284 82.3757 40.0201 82.3411C43.3262 82.3411 47.0485 81.6706 47.1063 80.7689C47.1641 79.8672 44.0429 79.5436 37.2688 77.2316C33.8988 76.1464 30.6079 74.8293 27.4198 73.2897C23.3623 71.2898 21.3277 70.2841 19.166 68.1802C15.9292 65.0474 16.4957 63.4753 12.8659 59.5218C10.4036 56.7474 6.62351 53.7534 5.77964 54.4008Z" fill="#231F20"/>
</svg>
