<svg width="56" height="56" viewBox="0 0 56 56" fill="none" xmlns="http://www.w3.org/2000/svg">
<path d="M27.5037 55.0075C42.6936 55.0075 55.0075 42.6936 55.0075 27.5037C55.0075 12.3138 42.6936 0 27.5037 0C12.3138 0 0 12.3138 0 27.5037C0 42.6936 12.3138 55.0075 27.5037 55.0075Z" fill="#008082"/>
<path opacity="0.7" d="M24.348 2.38647C27.4896 0.748364 30.6686 1.38416 33.2641 1.87784C36.8909 2.59317 40.2942 4.16528 43.19 6.46304C45.5663 8.35628 47.5549 10.6903 49.0468 13.3371C50.0001 15.1219 50.7695 16.9991 51.3431 18.9396C53.2206 24.4299 54.1481 27.2348 53.3777 30.1595C52.6072 33.0841 50.5278 35.5151 49.8172 35.2533C49.1066 34.9915 49.6676 32.8597 49.8172 30.9224C50.3333 23.9362 47.1244 15.7082 41.4098 11.0482C39.0254 8.96165 36.1243 7.55375 33.0098 6.97167C31.1525 6.73305 29.2782 6.65297 27.4073 6.73232C22.7697 6.79964 20.9072 7.48031 20.5332 6.73232C20.0845 5.83472 22.0442 3.58326 24.348 2.38647Z" fill="white"/>
<path opacity="0.7" d="M20.5473 2.61064C21.056 3.20904 19.5899 5.52782 17.9967 6.94153C17.3833 7.48008 17.1589 7.53244 14.6905 8.97607C11.6462 10.7563 11.0852 11.2201 10.8683 11.0106C10.4569 10.6291 11.6986 8.27296 13.4189 6.43289C16.0294 3.62792 19.904 1.86265 20.5473 2.61064Z" fill="white"/>
<path opacity="0.2" d="M3.74034 35.2003C3.15691 35.6716 5.00445 38.9403 6.03668 40.5485C7.7922 43.3068 10.0354 45.7223 12.6564 47.6769C14.4822 48.9914 16.4461 50.1025 18.5132 50.9905C21.6473 52.4865 23.4425 53.3018 25.8959 53.2793C28.0352 53.2793 30.4437 52.8455 30.4811 52.2621C30.5185 51.6786 28.4989 51.4692 24.1157 49.9732C21.9351 49.271 19.8057 48.4188 17.7428 47.4225C15.1173 46.1285 13.8009 45.4778 12.4021 44.1164C10.3077 42.0893 10.6742 41.0721 8.32555 38.5139C6.73232 36.7187 4.28638 34.7814 3.74034 35.2003Z" fill="#231F20"/>
</svg>
