<svg width="138" height="138" viewBox="0 0 138 138" fill="none" xmlns="http://www.w3.org/2000/svg">
<path d="M68.5093 137.019C106.346 137.019 137.019 106.346 137.019 68.5093C137.019 30.6727 106.346 0 68.5093 0C30.6727 0 0 30.6727 0 68.5093C0 106.346 30.6727 137.019 68.5093 137.019Z" fill="#008082"/>
<path opacity="0.7" d="M60.6473 5.9439C68.4727 1.86352 76.3912 3.44723 82.8564 4.67693C91.8905 6.45877 100.368 10.3747 107.581 16.0983C113.5 20.8141 118.454 26.628 122.17 33.2209C124.544 37.6668 126.461 42.3426 127.89 47.1762C132.566 60.852 134.877 67.8389 132.957 75.124C131.038 82.409 125.859 88.4644 124.089 87.8122C122.319 87.1601 123.716 81.8501 124.089 77.0244C125.374 59.6223 117.381 39.1272 103.147 27.5196C97.2072 22.3221 89.981 18.8151 82.223 17.3652C77.5966 16.7708 72.9279 16.5714 68.2677 16.769C56.716 16.9367 52.0766 18.6322 51.145 16.769C50.0271 14.5332 54.9087 8.92499 60.6473 5.9439Z" fill="white"/>
<path opacity="0.7" d="M51.1819 6.5021C52.4489 7.99264 48.7971 13.7685 44.8285 17.2899C43.3007 18.6314 42.7417 18.7619 36.5932 22.3578C29.01 26.7922 27.6126 27.9474 27.0723 27.4257C26.0476 26.4754 29.1405 20.6064 33.4258 16.023C39.9283 9.03603 49.5796 4.63891 51.1819 6.5021Z" fill="white"/>
<path opacity="0.2" d="M9.31664 87.6819C7.86335 88.8557 12.4654 96.9978 15.0366 101.004C19.4095 107.874 24.997 113.891 31.5258 118.76C36.0737 122.034 40.9656 124.802 46.1145 127.014C53.9213 130.74 58.3929 132.771 64.5042 132.715C69.8329 132.715 75.8323 131.634 75.9255 130.181C76.0187 128.728 70.9881 128.206 60.0698 124.48C54.6381 122.731 49.334 120.608 44.1955 118.126C37.6557 114.903 34.3765 113.282 30.8923 109.891C25.6754 104.842 26.5884 102.308 20.738 95.9358C16.7694 91.4642 10.6768 86.6385 9.31664 87.6819Z" fill="#231F20"/>
</svg>
