<svg width="63" height="63" viewBox="0 0 63 63" fill="none" xmlns="http://www.w3.org/2000/svg">
<path d="M31.0042 62.0084C48.1274 62.0084 62.0084 48.1274 62.0084 31.0042C62.0084 13.8811 48.1274 0 31.0042 0C13.8811 0 0 13.8811 0 31.0042C0 48.1274 13.8811 62.0084 31.0042 62.0084Z" fill="#008082"/>
<path opacity="0.7" d="M27.4462 2.68962C30.9876 0.843025 34.5712 1.55974 37.4971 2.11625C41.5855 2.92263 45.4219 4.69482 48.6863 7.28502C51.365 9.41922 53.6067 12.0503 55.2885 15.034C56.3632 17.046 57.2305 19.162 57.8771 21.3495C59.9935 27.5385 61.0391 30.7005 60.1706 33.9974C59.3021 37.2943 56.958 40.0346 56.157 39.7395C55.3559 39.4444 55.9883 37.0413 56.157 34.8574C56.7388 26.982 53.1215 17.7069 46.6795 12.4538C43.9916 10.1016 40.7214 8.51455 37.2104 7.85839C35.1167 7.5894 33.0039 7.49913 30.8949 7.58857C25.6671 7.66446 23.5675 8.43176 23.1459 7.58857C22.64 6.57674 24.8492 4.03873 27.4462 2.68962Z" fill="white"/>
<path opacity="0.7" d="M23.1623 2.9431C23.7357 3.61766 22.083 6.23156 20.287 7.82519C19.5956 8.43229 19.3427 8.49131 16.5601 10.1187C13.1283 12.1255 12.4959 12.6483 12.2514 12.4122C11.7877 11.9821 13.1874 9.32608 15.1267 7.25182C18.0694 4.08985 22.4372 2.09991 23.1623 2.9431Z" fill="white"/>
<path opacity="0.2" d="M4.21644 39.6803C3.55875 40.2115 5.64144 43.8963 6.80504 45.7092C8.78399 48.8185 11.3127 51.5415 14.2673 53.7448C16.3255 55.2266 18.5393 56.4791 20.8695 57.4801C24.4025 59.1665 26.4261 60.0856 29.1918 60.0603C31.6034 60.0603 34.3184 59.5713 34.3606 58.9136C34.4028 58.2559 32.1261 58.0198 27.185 56.3334C24.7269 55.5418 22.3265 54.5811 20.001 53.4581C17.0414 51.9994 15.5574 51.2658 13.9806 49.7312C11.6197 47.4461 12.0328 46.2994 9.38521 43.4157C7.58921 41.392 4.83197 39.2081 4.21644 39.6803Z" fill="#231F20"/>
</svg>
