<svg width="108" height="108" viewBox="0 0 108 108" fill="none" xmlns="http://www.w3.org/2000/svg">
<path d="M53.5073 107.015C83.0585 107.015 107.015 83.0585 107.015 53.5073C107.015 23.956 83.0585 0 53.5073 0C23.956 0 0 23.956 0 53.5073C0 83.0585 23.956 107.015 53.5073 107.015Z" fill="#008082"/>
<path opacity="0.7" d="M47.3663 4.64219C53.4781 1.45532 59.6626 2.69223 64.7121 3.65266C71.7679 5.04432 78.3888 8.10277 84.0225 12.573C88.6455 16.2562 92.5142 20.7969 95.4166 25.9461C97.2713 29.4185 98.7681 33.0704 99.884 36.8455C103.537 47.5266 105.341 52.9835 103.842 58.6733C102.343 64.3631 98.2979 69.0925 96.9154 68.5832C95.533 68.0738 96.6244 63.9266 96.9154 60.1576C97.9195 46.5662 91.6768 30.5591 80.5591 21.4933C75.9204 17.4339 70.2766 14.6949 64.2174 13.5625C60.604 13.0983 56.9577 12.9425 53.318 13.0968C44.2958 13.2278 40.6724 14.552 39.9448 13.0968C39.0717 11.3506 42.8843 6.97049 47.3663 4.64219Z" fill="white"/>
<path opacity="0.7" d="M39.9745 5.07908C40.964 6.24324 38.1118 10.7543 35.0123 13.5046C33.819 14.5524 33.3825 14.6542 28.5804 17.4627C22.6577 20.9261 21.5663 21.8283 21.1443 21.4209C20.344 20.6787 22.7596 16.0949 26.1065 12.5151C31.1851 7.05814 38.723 3.6239 39.9745 5.07908Z" fill="white"/>
<path opacity="0.2" d="M7.27636 68.4815C6.14132 69.3982 9.73563 75.7574 11.7438 78.8861C15.1591 84.2522 19.5231 88.9516 24.6222 92.754C28.1742 95.3113 31.9949 97.473 36.0163 99.2005C42.1136 102.111 45.606 103.697 50.379 103.653C54.5409 103.653 59.2266 102.809 59.2993 101.674C59.3721 100.539 55.4431 100.132 46.9157 97.2214C42.6734 95.8554 38.5308 94.1974 34.5175 92.2593C29.4098 89.7418 26.8486 88.4758 24.1274 85.8273C20.0529 81.8838 20.766 79.9047 16.1967 74.928C13.0971 71.4355 8.33865 67.6666 7.27636 68.4815Z" fill="#231F20"/>
</svg>
