<svg width="108" height="108" viewBox="0 0 108 108" fill="none" xmlns="http://www.w3.org/2000/svg">
<path d="M53.5073 107.015C83.0585 107.015 107.015 83.0585 107.015 53.5073C107.015 23.956 83.0585 0 53.5073 0C23.956 0 0 23.956 0 53.5073C0 83.0585 23.956 107.015 53.5073 107.015Z" fill="#008082"/>
<path opacity="0.7" d="M47.3673 4.64219C53.479 1.45532 59.6636 2.69223 64.7131 3.65266C71.7689 5.04432 78.3897 8.10277 84.0235 12.573C88.6465 16.2562 92.5152 20.7969 95.4176 25.9461C97.2723 29.4185 98.7691 33.0704 99.885 36.8455C103.538 47.5266 105.342 52.9835 103.843 58.6733C102.344 64.3631 98.2988 69.0925 96.9164 68.5832C95.534 68.0738 96.6254 63.9266 96.9164 60.1576C97.9205 46.5662 91.6777 30.5591 80.5601 21.4933C75.9214 17.4339 70.2775 14.6949 64.2183 13.5625C60.605 13.0983 56.9587 12.9425 53.319 13.0968C44.2968 13.2278 40.6734 14.552 39.9458 13.0968C39.0727 11.3506 42.8853 6.97049 47.3673 4.64219Z" fill="white"/>
<path opacity="0.7" d="M39.9745 5.07908C40.964 6.24324 38.1118 10.7543 35.0123 13.5046C33.819 14.5524 33.3825 14.6542 28.5804 17.4627C22.6577 20.9261 21.5663 21.8283 21.1443 21.4209C20.344 20.6787 22.7596 16.0949 26.1065 12.5151C31.1851 7.05814 38.723 3.6239 39.9745 5.07908Z" fill="white"/>
<path opacity="0.2" d="M7.27539 68.4815C6.14034 69.3982 9.73465 75.7574 11.7428 78.8861C15.1581 84.2522 19.5221 88.9516 24.6212 92.754C28.1732 95.3113 31.9939 97.473 36.0154 99.2005C42.1126 102.111 45.605 103.697 50.3781 103.653C54.5399 103.653 59.2256 102.809 59.2984 101.674C59.3711 100.539 55.4421 100.132 46.9147 97.2214C42.6725 95.8554 38.5298 94.1974 34.5165 92.2593C29.4088 89.7418 26.8477 88.4758 24.1265 85.8273C20.0519 81.8838 20.765 79.9047 16.1957 74.928C13.0961 71.4355 8.33767 67.6666 7.27539 68.4815Z" fill="#231F20"/>
</svg>
