<svg width="267" height="300" viewBox="0 0 267 300" fill="none" xmlns="http://www.w3.org/2000/svg">
<g clip-path="url(#clip0_1052_12312)">
<path d="M135.798 89.416C135.353 89.8179 134.849 90.1504 134.305 90.4022C133.334 90.8005 132.29 90.9891 131.24 90.9556C130.191 90.9221 129.161 90.6674 128.217 90.208C124.979 88.7137 123.74 85.3367 123.068 83.1402C121.641 78.4967 121.6 73.5369 122.949 68.8701C124.901 69.7865 126.978 70.406 129.112 70.708C130.413 72.5038 131.556 74.4086 132.53 76.4011C134.337 80.5263 135.442 84.9254 135.798 89.416Z" fill="white" stroke="#231F20" stroke-linejoin="round"/>
<path d="M128.531 147.751C128.531 147.661 128.531 147.556 128.531 147.467" stroke="#231F20" stroke-linejoin="round"/>
<path d="M139.887 175.544C140.245 175.962 140.603 176.426 140.976 176.919" stroke="#231F20" stroke-linejoin="round"/>
<path d="M72.5099 159.615H72.3457" stroke="#231F20" stroke-linejoin="round"/>
<path d="M80.1944 176.874L79.9258 177.71C79.9258 177.411 80.075 177.098 80.1645 176.799C80.1645 176.829 80.1795 176.844 80.1944 176.874Z" fill="white" stroke="#231F20" stroke-linejoin="round"/>
<path d="M86.791 262.016H88.5967H90.865C92.3572 262.016 93.8495 262.016 95.4612 261.896" fill="white"/>
<path d="M86.791 262.016H88.5967H90.865C92.3572 262.016 93.8495 262.016 95.4612 261.896" stroke="#231F20" stroke-linejoin="round"/>
<path d="M107.443 260.701C110.771 260.178 114.188 259.491 117.606 258.609L118.501 258.385" fill="white"/>
<path d="M107.443 260.701C110.771 260.178 114.188 259.491 117.606 258.609L118.501 258.385" stroke="#231F20" stroke-linejoin="round"/>
<path d="M154.72 236.091C153.728 237.591 152.626 239.014 151.422 240.349C151.138 240.678 150.825 241.022 150.512 241.351" fill="white"/>
<path d="M154.72 236.091C153.728 237.591 152.626 239.014 151.422 240.349C151.138 240.678 150.825 241.022 150.512 241.351" stroke="#231F20" stroke-linejoin="round"/>
<path d="M163.257 288.016C159.789 292.438 154.817 295.427 149.289 296.414C135.978 298.536 124.965 286.134 120.07 280.65C115.712 275.719 109.415 268.696 107.46 260.702C103.506 261.337 99.521 261.756 95.5218 261.957C94.1732 266.85 92.2916 271.581 89.9108 276.062C86.9262 282.039 83.285 289.69 74.6596 294.636C72.2272 296.026 61.229 302.301 51.2904 297.43C45.6794 294.681 43.0828 289.735 41.6502 286.97C35.4423 275.181 39.4864 262.868 40.6354 259.76C41.8546 256.47 43.5435 253.375 45.6495 250.571C40.9674 247.462 37.0037 243.386 34.0246 238.617C31.3385 234.298 29.8462 229.068 28.8314 221.761C27.9659 215.261 27.4735 207.118 26.8467 196.449C26.4513 189.777 26.5461 183.084 27.1302 176.426C27.2198 175.44 27.3242 174.439 27.4585 173.438L29.7417 175.201C32.1145 177.039 34.5171 178.862 36.9196 180.685L38.5612 181.925C46.0226 187.483 54.4689 192.922 61.6618 198.586L60.8858 199.019L62.6765 199.393L73.5553 201.724L136.873 214.918C137.077 215.502 137.322 216.071 137.604 216.621C140.589 222.255 147.767 223.584 152.84 224.511C154.885 224.884 157.094 225.288 159.421 225.482C159.039 227.056 158.54 228.599 157.929 230.099C157.069 232.194 155.999 234.197 154.736 236.076C168.151 256.802 171.613 277.138 163.257 288.016Z" fill="white" stroke="#231F20" stroke-linejoin="round"/>
<path d="M60.5117 257.713C57.6253 256.793 54.8077 255.67 52.0803 254.351C51.0954 253.873 50.1254 253.364 49.0957 252.856" fill="white"/>
<path d="M60.5117 257.713C57.6253 256.793 54.8077 255.67 52.0803 254.351C51.0954 253.873 50.1254 253.364 49.0957 252.856" stroke="#231F20" stroke-linejoin="round"/>
<path d="M47.1406 251.616L47.9017 252.079" stroke="#231F20" stroke-linejoin="round"/>
<path d="M49.1562 252.812C50.1262 253.364 51.0962 253.872 52.1408 254.306Z" fill="white"/>
<path d="M49.1562 252.812C50.1262 253.364 51.0962 253.872 52.1408 254.306" stroke="#231F20" stroke-linejoin="round"/>
<path d="M47.1406 251.616L47.9017 252.079" stroke="#231F20" stroke-linejoin="round"/>
<path d="M95.5054 261.956C93.9086 262.031 92.3716 262.076 90.9091 262.076H87.5664" fill="white"/>
<path d="M95.5054 261.956C93.9086 262.031 92.3716 262.076 90.9091 262.076H87.5664" stroke="#231F20" stroke-linejoin="round"/>
<path d="M121.054 257.683C119.92 258.011 118.771 258.325 117.621 258.609C114.204 259.491 110.787 260.178 107.459 260.701" fill="white"/>
<path d="M121.054 257.683C119.92 258.011 118.771 258.325 117.621 258.609C114.204 259.491 110.787 260.178 107.459 260.701" stroke="#231F20" stroke-linejoin="round"/>
<path d="M154.721 236.091C153.729 237.591 152.626 239.014 151.423 240.349L151.064 240.768" fill="white"/>
<path d="M154.721 236.091C153.729 237.591 152.626 239.014 151.423 240.349L151.064 240.768" stroke="#231F20" stroke-linejoin="round"/>
<path d="M187.133 202.306C186.178 206.086 183.447 217.024 173.822 222.553L172.673 223.165C168.56 225.147 163.972 225.924 159.437 225.407C157.109 225.213 154.96 224.809 152.856 224.436C147.782 223.509 140.574 222.179 137.619 216.546C137.337 215.996 137.092 215.426 136.888 214.842C136.039 212.692 136.039 210.299 136.888 208.148C137.933 205.907 139.425 206.176 141.708 203.322C143.571 200.862 144.792 197.976 145.26 194.924C145.833 191.988 145.833 188.969 145.26 186.033C144.546 182.716 143.098 179.601 141.022 176.918L84.0015 162.514L72.5706 159.615H72.3766L37.3078 162.604L31.7266 163.082L29.2793 163.291L29.7121 161.468C30.4284 158.479 30.9507 156.761 30.9507 156.761C31.842 153.69 32.893 150.667 34.0994 147.706C35.0992 147.93 36.2483 148.154 37.5764 148.393C40.2476 148.856 43.6202 149.35 47.8434 149.888C57.8118 151.188 63.2885 151.89 73.5555 152.547C77.2563 152.786 80.614 152.966 83.5239 153.085C84.1002 154.483 85.0862 155.672 86.3518 156.496C87.6174 157.321 89.103 157.741 90.6123 157.702C92.4625 157.752 94.2625 157.096 95.6478 155.867C97.0331 154.638 97.9003 152.928 98.0737 151.083C101.282 150.948 105.162 150.709 109.52 150.261C115.904 149.759 122.247 148.816 128.501 147.437C131.437 146.722 134.323 145.819 137.142 144.732C138.336 144.269 139.694 143.716 141.171 143.029L141.41 142.924C145.001 141.277 148.454 139.343 151.736 137.142L152.065 137.426C161.421 145.629 166.092 149.738 171.629 156.492C178.538 164.95 183.671 171.21 186.357 181.162C186.462 181.536 186.566 181.924 186.671 182.358C187.229 184.459 187.647 186.596 187.924 188.753C188.49 193.281 188.222 197.874 187.133 202.306Z" fill="white" stroke="#231F20" stroke-linejoin="round"/>
<path d="M138.559 174.05C138.962 174.483 139.409 174.976 139.887 175.544C140.364 176.112 140.603 176.426 140.976 176.919" fill="white"/>
<path d="M138.559 174.05C138.962 174.483 139.409 174.976 139.887 175.544C140.364 176.112 140.603 176.426 140.976 176.919" stroke="#231F20" stroke-linejoin="round"/>
<path d="M145.213 194.925C144.745 197.976 143.525 200.863 141.662 203.323C139.378 206.207 137.886 205.908 136.842 208.149C135.992 210.299 135.992 212.693 136.842 214.843L73.5537 201.724L62.6749 199.378L61.6602 198.571L75.613 190.861C77.1053 186.512 78.4782 182.149 79.8959 177.801C79.8959 177.801 79.8959 177.801 79.8959 177.711L80.1645 176.874C80.1645 176.874 80.1645 176.874 80.1645 176.8C77.558 171.072 74.9515 165.349 72.3449 159.631H72.524L83.9549 162.53L140.975 176.934C143.052 179.617 144.5 182.731 145.213 186.049C145.785 188.98 145.785 191.994 145.213 194.925Z" fill="#FAA850" stroke="#231F20" stroke-linejoin="round"/>
<path d="M62.6755 199.377L60.8848 199.004L61.6608 198.57L62.6755 199.377Z" fill="white" stroke="#231F20" stroke-linejoin="round"/>
<path d="M72.5099 159.615H72.3457" stroke="#231F20" stroke-linejoin="round"/>
<path d="M245.048 220.102C244.557 223.003 243.457 225.767 241.821 228.211C240.185 230.656 238.05 232.725 235.557 234.283C234.826 234.761 234.289 235.03 234.065 235.119L173.762 222.553C183.387 217.024 186.118 206.116 187.073 202.306C188.153 197.909 188.426 193.352 187.879 188.857L237.363 201.364C237.956 201.826 238.519 202.325 239.049 202.859C241.335 205.056 243.07 207.764 244.112 210.761C245.155 213.757 245.475 216.958 245.048 220.102Z" fill="#FAA850" stroke="#231F20" stroke-linejoin="round"/>
<path d="M262.06 234.104C257.075 239.005 249.36 238.078 245.809 237.66C242.202 237.223 238.718 236.075 235.557 234.283C238.05 232.725 240.185 230.656 241.821 228.212C243.457 225.768 244.556 223.004 245.048 220.103C245.493 216.947 245.185 213.73 244.147 210.717C243.109 207.703 241.372 204.98 239.078 202.769C241.544 202.359 244.055 202.289 246.54 202.56C249.196 202.859 256.658 203.696 261.463 209.434C267.223 216.113 268.208 228.052 262.06 234.104Z" fill="#F7AAAC" stroke="#231F20" stroke-linejoin="round"/>
<path d="M62.6755 199.377L60.8848 199.004L61.6608 198.57L62.6755 199.377Z" fill="white" stroke="#231F20" stroke-linejoin="round"/>
<path d="M80.166 176.8C80.0765 177.099 80.0019 177.412 79.9273 177.711C79.9273 177.711 79.9273 177.711 79.9273 177.801C78.5096 182.149 77.077 186.512 75.6444 190.861L61.6915 198.571C54.4987 192.908 46.0822 187.469 38.5909 181.91L36.9494 180.67C34.5468 178.847 32.1442 177.024 29.7715 175.186C31.0029 174.508 32.0387 173.523 32.7786 172.327C33.5184 171.131 33.9373 169.763 33.9947 168.357C33.9808 167.374 33.7733 166.404 33.384 165.501C32.9948 164.598 32.4315 163.782 31.7264 163.098L37.3075 162.619L72.3763 159.631C74.953 165.349 77.5495 171.072 80.166 176.8Z" fill="#F8DABB" stroke="#231F20" stroke-linejoin="round"/>
<path d="M33.9645 168.357C33.9072 169.762 33.4883 171.13 32.7484 172.326C32.0086 173.522 30.9728 174.507 29.7414 175.185L27.4582 173.422C23.623 170.434 19.8475 167.445 16.1914 164.457L29.2489 163.351L31.6963 163.142C33.1095 164.512 33.9247 166.387 33.9645 168.357Z" fill="#231F20" stroke="#231F20" stroke-linejoin="round"/>
<path d="M83.5671 153.116C80.5826 152.996 77.2995 152.817 73.5986 152.578C63.3317 151.92 57.855 151.218 47.8865 149.918C43.6634 149.365 40.2908 148.872 37.6196 148.424C36.2915 148.185 35.1424 147.96 34.1426 147.736C34.9432 145.902 35.6017 144.009 36.1124 142.073C36.3288 141.229 36.4834 140.37 36.575 139.503C36.575 139.234 36.575 138.98 36.575 138.726C36.575 138.472 36.575 138.442 36.575 138.308L37.1272 138.532L37.7091 138.756L39.4104 139.383C43.0068 140.698 47.4687 142.148 51.5874 143.254C55.3927 144.27 57.1238 144.509 83.3582 148.708C83.1308 149.371 83.0148 150.068 83.015 150.77C83.0436 151.58 83.2313 152.377 83.5671 153.116Z" fill="#DF2D38" stroke="#231F20" stroke-linejoin="round"/>
<path d="M36.5607 138.711C36.5607 138.965 36.5607 139.219 36.5607 139.488C36.4691 140.355 36.3145 141.214 36.0981 142.058C35.5874 143.994 34.9288 145.887 34.1283 147.721C32.9219 150.683 31.8709 153.705 30.9795 156.776C30.9795 156.776 30.4572 158.54 29.7409 161.483L29.3082 163.306L16.2507 164.412C19.9068 167.4 23.7121 170.389 27.5174 173.377C27.3831 174.379 27.2787 175.38 27.1891 176.366C26.6049 183.024 26.5102 189.717 26.9056 196.389C27.5323 207.058 28.0248 215.201 28.8903 221.701C26.8564 222.705 24.6053 223.188 22.3392 223.106C15.7731 222.792 11.6843 217.547 8.9086 213.946C6.86417 211.331 1.96947 204.249 1.02933 191.533C0.311702 184.191 1.33426 176.783 4.0139 169.911C6.15433 164.278 9.17673 159.022 12.9676 154.341C15.3156 151.639 17.8864 149.14 20.6529 146.87C25.3358 143.079 30.7522 140.301 36.5607 138.711Z" fill="white" stroke="#231F20" stroke-linejoin="round"/>
<path d="M98.1018 150.769C98.1092 150.884 98.1092 150.998 98.1018 151.113C97.9284 152.958 97.0612 154.668 95.6759 155.897C94.2905 157.126 92.4905 157.782 90.6404 157.732C89.1336 157.768 87.6513 157.346 86.3886 156.522C85.126 155.698 84.1423 154.51 83.5669 153.115C83.2669 152.37 83.1149 151.573 83.1192 150.769C83.1191 150.067 83.2351 149.371 83.4625 148.707C84.0013 147.242 84.9849 145.983 86.275 145.107C87.565 144.231 89.0968 143.781 90.6553 143.821C92.0121 143.798 93.35 144.141 94.5288 144.814C95.7077 145.487 96.684 146.465 97.3556 147.646C97.8713 148.604 98.1284 149.681 98.1018 150.769Z" fill="#FCB74C" stroke="#231F20" stroke-linejoin="round"/>
<path d="M64.481 48.4285C58.246 48.7672 52.2387 50.8881 47.1704 54.54C45.6393 55.6881 44.2247 56.9844 42.9473 58.4101C44.078 55.3311 45.5127 52.3728 47.2301 49.5791C48.9463 46.7699 50.543 44.2446 53.7067 42.5113C54.7065 41.9734 60.7652 38.8354 63.6154 41.7492C65.063 43.2136 65.2868 45.8136 64.481 48.4285Z" fill="white" stroke="#231F20" stroke-linejoin="round"/>
<path d="M157.541 21.1585C149.781 21.8904 141.956 21.5029 134.306 20.0079C126.367 18.439 120.07 15.7643 107.818 10.4597C99.4763 6.87348 92.3879 3.49649 86.8664 0.74707C86.9229 7.21744 86.2825 13.675 84.9563 20.0079C83.8352 25.9383 81.9804 31.7057 79.4348 37.1768C77.6417 40.9698 75.4984 44.5867 73.0329 47.9802C72.3912 48.8469 71.7943 49.6239 71.2422 50.3411C79.2852 50.6603 87.2408 52.1347 94.8651 54.7193C99.7514 56.3529 104.465 58.465 108.937 61.025C113.205 63.4756 113.698 64.3422 117.309 66.1652L119.801 67.4204C117.533 80.1812 119.055 90.3421 124.368 93.6444C126.704 95.0745 129.452 95.6795 132.172 95.3628C133.616 95.112 134.986 94.5457 136.187 93.7042C137.83 92.5246 139.192 90.9933 140.171 89.2214C143.35 83.4088 140.589 76.9238 139.41 74.1445C138.448 71.8987 137.149 69.8127 135.56 67.9583C138.544 63.7146 138.634 54.9882 142.648 44.394C146.004 35.7261 151.069 27.8238 157.541 21.1585ZM136.395 75.7134C137.992 79.6583 138.783 81.6904 138.291 84.2904C138.039 86.2248 137.164 88.0243 135.799 89.4157C135.353 89.8176 134.85 90.1501 134.306 90.4019C133.335 90.8002 132.29 90.9887 131.241 90.9553C130.192 90.9218 129.162 90.667 128.218 90.2076C124.979 88.7134 123.741 85.3364 123.069 83.1399C121.642 78.4964 121.601 73.5366 122.95 68.8698C124.902 69.7862 126.979 70.4057 129.113 70.7077C130.288 70.8627 131.483 70.7451 132.605 70.364C132.976 70.2343 133.331 70.0639 133.665 69.856C134.744 71.7248 135.658 73.6847 136.395 75.7134Z" fill="#4D455D" stroke="#231F20" stroke-linejoin="round"/>
<path d="M135.798 89.416C135.353 89.8179 134.849 90.1504 134.305 90.4022C133.334 90.8005 132.29 90.9891 131.24 90.9556C130.191 90.9221 129.161 90.6674 128.217 90.208C124.979 88.7137 123.74 85.3367 123.068 83.1402C121.641 78.4967 121.6 73.5369 122.949 68.8701C124.901 69.7865 126.978 70.406 129.112 70.708C130.413 72.5038 131.556 74.4086 132.53 76.4011C134.337 80.5263 135.442 84.9254 135.798 89.416Z" fill="white" stroke="#231F20" stroke-linejoin="round"/>
<path d="M135.798 89.416C135.353 89.8179 134.849 90.1504 134.305 90.4022C133.334 90.8005 132.29 90.9891 131.24 90.9556C130.191 90.9221 129.161 90.6674 128.217 90.208C124.979 88.7137 123.74 85.3367 123.068 83.1402C121.641 78.4967 121.6 73.5369 122.949 68.8701C124.901 69.7865 126.978 70.406 129.112 70.708C130.413 72.5038 131.556 74.4086 132.53 76.4011C134.337 80.5263 135.442 84.9254 135.798 89.416Z" fill="white" stroke="#231F20" stroke-linejoin="round"/>
<path d="M151.751 137.172C148.469 139.374 145.016 141.307 141.424 142.955L141.186 143.059C139.693 143.747 138.35 144.3 137.156 144.763C134.337 145.849 131.451 146.753 128.516 147.468C122.261 148.846 115.919 149.79 109.534 150.292C105.177 150.74 101.297 150.979 98.0883 151.113C98.0958 150.999 98.0958 150.884 98.0883 150.77C98.0948 149.67 97.8117 148.587 97.2676 147.632C102.207 146.661 107.066 145.317 111.802 143.612C117.776 141.482 123.536 138.795 129.009 135.588C130.083 134.976 131.113 134.348 132.098 133.72C134.44 132.226 136.574 130.732 138.544 129.312L140.619 127.729C143.394 129.835 147.02 132.988 151.751 137.172Z" fill="#DF2D38" stroke="#231F20" stroke-linejoin="round"/>
<path d="M138.215 126.01C138.215 125.771 138.215 125.547 138.215 125.323C137.753 119.137 138.215 115.237 137.156 103.372C136.842 99.7113 136.559 96.5136 136.275 93.7044C135.075 94.546 133.704 95.1123 132.261 95.363C129.541 95.6798 126.793 95.0748 124.456 93.6447C119.144 90.3424 117.622 80.1964 119.89 67.4206L117.398 66.1655C113.786 64.3425 113.294 63.4758 109.026 61.0252C104.544 58.4635 99.8205 56.3513 94.9239 54.7195C87.2996 52.135 79.344 50.6605 71.301 50.3414C71.8531 49.6241 72.45 48.8471 73.0917 47.9805C70.1071 47.9805 67.2718 48.1448 64.5409 48.4287C58.306 48.7674 52.2986 50.8883 47.2304 54.5402C45.6992 55.6883 44.2847 56.9846 43.0072 58.4103C34.0535 68.3919 32.7552 83.0056 32.009 91.6424C31.3375 98.2768 30.1586 112.069 34.3221 126.428C34.3221 126.548 34.3221 126.638 34.4265 126.757C35.4712 130.269 36.7993 133.646 36.5456 138.278L37.0977 138.502L37.6797 138.726L39.3809 139.354C42.9774 140.669 47.4393 142.118 51.558 143.224C55.3633 144.24 57.0944 144.479 83.3288 148.678C83.8677 147.213 84.8512 145.954 86.1413 145.078C87.4314 144.201 88.9632 143.752 90.5216 143.792C91.8784 143.769 93.2163 144.112 94.3952 144.785C95.574 145.458 96.5504 146.436 97.222 147.617C102.161 146.646 107.02 145.302 111.757 143.597C117.73 141.467 123.491 138.78 128.963 135.573C130.037 134.961 131.067 134.333 132.052 133.705C134.395 132.211 136.529 130.717 138.499 129.297C138.409 128.117 138.29 127.011 138.215 126.01ZM62.6755 83.3344C61.0191 83.424 59.5567 81.4964 59.3925 79.016C59.2284 76.5355 60.467 74.4286 62.1234 74.324C63.7798 74.2194 65.2423 76.162 65.3915 78.6424C65.5407 81.1229 64.3469 83.2298 62.6755 83.3344ZM79.5384 100.354C72.5545 100.354 66.8838 98.1274 66.8838 95.3929C66.8838 92.6585 72.5545 90.432 79.5384 90.432C86.5223 90.432 92.1781 92.6435 92.1781 95.3929C92.1781 98.1423 86.5521 100.354 79.5384 100.354ZM99.9827 82.1838C98.3412 82.0941 97.1026 80.0022 97.222 77.5217C97.3414 75.0413 98.8038 73.039 100.46 73.1735C102.117 73.308 103.355 75.3551 103.221 77.8355C103.087 80.316 101.594 82.2734 99.9827 82.1838Z" fill="white" stroke="#231F20" stroke-linejoin="round"/>
<path d="M103.176 77.8354C103.042 80.3308 101.594 82.3182 99.9376 82.1837C98.2812 82.0492 96.9978 80.0021 97.1769 77.5217C97.3559 75.0412 98.7587 73.0389 100.415 73.1734C102.072 73.3079 103.31 75.355 103.176 77.8354Z" fill="#231F20" stroke="#231F20" stroke-linejoin="round"/>
<path d="M65.4218 78.6426C65.571 81.1231 64.3474 83.23 62.7058 83.3346C61.0643 83.4392 59.587 81.4966 59.4228 79.0162C59.2587 76.5357 60.4973 74.4289 62.1537 74.3243C63.8101 74.2197 65.2726 76.207 65.4218 78.6426Z" fill="#231F20" stroke="#231F20" stroke-linejoin="round"/>
<path d="M92.179 95.3925C92.179 98.127 86.5233 100.353 79.5394 100.353C72.5555 100.353 66.8848 98.127 66.8848 95.3925C66.8848 92.6581 72.5555 90.4316 79.5394 90.4316C86.5233 90.4316 92.179 92.6431 92.179 95.3925Z" fill="#231F20" stroke="#231F20" stroke-linejoin="round"/>
<path d="M228.215 185.017C224.932 184.763 220.037 184.285 214.113 183.299C208.189 182.313 206.174 181.625 203.07 181.192C197.574 180.487 191.992 180.893 186.655 182.388C186.551 181.954 186.446 181.566 186.342 181.192C183.656 171.24 178.522 164.98 171.613 156.522C166.076 149.768 161.406 145.659 152.049 137.455L151.721 137.172C146.99 133.003 143.364 129.835 140.603 127.728L138.529 129.312C138.38 128.116 138.26 127.026 138.186 126.01C138.186 125.77 138.186 125.546 138.186 125.322C143.811 125.294 149.421 125.925 154.899 127.205C163.853 129.357 167.584 132.166 182.148 135.408C187.9 136.805 193.762 137.7 199.668 138.083C206.825 138.433 213.998 137.855 221.007 136.365C218.092 137.927 215.703 140.319 214.143 143.238C213.093 144.957 212.574 146.948 212.651 148.961C212.889 151.501 214.262 152.039 216.844 156.582C218.268 158.732 219.28 161.129 219.829 163.65C220.485 167.505 218.978 169.283 218.874 172.032C218.769 175.066 220.366 179.429 228.215 185.017Z" fill="#DF2D38" stroke="#231F20" stroke-linejoin="round"/>
<path d="M36.0391 142.058C36.2554 141.214 36.4101 140.355 36.5017 139.488C36.5017 139.219 36.5017 138.965 36.5017 138.711L37.0837 138.517" fill="white"/>
<path d="M36.0391 142.058C36.2554 141.214 36.4101 140.355 36.5017 139.488C36.5017 139.219 36.5017 138.965 36.5017 138.711L37.0837 138.517" stroke="#231F20" stroke-linejoin="round"/>
<path d="M55.9907 125.517C52.4782 121.86 50.2112 117.184 49.5142 112.159C48.8085 106 50.444 99.8012 54.0955 94.7954C56.3821 91.5557 59.3784 88.8826 62.8552 86.9805" stroke="#231F20" stroke-miterlimit="10" stroke-linecap="round"/>
<path d="M56.707 69.2282C56.7869 68.2288 57.1804 67.2803 57.8313 66.5184C58.4822 65.7565 59.3571 65.2203 60.3308 64.9865C61.3045 64.7527 62.3271 64.8333 63.2523 65.2167C64.1775 65.6002 64.9578 66.2668 65.4817 67.1213" stroke="#231F20" stroke-miterlimit="10" stroke-linecap="round"/>
<path d="M71.6289 84.2905C73.8624 83.6312 76.1673 83.2449 78.4934 83.1399C80.179 83.0851 81.8597 83.3487 83.4478 83.9169" stroke="#231F20" stroke-miterlimit="10" stroke-linecap="round"/>
<path d="M96.998 67.3157C98.3552 66.3147 99.8284 65.4818 101.385 64.8352C102.31 64.4452 103.263 64.1255 104.236 63.8789" stroke="#231F20" stroke-miterlimit="10" stroke-linecap="round"/>
<path d="M78.2852 127.205C82.9422 128.017 87.729 127.626 92.1933 126.069" stroke="#231F20" stroke-miterlimit="10" stroke-linecap="round"/>
<path opacity="0.2" d="M60.8841 199.003L136.871 214.842C137.263 215.978 137.827 217.046 138.543 218.01C140.344 220.211 142.76 221.824 145.482 222.642C149.948 224.309 154.656 225.237 159.42 225.392L157.928 230.009C147.526 229.767 137.579 225.692 129.992 218.563L61.1826 204.338L36.918 180.669L60.8841 199.003Z" fill="#231F20"/>
<path opacity="0.2" d="M34.457 139.384L26.2793 162.694L29.4728 162.365C30.0846 159.855 30.786 157.255 31.5769 154.61C33.0692 149.664 34.651 145.077 36.3075 140.818L36.591 138.293L34.457 139.384Z" fill="#231F20"/>
<path opacity="0.2" d="M27.4284 173.661C27.0255 177.77 26.7569 182.074 26.6077 186.527C26.249 198.165 26.8881 209.813 28.5178 221.342L26.5181 222.344C26.1152 218.518 25.7571 214.574 25.4735 210.524C25.0258 204.368 24.6378 199.003 24.6528 192.967C24.6902 186.021 25.2489 179.088 26.3241 172.227L27.4284 173.661Z" fill="#231F20"/>
<path opacity="0.2" d="M139.888 175.544C141.851 177.719 143.372 180.257 144.364 183.015C145.971 187.302 146.15 191.995 144.875 196.392C143.6 200.789 140.94 204.656 137.291 207.416C137.649 206.4 138.186 204.876 138.918 203.068C141.081 197.584 141.678 197.39 142.335 194.924C142.992 192.459 144.006 188.783 142.469 185.017C141.619 182.94 140.32 181.715 139.932 178.772C139.766 177.703 139.751 176.617 139.888 175.544Z" fill="#231F20"/>
<path opacity="0.2" d="M85.8803 145.33C85.4582 146.606 85.2122 147.933 85.149 149.275C85.0306 151.86 85.5751 154.432 86.7309 156.746C85.6334 156.178 84.7107 155.321 84.0615 154.269C83.4123 153.216 83.0609 152.006 83.0449 150.769C83.0822 149.708 83.3561 148.669 83.8468 147.728C84.3374 146.787 85.0322 145.967 85.8803 145.33Z" fill="#231F20"/>
<path opacity="0.2" d="M53.8858 94.7803C51.4679 98.0581 49.9268 101.9 49.4089 105.942C48.7536 111.623 50.0652 117.356 53.1247 122.185C53.7578 123.153 54.4558 124.076 55.2139 124.949C54.2678 124.984 53.3282 124.779 52.4831 124.351C51.4534 123.799 49.2 123.694 47.9316 120.063C46.8168 117.474 46.0636 114.744 45.6932 111.949C45.2996 108.691 45.6256 105.385 46.6482 102.266C48.1256 98.4262 52.2294 96.0653 53.8858 94.7803Z" fill="#231F20"/>
<path opacity="0.2" d="M72.3752 100.114C70.8542 99.4996 69.443 98.6417 68.1968 97.574C66.406 96.0798 66.4508 95.258 66.4657 95.0488C66.5851 94.0626 67.7043 93.4649 68.0326 93.3154C67.8386 93.3154 65.2271 93.7936 64.6899 95.3775C64.3869 96.3456 64.3458 97.3768 64.5705 98.366C65.2868 100.114 69.0623 100.338 72.3752 100.114Z" fill="#231F20"/>
<path opacity="0.2" d="M122.457 70.9917C127.056 73.7135 130.976 77.4491 133.918 81.9147C133.363 78.2461 131.963 74.7571 129.829 71.7239C129.426 71.186 129.023 70.663 128.605 70.2297L122.964 68.9297L122.457 70.9917Z" fill="#231F20"/>
<path opacity="0.1" d="M81.8059 32.6045C83.268 35.0017 84.1472 37.7093 84.3727 40.5091C84.6472 44.155 83.8205 47.7994 81.9999 50.9688L71.3301 50.401C72.4493 48.6228 73.464 46.9642 74.3147 45.4401C76.1949 42.3171 77.6126 39.8665 78.896 37.6252C80.0003 35.862 80.9553 34.1436 81.8059 32.6045Z" fill="#231F20"/>
<path opacity="0.2" d="M47.0358 51.1631L52.6617 51.2976C47.2497 55.0531 44.3049 56.6569 43.8274 56.109C43.3498 55.5611 44.4193 53.9125 47.0358 51.1631Z" fill="#231F20"/>
<path opacity="0.2" d="M117.621 258.609C117.524 260.366 117.524 262.127 117.621 263.884C118.028 270.528 119.779 277.02 122.769 282.966C120.448 280.991 118.315 278.805 116.397 276.436C112.763 271.919 109.945 266.802 108.07 261.314L117.621 258.609Z" fill="#231F20"/>
<path opacity="0.2" d="M89.8804 262.076C89.4942 266.421 88.7353 270.726 87.6121 274.941C86.5122 279.126 85.0595 283.21 83.2695 287.149C86.213 283.031 88.7423 278.631 90.8205 274.015C92.6816 269.885 94.1796 265.6 95.2974 261.209L89.8804 262.076Z" fill="#231F20"/>
<path opacity="0.2" d="M16.1914 164.367L75.8829 190.053L138.559 205.31C137.436 206.418 136.671 207.84 136.365 209.389C136.173 210.605 136.246 211.848 136.581 213.032C136.916 214.216 137.505 215.313 138.305 216.247L61.6614 198.571L16.1914 164.367Z" fill="#231F20"/>
<path opacity="0.2" d="M173.82 222.553L234.124 235.12L236.093 233.924L242.227 236.913C246.12 238.35 250.349 238.61 254.389 237.66C257.895 237.056 261.071 235.217 263.343 232.475C264.507 230.918 265.312 229.121 265.7 227.215L239.272 231.22L179.775 217.518L173.82 222.553Z" fill="#231F20"/>
<path opacity="0.2" d="M135.797 212.094C140.208 214.4 144.85 216.233 149.645 217.563C159.531 220.267 169.878 220.832 179.998 219.221C177.367 221.162 174.446 222.675 171.343 223.704C165.598 225.632 161.046 225.079 152.57 224.137C143.005 223.062 140.96 221.448 140.125 220.701C137.74 218.413 136.212 215.374 135.797 212.094Z" fill="#231F20"/>
<path opacity="0.2" d="M125.754 94.3762C124.331 94.7933 122.805 94.6654 121.471 94.0176C120.211 93.2494 119.264 92.0579 118.8 90.6555C116.964 86.1654 115.807 81.4264 115.368 76.5947C115.198 73.6071 115.238 70.6112 115.487 67.6292L113.054 66.374C107.981 63.7142 107.085 62.8775 103.907 61.3235C99.9403 59.3946 95.835 57.7662 91.6253 56.4522C85.3283 54.5125 78.8081 53.3926 72.2255 53.12C71.1212 53.12 67.9427 51.7154 67.9277 50.1315C67.9277 48.981 69.6737 48.1293 69.8229 48.0545C70.8486 47.5997 72.012 47.5675 73.0612 47.9649L71.3301 49.6683C75.4769 50.1604 79.596 50.8637 83.6714 51.7752C89.4636 52.9926 95.1404 54.7073 100.639 56.9005C107.418 59.6313 113.859 63.1414 119.829 67.3602C119.71 68.0775 119.591 68.8545 119.486 69.5119L119.188 69.3774C118.949 72.0521 118.874 74.3085 118.859 76.0268C118.785 82.9751 119.635 85.9785 120.023 87.1889C120.567 89.3866 121.758 91.3701 123.441 92.882C124.141 93.4825 124.919 93.9851 125.754 94.3762Z" fill="#231F20"/>
<path opacity="0.2" d="M32.8292 119.749C34.8001 122.829 36.4598 126.097 37.7836 129.506C39.3383 132.867 40.2446 136.492 40.4548 140.19C40.4034 143.063 39.9307 145.913 39.052 148.648C37.6896 153.603 35.7984 158.398 33.4112 162.948L28.9492 162.873C30.1132 158.689 31.4115 154.356 32.8739 149.903C34.0777 146.257 35.3064 142.741 36.5599 139.354C36.42 136.088 36.041 132.836 35.4257 129.626C34.806 126.274 33.9381 122.972 32.8292 119.749Z" fill="#231F20"/>
<path opacity="0.2" d="M29.74 175.186C29.6504 179.34 29.5908 185.361 29.74 192.638C30.1429 209.747 30.3966 218.474 33.0379 227.111C35.7495 235.764 40.2037 243.768 46.1253 250.63C43.825 249.323 41.6906 247.742 39.7682 245.923C36.1772 242.401 33.3436 238.18 31.4412 233.521C30.0534 230.144 29.4266 227.126 28.5909 217.816C28.0089 211.316 27.6806 206.146 27.3225 196.897C26.9494 187.274 25.6362 184.525 26.6957 178.458C26.9415 176.984 27.2805 175.526 27.7105 174.095L29.74 175.186Z" fill="#231F20"/>
<path opacity="0.2" d="M47.2454 294.756C46.3351 292.35 45.0965 288.868 43.8729 284.58C42.4076 280.164 41.4073 275.606 40.8883 270.982C40.6495 267.441 40.8883 260.418 46.2904 251.557L45.1413 250.601C44.1713 252.543 42.8879 255.263 41.5897 258.61C40.235 261.772 39.234 265.074 38.6051 268.457C37.8467 272.117 37.8612 275.895 38.6476 279.549C39.434 283.204 40.975 286.653 43.1715 289.675C44.3664 291.493 45.7305 293.194 47.2454 294.756Z" fill="#231F20"/>
<path opacity="0.4" d="M146.736 26.2988C140.357 36.2559 136.438 47.5913 135.305 59.3665C137.722 52.9711 140.095 46.3566 142.423 39.5229C143.93 35.0551 145.378 30.6471 146.736 26.2988Z" fill="white"/>
<path opacity="0.4" d="M181.537 138.337C185.738 139.482 190.033 140.248 194.371 140.623C197.07 140.863 199.78 140.947 202.489 140.877C205.852 140.802 209.207 140.507 212.532 139.996L210.502 142.028C208.652 142.207 206.026 142.416 202.743 142.536C199.826 142.733 196.899 142.733 193.983 142.536C189.578 142.062 185.33 140.629 181.537 138.337Z" fill="white"/>
<path opacity="0.4" d="M213.159 157.284C211.249 157.598 208.682 157.941 205.802 158.181C201.832 158.53 197.84 158.57 193.864 158.3C188.192 157.881 182.599 156.726 177.225 154.863C178.697 156.061 180.317 157.066 182.045 157.852C185.209 159.235 188.62 159.967 192.073 160.003C197.616 160.333 203.174 160.293 208.712 159.884C213.293 159.764 215.621 159.376 215.696 158.733C215.755 158.39 214.89 157.897 213.159 157.284Z" fill="white"/>
<path opacity="0.7" d="M75.3594 161.737L138.229 177.815C138.647 178.966 139.08 180.102 139.498 181.252C140.408 183.733 141.289 186.183 142.169 188.634L82.8507 176.037L75.3594 161.737Z" fill="white"/>
<path opacity="0.7" d="M189.67 191.114C189.8 191.956 189.884 192.804 189.924 193.654C189.971 195.019 189.886 196.385 189.67 197.734L241.363 210.061C240.871 208.826 240.272 207.636 239.572 206.505C238.719 205.088 237.719 203.766 236.587 202.56L189.67 191.114Z" fill="white"/>
<path opacity="0.7" d="M244.018 204.473C245.452 204.194 246.929 204.235 248.345 204.592C250.336 204.937 252.263 205.582 254.061 206.505C257.135 208.104 259.582 210.405 259.388 210.704C259.194 211.002 258.792 210.569 254.18 208.402C250.539 206.699 250.241 206.579 249.703 206.37C246.226 205.01 243.988 204.712 244.018 204.473Z" fill="white"/>
</g>
<defs>
<clipPath id="clip0_1052_12312">
<rect width="267" height="300" fill="white"/>
</clipPath>
</defs>
</svg>
