<svg width="281" height="262" viewBox="0 0 281 262" fill="none" xmlns="http://www.w3.org/2000/svg">
<path d="M106.184 19.7274C109.715 19.5126 113.25 20.0894 116.533 21.4162C127.873 26.0927 131.161 38.2604 131.562 39.8337" stroke="#231F20" stroke-miterlimit="10"/>
<path d="M189.943 145.792C189.224 144.585 188.418 143.432 187.531 142.343" stroke="#231F20" stroke-miterlimit="10"/>
<path d="M98.6641 125.788C98.6641 126.005 98.6641 126.221 98.7645 126.438C98.865 126.654 98.865 127.102 98.9081 127.462" stroke="#231F20" stroke-miterlimit="10"/>
<path d="M98.3555 124.401C97.8125 121.616 97.0346 118.883 96.0301 116.231C95.5851 115.062 95.0827 113.864 94.4941 112.623" stroke="#231F20" stroke-miterlimit="10"/>
<path d="M189.943 145.792C189.224 144.585 188.418 143.432 187.531 142.343" stroke="#231F20" stroke-miterlimit="10"/>
<path d="M205.934 153.906C205.414 155.631 204.791 157.323 204.068 158.972C202.7 161.985 200.853 164.754 198.599 167.17C193.249 172.596 186.191 175.984 178.632 176.754C171.991 177.601 165.249 176.524 159.196 173.651C156.526 172.323 148.774 168.455 144.841 159.636C144.841 159.506 144.726 159.391 144.669 159.246C143.319 156.157 141.152 150.745 143.363 145.087C146.076 138.173 153.913 135.979 158.765 134.579C162.153 133.612 169.459 131.504 177.641 134.954C181.477 136.588 184.861 139.134 187.503 142.373L189.728 141.507L202.36 136.527L207.068 134.68C207.212 135.633 207.326 136.571 207.398 137.567C208.012 143.057 207.514 148.615 205.934 153.906Z" fill="#D3756B" stroke="#231F20" stroke-miterlimit="10"/>
<path d="M144.214 9.23471C142.951 9.00377 141.659 8.83057 140.324 8.70066C135.576 8.21381 130.783 8.46698 126.113 9.45122C125.813 8.22259 125.904 6.93058 126.371 5.75617C128.653 0.54557 140.223 -0.609134 143.41 4.31279C144.316 5.78161 144.605 7.55177 144.214 9.23471Z" fill="#D3756B" stroke="#231F20" stroke-miterlimit="10"/>
<path d="M96.0664 116.233C97.0709 118.885 97.8489 121.618 98.3918 124.403" stroke="#231F20" stroke-miterlimit="10"/>
<path d="M98.6641 125.788C98.6641 126.005 98.6641 126.221 98.7645 126.438C98.865 126.654 98.865 127.102 98.9081 127.462" stroke="#231F20" stroke-miterlimit="10"/>
<path d="M195.447 34.1335C194.886 36.0467 193.644 37.6856 191.959 38.7379C189.929 40.2758 187.543 41.2692 185.026 41.6246C182.4 36.6847 179.126 32.1215 175.293 28.0568C174.217 26.8733 172.595 25.0979 170.441 23.0772C173.984 21.5281 177.875 20.96 181.71 21.4317C185.227 21.746 188.556 23.1649 191.227 25.4876C192.361 26.498 196.28 30.092 195.447 34.1335Z" fill="#D3756B" stroke="#231F20" stroke-miterlimit="10"/>
<path d="M92.1544 211.308C91.1927 210.788 90.317 210.269 89.5132 209.763C87.8006 208.69 86.195 207.452 84.7188 206.068" stroke="#231F20" stroke-miterlimit="10"/>
<path d="M133.869 217.89H132.434" stroke="#231F20" stroke-miterlimit="10"/>
<path d="M124.641 218.206C126.277 218.206 127.985 218.163 129.765 218.076" stroke="#231F20" stroke-miterlimit="10"/>
<path d="M178.781 212.26C180.205 211.798 181.604 211.263 182.973 210.658C183.82 210.282 184.652 209.878 185.456 209.445" stroke="#231F20" stroke-miterlimit="10"/>
<path d="M186.438 208.941C187.866 208.131 189.237 207.225 190.543 206.228C191.146 205.766 191.849 205.217 192.624 204.582" stroke="#231F20" stroke-miterlimit="10"/>
<path d="M192.653 204.581C195.952 209.444 198.638 214.699 200.648 220.228C203.146 227.084 206.146 235.369 203.95 245.285C203.031 249.471 201.797 255.028 197.174 258.376C188.806 264.424 175.973 258.376 172.068 256.529C160.771 251.203 154.843 242.182 150.45 235.528C146.736 229.878 143.741 223.783 141.536 217.384L137.617 217.659C136.34 217.745 135.091 217.832 133.885 217.889C132.486 223.678 130.287 229.241 127.354 234.416C123.679 240.868 117.047 252.516 104.085 256.529C101.056 257.467 93.8503 259.704 86.673 256.168C82.689 254.116 79.4752 250.818 77.5148 246.771C73.9118 239.439 75.6918 232.121 77.8737 223.677C79.4759 217.544 81.7733 211.616 84.7208 206.01C84.362 205.678 84.0462 205.361 83.7447 205.058C78.985 200.005 75.7236 193.716 74.3281 186.9L144.809 159.216C144.809 159.36 144.924 159.476 144.981 159.606C148.843 168.425 156.594 172.293 159.336 173.621C165.386 176.504 172.129 177.591 178.772 176.753C186.331 175.983 193.39 172.595 198.739 167.169C200.993 164.753 202.84 161.984 204.208 158.971C204.901 161.299 205.462 163.665 205.888 166.058C206.634 170.388 207.926 177.821 205.888 185.587C203.318 194.969 196.988 201.074 192.653 204.581Z" fill="#D3756B" stroke="#231F20" stroke-miterlimit="10"/>
<path d="M84.7188 206.068C86.1963 207.442 87.8018 208.67 89.5132 209.735" stroke="#231F20" stroke-miterlimit="10"/>
<path d="M122.932 218.206H124.683C126.319 218.206 128.028 218.163 129.807 218.076" stroke="#231F20" stroke-miterlimit="10"/>
<path d="M133.869 217.89H132.434" stroke="#231F20" stroke-miterlimit="10"/>
<path d="M147.473 216.951L150.76 216.691" stroke="#231F20" stroke-miterlimit="10"/>
<path d="M147.443 216.952L141.457 217.385" stroke="#231F20" stroke-miterlimit="10"/>
<path d="M186.438 208.941C187.866 208.131 189.237 207.225 190.543 206.228C191.146 205.766 191.849 205.217 192.624 204.582" stroke="#231F20" stroke-miterlimit="10"/>
<path d="M183.02 210.658C183.866 210.282 184.699 209.878 185.503 209.445" stroke="#231F20" stroke-miterlimit="10"/>
<path d="M280.5 91.8678L223.326 145.663C220.57 141 219.996 135.342 217.225 130.68L207.062 134.678L202.426 136.497L189.794 141.477L187.569 142.343C184.947 139.113 181.589 136.568 177.779 134.924C169.597 131.474 162.29 133.581 158.903 134.549C154.051 135.992 146.213 138.143 143.5 145.056C141.29 150.714 143.5 156.127 144.806 159.216L74.2824 186.958L25.7927 206.039C17.3523 191.403 8.92134 176.758 0.5 162.103C21.228 154.799 41.956 147.496 62.6839 140.192C62.8131 141.174 62.971 142.17 63.172 143.18C64.9807 152.605 68.2966 156.271 69.5885 157.614C70.569 158.641 71.6512 159.564 72.8183 160.371C74.6291 161.635 76.7371 162.401 78.9333 162.593C86.1106 163.113 91.2782 156.676 93.0438 154.482C95.5624 151.201 97.3139 147.393 98.1684 143.339C99.4739 138.149 99.6987 132.743 98.8287 127.462L187.827 96.1113L191.789 94.6679L193.641 94.004L204.062 90.3378C202.627 86.9747 200.387 82.3848 198.923 79.0361C225.852 82.9333 253.542 88.014 280.5 91.8678Z" fill="#89D2F4" stroke="#231F20" stroke-linejoin="round"/>
<path d="M187.861 83.2267C190.851 74.7235 191.671 65.6017 190.244 56.6974C189.358 51.3345 187.633 46.1464 185.134 41.3254C182.508 36.3856 179.235 31.8223 175.402 27.7577C174.325 26.5741 172.703 24.7987 170.55 22.778C163.296 15.7277 154.176 10.9272 144.281 8.95042C143.018 8.71948 141.726 8.54628 140.391 8.41637C135.63 7.92502 130.821 8.17821 126.137 9.16693C118.706 10.778 111.826 14.3217 106.184 19.4438C103.476 19.6046 100.797 20.0891 98.2029 20.8872C92.9516 22.3325 88.2078 25.2275 84.5086 29.2443C78.8816 35.4509 77.7333 42.6245 76.8146 48.398C76.0109 54.0223 76.0109 59.7333 76.8146 65.3577C77.2955 69.905 78.1501 74.4045 79.3697 78.81L79.6281 78.6223C79.341 80.874 79.0682 83.1546 78.8098 85.4495C76.2126 88.8775 73.8895 92.5069 71.8622 96.3037C68.1725 103.185 65.5031 110.571 63.9385 118.229C62.2936 125.321 61.8808 132.646 62.7184 139.879C62.8476 140.861 63.0055 141.857 63.2064 142.867C65.0151 152.292 68.331 155.959 69.6229 157.301C70.6035 158.328 71.6857 159.252 72.8527 160.058C74.6635 161.322 76.7716 162.088 78.9677 162.281C86.145 162.8 91.3127 156.363 93.0783 154.169C95.593 150.897 97.3443 147.099 98.2029 143.055C99.5084 137.865 99.7332 132.459 98.8632 127.178L187.861 95.8274L191.823 94.384L193.675 93.7201C191.977 90.0931 190.035 86.5872 187.861 83.2267ZM101.031 25.6215C102.067 25.474 103.113 25.4017 104.16 25.4049C109.672 25.4049 114.208 27.2525 114.208 29.5474C114.208 31.8424 109.73 33.6899 104.16 33.6899C101.916 33.7235 99.6832 33.372 97.5569 32.6507C95.4755 31.8857 94.1692 30.7743 94.1692 29.5474C94.1692 27.7144 97.0545 26.1411 101.031 25.6215ZM137.62 73.2818C135.151 74.5231 132.381 73.2818 127.572 71.059C116.835 66.2093 115.758 65.7763 113.821 65.9062C112.716 66.0566 111.641 66.3779 110.634 66.8588C109.313 67.4073 107.634 68.1867 105.394 69.2259C104.375 69.7023 103.457 70.1353 102.653 70.5394C97.0832 73.2674 96.2219 74.1479 94.7721 73.6427C93.9759 73.2603 93.2705 72.7107 92.7035 72.031C92.1364 71.3512 91.7209 70.5572 91.4849 69.7023C90.104 65.7772 90.1753 61.4833 91.6859 57.6067C92.4228 55.8141 93.5115 54.1892 94.887 52.8292C96.7626 51.0069 98.9705 49.566 101.39 48.5856C103.198 47.8404 105.102 47.3545 107.045 47.1422C111.26 46.6919 115.521 47.2355 119.491 48.73C120.05 48.932 120.61 49.1485 121.156 49.3795C124.503 50.803 127.604 52.7518 130.343 55.153C131.4 56.0588 132.393 57.0379 133.314 58.0831C136.43 61.8175 138.707 66.1847 139.989 70.8858C139.443 71.8955 138.621 72.7269 137.62 73.2818Z" fill="#D3756B" stroke="#231F20" stroke-miterlimit="10"/>
<path d="M102.595 70.8245C97.0251 73.5525 96.1639 74.433 94.7141 73.9278C93.9179 73.5454 93.2125 72.9958 92.6454 72.3161C92.0784 71.6363 91.6629 70.8422 91.4269 69.9874C90.0597 66.0571 90.1463 61.7631 91.6709 57.8918C92.4078 56.0992 93.4965 54.4743 94.872 53.1143L102.595 70.8245Z" fill="white" stroke="#231F20" stroke-miterlimit="10"/>
<path d="M110.543 67.1423C109.223 67.6908 107.543 68.4703 105.304 69.5095C104.285 69.9858 103.366 70.4188 102.562 70.823L94.7676 53.1127C96.6432 51.2904 98.8512 49.8495 101.27 48.8692C103.079 48.1239 104.983 47.6381 106.926 47.4258L110.543 67.1423Z" fill="white" stroke="#231F20" stroke-miterlimit="10"/>
<path d="M139.976 71.1697C139.43 72.1794 138.609 73.0108 137.608 73.5657C135.139 74.807 132.368 73.5657 127.56 71.3429C116.822 66.4932 115.746 66.0601 113.808 66.19C112.703 66.3404 111.628 66.6618 110.621 67.1427L107.004 47.3684C111.219 46.918 115.48 47.4617 119.449 48.9561C120.009 49.1582 120.569 49.3747 121.114 49.6056C124.461 51.0292 127.562 52.9779 130.301 55.3791C131.37 56.3025 132.373 57.3009 133.301 58.3669C136.417 62.1014 138.694 66.4686 139.976 71.1697Z" fill="white" stroke="#231F20" stroke-miterlimit="10"/>
<path d="M114.123 29.8311C114.123 32.1116 109.644 33.9736 104.075 33.9736C101.831 34.0071 99.5979 33.6557 97.4717 32.9343C95.3902 32.1694 94.084 31.058 94.084 29.8311C94.084 27.998 96.9549 26.4391 100.945 25.9051C101.982 25.7577 103.028 25.6853 104.075 25.6886C109.644 25.6886 114.123 27.5361 114.123 29.8311Z" fill="#231F20" stroke="#231F20" stroke-miterlimit="10"/>
<path d="M106.184 19.7274C109.715 19.5126 113.25 20.0894 116.533 21.4162C127.873 26.0927 131.161 38.2604 131.562 39.8337" stroke="#231F20" stroke-miterlimit="10"/>
<path d="M121.041 49.6064L118.83 67.1435" stroke="#231F20" stroke-linecap="round" stroke-linejoin="round"/>
<path d="M133.234 58.3672L126.76 70.8091" stroke="#231F20" stroke-linecap="round" stroke-linejoin="round"/>
<path d="M138.312 27.2347C140.427 27.4124 142.551 27.4557 144.672 27.3646C147.711 27.2237 150.733 26.8132 153.701 26.1377" stroke="#231F20" stroke-linecap="round" stroke-linejoin="round"/>
<path d="M142.277 27.4062C145.708 28.994 149.77 31.7364 153.187 33.2519" stroke="#231F20" stroke-linecap="round" stroke-linejoin="round"/>
<path opacity="0.2" d="M95.7526 27.5512C95.0297 27.3678 94.2749 27.3504 93.5443 27.5003C92.8137 27.6502 92.1261 27.9636 91.5324 28.4172C91.4463 28.4172 89.7524 29.9328 90.0969 31.1741C90.4415 32.4154 93.1688 33.4402 96.9297 32.9927C96.213 32.7167 95.5729 32.2711 95.0636 31.6937C94.5338 31.2211 94.1963 30.5682 94.1162 29.8606C94.0732 28.4605 95.6665 27.5945 95.7526 27.5512Z" fill="#231F20"/>
<path opacity="0.2" d="M88.7837 25.8037C86.1036 29.6219 83.9004 33.7569 82.2237 38.1157C80.5336 42.6783 79.3634 47.4188 78.7355 52.2464C77.6176 60.3199 77.6902 68.5151 78.9508 76.5674C75.026 65.2237 74.7998 52.9173 78.3049 41.4355C80.5872 33.4681 83.0419 30.5813 84.4773 29.1524C85.7571 27.8472 87.2055 26.7209 88.7837 25.8037Z" fill="#231F20"/>
<path opacity="0.1" d="M128.4 54.6143C129.018 56.4762 129.606 58.4825 130.137 60.6332C131.194 64.967 131.867 69.3866 132.147 73.8401C133.541 74.4984 135.135 74.588 136.594 74.0901C138.052 73.5923 139.263 72.5456 139.97 71.1698C139.463 69.3651 138.815 67.6035 138.032 65.9015C136.864 62.9983 135.159 60.3439 133.008 58.0784C131.639 56.7152 130.088 55.5494 128.4 54.6143Z" fill="#231F20"/>
<path opacity="0.2" d="M140.842 27.8691C142.145 28.9479 143.595 29.8326 145.148 30.4961C146.611 31.1301 148.151 31.5669 149.727 31.7951L143.038 28.1434L140.842 27.8691Z" fill="#231F20"/>
<path opacity="0.2" d="M175.908 21.4883C176.147 21.9959 176.271 22.5505 176.271 23.1121C176.271 23.6737 176.147 24.2283 175.908 24.7359C175.546 25.4263 174.965 25.9751 174.257 26.2947L170.783 22.9317L175.908 21.4883Z" fill="#231F20"/>
<path opacity="0.2" d="M129.132 3.40234C129.679 3.6674 130.167 4.04047 130.568 4.49931C130.964 5.0201 131.253 5.61509 131.418 6.24952C131.584 6.88394 131.621 7.5451 131.53 8.19436L126.089 9.4501C125.865 8.69585 125.813 7.90035 125.937 7.12304C126.061 6.34573 126.359 5.60671 126.807 4.96119C127.406 4.21552 128.217 3.67164 129.132 3.40234Z" fill="#231F20"/>
<path opacity="0.2" d="M63.9974 118.181C64.27 123.354 64.8162 128.51 65.6338 133.625C66.8109 140.943 67.9162 147.525 71.5048 155.276C72.4899 157.412 73.5971 159.489 74.8207 161.496C73.0795 161.821 71.2938 161.821 69.5526 161.496C67.4671 161.203 65.5118 160.305 63.9256 158.913C62.2892 157.253 62.203 155.492 61.3561 150.931C60.9398 148.636 60.2795 145.388 59.2891 141.462L62.16 140.12C62.013 137.235 62.013 134.345 62.16 131.46C62.4303 126.992 63.0446 122.553 63.9974 118.181Z" fill="#231F20"/>
<path opacity="0.2" d="M147.682 160.775L145.658 161.858C145.428 161.468 145.213 161.079 145.012 160.674L147.237 159.794C147.337 160.126 147.481 160.443 147.682 160.775Z" fill="#231F20"/>
<path opacity="0.2" d="M147.682 160.775L145.658 161.858C145.428 161.468 145.213 161.079 145.012 160.674L147.237 159.794C147.337 160.126 147.481 160.443 147.682 160.775Z" fill="#231F20"/>
<path opacity="0.2" d="M226.121 142.992L223.652 145.301C221.451 140.49 219.25 135.679 217.049 130.867L211.795 132.946L210.431 132.513L188.225 142.126C186.253 141.462 185.248 140.726 185.21 139.917C185.009 137.387 194.311 134.221 213.115 130.42L218.771 127.735C221.211 132.816 223.661 137.902 226.121 142.992Z" fill="#231F20"/>
<path opacity="0.2" d="M199.426 79.166C202.374 82.0471 204.734 85.4792 206.373 89.2697L203.632 90.5398C202.225 86.7582 200.823 82.9669 199.426 79.166Z" fill="#231F20"/>
<path opacity="0.2" d="M148.046 216.056C148.575 219.386 149.352 222.672 150.371 225.885C155.123 241.012 163.692 249.946 162.86 250.639C162.257 251.13 157.376 246.829 153.414 241.603C149.108 235.96 146.725 230.259 144.07 224.009C142.907 221.266 142.031 218.957 141.457 217.384L148.046 216.056Z" fill="#231F20"/>
<path opacity="0.2" d="M128.233 217.89C127.759 220.95 127.128 224.197 126.281 227.604C124.823 233.417 122.903 239.103 120.539 244.607C127.47 237.21 132.061 227.912 133.731 217.89H128.233Z" fill="#231F20"/>
<path opacity="0.2" d="M88.341 209.027C81.8079 217.58 77.3808 227.566 75.4219 238.169C76.2937 226.945 79.4448 216.02 84.6806 206.068L84.8241 206.184L88.2836 208.955L88.341 209.027Z" fill="#231F20"/>
<path opacity="0.2" d="M89.0502 209.518L88.3182 209.028H88.2464L84.7869 206.256C83.7669 205.36 82.8077 204.395 81.916 203.369C80.1504 201.277 78.8729 198.808 76.3034 193.858C75.1992 192.024 74.3629 190.041 73.8201 187.969C73.77 187.733 73.7684 187.49 73.8153 187.255C73.8622 187.019 73.9566 186.795 74.0928 186.597C74.4991 186.222 74.9876 185.948 75.5188 185.798C76.0499 185.647 76.6088 185.624 77.1503 185.731C77.4374 186.309 77.7101 186.886 77.9972 187.449C78.2843 188.012 78.1838 188.243 78.2987 188.647C80.3057 196.355 83.9656 203.528 89.0215 209.663L89.0502 209.518Z" fill="#231F20"/>
<path opacity="0.2" d="M88.3149 208.97C87.1023 208.123 85.9467 207.198 84.8555 206.198L88.3149 208.97Z" fill="#231F20"/>
<path opacity="0.2" d="M167.103 176.306L168.337 176.523C166.299 175.585 146.805 166.289 145.47 149.229C145.242 146.314 145.529 143.382 146.317 140.568C143.693 144.691 142.53 149.583 143.016 154.454C143.016 154.612 143.016 154.757 143.016 154.916L142.513 155.132C142.337 154.59 142.203 154.035 142.111 153.472C141.896 151.873 141.979 150.248 142.355 148.68C142.826 146.348 143.706 144.12 144.953 142.098C142.847 143.947 141.171 146.238 140.044 148.81C138.946 151.318 138.407 154.038 138.465 156.778L24.2891 203.5L25.7245 206.04L73.8266 187.825C73.7766 187.589 73.7749 187.346 73.8218 187.111C73.8688 186.875 73.9632 186.651 74.0994 186.453C74.5057 186.078 74.9942 185.804 75.5254 185.653C76.0565 185.503 76.6154 185.48 77.1569 185.587C77.444 186.165 77.7167 186.742 78.0038 187.305C78.2909 187.868 78.1904 188.099 78.3053 188.503C86.8175 185.414 93.6216 182.989 98.0428 181.416C117.723 174.43 127.254 171.644 140.188 164.702L141.422 164.038C142.136 165.31 142.952 166.522 143.863 167.661C147.153 171.804 151.536 174.934 156.511 176.692C161.486 178.451 166.852 178.767 171.997 177.605C170.337 177.291 168.701 176.857 167.103 176.306ZM145.571 161.873C145.341 161.483 145.126 161.093 144.925 160.689L147.15 159.809C147.293 160.141 147.437 160.458 147.595 160.79L145.571 161.873Z" fill="#231F20"/>
<path opacity="0.2" d="M147.682 160.775L145.658 161.858C145.428 161.468 145.213 161.079 145.012 160.674L147.237 159.794C147.337 160.126 147.481 160.443 147.682 160.775Z" fill="#231F20"/>
<path opacity="0.7" d="M2.89258 162.551L5.76349 166.795L58.8754 148.926L57.4399 144.134L2.89258 162.551Z" fill="white"/>
<path opacity="0.7" d="M102.219 128.587V131.791L207.007 94.7539L203.519 91.8672L102.219 128.587Z" fill="white"/>
<path opacity="0.7" d="M203.186 81.0576L276.911 92.3593L275.332 93.514L203.803 82.0969L203.186 81.0576Z" fill="white"/>
<path opacity="0.4" d="M187.625 24.7945C188.605 25.4699 189.51 26.249 190.324 27.1183C191.451 28.1782 192.324 29.481 192.879 30.9288C193.242 32.0398 193.369 33.215 193.252 34.3785C192.102 33.1023 191.042 31.7471 190.08 30.3226C189.275 28.9874 188.373 27.7138 187.381 26.5121C186.679 25.7077 185.905 24.9685 185.07 24.3037L187.625 24.7945Z" fill="white"/>
<path opacity="0.4" d="M136.262 2.43652H136.678C137.525 2.58086 138.271 2.75407 138.716 2.86954C139.596 2.99518 140.433 3.33181 141.157 3.85104C141.484 4.19325 141.74 4.59855 141.907 5.04256C142.075 5.48656 142.152 5.9601 142.133 6.43468C141.45 5.52891 140.516 4.84604 139.448 4.47169C138.559 4.32998 137.716 3.97338 136.994 3.43246C136.69 3.14913 136.442 2.81138 136.262 2.43652Z" fill="white"/>
<path opacity="0.7" d="M155.905 14.9654C157.072 15.4789 158.213 16.0522 159.322 16.683C161.819 18.1581 164.157 19.8898 166.298 21.8503C168.039 23.3449 169.693 24.9401 171.25 26.6279C169.684 25.7933 168.191 24.8276 166.786 23.7411C164.92 22.2977 164.848 21.9224 162.939 20.4358C161.128 19.0317 159.208 17.7767 157.197 16.683C155.503 15.7448 153.996 15.0087 152.805 14.4746L155.905 14.9654Z" fill="white"/>
<path opacity="0.7" d="M118.351 23.6822C119.185 24.1761 119.981 24.7309 120.734 25.3421C121.442 25.9352 122.113 26.5715 122.744 27.2474C124.325 28.9935 125.68 30.9333 126.778 33.0209C127.653 35.2293 127.739 35.7922 127.639 35.9077C127.538 36.0231 126.95 35.1715 125.184 32.4724C122.543 28.4021 122.586 28.431 122.313 28.1423C120.931 26.5256 119.327 25.116 117.548 23.9565C116.715 23.3936 115.997 22.9606 115.48 22.6719L118.351 23.6822Z" fill="white"/>
<path opacity="0.7" d="M105.227 27.0026C105.633 26.9809 106.04 26.9809 106.447 27.0026C107.877 27.0783 109.282 27.4107 110.595 27.9841L111.873 28.8502C111.489 29.0295 111.075 29.1324 110.653 29.1533C109.863 29.1533 109.662 28.879 108.514 28.5326C107.078 28.1285 106.547 28.345 105.829 27.7388C105.583 27.5351 105.378 27.2851 105.227 27.0026Z" fill="white"/>
<path opacity="0.7" d="M157.349 138.056C160.436 136.414 163.909 135.646 167.397 135.833C170.786 135.967 174.11 136.808 177.158 138.301C179.391 139.38 181.451 140.786 183.273 142.473C180.689 141.679 177.919 140.928 174.962 140.264C172.959 139.713 170.921 139.303 168.861 139.038C166.739 138.88 164.606 138.962 162.502 139.283C159.354 139.657 156.246 140.314 153.215 141.246C154.431 139.986 155.824 138.911 157.349 138.056Z" fill="white"/>
</svg>
