<svg width="267" height="300" viewBox="0 0 267 300" fill="none" xmlns="http://www.w3.org/2000/svg">
<g clip-path="url(#clip0_1052_13687)">
<path d="M135.798 89.416C135.353 89.8179 134.849 90.1504 134.305 90.4022C133.334 90.8005 132.29 90.9891 131.24 90.9556C130.191 90.9221 129.161 90.6674 128.217 90.208C124.979 88.7137 123.74 85.3367 123.068 83.1402C121.641 78.4967 121.6 73.5369 122.949 68.8701C124.901 69.7865 126.978 70.406 129.112 70.708C130.413 72.5038 131.556 74.4086 132.53 76.4011C134.337 80.5263 135.442 84.9254 135.798 89.416Z" fill="white" stroke="#231F20" stroke-linejoin="round"/>
<path d="M128.53 147.751C128.53 147.661 128.53 147.556 128.53 147.467" stroke="#231F20" stroke-linejoin="round"/>
<path d="M139.887 175.544C140.245 175.962 140.603 176.426 140.976 176.919" stroke="#231F20" stroke-linejoin="round"/>
<path d="M72.5099 159.615H72.3457" stroke="#231F20" stroke-linejoin="round"/>
<path d="M80.1954 176.874L79.9268 177.71C79.9268 177.411 80.076 177.098 80.1655 176.799C80.1655 176.829 80.1804 176.844 80.1954 176.874Z" fill="white" stroke="#231F20" stroke-linejoin="round"/>
<path d="M86.791 262.016H88.5967H90.865C92.3572 262.016 93.8495 262.016 95.4612 261.896" fill="white"/>
<path d="M86.791 262.016H88.5967H90.865C92.3572 262.016 93.8495 262.016 95.4612 261.896" stroke="#231F20" stroke-linejoin="round"/>
<path d="M107.444 260.701C110.772 260.178 114.189 259.491 117.607 258.609L118.502 258.385" fill="white"/>
<path d="M107.444 260.701C110.772 260.178 114.189 259.491 117.607 258.609L118.502 258.385" stroke="#231F20" stroke-linejoin="round"/>
<path d="M154.72 236.091C153.728 237.591 152.626 239.014 151.422 240.349C151.138 240.678 150.825 241.022 150.512 241.351" fill="white"/>
<path d="M154.72 236.091C153.728 237.591 152.626 239.014 151.422 240.349C151.138 240.678 150.825 241.022 150.512 241.351" stroke="#231F20" stroke-linejoin="round"/>
<path d="M163.256 288.016C159.788 292.438 154.816 295.427 149.288 296.414C135.977 298.536 124.964 286.134 120.069 280.65C115.711 275.719 109.414 268.696 107.459 260.702C103.505 261.337 99.52 261.756 95.5208 261.957C94.1723 266.85 92.2906 271.581 89.9098 276.062C86.9252 282.039 83.284 289.69 74.6586 294.636C72.2262 296.026 61.228 302.301 51.2894 297.43C45.6784 294.681 43.0818 289.735 41.6492 286.97C35.4413 275.181 39.4854 262.868 40.6345 259.76C41.8536 256.47 43.5425 253.375 45.6485 250.571C40.9664 247.462 37.0027 243.386 34.0236 238.617C31.3375 234.298 29.8452 229.068 28.8305 221.761C27.9649 215.261 27.4725 207.118 26.8457 196.449C26.4503 189.777 26.5451 183.084 27.1293 176.426C27.2188 175.44 27.3233 174.439 27.4576 173.438L29.7408 175.201C32.1135 177.039 34.5161 178.862 36.9187 180.685L38.5602 181.925C46.0216 187.483 54.468 192.922 61.6608 198.586L60.8848 199.019L62.6755 199.393L73.5543 201.724L136.872 214.918C137.076 215.502 137.321 216.071 137.603 216.621C140.588 222.255 147.766 223.584 152.84 224.511C154.884 224.884 157.093 225.288 159.421 225.482C159.038 227.056 158.539 228.599 157.928 230.099C157.068 232.194 155.998 234.197 154.735 236.076C168.15 256.802 171.612 277.138 163.256 288.016Z" fill="white" stroke="#231F20" stroke-linejoin="round"/>
<path d="M60.5117 257.712C57.6253 256.792 54.8077 255.669 52.0803 254.35C51.0954 253.872 50.1254 253.364 49.0957 252.855" fill="white"/>
<path d="M60.5117 257.712C57.6253 256.792 54.8077 255.669 52.0803 254.35C51.0954 253.872 50.1254 253.364 49.0957 252.855" stroke="#231F20" stroke-linejoin="round"/>
<path d="M47.1406 251.617L47.9017 252.08" stroke="#231F20" stroke-linejoin="round"/>
<path d="M49.1553 252.812C50.1253 253.365 51.0952 253.873 52.1398 254.307Z" fill="white"/>
<path d="M49.1553 252.812C50.1253 253.365 51.0952 253.873 52.1398 254.307" stroke="#231F20" stroke-linejoin="round"/>
<path d="M47.1406 251.617L47.9017 252.08" stroke="#231F20" stroke-linejoin="round"/>
<path d="M95.5064 261.957C93.9096 262.032 92.3725 262.077 90.9101 262.077H87.5674" fill="white"/>
<path d="M95.5064 261.957C93.9096 262.032 92.3725 262.077 90.9101 262.077H87.5674" stroke="#231F20" stroke-linejoin="round"/>
<path d="M121.054 257.684C119.92 258.012 118.771 258.326 117.621 258.61C114.204 259.492 110.787 260.179 107.459 260.702" fill="white"/>
<path d="M121.054 257.684C119.92 258.012 118.771 258.326 117.621 258.61C114.204 259.492 110.787 260.179 107.459 260.702" stroke="#231F20" stroke-linejoin="round"/>
<path d="M154.72 236.091C153.728 237.591 152.625 239.014 151.422 240.349L151.063 240.768" fill="white"/>
<path d="M154.72 236.091C153.728 237.591 152.625 239.014 151.422 240.349L151.063 240.768" stroke="#231F20" stroke-linejoin="round"/>
<path d="M187.132 202.306C186.177 206.086 183.447 217.024 173.821 222.553L172.672 223.165C168.559 225.147 163.971 225.924 159.436 225.407C157.108 225.213 154.959 224.809 152.855 224.436C147.781 223.509 140.573 222.179 137.618 216.546C137.336 215.996 137.091 215.426 136.887 214.842C136.038 212.692 136.038 210.299 136.887 208.148C137.932 205.907 139.424 206.176 141.707 203.322C143.57 200.862 144.791 197.976 145.259 194.924C145.832 191.988 145.832 188.969 145.259 186.033C144.545 182.716 143.097 179.601 141.021 176.918L84.0005 162.514L72.5696 159.615H72.3756L37.3068 162.604L31.7257 163.082L29.2783 163.291L29.7111 161.468C30.4274 158.479 30.9497 156.761 30.9497 156.761C31.841 153.69 32.892 150.667 34.0984 147.706C35.0982 147.93 36.2473 148.154 37.5754 148.393C40.2466 148.856 43.6192 149.35 47.8424 149.888C57.8109 151.188 63.2875 151.89 73.5545 152.547C77.2554 152.786 80.613 152.966 83.523 153.085C84.0992 154.483 85.0853 155.672 86.3509 156.496C87.6164 157.321 89.102 157.741 90.6113 157.702C92.4615 157.752 94.2615 157.096 95.6468 155.867C97.0321 154.638 97.8993 152.928 98.0728 151.083C101.281 150.948 105.161 150.709 109.519 150.261C115.903 149.759 122.246 148.816 128.5 147.437C131.436 146.722 134.322 145.819 137.141 144.732C138.335 144.269 139.693 143.716 141.17 143.029L141.409 142.924C145 141.277 148.453 139.343 151.735 137.142L152.064 137.426C161.42 145.629 166.091 149.738 171.628 156.492C178.537 164.95 183.67 171.21 186.356 181.162C186.461 181.536 186.565 181.924 186.67 182.358C187.228 184.459 187.646 186.596 187.923 188.753C188.489 193.281 188.221 197.874 187.132 202.306Z" fill="white" stroke="#231F20" stroke-linejoin="round"/>
<path d="M138.559 174.05C138.962 174.483 139.409 174.976 139.887 175.544C140.364 176.112 140.603 176.426 140.976 176.919" fill="white"/>
<path d="M138.559 174.05C138.962 174.483 139.409 174.976 139.887 175.544C140.364 176.112 140.603 176.426 140.976 176.919" stroke="#231F20" stroke-linejoin="round"/>
<path d="M145.214 194.925C144.746 197.976 143.526 200.863 141.663 203.323C139.379 206.207 137.887 205.908 136.843 208.149C135.993 210.299 135.993 212.693 136.843 214.843L73.5547 201.724L62.6759 199.378L61.6611 198.571L75.614 190.861C77.1063 186.512 78.4792 182.149 79.8969 177.801C79.8969 177.801 79.8969 177.801 79.8969 177.711L80.1655 176.874C80.1655 176.874 80.1655 176.874 80.1655 176.8C77.559 171.072 74.9524 165.349 72.3459 159.631H72.525L83.9559 162.53L140.976 176.934C143.053 179.617 144.501 182.731 145.214 186.049C145.786 188.98 145.786 191.994 145.214 194.925Z" fill="#FAA850" stroke="#231F20" stroke-linejoin="round"/>
<path d="M62.6755 199.377L60.8848 199.004L61.6608 198.57L62.6755 199.377Z" fill="white" stroke="#231F20" stroke-linejoin="round"/>
<path d="M72.5099 159.615H72.3457" stroke="#231F20" stroke-linejoin="round"/>
<path d="M245.048 220.102C244.557 223.003 243.457 225.767 241.821 228.211C240.185 230.656 238.05 232.725 235.557 234.283C234.826 234.761 234.289 235.03 234.065 235.119L173.762 222.553C183.387 217.024 186.118 206.116 187.073 202.306C188.153 197.909 188.426 193.352 187.879 188.857L237.363 201.364C237.956 201.826 238.519 202.325 239.049 202.859C241.335 205.056 243.07 207.764 244.112 210.761C245.155 213.757 245.475 216.958 245.048 220.102Z" fill="#FAA850" stroke="#231F20" stroke-linejoin="round"/>
<path d="M262.061 234.104C257.076 239.005 249.361 238.078 245.81 237.66C242.203 237.223 238.719 236.075 235.558 234.283C238.051 232.725 240.186 230.656 241.822 228.212C243.458 225.768 244.557 223.004 245.049 220.103C245.494 216.947 245.185 213.73 244.148 210.717C243.11 207.703 241.373 204.98 239.079 202.769C241.545 202.359 244.056 202.289 246.541 202.56C249.197 202.859 256.659 203.696 261.464 209.434C267.224 216.113 268.209 228.052 262.061 234.104Z" fill="#F7AAAC" stroke="#231F20" stroke-linejoin="round"/>
<path d="M62.6755 199.377L60.8848 199.004L61.6608 198.57L62.6755 199.377Z" fill="white" stroke="#231F20" stroke-linejoin="round"/>
<path d="M80.165 176.8C80.0755 177.099 80.0009 177.412 79.9263 177.711C79.9263 177.711 79.9263 177.711 79.9263 177.801C78.5086 182.149 77.076 186.512 75.6434 190.861L61.6905 198.571C54.4977 192.908 46.0812 187.469 38.5899 181.91L36.9484 180.67C34.5458 178.847 32.1432 177.024 29.7705 175.186C31.0019 174.508 32.0377 173.523 32.7776 172.327C33.5174 171.131 33.9363 169.763 33.9937 168.357C33.9798 167.374 33.7723 166.404 33.3831 165.501C32.9938 164.598 32.4305 163.782 31.7254 163.098L37.3066 162.619L72.3753 159.631C74.952 165.349 77.5486 171.072 80.165 176.8Z" fill="#F8DABB" stroke="#231F20" stroke-linejoin="round"/>
<path d="M33.9645 168.357C33.9072 169.762 33.4883 171.13 32.7484 172.326C32.0086 173.522 30.9728 174.507 29.7414 175.185L27.4582 173.422C23.623 170.434 19.8475 167.445 16.1914 164.457L29.2489 163.351L31.6963 163.142C33.1095 164.512 33.9247 166.387 33.9645 168.357Z" fill="#231F20" stroke="#231F20" stroke-linejoin="round"/>
<path d="M83.5681 153.116C80.5835 152.996 77.3005 152.817 73.5996 152.578C63.3327 151.92 57.856 151.218 47.8875 149.918C43.6643 149.365 40.2918 148.872 37.6206 148.424C36.2924 148.185 35.1434 147.96 34.1436 147.736C34.9441 145.902 35.6027 144.009 36.1134 142.073C36.3298 141.229 36.4844 140.37 36.576 139.503C36.576 139.234 36.576 138.98 36.576 138.726C36.576 138.472 36.576 138.442 36.576 138.308L37.1281 138.532L37.7101 138.756L39.4113 139.383C43.0077 140.698 47.4697 142.148 51.5884 143.254C55.3937 144.27 57.1248 144.509 83.3592 148.708C83.1318 149.371 83.0158 150.068 83.016 150.77C83.0446 151.58 83.2322 152.377 83.5681 153.116Z" fill="#DF2D38" stroke="#231F20" stroke-linejoin="round"/>
<path d="M36.5607 138.711C36.5607 138.965 36.5607 139.219 36.5607 139.488C36.4691 140.355 36.3145 141.214 36.0981 142.058C35.5874 143.994 34.9288 145.887 34.1283 147.721C32.9219 150.683 31.8709 153.705 30.9795 156.776C30.9795 156.776 30.4572 158.54 29.7409 161.483L29.3082 163.306L16.2507 164.412C19.9068 167.4 23.7121 170.389 27.5174 173.377C27.3831 174.379 27.2787 175.38 27.1891 176.366C26.6049 183.024 26.5102 189.717 26.9056 196.389C27.5323 207.058 28.0248 215.201 28.8903 221.701C26.8564 222.705 24.6053 223.188 22.3392 223.106C15.7731 222.792 11.6843 217.547 8.9086 213.946C6.86417 211.331 1.96947 204.249 1.02933 191.533C0.311702 184.191 1.33426 176.783 4.0139 169.911C6.15433 164.278 9.17673 159.022 12.9676 154.341C15.3156 151.639 17.8864 149.14 20.6529 146.87C25.3358 143.079 30.7522 140.301 36.5607 138.711Z" fill="white" stroke="#231F20" stroke-linejoin="round"/>
<path d="M98.1028 150.769C98.1102 150.884 98.1102 150.998 98.1028 151.113C97.9293 152.958 97.0622 154.668 95.6768 155.897C94.2915 157.126 92.4915 157.782 90.6413 157.732C89.1345 157.768 87.6522 157.346 86.3896 156.522C85.127 155.698 84.1432 154.51 83.5679 153.115C83.2679 152.37 83.1158 151.573 83.1202 150.769C83.1201 150.067 83.2361 149.371 83.4634 148.707C84.0023 147.242 84.9859 145.983 86.2759 145.107C87.566 144.231 89.0978 143.781 90.6563 143.821C92.0131 143.798 93.351 144.141 94.5298 144.814C95.7086 145.487 96.685 146.465 97.3566 147.646C97.8722 148.604 98.1294 149.681 98.1028 150.769Z" fill="#FCB74C" stroke="#231F20" stroke-linejoin="round"/>
<path d="M64.481 48.4285C58.246 48.7672 52.2387 50.8881 47.1704 54.54C45.6393 55.6881 44.2247 56.9844 42.9473 58.4101C44.078 55.3311 45.5127 52.3728 47.2301 49.5791C48.9463 46.7699 50.543 44.2446 53.7067 42.5113C54.7065 41.9734 60.7652 38.8354 63.6154 41.7492C65.063 43.2136 65.2868 45.8136 64.481 48.4285Z" fill="white" stroke="#231F20" stroke-linejoin="round"/>
<path d="M157.54 21.1585C149.78 21.8904 141.955 21.5029 134.305 20.0079C126.366 18.439 120.069 15.7643 107.817 10.4597C99.4753 6.87348 92.3869 3.49649 86.8655 0.74707C86.922 7.21744 86.2816 13.675 84.9553 20.0079C83.8342 25.9383 81.9795 31.7057 79.4339 37.1768C77.6407 40.9698 75.4974 44.5867 73.032 47.9802C72.3903 48.8469 71.7934 49.6239 71.2412 50.3411C79.2843 50.6603 87.2398 52.1347 94.8641 54.7193C99.7505 56.3529 104.464 58.465 108.936 61.025C113.204 63.4756 113.697 64.3422 117.308 66.1652L119.8 67.4204C117.532 80.1812 119.054 90.3421 124.367 93.6444C126.703 95.0745 129.451 95.6795 132.171 95.3628C133.615 95.112 134.985 94.5457 136.186 93.7042C137.83 92.5246 139.191 90.9933 140.17 89.2214C143.349 83.4088 140.588 76.9238 139.409 74.1445C138.447 71.8987 137.148 69.8127 135.559 67.9583C138.543 63.7146 138.633 54.9882 142.647 44.394C146.003 35.7261 151.068 27.8238 157.54 21.1585ZM136.394 75.7134C137.991 79.6583 138.782 81.6904 138.29 84.2904C138.038 86.2248 137.163 88.0243 135.798 89.4157C135.352 89.8176 134.849 90.1501 134.305 90.4019C133.334 90.8002 132.289 90.9887 131.24 90.9553C130.191 90.9218 129.161 90.667 128.217 90.2076C124.978 88.7134 123.74 85.3364 123.068 83.1399C121.641 78.4964 121.6 73.5366 122.949 68.8698C124.901 69.7862 126.978 70.4057 129.112 70.7077C130.287 70.8627 131.482 70.7451 132.604 70.364C132.975 70.2343 133.33 70.0639 133.664 69.856C134.743 71.7248 135.657 73.6847 136.394 75.7134Z" fill="#4D455D" stroke="#231F20" stroke-linejoin="round"/>
<path d="M135.798 89.416C135.353 89.8179 134.849 90.1504 134.305 90.4022C133.334 90.8005 132.29 90.9891 131.24 90.9556C130.191 90.9221 129.161 90.6674 128.217 90.208C124.979 88.7137 123.74 85.3367 123.068 83.1402C121.641 78.4967 121.6 73.5369 122.949 68.8701C124.901 69.7865 126.978 70.406 129.112 70.708C130.413 72.5038 131.556 74.4086 132.53 76.4011C134.337 80.5263 135.442 84.9254 135.798 89.416Z" fill="white" stroke="#231F20" stroke-linejoin="round"/>
<path d="M135.798 89.416C135.353 89.8179 134.849 90.1504 134.305 90.4022C133.334 90.8005 132.29 90.9891 131.24 90.9556C130.191 90.9221 129.161 90.6674 128.217 90.208C124.979 88.7137 123.74 85.3367 123.068 83.1402C121.641 78.4967 121.6 73.5369 122.949 68.8701C124.901 69.7865 126.978 70.406 129.112 70.708C130.413 72.5038 131.556 74.4086 132.53 76.4011C134.337 80.5263 135.442 84.9254 135.798 89.416Z" fill="white" stroke="#231F20" stroke-linejoin="round"/>
<path d="M151.75 137.172C148.468 139.374 145.015 141.307 141.423 142.955L141.185 143.059C139.692 143.747 138.349 144.3 137.155 144.763C134.336 145.849 131.45 146.753 128.515 147.468C122.26 148.846 115.918 149.79 109.533 150.292C105.176 150.74 101.296 150.979 98.0874 151.113C98.0948 150.999 98.0948 150.884 98.0874 150.77C98.0938 149.67 97.8107 148.587 97.2666 147.632C102.206 146.661 107.065 145.317 111.801 143.612C117.775 141.482 123.535 138.795 129.008 135.588C130.082 134.976 131.112 134.348 132.097 133.72C134.439 132.226 136.573 130.732 138.543 129.312L140.618 127.729C143.393 129.835 147.019 132.988 151.75 137.172Z" fill="#DF2D38" stroke="#231F20" stroke-linejoin="round"/>
<path d="M138.215 126.01C138.215 125.771 138.215 125.547 138.215 125.323C137.753 119.137 138.215 115.237 137.156 103.372C136.842 99.7113 136.559 96.5136 136.275 93.7044C135.075 94.546 133.704 95.1123 132.261 95.363C129.541 95.6798 126.793 95.0748 124.456 93.6447C119.144 90.3424 117.622 80.1964 119.89 67.4206L117.398 66.1655C113.786 64.3425 113.294 63.4758 109.026 61.0252C104.544 58.4635 99.8205 56.3513 94.9239 54.7195C87.2996 52.135 79.344 50.6605 71.301 50.3414C71.8531 49.6241 72.45 48.8471 73.0917 47.9805C70.1071 47.9805 67.2718 48.1448 64.5409 48.4287C58.306 48.7674 52.2986 50.8883 47.2304 54.5402C45.6992 55.6883 44.2847 56.9846 43.0072 58.4103C34.0535 68.3919 32.7552 83.0056 32.009 91.6424C31.3375 98.2768 30.1586 112.069 34.3221 126.428C34.3221 126.548 34.3221 126.638 34.4265 126.757C35.4712 130.269 36.7993 133.646 36.5456 138.278L37.0977 138.502L37.6797 138.726L39.3809 139.354C42.9774 140.669 47.4393 142.118 51.558 143.224C55.3633 144.24 57.0944 144.479 83.3288 148.678C83.8677 147.213 84.8512 145.954 86.1413 145.078C87.4314 144.201 88.9632 143.752 90.5216 143.792C91.8784 143.769 93.2163 144.112 94.3952 144.785C95.574 145.458 96.5504 146.436 97.222 147.617C102.161 146.646 107.02 145.302 111.757 143.597C117.73 141.467 123.491 138.78 128.963 135.573C130.037 134.961 131.067 134.333 132.052 133.705C134.395 132.211 136.529 130.717 138.499 129.297C138.409 128.117 138.29 127.011 138.215 126.01ZM62.6755 83.3344C61.0191 83.424 59.5567 81.4964 59.3925 79.016C59.2284 76.5355 60.467 74.4286 62.1234 74.324C63.7798 74.2194 65.2423 76.162 65.3915 78.6424C65.5407 81.1229 64.3469 83.2298 62.6755 83.3344ZM79.5384 100.354C72.5545 100.354 66.8838 98.1274 66.8838 95.3929C66.8838 92.6585 72.5545 90.432 79.5384 90.432C86.5223 90.432 92.1781 92.6435 92.1781 95.3929C92.1781 98.1423 86.5521 100.354 79.5384 100.354ZM99.9827 82.1838C98.3412 82.0941 97.1026 80.0022 97.222 77.5217C97.3414 75.0413 98.8038 73.039 100.46 73.1735C102.117 73.308 103.355 75.3551 103.221 77.8355C103.087 80.316 101.594 82.2734 99.9827 82.1838Z" fill="white" stroke="#231F20" stroke-linejoin="round"/>
<path d="M103.177 77.8354C103.043 80.3308 101.595 82.3182 99.9386 82.1837C98.2821 82.0492 96.9988 80.0021 97.1778 77.5217C97.3569 75.0412 98.7597 73.0389 100.416 73.1734C102.073 73.3079 103.311 75.355 103.177 77.8354Z" fill="#231F20" stroke="#231F20" stroke-linejoin="round"/>
<path d="M65.4218 78.6426C65.571 81.1231 64.3474 83.23 62.7058 83.3346C61.0643 83.4392 59.587 81.4966 59.4228 79.0162C59.2587 76.5357 60.4973 74.4289 62.1537 74.3243C63.8101 74.2197 65.2726 76.207 65.4218 78.6426Z" fill="#231F20" stroke="#231F20" stroke-linejoin="round"/>
<path d="M92.1781 95.3925C92.1781 98.127 86.5223 100.353 79.5384 100.353C72.5545 100.353 66.8838 98.127 66.8838 95.3925C66.8838 92.6581 72.5545 90.4316 79.5384 90.4316C86.5223 90.4316 92.1781 92.6431 92.1781 95.3925Z" fill="#231F20" stroke="#231F20" stroke-linejoin="round"/>
<path d="M228.215 185.017C224.932 184.763 220.037 184.285 214.113 183.299C208.189 182.313 206.174 181.625 203.07 181.192C197.574 180.487 191.992 180.893 186.655 182.388C186.551 181.954 186.446 181.566 186.342 181.192C183.656 171.24 178.522 164.98 171.613 156.522C166.076 149.768 161.406 145.659 152.049 137.455L151.721 137.172C146.99 133.003 143.364 129.835 140.603 127.728L138.529 129.312C138.38 128.116 138.26 127.026 138.186 126.01C138.186 125.77 138.186 125.546 138.186 125.322C143.811 125.294 149.421 125.925 154.899 127.205C163.853 129.357 167.584 132.166 182.148 135.408C187.9 136.805 193.762 137.7 199.668 138.083C206.825 138.433 213.998 137.855 221.007 136.365C218.092 137.927 215.703 140.319 214.143 143.238C213.093 144.957 212.574 146.948 212.651 148.961C212.889 151.501 214.262 152.039 216.844 156.582C218.268 158.732 219.28 161.129 219.829 163.65C220.485 167.505 218.978 169.283 218.874 172.032C218.769 175.066 220.366 179.429 228.215 185.017Z" fill="#DF2D38" stroke="#231F20" stroke-linejoin="round"/>
<path d="M36.0381 142.058C36.2545 141.214 36.4091 140.355 36.5007 139.488C36.5007 139.219 36.5007 138.965 36.5007 138.711L37.0827 138.517" fill="white"/>
<path d="M36.0381 142.058C36.2545 141.214 36.4091 140.355 36.5007 139.488C36.5007 139.219 36.5007 138.965 36.5007 138.711L37.0827 138.517" stroke="#231F20" stroke-linejoin="round"/>
<path d="M55.9907 125.517C52.4782 121.86 50.2112 117.184 49.5142 112.159C48.8085 106 50.444 99.8012 54.0955 94.7954C56.3821 91.5557 59.3784 88.8826 62.8552 86.9805" stroke="#231F20" stroke-miterlimit="10" stroke-linecap="round"/>
<path d="M56.707 69.2282C56.7869 68.2288 57.1804 67.2803 57.8313 66.5184C58.4822 65.7565 59.3571 65.2203 60.3308 64.9865C61.3045 64.7527 62.3271 64.8333 63.2523 65.2167C64.1775 65.6002 64.9578 66.2668 65.4817 67.1213" stroke="#231F20" stroke-miterlimit="10" stroke-linecap="round"/>
<path d="M71.6299 84.2905C73.8634 83.6312 76.1683 83.2449 78.4944 83.1399C80.1799 83.0851 81.8607 83.3487 83.4488 83.9169" stroke="#231F20" stroke-miterlimit="10" stroke-linecap="round"/>
<path d="M96.998 67.3157C98.3552 66.3147 99.8284 65.4818 101.385 64.8352C102.31 64.4452 103.263 64.1255 104.236 63.8789" stroke="#231F20" stroke-miterlimit="10" stroke-linecap="round"/>
<path d="M78.2852 127.205C82.9422 128.017 87.729 127.626 92.1933 126.069" stroke="#231F20" stroke-miterlimit="10" stroke-linecap="round"/>
<path opacity="0.2" d="M60.8851 199.003L136.872 214.842C137.264 215.978 137.828 217.046 138.544 218.01C140.345 220.211 142.761 221.824 145.483 222.642C149.949 224.309 154.657 225.237 159.421 225.392L157.929 230.009C147.527 229.767 137.58 225.692 129.993 218.563L61.1835 204.338L36.9189 180.669L60.8851 199.003Z" fill="#231F20"/>
<path opacity="0.2" d="M34.457 139.384L26.2793 162.694L29.4728 162.365C30.0846 159.855 30.786 157.255 31.5769 154.61C33.0692 149.664 34.651 145.077 36.3075 140.818L36.591 138.293L34.457 139.384Z" fill="#231F20"/>
<path opacity="0.2" d="M27.4274 173.661C27.0245 177.77 26.7559 182.074 26.6067 186.527C26.248 198.165 26.8871 209.813 28.5168 221.342L26.5171 222.344C26.1142 218.518 25.7561 214.574 25.4725 210.524C25.0249 204.368 24.6369 199.003 24.6518 192.967C24.6892 186.021 25.2479 179.088 26.3231 172.227L27.4274 173.661Z" fill="#231F20"/>
<path opacity="0.2" d="M139.887 175.544C141.85 177.719 143.371 180.257 144.363 183.015C145.97 187.302 146.149 191.995 144.874 196.392C143.599 200.789 140.939 204.656 137.29 207.416C137.648 206.4 138.185 204.876 138.917 203.068C141.08 197.584 141.677 197.39 142.334 194.924C142.991 192.459 144.005 188.783 142.468 185.017C141.618 182.94 140.319 181.715 139.931 178.772C139.765 177.703 139.75 176.617 139.887 175.544Z" fill="#231F20"/>
<path opacity="0.2" d="M85.8812 145.33C85.4592 146.606 85.2132 147.933 85.15 149.275C85.0315 151.86 85.5761 154.432 86.7318 156.746C85.6343 156.178 84.7117 155.321 84.0625 154.269C83.4133 153.216 83.0619 152.006 83.0459 150.769C83.0831 149.708 83.3571 148.669 83.8477 147.728C84.3384 146.787 85.0332 145.967 85.8812 145.33Z" fill="#231F20"/>
<path opacity="0.2" d="M53.8858 94.7803C51.4679 98.0581 49.9268 101.9 49.4089 105.942C48.7536 111.623 50.0652 117.356 53.1247 122.185C53.7578 123.153 54.4558 124.076 55.2139 124.949C54.2678 124.984 53.3282 124.779 52.4831 124.351C51.4534 123.799 49.2 123.694 47.9316 120.063C46.8168 117.474 46.0636 114.744 45.6932 111.949C45.2996 108.691 45.6256 105.385 46.6482 102.266C48.1256 98.4262 52.2294 96.0653 53.8858 94.7803Z" fill="#231F20"/>
<path opacity="0.2" d="M72.3752 100.114C70.8542 99.4996 69.443 98.6417 68.1968 97.574C66.406 96.0798 66.4508 95.258 66.4657 95.0488C66.5851 94.0626 67.7043 93.4649 68.0326 93.3154C67.8386 93.3154 65.2271 93.7936 64.6899 95.3775C64.3869 96.3456 64.3458 97.3768 64.5705 98.366C65.2868 100.114 69.0623 100.338 72.3752 100.114Z" fill="#231F20"/>
<path opacity="0.2" d="M122.457 70.9917C127.056 73.7135 130.976 77.4491 133.918 81.9147C133.363 78.2461 131.963 74.7571 129.829 71.7239C129.426 71.186 129.023 70.663 128.605 70.2297L122.964 68.9297L122.457 70.9917Z" fill="#231F20"/>
<path opacity="0.1" d="M81.8069 32.6045C83.269 35.0017 84.1482 37.7093 84.3736 40.5091C84.6482 44.155 83.8215 47.7994 82.0009 50.9688L71.3311 50.401C72.4503 48.6228 73.465 46.9642 74.3156 45.4401C76.1959 42.3171 77.6136 39.8665 78.8969 37.6252C80.0012 35.862 80.9563 34.1436 81.8069 32.6045Z" fill="#231F20"/>
<path opacity="0.2" d="M47.0367 51.1631L52.6627 51.2976C47.2506 55.0531 44.3059 56.6569 43.8283 56.109C43.3508 55.5611 44.4203 53.9125 47.0367 51.1631Z" fill="#231F20"/>
<path opacity="0.2" d="M117.622 258.609C117.525 260.366 117.525 262.127 117.622 263.884C118.029 270.528 119.78 277.02 122.77 282.966C120.449 280.991 118.316 278.805 116.398 276.436C112.764 271.919 109.946 266.802 108.071 261.314L117.622 258.609Z" fill="#231F20"/>
<path opacity="0.2" d="M89.8804 262.076C89.4942 266.421 88.7353 270.726 87.6121 274.941C86.5122 279.126 85.0595 283.21 83.2695 287.149C86.213 283.031 88.7423 278.631 90.8205 274.015C92.6816 269.885 94.1796 265.6 95.2974 261.209L89.8804 262.076Z" fill="#231F20"/>
<path opacity="0.2" d="M16.1914 164.367L75.8829 190.053L138.559 205.31C137.436 206.418 136.671 207.84 136.365 209.389C136.173 210.605 136.246 211.848 136.581 213.032C136.916 214.216 137.505 215.313 138.305 216.247L61.6614 198.571L16.1914 164.367Z" fill="#231F20"/>
<path opacity="0.2" d="M173.821 222.553L234.125 235.12L236.094 233.924L242.228 236.913C246.121 238.35 250.35 238.61 254.39 237.66C257.896 237.056 261.072 235.217 263.344 232.475C264.508 230.918 265.313 229.121 265.701 227.215L239.273 231.22L179.776 217.518L173.821 222.553Z" fill="#231F20"/>
<path opacity="0.2" d="M135.798 212.094C140.209 214.4 144.851 216.233 149.646 217.563C159.532 220.267 169.879 220.832 179.999 219.221C177.368 221.162 174.447 222.675 171.344 223.704C165.599 225.632 161.047 225.079 152.571 224.137C143.006 223.062 140.961 221.448 140.125 220.701C137.741 218.413 136.213 215.374 135.798 212.094Z" fill="#231F20"/>
<path opacity="0.2" d="M125.755 94.3762C124.332 94.7933 122.806 94.6654 121.472 94.0176C120.212 93.2494 119.265 92.0579 118.801 90.6555C116.965 86.1654 115.808 81.4264 115.369 76.5947C115.199 73.6071 115.238 70.6112 115.488 67.6292L113.055 66.374C107.982 63.7142 107.086 62.8775 103.908 61.3235C99.9413 59.3946 95.8359 57.7662 91.6262 56.4522C85.3293 54.5125 78.8091 53.3926 72.2265 53.12C71.1222 53.12 67.9436 51.7154 67.9287 50.1315C67.9287 48.981 69.6747 48.1293 69.8239 48.0545C70.8496 47.5997 72.0129 47.5675 73.0622 47.9649L71.3311 49.6683C75.4779 50.1604 79.597 50.8637 83.6723 51.7752C89.4646 52.9926 95.1414 54.7073 100.64 56.9005C107.419 59.6313 113.86 63.1414 119.83 67.3602C119.711 68.0775 119.592 68.8545 119.487 69.5119L119.189 69.3774C118.95 72.0521 118.875 74.3085 118.86 76.0268C118.786 82.9751 119.636 85.9785 120.024 87.1889C120.568 89.3866 121.759 91.3701 123.442 92.882C124.142 93.4825 124.92 93.9851 125.755 94.3762Z" fill="#231F20"/>
<path opacity="0.2" d="M32.8301 119.749C34.8011 122.829 36.4607 126.097 37.7845 129.506C39.3393 132.867 40.2456 136.492 40.4557 140.19C40.4043 143.063 39.9317 145.913 39.053 148.648C37.6906 153.603 35.7994 158.398 33.4121 162.948L28.9502 162.873C30.1142 158.689 31.4125 154.356 32.8749 149.903C34.0787 146.257 35.3073 142.741 36.5609 139.354C36.421 136.088 36.0419 132.836 35.4267 129.626C34.807 126.274 33.9391 122.972 32.8301 119.749Z" fill="#231F20"/>
<path opacity="0.2" d="M29.741 175.186C29.6514 179.34 29.5917 185.361 29.741 192.638C30.1439 209.747 30.3976 218.474 33.0389 227.111C35.7505 235.764 40.2046 243.768 46.1263 250.63C43.826 249.323 41.6915 247.742 39.7691 245.923C36.1782 242.401 33.3445 238.18 31.4422 233.521C30.0543 230.144 29.4276 227.126 28.5919 217.816C28.0099 211.316 27.6816 206.146 27.3235 196.897C26.9504 187.274 25.6372 184.525 26.6967 178.458C26.9425 176.984 27.2815 175.526 27.7115 174.095L29.741 175.186Z" fill="#231F20"/>
<path opacity="0.2" d="M47.2454 294.755C46.3351 292.349 45.0965 288.867 43.8729 284.579C42.4076 280.163 41.4073 275.605 40.8883 270.981C40.6495 267.44 40.8883 260.417 46.2904 251.556L45.1413 250.6C44.1713 252.542 42.8879 255.262 41.5897 258.609C40.235 261.771 39.234 265.073 38.6051 268.456C37.8467 272.116 37.8612 275.894 38.6476 279.548C39.434 283.203 40.975 286.652 43.1715 289.674C44.3664 291.492 45.7305 293.194 47.2454 294.755Z" fill="#231F20"/>
<path opacity="0.4" d="M146.737 26.2988C140.357 36.2559 136.439 47.5913 135.306 59.3665C137.723 52.9711 140.096 46.3566 142.424 39.5229C143.931 35.0551 145.379 30.6471 146.737 26.2988Z" fill="white"/>
<path opacity="0.4" d="M181.536 138.337C185.737 139.482 190.032 140.248 194.37 140.623C197.069 140.863 199.779 140.947 202.488 140.877C205.851 140.802 209.206 140.507 212.531 139.996L210.501 142.028C208.651 142.207 206.025 142.416 202.742 142.536C199.825 142.733 196.898 142.733 193.982 142.536C189.577 142.062 185.329 140.629 181.536 138.337Z" fill="white"/>
<path opacity="0.4" d="M213.158 157.284C211.248 157.598 208.681 157.941 205.801 158.181C201.831 158.53 197.839 158.57 193.863 158.3C188.191 157.881 182.598 156.726 177.224 154.863C178.696 156.061 180.316 157.066 182.044 157.852C185.208 159.235 188.619 159.967 192.072 160.003C197.615 160.333 203.173 160.293 208.711 159.884C213.292 159.764 215.62 159.376 215.695 158.733C215.754 158.39 214.889 157.897 213.158 157.284Z" fill="white"/>
<path opacity="0.7" d="M75.3604 161.737L138.23 177.815C138.648 178.966 139.081 180.102 139.499 181.252C140.409 183.733 141.29 186.183 142.17 188.634L82.8516 176.037L75.3604 161.737Z" fill="white"/>
<path opacity="0.7" d="M189.669 191.114C189.799 191.956 189.883 192.804 189.923 193.654C189.97 195.019 189.885 196.385 189.669 197.734L241.362 210.061C240.87 208.826 240.271 207.636 239.571 206.505C238.718 205.088 237.718 203.766 236.586 202.56L189.669 191.114Z" fill="white"/>
<path opacity="0.7" d="M244.019 204.473C245.453 204.194 246.93 204.235 248.346 204.592C250.337 204.937 252.264 205.582 254.062 206.505C257.136 208.104 259.583 210.405 259.389 210.704C259.195 211.002 258.792 210.569 254.181 208.402C250.54 206.699 250.242 206.579 249.704 206.37C246.227 205.01 243.989 204.712 244.019 204.473Z" fill="white"/>
</g>
<defs>
<clipPath id="clip0_1052_13687">
<rect width="267" height="300" fill="white"/>
</clipPath>
</defs>
</svg>
