<svg width="200" height="200" viewBox="0 0 200 200" fill="none" xmlns="http://www.w3.org/2000/svg">
<mask id="mask0_1052_12556" style="mask-type:luminance" maskUnits="userSpaceOnUse" x="50" y="44" width="102" height="109">
<path d="M119.376 44.0003L50 71.75L81.7856 152.954L151.162 125.204L119.376 44.0003Z" fill="white"/>
</mask>
<g mask="url(#mask0_1052_12556)">
<path d="M82.4597 102.548C86.0154 101.127 87.301 96.3736 85.6204 92.0802C83.9419 87.7922 79.7731 85.2195 76.2268 86.6381C72.6799 88.0568 71.3879 92.8068 73.0687 97.1007C74.7493 101.394 78.904 103.971 82.4597 102.548Z" stroke="#FF5900" stroke-width="2"/>
<path d="M113.5 90.133C117.056 88.7108 118.342 83.9579 116.662 79.6644C114.983 75.3774 110.83 72.7974 107.272 74.2206C103.715 75.6437 102.429 80.3912 104.11 84.6849C105.79 88.9785 109.946 91.5554 113.5 90.133Z" stroke="#FF5900" stroke-width="2"/>
<path d="M117.326 117.176C121.157 112.953 122.719 107.712 120.946 103.181C119.173 98.6499 114.486 95.9123 108.832 95.4785" stroke="#FF5900" stroke-width="2"/>
<path d="M89.5 103C85.6689 107.222 84.0932 112.689 85.8667 117.22C87.64 121.75 92.328 124.493 97.98 124.922" stroke="#FF5900" stroke-width="2"/>
<path d="M108.833 95.4812C105.245 95.2738 101.656 95.8587 98.3147 97.1951C94.9734 98.5313 91.9602 100.588 89.4844 103.22M117.325 117.179C114.85 119.811 111.837 121.868 108.495 123.204C105.155 124.541 101.565 125.126 97.9777 124.918" stroke="#FF5900" stroke-width="2"/>
<path d="M92.8481 83.2271C96.4037 81.8049 97.6894 77.052 96.0097 72.7606C94.3301 68.47 90.1745 65.8826 86.6161 67.3059C83.0576 68.7293 81.7785 73.4905 83.4579 77.7811C85.1378 82.0725 89.2924 84.6493 92.8481 83.2271Z" stroke="#FF5900" stroke-width="2"/>
<path d="M113.987 138.24C117.552 136.81 120.893 135.347 123.933 133.799C132.66 129.352 139.131 124.073 141.025 116.512C142.918 108.957 140.141 99.5357 131.467 87.0694L131.466 87.0684C127.26 81.0387 121.798 74.1253 115.55 68.5495C109.317 62.988 102.193 58.66 94.668 57.9971C91.84 57.7402 88.9896 58.0354 86.2719 58.8666M113.987 138.24L113.983 138.243M113.987 138.24L113.991 138.239M113.987 138.24C110.81 139.544 107.519 140.542 104.157 141.222L104.15 141.223C95.5735 142.888 87.6092 141.775 81.2857 136.727C74.9822 131.693 70.4994 122.9 68.5421 109.617M86.2719 58.8666C81.6646 60.2393 77.6092 63.0593 74.6935 66.918M86.2719 58.8666L86.268 58.8677M86.2719 58.8666L86.2756 58.8655M68.5421 109.617L68.542 109.616M68.5421 109.617C67.3286 101.402 66.9776 93.2164 67.8648 85.8537C68.7509 78.5004 70.8812 71.8958 74.6935 66.918M74.6935 66.918L74.6913 66.9209M74.6935 66.918L74.6957 66.9151" stroke="#FF5900" stroke-width="2"/>
</g>
<path d="M67.7969 195.581L68.3715 193.596L72.1109 194.702L75.3668 183.457L77.4423 184.071L74.1862 195.317L77.9256 196.423L77.351 198.407L67.7969 195.581Z" fill="#FF5900"/>
<path d="M53.4701 182.79L50.8323 187.818L48.9219 186.794L55.3111 174.614L57.2215 175.639L54.4285 180.962L60.3318 184.128L63.1249 178.804L65.0352 179.828L58.6461 192.006L56.7356 190.982L59.3734 185.954L53.4701 182.79Z" fill="#FF5900"/>
<path d="M48.7097 169.984L40.3746 180.894L38.6631 179.558L46.9983 168.647L48.7097 169.984Z" fill="#FF5900"/>
<path d="M35.3118 157.573L33.642 162.995L35.6963 165.206L39.2602 161.822L40.7408 163.415L30.8016 172.854L27.0935 168.864C26.5511 168.279 26.195 167.609 26.0254 166.851C25.8471 166.084 25.8705 165.323 26.096 164.569C26.3031 163.814 26.6954 163.162 27.2727 162.614C27.8881 162.029 28.6025 161.657 29.4159 161.497C30.2294 161.337 31.0177 161.399 31.7807 161.683L33.6178 155.75L35.3118 157.573ZM30.8261 169.831L34.1911 166.636L31.9636 164.238C31.5279 163.769 30.9888 163.525 30.3462 163.505C29.7037 163.484 29.1505 163.694 28.6866 164.136C28.2229 164.575 27.9856 165.116 27.975 165.757C27.955 166.406 28.1628 166.965 28.5985 167.434L30.8261 169.831Z" fill="#FF5900"/>
<path d="M15.1079 153.032C14.4532 151.929 14.1136 150.757 14.0893 149.516C14.047 148.271 14.3166 147.105 14.8981 146.018C15.4684 144.936 16.2993 144.065 17.3908 143.404C18.4822 142.742 19.6338 142.41 20.8454 142.411C22.046 142.418 23.1798 142.733 24.2465 143.357C25.2956 143.976 26.1474 144.837 26.8022 145.941L29.478 150.45L17.7836 157.541L15.1079 153.032ZM25.0481 147.004C24.5938 146.239 23.998 145.643 23.2608 145.218C22.5236 144.792 21.7329 144.583 20.8888 144.589C20.0445 144.596 19.2437 144.829 18.4865 145.288C17.7291 145.747 17.1488 146.351 16.7456 147.101C16.3313 147.858 16.1363 148.665 16.1607 149.523C16.174 150.388 16.4077 151.203 16.862 151.968L18.4255 154.603L26.6114 149.639L25.0481 147.004Z" fill="#FF5900"/>
<path d="M15.0657 114.982L10.8444 118.73L11.4576 121.699L16.2443 120.688L16.6862 122.828L3.33711 125.646L2.23019 120.287C2.06827 119.502 2.11032 118.743 2.35635 118.007C2.59972 117.258 3.01214 116.621 3.59361 116.095C4.1597 115.561 4.83051 115.211 5.60603 115.047C6.43241 114.873 7.23396 114.931 8.01074 115.224C8.78753 115.515 9.42828 115.984 9.93288 116.628L14.56 112.534L15.0657 114.982ZM4.91658 123.079L9.43621 122.125L8.77123 118.906C8.6412 118.276 8.30726 117.784 7.76932 117.427C7.23149 117.072 6.6511 116.959 6.02809 117.091C5.40513 117.222 4.92398 117.558 4.58463 118.1C4.23257 118.643 4.12156 119.23 4.25163 119.86L4.91658 123.079Z" fill="#FF5900"/>
<path d="M14.065 99.1945C14.0478 100.481 13.7203 101.665 13.0823 102.746C12.4315 103.827 11.5628 104.681 10.4763 105.31C9.39005 105.925 8.21051 106.224 6.93791 106.207C5.66522 106.19 4.49415 105.859 3.4247 105.214C2.35542 104.555 1.51638 103.678 0.90759 102.58C0.285808 101.481 -0.0164912 100.289 0.000693245 99.0027C0.0178777 97.7163 0.351919 96.5324 1.00281 95.4514C1.64071 94.3704 2.50281 93.5222 3.5891 92.9067C4.67556 92.2782 5.85513 91.9726 7.12777 91.99C8.40047 92.0073 9.57144 92.345 10.6407 93.003C11.7102 93.6478 12.5558 94.5194 13.1776 95.6177C13.7864 96.7158 14.0822 97.9081 14.065 99.1945ZM11.9028 99.1652C11.9147 98.2723 11.7114 97.4487 11.2928 96.6949C10.8614 95.9274 10.2785 95.322 9.5441 94.8787C8.79679 94.4221 7.98163 94.1878 7.09861 94.1757C6.21548 94.1636 5.40089 94.3758 4.6547 94.812C3.89571 95.2349 3.29685 95.8241 2.85812 96.5797C2.40659 97.3219 2.17486 98.139 2.16294 99.0319C2.15101 99.9249 2.36074 100.755 2.7921 101.522C3.21066 102.276 3.79356 102.882 4.54081 103.338C5.27525 103.782 6.084 104.009 6.96707 104.021C7.8502 104.033 8.67115 103.828 9.43014 103.406C10.1764 102.969 10.7752 102.379 11.2267 101.637C11.6655 100.882 11.8909 100.058 11.9028 99.1652Z" fill="#FF5900"/>
<path d="M16.7225 78.4394C16.4018 79.6845 15.8039 80.7549 14.9289 81.6506C14.0414 82.543 12.9959 83.1631 11.7923 83.511C10.5921 83.8462 9.37608 83.8517 8.14433 83.5274C6.91268 83.2032 5.85376 82.5988 4.96771 81.7143C4.08492 80.8171 3.47773 79.7619 3.14612 78.5485C2.80195 77.3319 2.79025 76.1011 3.11102 74.8559C3.4318 73.6109 4.03595 72.5422 4.92347 71.6497C5.79844 70.754 6.83603 70.1385 8.03638 69.8034C9.23993 69.4554 10.4575 69.4436 11.6893 69.7678C12.9209 70.0922 13.9782 70.7028 14.861 71.6C15.747 72.4845 16.3621 73.535 16.7063 74.7518C17.0379 75.9651 17.0434 77.1943 16.7225 78.4394ZM14.6299 77.8885C14.8525 77.0245 14.8497 76.1758 14.6215 75.3425C14.384 74.4931 13.9611 73.7644 13.3527 73.1566C12.735 72.5327 11.9989 72.1082 11.1443 71.8833C10.2895 71.6583 9.44844 71.6674 8.62073 71.9108C7.78381 72.1382 7.06298 72.5657 6.45836 73.1934C5.84447 73.8051 5.42623 74.5429 5.20366 75.4069C4.98107 76.2708 4.98852 77.1274 5.22601 77.9769C5.45419 78.8103 5.87712 79.5388 6.49481 80.1628C7.10318 80.7706 7.83473 81.1871 8.68934 81.4121C9.54396 81.637 10.3898 81.6358 11.2268 81.4085C12.0544 81.1651 12.7752 80.7376 13.3892 80.126C13.9938 79.4982 14.4074 78.7524 14.6299 77.8885Z" fill="#FF5900"/>
<path d="M14.0329 48.4719L14.0157 48.4625L15.0449 46.54L27.0383 53.1012L26.009 55.0236L17.4596 50.3465L21.5447 57.2389L21.2851 57.7238L13.3335 58.0537L21.9001 62.7403L20.8708 64.6627L8.86035 58.0923L9.8896 56.1697L9.9239 56.1885L9.92669 56.1005L18.2796 55.7662L13.9879 48.5145L14.0329 48.4719Z" fill="#FF5900"/>
<path d="M39.1819 37.831L37.6517 39.5915L34.7089 38.4721L30.9672 42.7772L32.4442 45.5832L30.9011 47.3586L24.0254 34.3837L25.5685 32.6084L39.1819 37.831ZM27.1368 35.548L29.9319 40.8355L32.6708 37.6842L27.1368 35.548Z" fill="#FF5900"/>
<path d="M42.9185 16.9375L44.1605 18.5805L41.0647 20.972L48.1031 30.2821L46.3849 31.6094L39.3466 22.2993L36.2508 24.6908L35.0088 23.0478L42.9185 16.9375Z" fill="#FF5900"/>
<path d="M56.4146 17.8302L58.1581 21.2862L63.4167 18.5755L64.3459 20.4176L57.1609 24.1215L50.9658 11.8408L58.064 8.18164L58.9933 10.0238L53.8215 12.6899L55.4854 15.988L60.2233 13.5456L61.1525 15.3878L56.4146 17.8302Z" fill="#FF5900"/>
<path d="M94.1981 8.06108C94.2612 8.9549 93.9951 9.73861 93.3998 10.4123C92.8233 11.0848 92.093 11.4529 91.2088 11.5167C90.3246 11.5805 89.5406 11.3218 88.8566 10.7404C88.1901 10.1386 87.826 9.40029 87.7642 8.52555C87.7011 7.63173 87.9577 6.84866 88.5343 6.17624C89.1282 5.48355 89.8672 5.10524 90.7514 5.04141C91.6356 4.97758 92.4109 5.24655 93.0775 5.84831C93.7614 6.42971 94.1349 7.16726 94.1981 8.06108Z" fill="#FF5900"/>
<path d="M125.594 2.13571L125.16 4.15645L121.353 3.3205L118.893 14.7711L116.78 14.3072L119.239 2.85658L115.433 2.02074L115.867 0L125.594 2.13571Z" fill="#FF5900"/>
<path d="M140.782 13.8731L143.061 8.66886L145.038 9.55369L139.518 22.1591L137.542 21.2743L139.954 15.7639L133.844 13.0297L131.431 18.5401L129.453 17.6553L134.973 5.0498L136.951 5.93463L134.672 11.1389L140.782 13.8731Z" fill="#FF5900"/>
<path d="M146.426 26.305L153.976 14.8252L155.776 16.0354L148.227 27.5152L146.426 26.305Z" fill="#FF5900"/>
<path d="M160.66 37.722L161.946 32.1935L159.743 30.1358L156.425 33.7668L154.836 32.2836L164.089 22.1572L168.067 25.8719C168.649 26.4153 169.051 27.0588 169.274 27.8024C169.505 28.5551 169.535 29.3157 169.363 30.0844C169.21 30.8525 168.863 31.5305 168.326 32.1188C167.754 32.7457 167.067 33.1682 166.267 33.386C165.466 33.6039 164.676 33.5985 163.895 33.3696L162.477 39.419L160.66 37.722ZM164.276 25.1739L161.144 28.6023L163.533 30.8338C164.001 31.2703 164.556 31.4757 165.198 31.45C165.84 31.4242 166.377 31.1751 166.809 30.7025C167.241 30.2299 167.44 29.6737 167.405 29.034C167.38 28.3847 167.133 27.8418 166.666 27.4053L164.276 25.1739Z" fill="#FF5900"/>
<path d="M181.13 40.8052C181.86 41.8589 182.282 43.0037 182.393 44.2394C182.522 45.4784 182.335 46.6611 181.831 47.7874C181.338 48.9063 180.571 49.8348 179.528 50.5731C178.486 51.3115 177.36 51.724 176.152 51.8105C174.953 51.8897 173.801 51.6562 172.692 51.1104C171.603 50.5678 170.693 49.7695 169.962 48.7159L166.978 44.4097L178.146 36.499L181.13 40.8052ZM171.638 47.5293C172.145 48.2604 172.78 48.8119 173.546 49.1837C174.31 49.5554 175.114 49.7078 175.956 49.6407C176.797 49.5736 177.58 49.2839 178.303 48.7716C179.026 48.2593 179.563 47.6148 179.913 46.8381C180.273 46.0538 180.411 45.2348 180.326 44.3807C180.252 43.5193 179.962 42.723 179.455 41.9919L177.712 39.4759L169.893 45.0133L171.638 47.5293Z" fill="#FF5900"/>
<path d="M183.838 78.7575L187.787 74.717L186.968 71.7997L182.264 73.15L181.673 71.0473L194.791 67.2812L196.271 72.5477C196.487 73.3181 196.498 74.0792 196.305 74.8309C196.114 75.5952 195.747 76.2601 195.204 76.8254C194.676 77.3999 194.032 77.7965 193.27 78.0153C192.458 78.2484 191.654 78.2471 190.859 78.0114C190.064 77.7757 189.391 77.3544 188.844 76.7476L184.515 81.1634L183.838 78.7575ZM193.395 69.9544L188.954 71.2294L189.843 74.3931C190.016 75.0119 190.384 75.4796 190.946 75.796C191.506 76.1126 192.094 76.1829 192.706 76.0073C193.318 75.8315 193.775 75.4616 194.075 74.8976C194.388 74.33 194.458 73.7368 194.284 73.1181L193.395 69.9544Z" fill="#FF5900"/>
<path d="M185.945 94.4349C185.872 93.1504 186.116 91.9461 186.676 90.8221C187.25 89.6974 188.057 88.7825 189.097 88.0778C190.137 87.3862 191.292 87.0034 192.563 86.9297C193.834 86.8559 195.025 87.1024 196.137 87.669C197.25 88.2488 198.148 89.0646 198.832 90.1164C199.53 91.1674 199.915 92.3351 199.988 93.6196C200.061 94.9042 199.811 96.1088 199.237 97.2336C198.677 98.3574 197.876 99.2655 196.835 99.9569C195.796 100.662 194.64 101.051 193.37 101.125C192.099 101.199 190.908 100.945 189.795 100.365C188.683 99.7987 187.778 98.9902 187.08 97.9391C186.397 96.8876 186.018 95.7195 185.945 94.4349ZM188.104 94.3096C188.155 95.2009 188.415 96.0076 188.886 96.7299C189.369 97.4644 189.993 98.0268 190.758 98.4159C191.535 98.8179 192.364 98.9935 193.246 98.9426C194.127 98.8916 194.926 98.6218 195.638 98.133C196.366 97.6562 196.923 97.0261 197.308 96.241C197.705 95.4683 197.879 94.6363 197.829 93.745C197.778 92.8537 197.511 92.0407 197.027 91.3061C196.556 90.5838 195.932 90.0217 195.155 89.6198C194.392 89.2301 193.568 89.0609 192.687 89.1121C191.806 89.1632 191.001 89.427 190.273 89.9032C189.56 90.3917 189.004 91.0224 188.605 91.795C188.22 92.5802 188.054 93.4183 188.104 94.3096Z" fill="#FF5900"/>
<path d="M184.747 115.332C184.98 114.068 185.501 112.957 186.311 112.001C187.135 111.047 188.134 110.354 189.31 109.921C190.484 109.501 191.696 109.408 192.947 109.643C194.199 109.879 195.297 110.406 196.244 111.225C197.187 112.056 197.867 113.065 198.282 114.252C198.71 115.441 198.808 116.668 198.575 117.933C198.343 119.198 197.815 120.307 196.992 121.261C196.183 122.217 195.191 122.905 194.017 123.325C192.84 123.759 191.627 123.858 190.375 123.622C189.124 123.387 188.027 122.853 187.083 122.022C186.138 121.203 185.451 120.199 185.022 119.01C184.606 117.824 184.515 116.598 184.747 115.332ZM186.873 115.732C186.711 116.61 186.775 117.456 187.06 118.271C187.357 119.101 187.829 119.798 188.479 120.362C189.138 120.939 189.903 121.31 190.771 121.473C191.639 121.636 192.478 121.567 193.286 121.265C194.105 120.978 194.794 120.5 195.353 119.831C195.923 119.177 196.289 118.411 196.45 117.533C196.611 116.655 196.544 115.802 196.247 114.971C195.962 114.156 195.489 113.46 194.829 112.882C194.179 112.319 193.42 111.956 192.552 111.793C191.684 111.629 190.841 111.691 190.022 111.977C189.212 112.28 188.524 112.757 187.954 113.412C187.395 114.082 187.035 114.854 186.873 115.732Z" fill="#FF5900"/>
<path d="M189.53 145.029L189.547 145.038L188.655 147.029L176.232 141.343L177.124 139.352L185.98 143.405L181.422 136.823L181.647 136.32L189.557 135.421L180.682 131.36L181.574 129.369L194.015 135.063L193.123 137.055L193.088 137.038L193.091 137.126L184.783 138.058L189.572 144.984L189.53 145.029Z" fill="#FF5900"/>
<path d="M165.188 157.441L166.591 155.575L169.604 156.481L173.036 151.919L171.366 149.226L172.781 147.345L180.547 159.795L179.133 161.676L165.188 157.441ZM177.362 158.857L174.204 153.782L171.693 157.122L177.362 158.857Z" fill="#FF5900"/>
<path d="M162.924 178.548L161.57 176.998L164.49 174.391L156.817 165.609L158.438 164.161L166.111 172.944L169.032 170.337L170.386 171.888L162.924 178.548Z" fill="#FF5900"/>
<path d="M149.399 178.629L147.418 175.306L142.363 178.386L141.307 176.615L148.215 172.406L155.255 184.213L148.43 188.371L147.374 186.6L152.346 183.57L150.455 180.399L145.901 183.175L144.845 181.404L149.399 178.629Z" fill="#FF5900"/>
<path d="M115.251 196.534C115.314 197.428 115.049 198.212 114.453 198.886C113.877 199.558 113.146 199.926 112.262 199.99C111.378 200.054 110.593 199.795 109.909 199.213C109.244 198.612 108.879 197.874 108.817 196.999C108.754 196.105 109.011 195.322 109.588 194.65C110.182 193.957 110.92 193.579 111.805 193.515C112.689 193.451 113.464 193.72 114.131 194.321C114.815 194.903 115.188 195.64 115.251 196.534Z" fill="#FF5900"/>
</svg>
