<svg width="101" height="101" viewBox="0 0 101 101" fill="none" xmlns="http://www.w3.org/2000/svg">
<circle cx="50.75" cy="50.293" r="50" fill="#88D3F5"/>
<path d="M41.2813 19.6699V41.0468C41.2813 37.4508 38.9892 34.5349 36.1635 34.5349C33.3378 34.5349 31.0457 37.4527 31.0457 41.0468C31.0457 44.641 33.3416 47.5625 36.1597 47.5625C38.9779 47.5625 41.2776 44.6466 41.2776 41.0468V50.546C37.1273 52.5601 34.3918 56.0133 34.3918 59.94C34.3918 63.8667 37.1273 67.3199 41.2776 69.334V82.5438C27.6394 79.9642 19.5155 70.0836 24.3684 49.2553C27.3726 36.3254 32.9094 24.6281 41.2813 19.6699Z" fill="#4D455D"/>
<path d="M41.2806 41.0471C41.2806 44.6468 38.9885 47.5627 36.1628 47.5627C33.3371 47.5627 31.0449 44.6468 31.0449 41.0471C31.0449 37.4473 33.3408 34.5352 36.159 34.5352C38.9772 34.5352 41.2806 37.4529 41.2806 41.0471Z" fill="white"/>
<path d="M76.9971 51.2214C74.2278 39.7382 68.7304 24.2626 58.2092 19.002V41.0477C58.2092 37.4517 60.4995 34.5358 63.327 34.5358C66.1546 34.5358 68.4449 37.4517 68.4449 41.0477C68.4449 44.6437 66.1527 47.5634 63.327 47.5634C60.5013 47.5634 58.2092 44.6475 58.2092 41.0477V50.545C62.3595 52.561 65.095 56.0142 65.095 59.939C65.095 63.8638 62.3595 67.3189 58.2092 69.333V82.9035C73.9573 81.4812 82.7162 74.9599 76.9971 51.2214ZM34.3955 59.9371C34.3955 63.86 37.131 67.317 41.2813 69.3311V50.5431C37.131 52.561 34.3955 56.0142 34.3955 59.9371Z" fill="white"/>
<path d="M41.2806 41.0471C41.2806 44.6468 38.9885 47.5627 36.1628 47.5627C33.3371 47.5627 31.0449 44.6468 31.0449 41.0471C31.0449 37.4473 33.3408 34.5352 36.159 34.5352C38.9772 34.5352 41.2806 37.4529 41.2806 41.0471Z" fill="white"/>
<path d="M68.4515 41.0471C68.4515 44.6468 66.1594 47.5627 63.3337 47.5627C60.508 47.5627 58.2158 44.6468 58.2158 41.0471C58.2158 37.4473 60.5061 34.5352 63.3337 34.5352C66.1612 34.5352 68.4515 37.4529 68.4515 41.0471Z" fill="#7A8FA1"/>
<path d="M65.1016 59.9369C65.1016 63.8599 62.3661 67.3168 58.2158 69.3309V50.543C62.3661 52.5608 65.1016 56.014 65.1016 59.9369Z" fill="#7A8FA1"/>
<path d="M41.2813 50.5469V69.3348C37.131 67.3207 34.3955 63.8638 34.3955 59.9408C34.3955 56.0179 37.131 52.5609 41.2813 50.5469Z" fill="white"/>
<path d="M58.2167 50.5443V69.3322C55.5631 70.5618 52.6736 71.1987 49.749 71.1987C46.8244 71.1987 43.9348 70.5618 41.2812 69.3322V50.5443C43.9348 49.3147 46.8244 48.6777 49.749 48.6777C52.6736 48.6777 55.5631 49.3147 58.2167 50.5443Z" fill="#FCC3A2"/>
<path d="M54.8665 29.6971C54.8665 33.295 52.5744 36.2109 49.7487 36.2109C46.923 36.2109 44.6309 33.295 44.6309 29.6971C44.6309 26.0992 46.9211 23.1758 49.7487 23.1758C52.5763 23.1758 54.8665 26.0992 54.8665 29.6971Z" fill="#FCC3A2"/>
<path d="M51.9152 17.2259C48.2011 16.8895 44.4764 17.745 41.2812 19.6683V50.5463C43.9348 49.3167 46.8244 48.6797 49.749 48.6797C52.6736 48.6797 55.5631 49.3167 58.2167 50.5463V19.0013C56.2495 18.0107 54.1102 17.408 51.9152 17.2259ZM49.749 36.2017C46.9214 36.2017 44.6311 33.2858 44.6311 29.6879C44.6311 26.09 46.9214 23.1741 49.749 23.1741C52.5766 23.1741 54.8668 26.09 54.8668 29.6879C54.8668 33.2858 52.5747 36.2092 49.749 36.2092V36.2017Z" fill="#D3756B"/>
<path d="M58.2167 69.332V82.9025C55.4906 83.1486 52.554 83.2425 49.4465 83.2463C46.7087 83.2688 43.9749 83.0335 41.2812 82.5436V69.3301C43.9348 70.5597 46.8244 71.1966 49.749 71.1966C52.6736 71.1966 55.5631 70.5597 58.2167 69.3301V69.332Z" fill="#D3756B"/>
<path d="M58.2169 82.8992C55.4908 83.1454 52.5542 83.2393 49.4467 83.2431C46.7091 83.2668 43.9753 83.0328 41.2815 82.5441C27.6433 79.9646 19.5194 70.084 24.3723 49.2557C27.3784 36.3333 32.9171 24.6303 41.2815 19.6722C44.4766 17.7489 48.2013 16.8934 51.9155 17.2298C54.1104 17.4119 56.2498 18.0146 58.2169 19.0052C68.7382 24.2658 74.228 39.7415 77.0049 51.2247C82.7164 74.9557 73.9575 81.477 58.2169 82.8992Z" stroke="black" stroke-width="0.75"/>
</svg>
