<svg width="214" height="213" viewBox="0 0 214 213" fill="none" xmlns="http://www.w3.org/2000/svg">
<circle cx="107" cy="106.5" r="102.5" fill="#008082" fill-opacity="0.15" stroke="#008082" stroke-width="8"/>
<path d="M47.2976 141C40.7609 141 35.2714 139.543 30.829 136.628C26.3866 133.714 23.277 129.785 21.5 124.843L31.9713 118.665C34.5733 125.445 39.7773 128.835 47.5832 128.835C51.0736 128.835 53.7708 128.011 55.6747 126.364C57.5786 124.716 58.5305 122.815 58.5305 120.661C58.5305 118.507 57.4834 116.764 55.3891 115.434C53.3583 114.103 49.7091 112.678 44.4418 111.157C40.3167 109.89 36.8263 108.528 33.9705 107.07C31.1146 105.55 28.7665 103.522 26.9261 100.988C25.1491 98.4532 24.2606 95.2534 24.2606 91.3884C24.2606 87.46 25.2443 84.0385 27.2116 81.124C29.179 78.146 31.781 75.8967 35.0176 74.376C38.3176 72.792 41.9032 72 45.7745 72C51.1688 72 55.8333 73.2989 59.7681 75.8967C63.7662 78.4311 66.8441 82.011 69.0019 86.6364L58.3401 92.719C55.8651 87.0799 51.6766 84.2603 45.7745 84.2603C43.1091 84.2603 40.9196 84.9573 39.2061 86.3512C37.4926 87.7451 36.6359 89.3926 36.6359 91.2934C36.6359 92.7507 37.0167 93.9863 37.7782 95C38.6032 96.0137 39.8725 96.9325 41.586 97.7562C43.3629 98.5799 45.9331 99.4987 49.2967 100.512C53.6756 101.906 57.3564 103.364 60.3392 104.884C63.3854 106.405 65.8921 108.528 67.8596 111.252C69.8903 113.913 70.9058 117.271 70.9058 121.326C70.9058 125.318 69.8903 128.803 67.8596 131.781C65.8287 134.759 63.0047 137.04 59.3873 138.624C55.8333 140.208 51.8034 141 47.2976 141ZM90.6696 111.822V127.979H118.561V139.764H78.1992V73.2355H118.085V85.0207H90.6696V100.132H115.706V111.822H90.6696ZM158.135 141C151.916 141 146.173 139.479 140.905 136.438C135.638 133.333 131.449 129.152 128.34 123.893C125.293 118.634 123.77 112.899 123.77 106.69C123.77 100.481 125.293 94.7466 128.34 89.4876C131.449 84.2286 135.638 80.0785 140.905 77.0372C146.173 73.9325 151.916 72.3802 158.135 72.3802C164.355 72.3802 170.098 73.9325 175.365 77.0372C180.633 80.0785 184.789 84.2286 187.835 89.4876C190.946 94.7466 192.5 100.481 192.5 106.69C192.5 112.899 190.946 118.634 187.835 123.893C184.789 129.152 180.633 133.333 175.365 136.438C170.098 139.479 164.355 141 158.135 141ZM158.135 128.55C162.07 128.55 165.72 127.567 169.082 125.603C172.446 123.639 175.112 120.978 177.079 117.62C179.047 114.262 180.03 110.618 180.03 106.69C180.03 102.762 179.047 99.1185 177.079 95.7603C175.112 92.4022 172.446 89.741 169.082 87.7769C165.72 85.8127 162.07 84.8306 158.135 84.8306C154.201 84.8306 150.519 85.8127 147.092 87.7769C143.73 89.741 141.064 92.4022 139.097 95.7603C137.129 99.1185 136.146 102.762 136.146 106.69C136.146 110.618 137.129 114.262 139.097 117.62C141.064 120.978 143.73 123.639 147.092 125.603C150.519 127.567 154.201 128.55 158.135 128.55Z" fill="#008082"/>
</svg>
