<svg width="70" height="71" viewBox="0 0 70 71" fill="none" xmlns="http://www.w3.org/2000/svg">
<circle cx="35" cy="35.293" r="35" fill="#88D3F5"/>
<path d="M28.3711 13.8574V28.8213C28.3711 26.3041 26.7666 24.2629 24.7886 24.2629C22.8106 24.2629 21.2061 26.3054 21.2061 28.8213C21.2061 31.3372 22.8132 33.3822 24.7859 33.3822C26.7587 33.3822 28.3684 31.3411 28.3684 28.8213V35.4707C25.4633 36.8805 23.5484 39.2978 23.5484 42.0465C23.5484 44.7951 25.4633 47.2124 28.3684 48.6222V57.8691C18.8217 56.0634 13.135 49.147 16.532 34.5672C18.635 25.5163 22.5107 17.3281 28.3711 13.8574Z" fill="#4D455D"/>
<path d="M28.371 28.822C28.371 31.3418 26.7665 33.383 24.7885 33.383C22.8105 33.383 21.2061 31.3418 21.2061 28.822C21.2061 26.3022 22.8132 24.2637 24.7859 24.2637C26.7586 24.2637 28.371 26.3061 28.371 28.822Z" fill="white"/>
<path d="M53.3719 35.9423C51.4334 27.904 47.5852 17.0711 40.2204 13.3887V28.8207C40.2204 26.3035 41.8235 24.2624 43.8029 24.2624C45.7822 24.2624 47.3853 26.3035 47.3853 28.8207C47.3853 31.3379 45.7808 33.3817 43.8029 33.3817C41.8249 33.3817 40.2204 31.3405 40.2204 28.8207V35.4688C43.1255 36.88 45.0404 39.2972 45.0404 42.0446C45.0404 44.792 43.1255 47.2105 40.2204 48.6204V58.1197C51.244 57.1242 57.3753 52.5593 53.3719 35.9423ZM23.5508 42.0433C23.5508 44.7893 25.4656 47.2092 28.3708 48.6191V35.4675C25.4656 36.88 23.5508 39.2972 23.5508 42.0433Z" fill="white"/>
<path d="M28.371 28.822C28.371 31.3418 26.7665 33.383 24.7885 33.383C22.8105 33.383 21.2061 31.3418 21.2061 28.822C21.2061 26.3022 22.8132 24.2637 24.7859 24.2637C26.7586 24.2637 28.371 26.3061 28.371 28.822Z" fill="white"/>
<path d="M47.3906 28.822C47.3906 31.3418 45.7861 33.383 43.8081 33.383C41.8301 33.383 40.2256 31.3418 40.2256 28.822C40.2256 26.3022 41.8288 24.2637 43.8081 24.2637C45.7874 24.2637 47.3906 26.3061 47.3906 28.822Z" fill="#7A8FA1"/>
<path d="M45.0456 42.0426C45.0456 44.7886 43.1308 47.2085 40.2256 48.6184V35.4668C43.1308 36.8793 45.0456 39.2965 45.0456 42.0426Z" fill="#7A8FA1"/>
<path d="M28.3708 35.4707V48.6223C25.4656 47.2124 23.5508 44.7925 23.5508 42.0465C23.5508 39.3004 25.4656 36.8805 28.3708 35.4707Z" fill="white"/>
<path d="M40.2259 35.4687V48.6202C38.3684 49.4809 36.3457 49.9268 34.2985 49.9268C32.2513 49.9268 30.2286 49.4809 28.3711 48.6202V35.4687C30.2286 34.608 32.2513 34.1621 34.2985 34.1621C36.3457 34.1621 38.3684 34.608 40.2259 35.4687Z" fill="#FCC3A2"/>
<path d="M37.8808 20.8755C37.8808 23.394 36.2763 25.4351 34.2983 25.4351C32.3203 25.4351 30.7158 23.394 30.7158 20.8755C30.7158 18.3569 32.319 16.3105 34.2983 16.3105C36.2776 16.3105 37.8808 18.3569 37.8808 20.8755Z" fill="#FCC3A2"/>
<path d="M35.8149 12.1458C33.215 11.9103 30.6077 12.5092 28.3711 13.8555V35.4701C30.2286 34.6094 32.2513 34.1635 34.2985 34.1635C36.3457 34.1635 38.3684 34.6094 40.2259 35.4701V13.3886C38.8489 12.6952 37.3513 12.2733 35.8149 12.1458ZM34.2985 25.4289C32.3192 25.4289 30.716 23.3877 30.716 20.8692C30.716 18.3507 32.3192 16.3096 34.2985 16.3096C36.2778 16.3096 37.881 18.3507 37.881 20.8692C37.881 23.3877 36.2765 25.4341 34.2985 25.4341V25.4289Z" fill="#D3756B"/>
<path d="M40.2259 48.6205V58.1198C38.3176 58.2921 36.262 58.3579 34.0868 58.3605C32.1703 58.3762 30.2567 58.2115 28.3711 57.8686V48.6191C30.2286 49.4799 32.2513 49.9257 34.2985 49.9257C36.3457 49.9257 38.3684 49.4799 40.2259 48.6191V48.6205Z" fill="#D3756B"/>
<path d="M40.2262 58.1164C38.3179 58.2887 36.2623 58.3544 34.087 58.3571C32.1707 58.3736 30.257 58.2099 28.3714 57.8678C18.8246 56.0621 13.1379 49.1457 16.535 34.5659C18.6392 25.5203 22.5163 17.3281 28.3714 13.8574C30.6079 12.5111 33.2152 11.9123 35.8151 12.1477C37.3516 12.2752 38.8492 12.6972 40.2262 13.3906C47.591 17.073 51.4339 27.9059 53.3777 35.9442C57.3758 52.5559 51.2445 57.1208 40.2262 58.1164Z" stroke="black" stroke-width="0.75"/>
</svg>
