<svg width="214" height="213" viewBox="0 0 214 213" fill="none" xmlns="http://www.w3.org/2000/svg">
<circle cx="107" cy="106.5" r="102.5" fill="#FAA850" fill-opacity="0.15" stroke="#FAA850" stroke-width="8"/>
<path d="M102.772 139.791L79.3602 155.174C78.0947 155.999 75.2663 154.567 74.2603 153.427L65.9016 144.013C64.8892 142.879 63.7503 139.858 64.807 138.766L84.4855 119.137L102.772 139.791Z" fill="#FF7A84"/>
<path d="M163.95 97.5523C164.099 97.7212 164.208 97.9182 164.272 98.1304C164.335 98.3427 164.352 98.5654 164.319 98.784C164.287 99.0027 164.207 99.2123 164.085 99.3994C163.962 99.5864 163.8 99.7466 163.609 99.8694L162.425 100.616L147.442 110.46L121.999 81.7204L134.591 69.164L135.483 68.2481C135.647 68.0761 135.848 67.9398 136.072 67.8483C136.296 67.7567 136.537 67.712 136.78 67.7172C137.024 67.7224 137.263 67.7773 137.482 67.8782C137.701 67.9792 137.896 68.1239 138.052 68.3026L163.95 97.5523Z" fill="#FF7A84"/>
<path d="M88.9983 124.23L102.773 139.789L79.3615 155.172C78.096 155.997 75.2676 154.566 74.2615 153.426L70.4334 149.107C69.4273 147.966 68.282 144.951 69.3451 143.86L88.9983 124.23Z" fill="#FF4C54"/>
<path d="M163.901 97.4996C164.059 97.6754 164.176 97.8813 164.244 98.1038C164.312 98.3262 164.33 98.56 164.296 98.7896C164.263 99.0191 164.179 99.2392 164.049 99.4352C163.92 99.6311 163.749 99.7984 163.547 99.9259L162.427 100.63L147.444 110.474L126.506 86.8176L139.085 74.2612L141.293 71.9805L163.901 97.4996Z" fill="#FF4C54"/>
<path d="M147.443 110.461L102.771 139.784L88.9961 124.231L126.506 86.8164L147.443 110.461Z" fill="#F63C48"/>
<path d="M88.9978 124.232L84.4863 119.137L121.996 81.7227L126.507 86.818L88.9978 124.232Z" fill="#FF6A7A"/>
<path d="M177.498 66.4302L169.064 73.2907L163.742 66.1391L168.69 62.1113L177.498 66.4302Z" fill="#FF4C54"/>
<path d="M165.503 96.1906L139.324 66.6191L137.708 67.934L163.887 97.5055L165.503 96.1906Z" fill="#30261A"/>
<path d="M151.629 82.0544L165.391 96.0484C161.658 84.0015 172.079 72.6159 172.079 72.6159L168.371 68.4365L168.245 68.2909L164.543 64.1055C164.543 64.1055 151.11 72.1064 139.341 66.6167L151.502 81.9088L151.572 81.9755L151.629 82.0544Z" fill="#30261A"/>
<path d="M177.499 66.4293C169.495 68.1884 168.691 62.0801 168.691 62.0801L177.499 66.4293Z" fill="#FF7A84"/>
<path d="M99.6114 143.6C99.4912 144.11 99.3647 144.619 99.2444 145.117C96.6122 156.035 94.4862 164.764 93.8597 167.299C93.8075 167.504 93.6734 167.68 93.4864 167.791C93.2849 167.9 93.0507 167.941 92.822 167.906L89.6899 167.384C89.4657 167.354 89.2618 167.243 89.1196 167.074C88.9775 166.905 88.9076 166.691 88.9243 166.474C89.228 163.89 90.2784 155.004 91.6451 143.855C91.7084 143.345 91.7717 142.83 91.8349 142.308C94.6064 119.737 98.5358 88.9283 100.232 81.6493C101.757 75.3185 104.398 69.2834 108.04 63.8035C108.109 63.6943 108.185 63.5912 108.248 63.4881C108.356 63.3304 108.457 63.1787 108.559 63.0392L108.666 62.4326L109.065 62.3174C109.166 62.1718 109.261 62.0505 109.343 61.9413C109.565 61.638 109.691 61.4863 109.691 61.4863L110.362 61.9534L111.159 61.729C111.159 61.729 111.279 62.0747 111.457 62.7177L111.798 62.9543L111.691 63.5609C111.729 63.7246 111.773 63.9005 111.817 64.0825V64.1129C111.817 64.2281 111.874 64.3494 111.906 64.4768C113.409 70.8111 113.774 77.3445 112.988 83.7966C112.045 91.197 104.92 121.454 99.6114 143.6Z" fill="#344C86"/>
<path d="M97.6257 143.273C97.4991 143.782 97.3789 144.286 97.2587 144.789C94.6264 155.708 92.4941 164.43 91.874 166.966C91.849 167.068 91.8025 167.165 91.7372 167.249C91.6719 167.334 91.5892 167.405 91.4943 167.457C91.3044 167.567 91.0801 167.608 90.8616 167.573L89.7163 167.384C89.4921 167.354 89.2882 167.243 89.146 167.075C89.0038 166.906 88.934 166.691 88.9507 166.475C89.2544 163.891 90.3047 155.004 91.6715 143.855C91.7348 143.345 91.798 142.83 91.8613 142.308C94.6328 119.737 98.5621 88.9285 100.258 81.6494C101.784 75.3186 104.424 69.2835 108.066 63.8036C108.136 63.6944 108.212 63.5913 108.275 63.4882C108.382 63.3305 108.484 63.1788 108.585 63.0393L108.692 62.4327L109.091 62.3175C109.192 62.1719 109.287 62.0506 109.369 61.9414C109.407 62.0688 109.452 62.2144 109.496 62.3842L109.831 62.6208L109.724 63.2274C109.768 63.3972 109.819 63.5792 109.863 63.7733C109.907 63.9674 109.926 64.0159 109.952 64.1433C111.457 70.4771 111.825 77.0107 111.04 83.4631C110.059 90.8574 102.941 121.126 97.6257 143.273Z" fill="#455B9F"/>
<path d="M107.099 59.7158C107.567 60.9485 107.96 62.2063 108.276 63.4827L109.446 63.6768L110.655 63.877L111.825 64.0711C112.572 62.9721 113.383 61.9149 114.255 60.9047C115.312 59.7825 116.248 58.8059 115.622 55.6941C114.995 52.5823 113.781 46.6257 113.781 46.6257L114.04 45.2123L113.546 45.1274L112.123 54.4082C112.341 54.5111 112.519 54.6776 112.631 54.8838C112.744 55.09 112.785 55.3252 112.749 55.5553C112.713 55.7855 112.602 55.9988 112.431 56.1644C112.261 56.3299 112.04 56.4393 111.8 56.4766C111.655 56.5084 111.504 56.5119 111.358 56.4869C111.211 56.4619 111.071 56.4089 110.946 56.331C110.733 56.22 110.563 56.0468 110.459 55.8366C110.356 55.6264 110.326 55.3901 110.372 55.1621C110.419 54.9341 110.54 54.7263 110.718 54.5689C110.897 54.4115 111.123 54.3127 111.363 54.2869L113.262 45.0849L112.768 45L112.509 46.4194C112.509 46.4194 109.282 51.6482 107.599 54.3657C105.915 57.0832 106.504 58.3207 107.099 59.7158Z" fill="#C9C7C7"/>
<path d="M99.6133 143.601C99.4931 144.11 99.3665 144.62 99.2463 145.117L91.6533 143.855C91.7166 143.346 91.7799 142.83 91.8431 142.309L99.6133 143.601Z" fill="#E1E1E1"/>
<path d="M105.97 130.86C106.014 130.86 105.97 130.818 105.919 130.794L105.799 130.745C105.712 130.714 105.62 130.696 105.527 130.691C105.333 130.673 105.137 130.691 104.951 130.745C104.551 130.861 104.199 131.095 103.945 131.412L103.755 131.673L103.603 131.952C103.577 131.994 103.558 132.039 103.546 132.086L103.496 132.219L103.42 132.535C103.325 132.977 103.262 133.444 103.198 133.905C102.977 135.774 102.869 137.678 102.774 139.577C102.585 143.38 102.496 147.202 102.142 151.029C101.971 152.94 101.73 154.851 101.37 156.768C101.186 157.726 100.971 158.685 100.737 159.643C100.585 160.122 100.427 160.595 100.275 161.075C100.199 161.311 100.092 161.548 99.9966 161.778L99.7055 162.482C99.6043 162.718 99.4777 162.943 99.3575 163.173C99.2373 163.404 99.1297 163.634 98.9905 163.859C98.8513 164.083 98.7121 164.302 98.5666 164.52C98.4907 164.629 98.4274 164.738 98.3451 164.847L98.092 165.163C97.4361 166.039 96.5953 166.772 95.6243 167.316C94.6418 167.86 93.5183 168.125 92.3846 168.081C91.8502 168.056 91.321 167.969 90.8091 167.82C90.556 167.747 90.3155 167.656 90.0751 167.565C89.8346 167.474 89.6068 167.353 89.3854 167.244C89.3734 167.238 89.3626 167.231 89.3537 167.222C89.3449 167.212 89.3381 167.201 89.334 167.189C89.3298 167.177 89.3283 167.165 89.3295 167.152C89.3307 167.139 89.3347 167.127 89.3411 167.116C89.3497 167.099 89.3632 167.085 89.3801 167.075C89.3969 167.066 89.4164 167.061 89.436 167.062C89.6891 167.062 89.9359 167.11 90.1763 167.122C90.4168 167.134 90.6635 167.122 90.904 167.122C91.3598 167.127 91.8151 167.093 92.2644 167.019C93.1187 166.844 93.9145 166.469 94.5803 165.927C95.2403 165.382 95.7913 164.726 96.2064 163.992L96.3773 163.719C96.4342 163.628 96.4785 163.525 96.5291 163.428C96.624 163.234 96.7316 163.04 96.8265 162.821C96.9214 162.603 97.0037 162.415 97.0923 162.215C97.1809 162.015 97.2695 161.815 97.3454 161.608C97.9621 159.883 98.4402 158.114 98.7754 156.319C99.1424 154.499 99.4461 152.631 99.7625 150.769C100.357 147.032 100.927 143.265 101.42 139.486C101.673 137.594 101.889 135.701 102.18 133.796C102.262 133.317 102.331 132.838 102.452 132.347C102.452 132.225 102.521 132.098 102.559 131.97C102.6 131.835 102.653 131.703 102.717 131.576L102.901 131.224L103.116 130.879C103.427 130.41 103.824 129.999 104.287 129.665C104.533 129.478 104.8 129.317 105.084 129.186C105.155 129.146 105.229 129.111 105.305 129.083L105.539 128.986C105.615 128.95 105.704 128.931 105.786 128.895C105.892 128.864 106 128.84 106.109 128.822C106.398 128.841 106.667 128.968 106.857 129.177C107.048 129.386 107.144 129.659 107.125 129.935C107.105 130.212 106.972 130.47 106.754 130.653C106.537 130.835 106.252 130.927 105.963 130.909L105.97 130.86Z" fill="#E1E1E1"/>
<path d="M106.661 69.0763C103.4 75.5413 101.363 82.5099 100.644 89.6578C100.644 89.6578 101.162 91.1743 102.352 85.9637C103.542 80.7531 108.515 67.7539 106.661 69.0763Z" fill="#5E78B8"/>
<path d="M111.939 64.443L108.041 63.7939C108.111 63.6848 108.187 63.5816 108.25 63.4785L111.85 64.0851C111.882 64.1943 111.882 64.3156 111.939 64.443Z" fill="#353F69"/>
<path d="M119.164 155.02L121.182 160.067C121.471 160.786 121.45 161.586 121.123 162.29C120.797 162.994 120.192 163.545 119.442 163.822L117.816 164.428C117.068 164.704 116.237 164.684 115.504 164.374C114.772 164.064 114.197 163.488 113.906 162.772L111.881 157.695C111.6 156.979 111.626 156.186 111.955 155.488C112.283 154.791 112.887 154.248 113.634 153.977L115.253 153.37C115.698 153.205 116.178 153.145 116.652 153.194C117.205 153.248 117.732 153.447 118.176 153.769C118.619 154.091 118.961 154.524 119.164 155.02Z" fill="#FFA95B"/>
<path d="M119.159 155.02L119.83 156.682C119.722 157.239 119.464 157.758 119.082 158.19C118.701 158.622 118.208 158.951 117.653 159.145L115.863 159.8C115.322 160.01 114.734 160.083 114.156 160.012C113.577 159.941 113.027 159.728 112.56 159.394L111.883 157.695C111.601 156.979 111.628 156.186 111.957 155.488C112.285 154.791 112.889 154.248 113.636 153.977L115.255 153.37C115.7 153.205 116.18 153.145 116.654 153.194C117.206 153.249 117.732 153.448 118.174 153.77C118.616 154.092 118.957 154.525 119.159 155.02Z" fill="#D67925"/>
<path d="M84.6727 62.7825L87.0582 68.7513C87.2841 69.3159 87.3896 69.9182 87.3683 70.5225L118.601 148.645L107.844 152.582L76.6495 74.4775C76.2112 74.0397 75.869 73.5219 75.6434 72.9549L73.2832 66.974C73.2073 66.7799 73.1251 66.5069 73.0555 66.2582C72.9475 65.8431 72.8859 65.4181 72.872 64.9905L72.5303 52.8951L75.3903 51.8457L83.5085 61.0355C83.891 61.4637 84.2221 61.9316 84.4956 62.4307C84.5652 62.558 84.6221 62.6854 84.6727 62.7825Z" fill="#EEEEEE"/>
<path d="M84.6718 62.7827L87.0573 68.7515C87.2832 69.3161 87.3886 69.9184 87.3673 70.5227L118.6 148.645L109.273 152.066L78.0469 73.9621C77.6233 73.5226 77.2943 73.0072 77.0788 72.4456C74.4529 65.8702 74.6364 66.3797 74.4592 65.7732C74.3374 65.3598 74.2653 64.9344 74.2441 64.5054C73.9593 54.4239 73.972 54.8485 73.915 52.3736L75.3767 51.8398L83.5075 61.0357C83.983 61.5601 84.3753 62.1487 84.6718 62.7827Z" fill="#C9CCD9"/>
<path d="M82.5078 63.5776L84.8933 69.5585C85.1207 70.1207 85.2283 70.7209 85.2097 71.3237L116.436 149.428L109.273 152.054L78.0469 73.9623C77.6233 73.5228 77.2944 73.0075 77.0788 72.4459C74.4529 65.8705 74.6364 66.38 74.4592 65.7734C74.3375 65.36 74.2653 64.9347 74.2441 64.5057C74.1808 62.4251 73.991 55.7041 73.9277 53.4961L81.3499 61.8306C81.8231 62.3553 82.2133 62.944 82.5078 63.5776Z" fill="#E1E1E1"/>
<path d="M73.8951 52.3789L73.9647 54.6536L73.1611 52.6519L73.8951 52.3789Z" fill="#4A5786"/>
<path d="M74.7444 52.0703L99.6557 114.385L98.0739 114.961L73.9661 54.6544L73.8965 52.3797L74.7444 52.0703Z" fill="#353F69"/>
<path d="M74.4516 51.3127L72.8682 51.8945L73.1671 52.6422L74.7505 52.0604L74.4516 51.3127Z" fill="#AFAFAF"/>
<path d="M99.6596 114.379L98.0762 114.961L110.581 146.238L112.164 145.656L99.6596 114.379Z" fill="#AFAFAF"/>
<path d="M84.0702 63.967L74.5222 67.4751C73.5629 67.8275 73.0832 68.8588 73.4509 69.7785L85.7584 100.563C86.126 101.483 87.2018 101.943 88.1612 101.59L97.7092 98.0819C98.6685 97.7295 99.1482 96.6982 98.7805 95.7785L86.4731 64.994C86.1054 64.0743 85.0296 63.6145 84.0702 63.967Z" fill="#FCA84D"/>
<path d="M114.937 139.484L119.689 151.38C119.926 151.979 120.003 152.626 119.914 153.262C119.824 153.897 119.571 154.501 119.176 155.019C118.821 155.478 118.365 155.857 117.841 156.129C117.695 156.202 117.537 156.275 117.379 156.335L114.272 157.476C113.655 157.7 112.992 157.781 112.336 157.712H112.197H112.058H111.969H111.88L111.697 157.67H111.653L111.482 157.615L111.279 157.549H111.203C111.049 157.486 110.899 157.415 110.754 157.336C110.699 157.312 110.646 157.283 110.596 157.251C110.256 157.049 109.949 156.8 109.685 156.511L109.653 156.475C109.595 156.413 109.54 156.348 109.489 156.281C109.37 156.134 109.264 155.977 109.172 155.814C109.172 155.814 109.141 155.759 109.122 155.729L109.077 155.644L109.027 155.547C109.027 155.547 109.027 155.48 108.982 155.444L108.925 155.31L104.218 143.53L114.937 139.484Z" fill="#FCA84D"/>
<path d="M86.4692 64.9912L98.7826 95.7816C98.87 96.0002 98.9115 96.2332 98.9048 96.4673C98.898 96.7013 98.8431 96.9318 98.7431 97.1454C98.6432 97.359 98.5002 97.5516 98.3223 97.7121C98.1445 97.8726 97.9353 97.9978 97.7069 98.0806L95.2075 99.0026L81.5654 64.882L84.0964 63.9661C84.5531 63.804 85.058 63.8206 85.502 64.0124C85.946 64.2042 86.2934 64.5558 86.4692 64.9912Z" fill="#F0943E"/>
<path d="M74.9903 67.3008L88.626 101.415L88.1578 101.591C87.9293 101.675 87.6858 101.715 87.4412 101.709C87.1966 101.702 86.9557 101.65 86.7324 101.554C86.509 101.458 86.3076 101.321 86.1396 101.15C85.9716 100.98 85.8403 100.779 85.7533 100.56L73.4463 69.7757C73.2811 69.3296 73.3037 68.8394 73.5092 68.4091C73.7148 67.9788 74.0872 67.6421 74.5473 67.4706L74.9903 67.3008Z" fill="#FFB975"/>
<path d="M87.9294 68.6256L74.9072 73.4102L75.7496 75.5172L88.7718 70.7327L87.9294 68.6256Z" fill="#FF891B"/>
<path d="M89.4479 72.4401L76.4258 77.2246L77.2682 79.3317L90.2903 74.5471L89.4479 72.4401Z" fill="#FF891B"/>
<path d="M90.9704 76.2408L77.9482 81.0254L78.7906 83.1324L91.8128 78.3479L90.9704 76.2408Z" fill="#FF891B"/>
<path d="M92.4938 80.0494L79.4717 84.834L80.3141 86.941L93.3362 82.1565L92.4938 80.0494Z" fill="#FF891B"/>
<path d="M94.0163 83.86L80.9941 88.6445L81.8365 90.7516L94.8587 85.967L94.0163 83.86Z" fill="#FF891B"/>
<path d="M75.3577 51.8451L72.4976 52.8945L72.3711 48.4785L75.3577 51.8451Z" fill="#C9C7C7"/>
<path d="M114.937 139.484L119.689 151.38C119.927 151.979 120.004 152.626 119.915 153.262C119.825 153.897 119.571 154.501 119.177 155.019C118.822 155.478 118.366 155.857 117.842 156.129L111.666 140.667L114.937 139.484Z" fill="#F0943E"/>
<path d="M106.312 142.656L112.336 157.736H112.197H112.058H111.969H111.88L111.697 157.694H111.653L111.482 157.639L111.279 157.572H111.203C111.049 157.51 110.899 157.439 110.754 157.36C110.699 157.335 110.646 157.307 110.596 157.275C110.256 157.073 109.949 156.823 109.685 156.535L109.653 156.499C109.595 156.437 109.54 156.372 109.489 156.304C109.37 156.157 109.264 156.001 109.172 155.837C109.172 155.837 109.141 155.783 109.122 155.752L109.077 155.668L109.027 155.57C109.027 155.57 109.027 155.504 108.982 155.467L108.925 155.334L104.218 143.554L106.312 142.656Z" fill="#FFB975"/>
<path d="M110.087 117.798L108.592 118.348L116.909 139.152L118.404 138.603L110.087 117.798Z" fill="#FCA84D"/>
<path d="M114.938 139.485C114.938 139.485 116.583 138.678 116.051 137.155L117.753 136.549C117.753 136.549 125.58 148.414 119.43 150.749L114.938 139.485Z" fill="#F0943E"/>
<path d="M110.388 120.776C110.225 120.836 110.05 120.865 109.875 120.861C109.7 120.857 109.528 120.82 109.368 120.752C109.208 120.683 109.064 120.586 108.944 120.464C108.823 120.342 108.729 120.199 108.667 120.042L106.016 113.412C105.953 113.255 105.923 113.088 105.927 112.92C105.932 112.752 105.971 112.586 106.043 112.433C106.115 112.279 106.218 112.141 106.345 112.026C106.473 111.911 106.623 111.821 106.787 111.762C106.951 111.701 107.126 111.672 107.301 111.676C107.477 111.68 107.649 111.717 107.81 111.786C107.97 111.854 108.115 111.952 108.236 112.073C108.357 112.195 108.452 112.339 108.515 112.496L111.16 119.126C111.223 119.283 111.253 119.45 111.248 119.618C111.243 119.786 111.204 119.952 111.132 120.105C111.06 120.258 110.958 120.397 110.83 120.512C110.702 120.627 110.552 120.717 110.388 120.776Z" fill="#FCA84D"/>
<path d="M106.778 111.763L105.407 112.266C105.065 112.392 104.894 112.76 105.025 113.089L105.355 113.916C105.487 114.244 105.871 114.409 106.214 114.283L107.584 113.779C107.927 113.653 108.098 113.285 107.967 112.956L107.636 112.129C107.505 111.801 107.121 111.637 106.778 111.763Z" fill="#FCA84D"/>
<path d="M120.161 141.495L46.5781 80.0776L52.5576 73.4961L126.14 134.913L123.938 137.339L146.939 156.538L144.958 158.716C144.844 158.845 144.714 158.961 144.572 159.061L121.616 139.899L120.161 141.495Z" fill="#B30000"/>
<path d="M52.5595 73.4922L50.3613 75.9121L131.224 143.418L133.422 140.998L52.5595 73.4922Z" fill="#DA1F1F"/>
<path d="M48.0406 78.4744L46.582 80.0801L127.445 147.586L128.903 145.98L48.0406 78.4744Z" fill="#850000"/>
<path d="M46.5814 80.0775L45.0692 77.8513L40.1084 70.5722L41.8295 68.6797L49.4731 72.1251L52.5609 73.5142C52.5609 73.5142 55.3387 76.1225 54.3896 76.8262C53.4404 77.5298 50.9158 76.2863 51.0423 76.3652C51.1689 76.444 52.6115 78.7915 52.2066 79.2464C51.8016 79.7014 50.1122 79.3314 49.0428 78.6399C49.0428 78.6399 51.3713 81.0662 50.3083 81.6728C49.2453 82.2794 46.5814 80.0775 46.5814 80.0775Z" fill="#F3DCAC"/>
<path d="M40.1069 70.5548L37.5 66.709L41.828 68.6622L40.1069 70.5548Z" fill="#30261A"/>
<path d="M141.878 159.625L128.894 148.785L130.349 147.184L144.592 159.067C143.643 159.886 142.498 160.14 141.878 159.625Z" fill="#001E3E"/>
<path d="M146.938 156.533L132.67 144.626L134.872 142.199L147.862 153.069C148.565 153.676 148.337 155.01 147.343 156.102L146.938 156.533Z" fill="#004A86"/>
<path d="M144.591 159.07L130.348 147.187L132.67 144.627L146.938 156.534L144.952 158.712C144.841 158.84 144.72 158.96 144.591 159.07Z" fill="#003068"/>
<path d="M128.898 145.976L127.439 147.582L128.89 148.793L130.349 147.187L128.898 145.976Z" fill="#AFAFAF"/>
<path d="M133.426 141.002L131.228 143.422L132.678 144.633L134.876 142.213L133.426 141.002Z" fill="#E1E1E1"/>
<path d="M131.216 143.427L128.894 145.984L130.344 147.195L132.667 144.638L131.216 143.427Z" fill="#C9C7C7"/>
<path d="M102.303 139.549C120.331 139.549 134.946 125.538 134.946 108.255C134.946 90.9717 120.331 76.9609 102.303 76.9609C84.2742 76.9609 69.6592 90.9717 69.6592 108.255C69.6592 125.538 84.2742 139.549 102.303 139.549Z" fill="#88D3F5"/>
<path d="M96.1212 89.0938V102.469C96.1212 100.219 94.6279 98.3927 92.7803 98.3927C90.9327 98.3927 89.4394 100.212 89.4394 102.469C89.4394 104.726 90.939 106.545 92.7803 106.545C94.6216 106.545 96.1212 104.726 96.1212 102.469V108.414C93.413 109.675 91.6224 111.835 91.6224 114.291C91.6224 116.748 93.413 118.914 96.1212 120.169V128.437C87.2058 126.823 81.916 120.642 85.0797 107.607C87.0413 99.5149 90.6606 92.1934 96.1212 89.0938Z" fill="#4D455D"/>
<path d="M96.1213 102.469C96.1213 104.719 94.628 106.545 92.7804 106.545C90.9327 106.545 89.4395 104.725 89.4395 102.469C89.4395 100.212 90.9391 98.3926 92.7804 98.3926C94.6217 98.3926 96.1213 100.218 96.1213 102.469Z" fill="white"/>
<path d="M119.438 108.837C117.629 101.649 114.041 91.9617 107.176 88.668V102.468C107.176 100.217 108.669 98.3916 110.516 98.3916C112.364 98.3916 113.857 100.211 113.857 102.468C113.857 104.724 112.358 106.544 110.516 106.544C108.675 106.544 107.176 104.724 107.176 102.468V108.412C109.884 109.674 111.668 111.834 111.668 114.29C111.668 116.747 109.884 118.906 107.176 120.168V128.66C117.451 127.769 123.171 123.692 119.438 108.837ZM91.6289 114.296C91.6289 116.723 93.4133 118.912 96.1214 120.174V108.412C93.4133 109.674 91.6352 111.821 91.6352 114.29L91.6289 114.296Z" fill="white"/>
<path d="M96.1213 102.469C96.1213 104.719 94.628 106.545 92.7804 106.545C90.9327 106.545 89.4395 104.725 89.4395 102.469C89.4395 100.212 90.9391 98.3926 92.7804 98.3926C94.6217 98.3926 96.1213 100.218 96.1213 102.469Z" fill="white"/>
<path d="M113.854 102.469C113.854 104.719 112.36 106.545 110.513 106.545C108.665 106.545 107.172 104.725 107.172 102.469C107.172 100.212 108.671 98.3926 110.513 98.3926C112.354 98.3926 113.854 100.218 113.854 102.469Z" fill="#7A8FA1"/>
<path d="M111.671 114.29C111.671 116.717 109.886 118.906 107.172 120.168V108.406C109.886 109.674 111.671 111.821 111.671 114.29Z" fill="#7A8FA1"/>
<path d="M96.1214 108.414V120.17C93.4133 118.914 91.6289 116.749 91.6289 114.292C91.6289 111.835 93.4133 109.676 96.1214 108.414Z" fill="white"/>
<path d="M107.182 108.413V120.169C105.449 120.94 103.562 121.34 101.651 121.34C99.741 121.34 97.8537 120.94 96.1211 120.169V108.413C97.8537 107.642 99.741 107.242 101.651 107.242C103.562 107.242 105.449 107.642 107.182 108.413Z" fill="#FCC3A2"/>
<path d="M104.992 95.3655C104.992 97.616 103.493 99.4418 101.651 99.4418C99.8102 99.4418 98.3105 97.622 98.3105 95.3655C98.3105 93.109 99.8038 91.2832 101.651 91.2832C103.499 91.2832 104.992 93.1151 104.992 95.3655Z" fill="#FCC3A2"/>
<path d="M103.063 87.5585C100.632 87.3478 98.1949 87.8831 96.1025 89.0871V108.413C97.8351 107.642 99.7225 107.242 101.633 107.242C103.543 107.242 105.43 107.642 107.163 108.413V88.6686C105.882 88.0519 104.491 87.6751 103.063 87.5585ZM101.652 99.4355C99.8041 99.4355 98.3108 97.6158 98.3108 95.3592C98.3108 93.1027 99.8041 91.283 101.652 91.283C103.499 91.283 104.993 93.1027 104.993 95.3592C104.993 97.6158 103.493 99.4416 101.652 99.4416V99.4355Z" fill="#D3756B"/>
<path d="M107.181 120.168V128.66C105.397 128.818 103.48 128.872 101.486 128.879C99.6978 128.892 97.9119 128.744 96.1523 128.436V120.168C97.8861 120.935 99.773 121.333 101.683 121.333C103.592 121.333 105.479 120.935 107.213 120.168H107.181Z" fill="#D3756B"/>
<path d="M107.181 128.661C105.397 128.813 103.48 128.873 101.486 128.873C99.698 128.889 97.912 128.743 96.1523 128.436C87.2052 126.823 81.9154 120.642 85.0855 107.606C87.047 99.5144 90.66 92.1929 96.1206 89.0932C98.2107 87.8836 100.65 87.3479 103.081 87.5646C104.516 87.6761 105.915 88.053 107.2 88.6747C114.065 91.9624 117.647 101.65 119.463 108.838C123.171 123.687 117.457 127.769 107.181 128.661Z" stroke="black" stroke-width="0.75"/>
</svg>
