<svg width="214" height="213" viewBox="0 0 214 213" fill="none" xmlns="http://www.w3.org/2000/svg">
<circle cx="107" cy="106.5" r="102.5" fill="#89D2F4" fill-opacity="0.15" stroke="#89D2F4" stroke-width="8"/>
<g clip-path="url(#clip0_1052_13903)">
<path d="M171.331 65.7266H86.7152C84.1742 65.7266 82.1143 67.7865 82.1143 70.3275V133.787C82.1143 136.328 84.1742 138.388 86.7152 138.388H171.331C173.872 138.388 175.932 136.328 175.932 133.787V70.3275C175.932 67.7865 173.872 65.7266 171.331 65.7266Z" fill="#F4F4F6"/>
<path d="M171.598 65.7266H86.448C84.0545 65.7266 82.1143 67.6668 82.1143 70.0603V125.85C82.1143 128.243 84.0545 130.184 86.448 130.184H171.598C173.992 130.184 175.932 128.243 175.932 125.85V70.0603C175.932 67.6668 173.992 65.7266 171.598 65.7266Z" fill="#144272"/>
<path d="M171.795 71.1309H86.252V124.779H171.795V71.1309Z" fill="#D9E2ED"/>
<path d="M129.022 69.5735C129.669 69.5735 130.193 69.0494 130.193 68.4029C130.193 67.7565 129.669 67.2324 129.022 67.2324C128.376 67.2324 127.852 67.7565 127.852 68.4029C127.852 69.0494 128.376 69.5735 129.022 69.5735Z" fill="#F4F4F6"/>
<path d="M121.172 138.387C121.172 138.387 121.172 148.397 114.88 155.019H143.166C136.876 148.397 136.876 138.387 136.876 138.387H121.172Z" fill="#144272"/>
<path d="M145.678 155.02H112.366V159.015H145.678V155.02Z" fill="#F4F4F6"/>
<path d="M159.056 76.416H98.9902V119.495H159.056V76.416Z" fill="#F4F4F6"/>
<path d="M159.056 76.416H98.9902V82.4797H159.056V76.416Z" fill="#648495"/>
<path d="M159.056 116.693H98.9902V119.493H159.056V116.693Z" fill="#648495"/>
<path d="M102.58 80.4578C103.139 80.4578 103.592 80.0051 103.592 79.4467C103.592 78.8882 103.139 78.4355 102.58 78.4355C102.022 78.4355 101.569 78.8882 101.569 79.4467C101.569 80.0051 102.022 80.4578 102.58 80.4578Z" fill="#FF9675"/>
<path d="M105.665 80.4578C106.224 80.4578 106.677 80.0051 106.677 79.4467C106.677 78.8882 106.224 78.4355 105.665 78.4355C105.107 78.4355 104.654 78.8882 104.654 79.4467C104.654 80.0051 105.107 80.4578 105.665 80.4578Z" fill="#7DD3F9"/>
<path d="M108.75 80.4578C109.309 80.4578 109.761 80.0051 109.761 79.4467C109.761 78.8882 109.309 78.4355 108.75 78.4355C108.192 78.4355 107.739 78.8882 107.739 79.4467C107.739 80.0051 108.192 80.4578 108.75 80.4578Z" fill="#144272"/>
<path d="M156.108 78.4375H113.237V80.4582H156.108V78.4375Z" fill="#D9E2ED"/>
<path d="M154.282 104.886L153.122 102.218L155.216 102.287L150.378 98.1836L150.081 104.52L151.46 102.941L152.62 105.61L154.282 104.886Z" fill="#B3B3B3"/>
<path d="M146.9 107.211H111.146V110.417H146.9V107.211Z" fill="#7DD3F9"/>
<path d="M146.947 102.924H111.192V106.13H146.947V102.924Z" fill="#7DD3F9"/>
<g clip-path="url(#clip1_1052_13903)">
<path d="M108.517 93.4405V90.4648H109.899V97.9042H108.517V94.7478H105.085V97.9042H103.692V90.4648H105.085V93.4405H108.517ZM115.506 92.5903H116.824V97.9042H115.506V97.3834C115.258 97.596 114.985 97.7625 114.687 97.8829C114.397 97.9963 114.089 98.053 113.763 98.053C113.224 98.053 112.753 97.9325 112.349 97.6916C111.945 97.4507 111.634 97.1177 111.414 96.6926C111.202 96.2675 111.095 95.7893 111.095 95.2579C111.095 94.7265 111.202 94.2483 111.414 93.8231C111.634 93.398 111.945 93.065 112.349 92.8241C112.753 92.5762 113.224 92.4522 113.763 92.4522C114.089 92.4522 114.397 92.5124 114.687 92.6328C114.985 92.7462 115.258 92.9092 115.506 93.1217V92.5903ZM113.933 96.7883C114.223 96.7883 114.485 96.7245 114.719 96.597C114.96 96.4624 115.148 96.2781 115.283 96.0443C115.424 95.8105 115.495 95.5448 115.495 95.2473C115.495 94.8009 115.343 94.436 115.038 94.1526C114.741 93.8692 114.372 93.7275 113.933 93.7275C113.486 93.7275 113.118 93.8727 112.828 94.1632C112.544 94.4466 112.402 94.8115 112.402 95.2579C112.402 95.7042 112.544 96.0727 112.828 96.3632C113.118 96.6466 113.486 96.7883 113.933 96.7883ZM121.336 92.4841L121.24 93.7275C121.198 93.7133 121.123 93.7062 121.017 93.7062C120.578 93.7062 120.213 93.8338 119.922 94.0888C119.639 94.3439 119.497 94.6911 119.497 95.1304V97.9042H118.179V92.5903H119.497V93.4831C119.618 93.1997 119.823 92.9623 120.113 92.771C120.404 92.5797 120.755 92.4841 121.166 92.4841H121.336ZM126.113 90.4648H127.43V97.9042H126.113V97.3941C125.872 97.6066 125.602 97.7696 125.305 97.8829C125.007 97.9963 124.699 98.053 124.38 98.053C123.842 98.053 123.371 97.9325 122.967 97.6916C122.563 97.4507 122.251 97.1177 122.031 96.6926C121.819 96.2675 121.713 95.7893 121.713 95.2579C121.713 94.7265 121.819 94.2483 122.031 93.8231C122.251 93.398 122.563 93.065 122.967 92.8241C123.371 92.5762 123.842 92.4522 124.38 92.4522C124.699 92.4522 125.004 92.5124 125.294 92.6328C125.592 92.7462 125.865 92.9056 126.113 93.1111V90.4648ZM124.55 96.7883C124.841 96.7883 125.103 96.7245 125.337 96.597C125.578 96.4624 125.765 96.2781 125.9 96.0443C126.042 95.8105 126.113 95.5448 126.113 95.2473C126.113 94.8009 125.96 94.436 125.656 94.1526C125.358 93.8692 124.99 93.7275 124.55 93.7275C124.104 93.7275 123.735 93.8727 123.445 94.1632C123.162 94.4466 123.02 94.8115 123.02 95.2579C123.02 95.7042 123.162 96.0727 123.445 96.3632C123.735 96.6466 124.104 96.7883 124.55 96.7883ZM128.51 94.2057C128.51 93.5114 128.68 92.8702 129.02 92.2821C129.367 91.6941 129.835 91.23 130.423 90.8899C131.011 90.5427 131.652 90.3691 132.346 90.3691C133.055 90.3691 133.71 90.5534 134.313 90.9218C134.915 91.2831 135.379 91.7649 135.705 92.3672L134.483 93.0154C134.27 92.6399 133.972 92.3388 133.59 92.1121C133.207 91.8783 132.793 91.7614 132.346 91.7614C131.907 91.7614 131.496 91.8712 131.114 92.0908C130.738 92.3105 130.441 92.608 130.221 92.9836C130.001 93.3591 129.891 93.7665 129.891 94.2057C129.891 94.645 130.001 95.0524 130.221 95.4279C130.441 95.8034 130.738 96.101 131.114 96.3207C131.496 96.5403 131.907 96.6501 132.346 96.6501C132.807 96.6501 133.225 96.5332 133.6 96.2994C133.983 96.0656 134.281 95.7538 134.493 95.3642L135.715 96.0337C135.389 96.643 134.925 97.1319 134.323 97.5003C133.721 97.8617 133.062 98.0423 132.346 98.0423C131.652 98.0423 131.011 97.8723 130.423 97.5322C129.835 97.185 129.367 96.7174 129.02 96.1294C128.68 95.5413 128.51 94.9001 128.51 94.2057ZM138.943 98.053C138.44 98.053 137.972 97.929 137.54 97.681C137.115 97.4259 136.775 97.0859 136.52 96.6607C136.272 96.2286 136.148 95.7609 136.148 95.2579C136.148 94.7548 136.272 94.2908 136.52 93.8657C136.775 93.4335 137.115 93.0934 137.54 92.8454C137.972 92.5903 138.44 92.4628 138.943 92.4628C139.446 92.4628 139.91 92.5903 140.335 92.8454C140.768 93.0934 141.108 93.4335 141.356 93.8657C141.611 94.2908 141.738 94.7548 141.738 95.2579C141.738 95.7609 141.611 96.2286 141.356 96.6607C141.108 97.0859 140.768 97.4259 140.335 97.681C139.91 97.929 139.446 98.053 138.943 98.053ZM138.932 96.7351C139.202 96.7351 139.45 96.6714 139.676 96.5438C139.903 96.4092 140.084 96.2286 140.218 96.0018C140.353 95.7751 140.42 95.5271 140.42 95.2579C140.42 94.9887 140.353 94.7407 140.218 94.5139C140.084 94.2872 139.903 94.1066 139.676 93.9719C139.45 93.8373 139.202 93.77 138.932 93.77C138.663 93.77 138.415 93.8373 138.189 93.9719C137.962 94.1066 137.781 94.2872 137.647 94.5139C137.519 94.7407 137.455 94.9887 137.455 95.2579C137.455 95.5271 137.519 95.7751 137.647 96.0018C137.781 96.2286 137.962 96.4092 138.189 96.5438C138.415 96.6714 138.663 96.7351 138.932 96.7351ZM146.735 90.4648H148.053V97.9042H146.735V97.3941C146.494 97.6066 146.225 97.7696 145.927 97.8829C145.629 97.9963 145.321 98.053 145.002 98.053C144.464 98.053 143.993 97.9325 143.589 97.6916C143.185 97.4507 142.873 97.1177 142.654 96.6926C142.441 96.2675 142.335 95.7893 142.335 95.2579C142.335 94.7265 142.441 94.2483 142.654 93.8231C142.873 93.398 143.185 93.065 143.589 92.8241C143.993 92.5762 144.464 92.4522 145.002 92.4522C145.321 92.4522 145.626 92.5124 145.916 92.6328C146.214 92.7462 146.487 92.9056 146.735 93.1111V90.4648ZM145.172 96.7883C145.463 96.7883 145.725 96.7245 145.959 96.597C146.2 96.4624 146.388 96.2781 146.522 96.0443C146.664 95.8105 146.735 95.5448 146.735 95.2473C146.735 94.8009 146.582 94.436 146.278 94.1526C145.98 93.8692 145.612 93.7275 145.172 93.7275C144.726 93.7275 144.358 93.8727 144.067 94.1632C143.784 94.4466 143.642 94.8115 143.642 95.2579C143.642 95.7042 143.784 96.0727 144.067 96.3632C144.358 96.6466 144.726 96.7883 145.172 96.7883ZM151.698 92.4522C152.209 92.4522 152.666 92.5797 153.069 92.8348C153.48 93.0827 153.799 93.4193 154.026 93.8444C154.253 94.2695 154.366 94.7407 154.366 95.2579C154.366 95.4279 154.352 95.5838 154.323 95.7255H150.221C150.327 96.101 150.515 96.3951 150.784 96.6076C151.054 96.8131 151.397 96.9158 151.815 96.9158C152.07 96.9158 152.315 96.8591 152.549 96.7458C152.79 96.6324 152.97 96.4872 153.091 96.31L154.1 96.9052C153.852 97.2736 153.53 97.557 153.133 97.7554C152.743 97.9467 152.294 98.0423 151.783 98.0423C151.217 98.0423 150.714 97.9219 150.274 97.681C149.835 97.4401 149.495 97.1071 149.254 96.682C149.02 96.2569 148.903 95.7786 148.903 95.2473C148.903 94.723 149.02 94.2483 149.254 93.8231C149.495 93.398 149.828 93.065 150.253 92.8241C150.678 92.5762 151.16 92.4522 151.698 92.4522ZM153.133 94.6946C153.076 94.3545 152.917 94.0888 152.655 93.8975C152.4 93.6992 152.077 93.6 151.688 93.6C151.419 93.6 151.171 93.6496 150.944 93.7488C150.724 93.8479 150.547 93.9826 150.412 94.1526C150.278 94.3226 150.207 94.5033 150.2 94.6946H153.133Z" fill="#144272"/>
</g>
<ellipse cx="3.98539" cy="3.98539" rx="3.98539" ry="3.98539" transform="matrix(1 0 0 -1 163.889 150.748)" fill="#89D2F4"/>
</g>
<path d="M108.057 99.5293H36.3944C34.38 99.5293 32.7471 101.162 32.7471 103.177V150.129C32.7471 152.143 34.38 153.776 36.3944 153.776H108.057C110.071 153.776 111.704 152.143 111.704 150.129V103.177C111.704 101.162 110.071 99.5293 108.057 99.5293Z" fill="#144272"/>
<path d="M108.221 104.076H36.2285V149.226H108.221V104.076Z" fill="#F4F4F6"/>
<path d="M72.2244 102.767C72.7684 102.767 73.2095 102.326 73.2095 101.782C73.2095 101.238 72.7684 100.797 72.2244 100.797C71.6803 100.797 71.2393 101.238 71.2393 101.782C71.2393 102.326 71.6803 102.767 72.2244 102.767Z" fill="#7DD3F9"/>
<path d="M26.7578 153.775H117.691V155.819C117.691 156.698 117.342 157.54 116.721 158.162C116.1 158.783 115.257 159.132 114.378 159.132H30.0709C29.1924 159.132 28.3499 158.783 27.7286 158.162C27.1073 157.541 26.7581 156.699 26.7578 155.82V153.775Z" fill="#2C74B3"/>
<path d="M65.5387 153.775H78.9104V154.575C78.9104 154.752 78.8404 154.921 78.7158 155.045C78.5911 155.17 78.4221 155.24 78.2458 155.24H66.1959C66.0196 155.24 65.8505 155.17 65.7259 155.045C65.6013 154.921 65.5312 154.752 65.5312 154.575V153.775H65.5387Z" fill="#7DD3F9"/>
<path d="M108.221 104.076H36.2285V108.721H108.221V104.076Z" fill="#7DD3F9"/>
<path d="M61.1681 114.109H38.9727V144.557H61.1681V114.109Z" fill="#7DD3F9"/>
<path d="M105.476 134.764H63.9141V137.91H105.476V134.764Z" fill="#7DD3F9"/>
<path d="M105.465 130.586H63.9023V133.733H105.465V130.586Z" fill="#7DD3F9"/>
<path d="M105.518 122.512H63.9023V129.344H105.518V122.512Z" fill="#7DD3F9"/>
<path opacity="0.5" d="M46.835 134.205L52.7568 126.918L58.6837 134.213L46.835 134.205Z" fill="#144272"/>
<path d="M41.458 134.205L48.4432 125.609L55.4347 134.213L41.458 134.205Z" fill="#144272"/>
<path d="M51.0614 126.767C51.7015 126.767 52.2204 126.248 52.2204 125.608C52.2204 124.968 51.7015 124.449 51.0614 124.449C50.4213 124.449 49.9023 124.968 49.9023 125.608C49.9023 126.248 50.4213 126.767 51.0614 126.767Z" fill="#7DD3F9"/>
<path d="M69.7435 118.561L70.8521 114.436H71.9945L70.3612 120.281H69.168L67.9494 116.29L66.7308 120.281H65.5376L63.9043 114.436H65.0467L66.1553 118.561L67.3739 114.436H68.5249L69.7435 118.561ZM74.067 120.398C73.6664 120.398 73.2941 120.301 72.9499 120.106C72.6114 119.906 72.3406 119.638 72.1375 119.304C71.94 118.965 71.8413 118.597 71.8413 118.202C71.8413 117.807 71.94 117.442 72.1375 117.108C72.3406 116.768 72.6114 116.501 72.9499 116.306C73.2941 116.106 73.6664 116.006 74.067 116.006C74.4675 116.006 74.8371 116.106 75.1756 116.306C75.5197 116.501 75.7905 116.768 75.988 117.108C76.1911 117.442 76.2927 117.807 76.2927 118.202C76.2927 118.597 76.1911 118.965 75.988 119.304C75.7905 119.638 75.5197 119.906 75.1756 120.106C74.8371 120.301 74.4675 120.398 74.067 120.398ZM74.0585 119.363C74.2729 119.363 74.4703 119.313 74.6509 119.213C74.8314 119.107 74.9753 118.965 75.0825 118.787C75.1897 118.608 75.2433 118.414 75.2433 118.202C75.2433 117.99 75.1897 117.796 75.0825 117.617C74.9753 117.439 74.8314 117.297 74.6509 117.191C74.4703 117.086 74.2729 117.033 74.0585 117.033C73.8441 117.033 73.6467 117.086 73.4661 117.191C73.2856 117.297 73.1417 117.439 73.0345 117.617C72.933 117.796 72.8822 117.99 72.8822 118.202C72.8822 118.414 72.933 118.608 73.0345 118.787C73.1417 118.965 73.2856 119.107 73.4661 119.213C73.6467 119.313 73.8441 119.363 74.0585 119.363ZM79.4757 116.022L79.3996 116.999C79.3657 116.988 79.3065 116.983 79.2219 116.983C78.8721 116.983 78.5815 117.083 78.3502 117.283C78.1246 117.484 78.0117 117.757 78.0117 118.102V120.281H76.9624V116.106H78.0117V116.807C78.1076 116.585 78.2712 116.398 78.5026 116.248C78.7339 116.097 79.0131 116.022 79.3403 116.022H79.4757ZM83.2794 114.436H84.3288V120.281H83.2794V119.881C83.0876 120.048 82.8732 120.176 82.6363 120.265C82.3993 120.354 82.1539 120.398 81.9 120.398C81.4713 120.398 81.0961 120.304 80.7745 120.114C80.4529 119.925 80.2047 119.663 80.0298 119.329C79.8606 118.995 79.7759 118.62 79.7759 118.202C79.7759 117.784 79.8606 117.409 80.0298 117.075C80.2047 116.741 80.4529 116.479 80.7745 116.29C81.0961 116.095 81.4713 115.997 81.9 115.997C82.1539 115.997 82.3965 116.045 82.6278 116.139C82.8648 116.228 83.082 116.354 83.2794 116.515V114.436ZM82.0354 119.405C82.2667 119.405 82.4755 119.354 82.6617 119.254C82.8535 119.148 83.003 119.004 83.1102 118.82C83.223 118.636 83.2794 118.427 83.2794 118.194C83.2794 117.843 83.1581 117.556 82.9155 117.333C82.6786 117.111 82.3852 116.999 82.0354 116.999C81.68 116.999 81.3866 117.114 81.1553 117.342C80.9297 117.565 80.8168 117.851 80.8168 118.202C80.8168 118.553 80.9297 118.842 81.1553 119.071C81.3866 119.293 81.68 119.405 82.0354 119.405ZM87.6257 114.436C87.9754 114.436 88.2998 114.522 88.5988 114.694C88.8979 114.861 89.132 115.093 89.3012 115.388C89.4761 115.683 89.5636 116.003 89.5636 116.348C89.5636 116.693 89.4761 117.013 89.3012 117.308C89.132 117.598 88.8979 117.829 88.5988 118.002C88.2998 118.174 87.9754 118.26 87.6257 118.26H86.5763V120.281H85.4677V114.436H87.6257ZM87.6257 117.217C87.8682 117.217 88.0742 117.133 88.2434 116.966C88.4183 116.793 88.5058 116.587 88.5058 116.348C88.5058 116.109 88.4183 115.903 88.2434 115.73C88.0742 115.557 87.8682 115.471 87.6257 115.471H86.5763V117.217H87.6257ZM92.8307 116.022L92.7545 116.999C92.7207 116.988 92.6615 116.983 92.5768 116.983C92.227 116.983 91.9365 117.083 91.7052 117.283C91.4795 117.484 91.3667 117.757 91.3667 118.102V120.281H90.3173V116.106H91.3667V116.807C91.4626 116.585 91.6262 116.398 91.8575 116.248C92.0888 116.097 92.3681 116.022 92.6953 116.022H92.8307ZM95.2812 115.997C95.6874 115.997 96.0513 116.097 96.3729 116.298C96.7001 116.493 96.954 116.757 97.1345 117.091C97.315 117.425 97.4053 117.796 97.4053 118.202C97.4053 118.336 97.394 118.458 97.3715 118.569H94.1049C94.1895 118.865 94.339 119.096 94.5534 119.263C94.7678 119.424 95.0414 119.505 95.3743 119.505C95.5774 119.505 95.772 119.46 95.9582 119.371C96.15 119.282 96.2939 119.168 96.3898 119.029L97.1937 119.496C96.9963 119.786 96.7396 120.009 96.4237 120.165C96.1134 120.315 95.7551 120.39 95.3489 120.39C94.8976 120.39 94.497 120.295 94.1472 120.106C93.7974 119.917 93.5266 119.655 93.3348 119.321C93.1486 118.987 93.0556 118.611 93.0556 118.194C93.0556 117.782 93.1486 117.409 93.3348 117.075C93.5266 116.741 93.7918 116.479 94.1303 116.29C94.4688 116.095 94.8524 115.997 95.2812 115.997ZM96.4237 117.759C96.3785 117.492 96.2516 117.283 96.0428 117.133C95.8397 116.977 95.583 116.899 95.2727 116.899C95.0584 116.899 94.8609 116.938 94.6804 117.016C94.5055 117.094 94.3644 117.2 94.2572 117.333C94.15 117.467 94.0936 117.609 94.088 117.759H96.4237ZM98.9832 117.275C98.9832 117.392 99.0481 117.481 99.1779 117.542C99.3133 117.598 99.5248 117.656 99.8125 117.718C100.14 117.784 100.413 117.86 100.633 117.943C100.853 118.027 101.042 118.16 101.2 118.344C101.364 118.522 101.446 118.764 101.446 119.071C101.446 119.343 101.361 119.58 101.192 119.78C101.028 119.981 100.808 120.134 100.532 120.24C100.255 120.34 99.9536 120.39 99.6264 120.39C99.1807 120.39 98.797 120.307 98.4755 120.14C98.1595 119.972 97.9254 119.733 97.7731 119.421L98.6363 118.979C98.7886 119.363 99.1186 119.555 99.6264 119.555C99.8464 119.555 100.035 119.513 100.193 119.43C100.351 119.346 100.43 119.226 100.43 119.071C100.43 118.937 100.357 118.839 100.21 118.778C100.069 118.711 99.8379 118.639 99.5164 118.561C99.1835 118.483 98.9127 118.405 98.704 118.327C98.4952 118.249 98.3147 118.13 98.1624 117.968C98.01 117.801 97.9339 117.581 97.9339 117.308C97.9339 117.041 98.01 116.81 98.1624 116.615C98.3147 116.415 98.5206 116.262 98.7801 116.156C99.0396 116.05 99.3245 115.997 99.6348 115.997C100.002 115.997 100.329 116.072 100.616 116.223C100.91 116.373 101.136 116.587 101.293 116.866L100.439 117.292C100.292 116.98 100.024 116.824 99.6348 116.824C99.4374 116.824 99.2794 116.866 99.1609 116.949C99.0425 117.027 98.9832 117.136 98.9832 117.275ZM103.057 117.275C103.057 117.392 103.122 117.481 103.252 117.542C103.388 117.598 103.599 117.656 103.887 117.718C104.214 117.784 104.488 117.86 104.708 117.943C104.928 118.027 105.117 118.16 105.275 118.344C105.438 118.522 105.52 118.764 105.52 119.071C105.52 119.343 105.435 119.58 105.266 119.78C105.103 119.981 104.883 120.134 104.606 120.24C104.33 120.34 104.028 120.39 103.701 120.39C103.255 120.39 102.871 120.307 102.55 120.14C102.234 119.972 102 119.733 101.847 119.421L102.711 118.979C102.863 119.363 103.193 119.555 103.701 119.555C103.921 119.555 104.11 119.513 104.268 119.43C104.426 119.346 104.505 119.226 104.505 119.071C104.505 118.937 104.431 118.839 104.285 118.778C104.143 118.711 103.912 118.639 103.591 118.561C103.258 118.483 102.987 118.405 102.778 118.327C102.569 118.249 102.389 118.13 102.237 117.968C102.084 117.801 102.008 117.581 102.008 117.308C102.008 117.041 102.084 116.81 102.237 116.615C102.389 116.415 102.595 116.262 102.854 116.156C103.114 116.05 103.399 115.997 103.709 115.997C104.076 115.997 104.403 116.072 104.691 116.223C104.984 116.373 105.21 116.587 105.368 116.866L104.513 117.292C104.366 116.98 104.098 116.824 103.709 116.824C103.512 116.824 103.354 116.866 103.235 116.949C103.117 117.027 103.057 117.136 103.057 117.275Z" fill="#144272"/>
<circle cx="192.155" cy="94.1419" r="7.74937" fill="#89D2F4"/>
<circle cx="57.7591" cy="62.0374" r="6.1995" fill="#89D2F4"/>
<circle cx="28.7543" cy="119.087" r="14.6869" fill="#89D2F4"/>
<circle cx="122.706" cy="48.4578" r="10.6277" fill="#89D2F4"/>
<defs>
<clipPath id="clip0_1052_13903">
<rect width="93.8176" height="93.2891" fill="white" transform="translate(82.1143 65.7266)"/>
</clipPath>
<clipPath id="clip1_1052_13903">
<rect width="50.7768" height="7.97078" fill="white" transform="translate(103.665 90.2285)"/>
</clipPath>
</defs>
</svg>
