<svg width="205" height="301" viewBox="0 0 205 301" fill="none" xmlns="http://www.w3.org/2000/svg">
<path d="M136.233 118.707C138.235 120.27 140.437 121.591 142.788 122.64C142.434 123.426 141.856 124.105 141.118 124.602C140.38 125.1 139.51 125.396 138.604 125.458C136.875 125.327 135.02 123.492 134.699 120.896C135.243 120.123 135.759 119.402 136.233 118.707ZM149.789 124.698L150.793 124.855H151.058H151.672C152.515 124.943 153.362 124.987 154.21 124.987C155.184 124.998 156.157 124.954 157.125 124.855C156.107 126.308 154.893 127.63 153.513 128.788C153.29 128.985 153.053 129.182 152.802 129.365C151.281 129.588 150.124 129.365 149.678 128.801C149.231 128.238 149.413 126.822 150.403 125.275C148.018 127.123 145.745 127.687 144.517 126.966C143.29 126.245 143.123 124.108 143.206 122.653C145.302 123.589 147.513 124.276 149.789 124.698Z" stroke="#231F20" stroke-linejoin="round"/>
<path d="M93.7323 102.989C94.6087 100.259 95.7236 97.602 97.0656 95.0447C102.24 85.1731 108.223 82.6168 109.617 73.1778C109.994 70.7132 110.58 66.6231 108.223 62.6902C107.74 61.8957 107.154 61.1603 106.479 60.5009C108.442 60.4412 110.406 60.4762 112.365 60.6057L133.382 73.8464H142.42H147.998C150.049 75.5209 151.918 77.3828 153.577 79.4049C151.844 79.7717 150.232 80.5274 148.877 81.6073C148.75 81.6963 148.629 81.7926 148.514 81.8957C148.447 81.9409 148.386 81.9937 148.333 82.053C147.483 82.8286 146.751 83.7109 146.157 84.675C145.819 85.2103 145.53 85.7717 145.293 86.353C145.028 85.7336 144.716 85.1333 144.358 84.557C143.284 82.7491 141.768 81.2076 139.934 80.0599C138.1 78.9122 136.003 78.1914 133.814 77.9569C131.625 77.7225 129.409 77.9812 127.347 78.7117C125.286 79.4423 123.439 80.6235 121.96 82.1579C121.658 82.4616 121.374 82.7811 121.109 83.1149L120.719 83.6262C120.344 84.1499 120.009 84.6974 119.715 85.2649C119.419 85.8402 119.172 86.4363 118.976 87.0478C118.836 87.4542 118.725 87.8737 118.627 88.3588C118.529 88.8438 118.474 89.224 118.418 89.6697C118.362 90.1155 118.348 90.5612 118.348 90.9807C118.352 93.3404 119.046 95.6536 120.356 97.6666C120.762 98.3206 121.228 98.9392 121.751 99.515L122.253 100.013C123.799 101.498 125.701 102.614 127.8 103.268C129.898 103.921 132.133 104.093 134.317 103.77C136.5 103.447 138.57 102.637 140.353 101.409C142.137 100.181 143.582 98.5695 144.567 96.7096L145.586 96.6047C146.492 96.5129 147.538 96.4474 148.71 96.4343C152.68 96.3968 156.624 97.0502 160.341 98.3614L161.736 98.8596C162.377 99.0955 163.061 99.3577 163.772 99.6592C167.729 101.23 171.092 103.884 173.423 107.276C179.001 115.863 174.818 125.629 174.608 126.246C170.313 135.855 159.351 139.355 152.935 140.863L150.397 141.426C149.086 141.702 147.803 141.925 146.534 142.082C138.735 142.972 130.825 142.292 123.327 140.089C113.733 137.517 104.454 134.002 95.643 129.602C93.0259 124.56 91.7209 119.007 91.8356 113.398C91.9672 109.864 92.6051 106.363 93.7323 102.989ZM159.476 109.334C163.228 109.675 166.45 108.679 166.575 107.105C166.729 105.795 164.832 104.484 162.112 103.907C161.435 103.742 160.745 103.628 160.048 103.566C156.255 103.212 153.075 104.208 152.88 105.795C152.684 107.381 155.669 108.967 159.421 109.334H159.476ZM142.406 133.875C144.638 133.584 146.802 132.941 148.807 131.974C150.234 131.295 151.572 130.464 152.796 129.497C153.047 129.313 153.284 129.116 153.507 128.92C154.887 127.761 156.101 126.439 157.119 124.987C156.151 125.086 155.178 125.13 154.205 125.118C153.357 125.118 152.509 125.075 151.666 124.987H151.053H150.788L149.783 124.83C147.513 124.45 145.302 123.807 143.201 122.916L142.782 122.732C140.432 121.683 138.23 120.362 136.227 118.799C135.753 119.494 135.237 120.215 134.638 120.949C134.038 121.683 133.536 122.26 132.908 123.034C130.8 125.336 128.419 127.403 125.809 129.195C128.077 131.017 130.725 132.375 133.582 133.181C136.44 133.986 139.445 134.223 142.406 133.875Z" fill="white" stroke="#231F20" stroke-linejoin="round"/>
<path d="M144.663 96.7485L145.682 96.6436C145.514 96.3159 145.347 95.9751 145.207 95.6211C145.049 96.0062 144.867 96.3826 144.663 96.7485Z" stroke="#231F20" stroke-miterlimit="10"/>
<path d="M32.6781 151.245C35.1688 153.474 37.7902 155.57 40.53 157.524C54.3928 167.409 67.4886 170.883 81.5886 174.488C101.114 179.47 116.957 180.453 135.98 181.633C144.097 182.131 151.238 182.354 157.025 182.459C156.091 174.055 155.087 168.471 153.929 154.863C153.929 154.273 153.846 153.683 153.79 153.067C153.371 147.954 153.12 144.034 153.009 140.901L150.471 141.465C149.16 141.74 147.876 141.963 146.607 142.12C138.809 143.01 130.898 142.331 123.4 140.128C113.806 137.556 104.527 134.04 95.7164 129.64C93.0542 124.596 91.7107 119.028 91.7974 113.397C91.929 109.863 92.567 106.362 93.6942 102.988C94.5705 100.258 95.6854 97.6012 97.0274 95.0439C102.202 85.1724 108.185 82.616 109.579 73.1771C109.956 70.7125 110.542 66.6223 108.185 62.6894C107.702 61.8949 107.116 61.1596 106.441 60.5001C103.916 58.1467 100.735 56.5108 97.2645 55.7807C83.834 52.464 63.9322 66.5174 54.2952 81.2133C44.5326 96.132 44.6302 112.768 47.0988 125.55C45.5646 128.277 43.9329 131.213 42.1896 134.32L32.6781 151.245Z" fill="#4D455D" stroke="#231F20" stroke-miterlimit="10"/>
<path d="M105.09 142.357C101.308 138.566 98.1412 134.272 95.6899 129.614" stroke="#231F20" stroke-miterlimit="10"/>
<path d="M53.8457 146.171C50.7525 139.578 48.4962 132.666 47.1235 125.576" stroke="#231F20" stroke-miterlimit="10"/>
<path d="M18.6361 190.299C20.505 192.134 22.8201 194.231 25.3723 196.355C41.2156 209.465 56.8775 214.866 70.7125 219.559C86.3896 224.927 102.759 228.304 119.386 229.601C132.018 230.497 144.717 230.124 157.265 228.487C157.725 226.743 158.046 225.223 158.311 224.03C159.998 216.308 159.287 207.787 157.892 190.548C157.627 187.454 157.362 184.845 157.097 182.459C151.31 182.354 144.169 182.131 136.052 181.633C117.057 180.453 101.186 179.47 81.6605 174.488C67.5606 170.883 54.4648 167.409 40.6019 157.525C37.8621 155.571 35.2407 153.474 32.75 151.245C25.4142 164.355 23.9637 167.422 22.318 172.706C20.5195 178.451 19.287 184.341 18.6361 190.299Z" fill="white" stroke="#231F20" stroke-miterlimit="10"/>
<path d="M53.8457 146.171C50.7525 139.578 48.4962 132.666 47.1235 125.576" stroke="#231F20" stroke-miterlimit="10"/>
<path d="M105.09 142.357C101.308 138.566 98.1412 134.272 95.6899 129.614" stroke="#231F20" stroke-miterlimit="10"/>
<path d="M167.531 89.9707C167.531 90.3115 167.531 90.6786 167.531 91.0326C167.531 91.3865 167.531 91.4652 167.531 91.6749C167.531 91.8847 167.531 91.8323 167.531 91.9109C167.389 94.3508 166.46 96.6921 164.867 98.623L164.672 98.8721C164.43 99.1627 164.169 99.4385 163.891 99.698C167.848 101.269 171.211 103.923 173.542 107.315C179.12 115.901 174.936 125.668 174.727 126.284C170.432 135.894 159.47 139.394 153.054 140.901C153.166 144.035 153.417 147.954 153.835 153.067C153.835 153.683 153.933 154.273 153.975 154.863C159.443 153.301 164.555 150.799 169.051 147.482C184.908 135.684 187 117.829 187.572 112.899C188.269 106.921 189.664 94.8999 182.105 83.2192C179.881 79.8946 177.266 76.8163 174.309 74.0425L148.061 73.9639C150.112 75.6383 151.981 77.5003 153.64 79.5223C154.417 79.3532 155.213 79.2696 156.011 79.2733C156.761 79.274 157.509 79.3487 158.242 79.4961L158.912 79.6403H159.065C160.479 80.0378 161.797 80.6926 162.942 81.5674L163.584 82.0918C165.282 83.5884 166.503 85.4993 167.112 87.611C167.112 87.7683 167.196 87.8732 167.21 87.9387C167.217 88.0129 167.217 88.0874 167.21 88.1616C167.36 88.7571 167.467 89.3615 167.531 89.9707Z" fill="#4D455D" stroke="#231F20" stroke-miterlimit="10"/>
<path d="M89.3779 269.638C91.7442 274.171 94.7308 278.393 98.2618 282.197C102.599 286.877 112.655 297.706 128.847 299.554C131.357 299.856 150.31 302.071 157.535 291.453C162.695 283.875 158.929 274.109 156.823 268.668C154.31 262.275 150.312 256.489 145.122 251.73C143.153 253.91 140.957 255.9 138.567 257.669C128.428 265.22 117.648 266.78 106.769 268.38C101.025 269.298 95.2037 269.719 89.3779 269.638Z" fill="#4D455D" stroke="#231F20" stroke-miterlimit="10"/>
<path d="M18.3999 209.67C18.5254 211.151 18.6928 212.528 18.8741 213.799C19.4427 218.98 20.4311 224.112 21.8308 229.151C22.8076 232.447 24.1833 235.627 25.931 238.629L26.6981 239.94C37.6043 257.428 57.255 263.944 67.7567 266.605C69.4442 267.024 70.8947 267.352 72.0383 267.614C77.7015 268.894 83.4948 269.597 89.318 269.712C95.1422 269.81 100.964 269.407 106.709 268.506C117.657 266.906 128.368 265.346 138.507 257.795C140.898 256.026 143.093 254.036 145.062 251.856C150.979 245.087 155.125 237.109 157.168 228.561C144.62 230.198 131.922 230.571 119.289 229.675C102.685 228.368 86.3396 224.986 70.6855 219.62C56.8505 214.927 41.1885 209.473 25.3453 196.416C22.7373 194.266 20.4779 192.195 18.6091 190.359C17.875 196.775 17.805 203.242 18.3999 209.67Z" fill="#4D455D" stroke="#231F20" stroke-miterlimit="10"/>
<path d="M1.32853 273.977C4.31309 281.174 14.3267 283.35 17.7854 284.097C29.4587 286.628 39.4026 282.459 47.366 279.129C54.8608 275.974 61.7758 271.722 67.8535 266.531C57.3518 263.909 37.7011 257.354 26.7949 239.866L26.0278 238.555C18.6049 242.45 12.2234 247.884 7.36739 254.444C4.03416 259.084 -1.62813 266.871 1.32853 273.977Z" fill="#4D455D" stroke="#231F20" stroke-miterlimit="10"/>
<path d="M7.05961 229.824C9.34487 231.049 11.9552 231.633 14.5823 231.507C17.2093 231.382 19.7433 230.552 21.8848 229.116C20.4851 224.077 19.4967 218.945 18.9281 213.765C18.7468 212.454 18.5794 211.143 18.4539 209.635C15.7027 209.533 12.9574 209.947 10.3789 210.855C7.74298 211.799 3.40562 213.359 1.82966 217.331C0.114236 221.801 2.81986 227.242 7.05961 229.824Z" fill="#4D455D" stroke="#231F20" stroke-miterlimit="10"/>
<path d="M125.82 129.195C128.091 131.021 130.743 132.38 133.606 133.186C136.468 133.992 139.479 134.227 142.444 133.875C144.676 133.584 146.84 132.941 148.845 131.974C150.272 131.295 151.61 130.464 152.834 129.497C151.314 129.72 150.156 129.497 149.71 128.933C149.264 128.369 149.445 126.953 150.435 125.406C148.05 127.255 145.777 127.819 144.55 127.098C143.322 126.377 143.155 124.24 143.239 122.785L142.82 122.601C142.466 123.387 141.888 124.066 141.15 124.563C140.412 125.061 139.542 125.357 138.636 125.42C136.907 125.288 135.052 123.453 134.731 120.857C134.215 121.539 133.63 122.168 133.002 122.942C130.874 125.281 128.464 127.379 125.82 129.195Z" fill="#E81366" stroke="#231F20" stroke-linejoin="round"/>
<path d="M143.206 122.784C143.109 124.239 143.206 126.35 144.517 127.097C145.828 127.844 148.018 127.255 150.403 125.406C149.413 126.953 149.175 128.277 149.678 128.933C150.18 129.588 151.281 129.719 152.802 129.496C153.053 129.313 153.29 129.116 153.513 128.919C154.893 127.761 156.107 126.439 157.125 124.987C156.157 125.085 155.184 125.129 154.21 125.118C153.362 125.118 152.515 125.074 151.672 124.987H151.058H150.793L149.789 124.829C147.513 124.408 145.302 123.721 143.206 122.784Z" stroke="#231F20" stroke-linejoin="round"/>
<path d="M134.634 120.857C134.954 123.479 136.809 125.288 138.539 125.419C139.444 125.357 140.314 125.061 141.052 124.563C141.791 124.066 142.369 123.387 142.723 122.601C140.372 121.552 138.17 120.231 136.168 118.668C135.749 119.402 135.233 120.123 134.634 120.857Z" stroke="#231F20" stroke-linejoin="round"/>
<path d="M152.848 105.794C152.68 107.393 155.637 108.966 159.389 109.333C163.14 109.674 166.362 108.678 166.487 107.105C166.641 105.794 164.744 104.483 162.025 103.906C161.347 103.741 160.657 103.627 159.96 103.565C156.223 103.211 153.015 104.22 152.848 105.794Z" fill="#231F20" stroke="#231F20" stroke-miterlimit="10"/>
<path d="M146.107 90.954C146.11 89.3873 145.813 87.8329 145.228 86.3656C145.476 85.7822 145.77 85.2169 146.107 84.6745C146.901 83.3681 147.971 82.2287 149.252 81.3268C150.533 80.4248 151.997 79.7795 153.554 79.4307C155.318 81.5636 156.829 83.8715 158.059 86.3132C160.042 90.275 161.31 94.5193 161.811 98.8722L160.416 98.374C156.698 97.0628 152.755 96.4095 148.784 96.4469C147.613 96.4469 146.567 96.5256 145.66 96.6173C145.493 96.2896 145.326 95.9488 145.186 95.5948C145.789 94.113 146.101 92.5405 146.107 90.954ZM154.586 96.7484C155.981 96.7484 157.027 94.8082 157.027 92.4223C157.027 90.0363 155.939 88.1092 154.586 88.1092C153.233 88.1092 152.132 90.0363 152.132 92.4223C152.132 94.8082 153.233 96.7484 154.586 96.7484Z" fill="white" stroke="#231F20" stroke-miterlimit="10"/>
<path d="M152.13 92.4224C152.13 94.8084 153.232 96.7486 154.585 96.7486C155.938 96.7486 157.025 94.8084 157.025 92.4224C157.025 90.0365 155.938 88.1094 154.585 88.1094C153.232 88.1094 152.13 90.0365 152.13 92.4224Z" stroke="#231F20" stroke-miterlimit="10"/>
<path d="M153.528 79.4566C155.293 81.5895 156.803 83.8974 158.033 86.3391C160.016 90.3009 161.284 94.5452 161.785 98.8981C162.426 99.1341 163.11 99.3963 163.821 99.6978C166.226 97.3828 167.559 94.2679 167.531 91.0324C167.531 84.4776 162.329 79.2337 155.899 79.2337C155.103 79.2215 154.307 79.2963 153.528 79.4566Z" fill="#4D455D" stroke="#231F20" stroke-miterlimit="10"/>
<path d="M132.213 77.8969C134.461 77.9096 136.672 78.4326 138.658 79.4215C140.644 80.4105 142.346 81.836 143.62 83.5766C144.894 85.3172 145.701 87.3215 145.974 89.4186C146.246 91.5157 145.975 93.6436 145.183 95.6211C145.025 96.0062 144.843 96.3826 144.64 96.7485C143.547 98.8563 141.873 100.65 139.792 101.943C137.711 103.236 135.299 103.98 132.808 104.099C130.317 104.218 127.838 103.706 125.628 102.618C123.419 101.529 121.561 99.904 120.247 97.9109C118.933 95.9178 118.212 93.63 118.159 91.2859C118.106 88.9418 118.722 86.6271 119.944 84.5832C121.166 82.5392 122.949 80.8407 125.107 79.6647C127.265 78.4887 129.719 77.8782 132.213 77.8969ZM134.654 96.7485C136.049 96.7485 137.095 94.8083 137.095 92.4223C137.095 90.0364 136.007 88.1093 134.654 88.1093C133.301 88.1093 132.213 90.0364 132.213 92.4223C132.213 94.8083 133.301 96.7485 134.654 96.7485Z" fill="white" stroke="#231F20" stroke-miterlimit="10"/>
<path d="M132.218 92.4224C132.218 94.8084 133.306 96.7486 134.659 96.7486C136.012 96.7486 137.1 94.8084 137.1 92.4224C137.1 90.0365 136.012 88.1094 134.659 88.1094C133.306 88.1094 132.218 90.0365 132.218 92.4224Z" stroke="#231F20" stroke-miterlimit="10"/>
<path d="M178.085 19.7426C178.169 20.1484 178.16 20.5663 178.059 20.9687C177.958 21.3711 177.767 21.7486 177.499 22.0761C176.104 24.0426 170.902 36.3131 163.552 54.2077L99.7191 49.7243L163.427 54.8763L165.505 55.8989C172.562 39.3808 177.597 27.8312 179.326 24.7636C180.198 23.4361 180.558 21.8668 180.344 20.3194C180.026 19.0212 179.279 17.851 178.21 16.9765C171.237 10.7625 133.4 5.17785 123.372 2.01844C122.313 1.70381 119.188 0.70748 116.483 2.01844C114.887 3.00771 113.728 4.50763 113.219 6.23973C111.504 10.9199 106.121 27.0315 95.7583 49.4096L99.4541 49.7112C108.729 26.363 115.646 9.38603 116.72 7.0132C117.125 6.07094 117.857 5.28538 118.798 4.78457C119.753 4.39631 120.821 4.32692 121.824 4.58792C126.385 5.5187 147.723 7.20984 176.216 18.1957C176.624 18.3179 177.001 18.5185 177.323 18.7848C177.645 19.051 177.904 19.3772 178.085 19.7426Z" fill="#7A8FA1" stroke="#231F20" stroke-miterlimit="10"/>
<path d="M99.4189 49.7112H99.6839L163.447 54.2078C170.853 36.3132 176.111 24.0557 177.394 22.0762C177.662 21.7486 177.853 21.3711 177.954 20.9688C178.055 20.5664 178.064 20.1484 177.98 19.7427C177.799 19.3697 177.537 19.0368 177.21 18.7657C176.883 18.4946 176.499 18.2915 176.083 18.1695C147.744 7.20989 126.405 5.49254 121.845 4.58797C120.842 4.32697 119.774 4.39636 118.819 4.78462C117.899 5.29451 117.187 6.07903 116.796 7.01325C115.667 9.38609 108.749 26.363 99.4189 49.7112Z" fill="#89D2F4" stroke="#231F20" stroke-miterlimit="10"/>
<path d="M95.4603 49.9603L99.8674 52.7265L112.322 60.5922L122.572 67.0553L133.283 73.8067H142.321H147.899L174.147 73.8854L202.5 74.0689L165.597 55.899L163.45 54.8764L99.6164 49.7244H99.3514L95.6556 49.4229C95.6416 49.5933 95.5579 49.7768 95.4603 49.9603Z" fill="#7A8FA1" stroke="#231F20" stroke-miterlimit="10"/>
<path d="M144.517 127.097C145.745 127.818 148.018 127.254 150.403 125.406C149.413 126.953 149.175 128.277 149.678 128.932C150.18 129.588 151.281 129.719 152.802 129.496C153.053 129.313 153.29 129.116 153.513 128.919C154.893 127.761 156.107 126.439 157.125 124.986C156.157 125.085 155.184 125.129 154.21 125.117C153.362 125.118 152.515 125.074 151.672 124.986H151.058H150.793L149.789 124.829C147.519 124.449 145.308 123.806 143.206 122.915C143.109 124.239 143.234 126.35 144.517 127.097Z" fill="white" stroke="#231F20" stroke-linejoin="round"/>
<path d="M134.634 120.857C134.954 123.479 136.809 125.288 138.539 125.419C139.444 125.357 140.314 125.061 141.052 124.563C141.791 124.066 142.369 123.387 142.723 122.601C140.372 121.552 138.17 120.231 136.168 118.668C135.749 119.402 135.233 120.123 134.634 120.857Z" fill="white" stroke="#231F20" stroke-linejoin="round"/>
<path d="M132.218 92.4224C132.218 94.8084 133.306 96.7486 134.659 96.7486C136.012 96.7486 137.1 94.8084 137.1 92.4224C137.1 90.0365 136.012 88.1094 134.659 88.1094C133.306 88.1094 132.218 90.0365 132.218 92.4224Z" fill="#231F20" stroke="#231F20" stroke-miterlimit="10"/>
<path d="M152.13 92.4224C152.13 94.8084 153.232 96.7486 154.585 96.7486C155.938 96.7486 157.025 94.8084 157.025 92.4224C157.025 90.0365 155.938 88.1094 154.585 88.1094C153.232 88.1094 152.13 90.0365 152.13 92.4224Z" fill="#231F20" stroke="#231F20" stroke-miterlimit="10"/>
<path d="M164.391 99.1338C165.733 97.5881 166.681 95.775 167.165 93.8326C167.648 91.8903 167.653 89.8698 167.181 87.9251C166.985 87.2434 165.13 81.1343 158.882 79.5874C157.107 79.2119 155.264 79.2184 153.491 79.6066C151.718 79.9948 150.062 80.7546 148.646 81.8292C147.121 83.0428 145.954 84.6048 145.257 86.3651" stroke="#F05C7B" stroke-miterlimit="10"/>
<path d="M132.213 77.8969C134.461 77.9096 136.672 78.4326 138.658 79.4215C140.644 80.4105 142.346 81.836 143.62 83.5766C144.894 85.3172 145.701 87.3215 145.974 89.4186C146.246 91.5157 145.975 93.6436 145.183 95.6211C145.025 96.0062 144.843 96.3826 144.64 96.7485C143.547 98.8563 141.873 100.65 139.792 101.943C137.711 103.236 135.299 103.98 132.808 104.099C130.317 104.218 127.838 103.706 125.628 102.618C123.419 101.529 121.561 99.904 120.247 97.9109C118.933 95.9178 118.212 93.63 118.159 91.2859C118.106 88.9418 118.722 86.6271 119.944 84.5832C121.166 82.5392 122.949 80.8407 125.107 79.6647C127.265 78.4887 129.719 77.8782 132.213 77.8969Z" stroke="#F05C7B" stroke-miterlimit="10"/>
<path d="M118.012 89.5775C114.299 89.0826 110.667 88.1488 107.203 86.7983C106.255 86.4181 105.279 86.4181 104.414 86.0117" stroke="#F05C7B" stroke-linecap="round" stroke-linejoin="round"/>
<path d="M167.531 89.9707L160.349 88.2402" stroke="#F05C7B" stroke-linecap="round" stroke-linejoin="round"/>
<path d="M95.7178 49.4102C95.1629 49.6176 94.6638 49.9379 94.2563 50.3482C93.8488 50.7585 93.543 51.2485 93.3608 51.783C92.3148 56.2796 105.257 63.2277 132.76 73.794C120.333 65.4563 108.144 57.7479 95.7178 49.4102Z" fill="#7A8FA1" stroke="#231F20" stroke-linejoin="round"/>
<path d="M99.4189 49.7112H99.6839L163.447 54.2078C170.853 36.3132 176.111 24.0557 177.394 22.0762C177.662 21.7486 177.853 21.3711 177.954 20.9688C178.055 20.5664 178.064 20.1484 177.98 19.7427C177.799 19.3697 177.537 19.0368 177.21 18.7657C176.883 18.4946 176.499 18.2915 176.083 18.1695C147.744 7.20989 126.405 5.49254 121.845 4.58797C120.842 4.32697 119.774 4.39636 118.819 4.78462C117.899 5.29451 117.187 6.07903 116.796 7.01325C115.667 9.38609 108.749 26.363 99.4189 49.7112Z" fill="#89D2F4" stroke="#231F20" stroke-miterlimit="10"/>
<path opacity="0.05" d="M147.594 159.988C148.012 173.701 149.644 186.326 151.164 197.81C153.033 212.02 153.549 212.61 153.298 217.212C152.808 226.511 150.004 235.572 145.111 243.667C142.455 248.436 138.821 252.665 134.419 256.11C130.018 259.554 124.935 262.147 119.464 263.738C102.728 269.309 84.2625 268.824 76.048 268.326C83.6315 269.421 91.3164 269.764 98.9761 269.349C106.177 269.141 113.315 268.03 120.203 266.045C125.935 264.328 132.852 262.256 139.867 256.737C145.652 252.057 150.231 246.203 153.256 239.616C158.026 230.138 158.709 221.931 159.267 215.206C159.95 206.999 159.128 201.585 157.872 191.451C156.868 183.192 155.432 170.712 153.898 154.863C155.979 154.284 158.016 153.57 159.992 152.726C163.175 151.259 166.197 149.503 169.016 147.482C181.33 138.502 186.114 124.173 186.114 124.173C188.282 117.169 188.946 109.829 188.067 102.582C187.877 99.1438 187.283 95.7363 186.295 92.4216C184.161 85.6714 180.224 79.5472 174.859 74.6319L148.64 74.5008L133.299 73.8715L115.001 66.5957C115.308 68.2737 115.6 69.9387 115.907 71.6167C114.961 78.3454 113.086 84.9294 110.329 91.2024C108.472 95.3737 106.271 99.4019 103.746 103.25C100.319 108.639 96.404 113.74 92.0447 118.497C92.7292 122.333 93.9387 126.069 95.6429 129.614C97.5117 133.546 99.7571 138.2 104.304 141.583C109.213 145.253 112.797 144.44 122.086 146.931C128.246 148.598 134.169 150.957 139.728 153.958L147.594 159.988Z" fill="#231F20"/>
<path opacity="0.1" d="M104.886 61.8767C103.157 62.4928 104.287 66.5306 103.492 71.2894C102.571 76.4152 100.159 77.7524 96.0165 84.3334C92.3159 90.364 89.501 96.8377 87.6486 103.578C86.3376 108.481 84.9848 113.542 85.696 119.978C86.3236 125.799 86.9233 135.199 94.2453 139.564C97.5667 141.411 101.451 142.159 105.277 141.688C103.136 139.777 101.142 137.727 99.3079 135.553C97.2756 133.239 95.5085 130.729 94.0361 128.067C91.1073 122.391 91.4281 116.963 91.6652 113.07C92.0997 106.356 94.1451 99.8212 97.6482 93.9559C101.009 88.3843 102.85 88.2139 106.644 81.2133C108.477 77.4046 109.609 73.3308 109.991 69.1656C110.239 67.5656 109.915 65.9333 109.07 64.5248C108.178 63.0303 106.184 61.431 104.886 61.8767Z" fill="#231F20"/>
<path opacity="0.2" d="M143.802 251.114C147.213 254.418 150.229 258.062 152.798 261.982C155.925 266.333 158.153 271.198 159.366 276.324C160.189 280.178 160.928 283.705 159.366 287.834C157.857 291.552 155.082 294.695 151.473 296.775C146.215 299.96 140.971 299.987 135.615 300C129.84 300.03 124.111 299.038 118.726 297.076C111.313 294.155 104.78 289.563 99.7031 283.705C95.9076 279.682 92.7124 275.192 90.2055 270.359C92.8972 270.359 96.6628 270.359 101.154 269.939C106.617 269.648 112.026 268.768 117.276 267.318C127.535 264.314 136.707 258.696 143.774 251.088L143.802 251.114Z" fill="#231F20"/>
<path opacity="0.2" d="M49.4152 259.793C47.2759 264.456 44.2938 268.737 40.6009 272.444C34.7619 278.25 27.3894 282.498 19.2349 284.754C22.4922 284.918 25.7586 284.817 28.9974 284.452C36.496 283.5 43.741 281.246 50.3635 277.806C56.4388 274.877 62.0988 271.244 67.2109 266.99C63.4135 265.829 59.6886 264.468 56.0537 262.913C53.7107 261.891 51.4932 260.842 49.4152 259.793Z" fill="#231F20"/>
<path opacity="0.2" d="M19.7997 222.744C18.9146 223.318 18.1329 224.022 17.4846 224.829C15.6994 227.057 14.5558 230.531 15.7134 231.383C16.871 232.235 19.2279 231.056 21.8359 229.089C21.1944 226.992 20.5528 224.829 19.7997 222.744Z" fill="#231F20"/>
<path opacity="0.2" d="M147.517 73.0725L98.3691 49.6194C100.949 42.6058 103.864 35.3955 107.155 27.8837C110.642 19.9262 114.24 12.4537 117.838 5.46632L121.046 4.43066C140.569 6.72367 159.641 11.6328 177.683 19.0085L179.566 20.3195L179.928 23.8198C178.366 27.0447 176.809 30.3309 175.256 33.6782C171.835 41.072 168.697 48.3128 165.842 55.4008L201.908 73.7542L147.517 73.0725Z" fill="#231F20"/>
<path opacity="0.4" d="M90.4414 57.2227C87.321 57.7776 84.2759 58.657 81.3622 59.8446C77.2203 61.6659 73.3896 64.0562 69.9958 66.9369C65.7554 70.3115 62.0043 74.1945 58.8385 78.4864C57.1371 80.6888 53.9154 85.1461 54.3896 85.5132C54.8638 85.8802 59.7172 81.3836 63.2875 77.477C66.8578 73.5703 66.3278 73.5441 68.8661 71.1188C71.8258 68.304 75.1807 65.8826 78.8379 63.9217C81.4598 62.532 83.0218 62.0994 86.3132 60.0674C88.0286 58.9531 89.5209 57.9306 90.4414 57.2227Z" fill="white"/>
<path opacity="0.4" d="M14.0901 212.703C13.9925 212.362 10.5337 212.297 7.67469 214.014C4.22989 216.112 3.04444 219.992 3.40705 220.202C3.76966 220.412 5.27588 217.318 9.45984 214.853C12.0957 213.319 14.1598 213.031 14.0901 212.703Z" fill="white"/>
<path opacity="0.4" d="M23.3442 243.668C22.7863 243.117 18.8813 245.844 16.9288 247.339C13.9662 249.632 11.3317 252.276 9.09086 255.204C5.85527 259.426 3.2891 264.289 3.74934 264.578C4.20957 264.866 5.98078 262.638 7.66831 260.737C11.6012 256.266 11.406 255.414 13.9024 253.199C16.3988 250.983 17.2496 251.337 19.7739 248.846C21.7961 246.854 23.8184 244.114 23.3442 243.668Z" fill="white"/>
</svg>
