<svg width="150" height="49" viewBox="0 0 150 49" fill="none" xmlns="http://www.w3.org/2000/svg">
<path d="M48.9014 24.5C48.9014 38.031 37.9545 49 24.4507 49C10.947 49 0 38.031 0 24.5C0 10.969 10.947 0 24.4507 0C37.9545 0 48.9014 10.969 48.9014 24.5Z" fill="#88D3F5"/>
<path d="M19.8199 9.49487V19.9696C19.8199 18.2075 18.6991 16.7787 17.3172 16.7787C15.9354 16.7787 14.8145 18.2084 14.8145 19.9696C14.8145 21.7307 15.9373 23.1622 17.3154 23.1622C18.6935 23.1622 19.8181 21.7334 19.8181 19.9696V24.6242C17.7886 25.611 16.4509 27.3031 16.4509 29.2272C16.4509 31.1513 17.7886 32.8433 19.8181 33.8302V40.303C13.1488 39.039 9.17614 34.1976 11.5493 23.9917C13.0184 17.6561 15.726 11.9244 19.8199 9.49487Z" fill="#4D455D"/>
<path d="M19.8199 19.9696C19.8199 21.7334 18.699 23.1623 17.3172 23.1623C15.9354 23.1623 14.8145 21.7334 14.8145 19.9696C14.8145 18.2057 15.9372 16.7788 17.3153 16.7788C18.6935 16.7788 19.8199 18.2084 19.8199 19.9696Z" fill="white"/>
<path d="M37.2854 24.9545C35.9312 19.3278 33.2429 11.7447 28.0979 9.167V19.9694C28.0979 18.2074 29.2178 16.7786 30.6006 16.7786C31.9833 16.7786 33.1033 18.2074 33.1033 19.9694C33.1033 21.7315 31.9824 23.1621 30.6006 23.1621C29.2188 23.1621 28.0979 21.7333 28.0979 19.9694V24.6231C30.1274 25.6109 31.4651 27.303 31.4651 29.2261C31.4651 31.1493 30.1274 32.8423 28.0979 33.8292V40.4787C35.7989 39.7818 40.0821 36.5864 37.2854 24.9545ZM16.4526 29.2252C16.4526 31.1475 17.7903 32.8414 19.8199 33.8283V24.6222C17.7903 25.6109 16.4526 27.303 16.4526 29.2252Z" fill="white"/>
<path d="M19.8199 19.9696C19.8199 21.7334 18.699 23.1623 17.3172 23.1623C15.9354 23.1623 14.8145 21.7334 14.8145 19.9696C14.8145 18.2057 15.9372 16.7788 17.3153 16.7788C18.6935 16.7788 19.8199 18.2084 19.8199 19.9696Z" fill="white"/>
<path d="M33.107 19.9696C33.107 21.7335 31.9861 23.1623 30.6043 23.1623C29.2225 23.1623 28.1016 21.7335 28.1016 19.9696C28.1016 18.2057 29.2215 16.7788 30.6043 16.7788C31.987 16.7788 33.107 18.2085 33.107 19.9696Z" fill="#7A8FA1"/>
<path d="M31.4688 29.2252C31.4688 31.1474 30.1311 32.8413 28.1016 33.8282V24.6221C30.1311 25.6109 31.4688 27.303 31.4688 29.2252Z" fill="#7A8FA1"/>
<path d="M19.8199 24.6243V33.8304C17.7903 32.8435 16.4526 31.1496 16.4526 29.2274C16.4526 27.3052 17.7903 25.6112 19.8199 24.6243Z" fill="white"/>
<path d="M28.1016 24.6221V33.8282C26.8039 34.4307 25.3909 34.7437 23.9607 34.7437C22.5305 34.7437 21.1175 34.4308 19.8199 33.8283V24.6222C21.1175 24.0197 22.5305 23.7084 23.9607 23.7084C25.3909 23.7084 26.8039 24.0196 28.1016 24.6221Z" fill="#FCC3A2"/>
<path d="M26.4634 14.4074C26.4634 16.1703 25.3426 17.5991 23.9607 17.5991C22.5789 17.5991 21.458 16.1703 21.458 14.4074C21.458 12.6444 22.578 11.2119 23.9607 11.2119C25.3435 11.2119 26.4634 12.6444 26.4634 14.4074Z" fill="#FCC3A2"/>
<path d="M25.02 8.2968C23.2038 8.13197 21.3823 8.55117 19.8199 9.49359L19.8199 24.6243C21.1175 24.0218 22.5305 23.7084 23.9607 23.7084C25.3909 23.7084 26.8039 24.0213 28.1016 24.6238V9.16678C27.1396 8.68139 26.0934 8.38603 25.02 8.2968ZM23.9607 17.595C22.578 17.595 21.458 16.1662 21.458 14.4032C21.458 12.6402 22.578 11.2119 23.9607 11.2119C25.3435 11.2119 26.4634 12.6402 26.4634 14.4032C26.4634 16.1662 25.3426 17.5991 23.9607 17.5991L23.9607 17.595Z" fill="#D3756B"/>
<path d="M28.1016 33.8282L28.1016 40.4784C26.7684 40.599 25.3324 40.6451 23.8128 40.6469C22.474 40.6579 21.1371 40.5426 19.8199 40.3026L19.8199 33.8283C21.1175 34.4308 22.5305 34.7426 23.9607 34.7426C25.3909 34.7426 26.8039 34.4307 28.1016 33.8282Z" fill="#D3756B"/>
<path d="M76.7579 14.3937V17.7554H71.5362V33.3707H68.019V17.7554H62.8244V14.3937H76.7579Z" fill="#181422"/>
<path d="M91.0674 33.3707H87.7396V25.3462C87.7396 24.334 87.451 23.6111 86.8739 23.1774C86.3147 22.7255 85.6473 22.4996 84.8717 22.4996C84.2585 22.4996 83.6994 22.6894 83.1943 23.0689C82.7073 23.4485 82.3917 24.0539 82.2474 24.8853V33.3707H78.8925V14.3937H82.2474V20.9543C82.6983 20.5206 83.2124 20.1772 83.7895 19.9242C84.3848 19.6711 85.0161 19.5446 85.6834 19.5446C86.477 19.5446 87.2797 19.7163 88.0913 20.0597C88.903 20.385 89.5974 20.9724 90.1746 21.8219C90.7698 22.6713 91.0674 23.819 91.0674 25.2648V33.3707Z" fill="#181422"/>
<path d="M96.0541 17.5656C95.4228 17.5656 94.9268 17.3939 94.566 17.0505C94.2053 16.7071 94.0249 16.2372 94.0249 15.6408C94.0249 15.0263 94.2053 14.5474 94.566 14.204C94.9268 13.8606 95.4228 13.6889 96.0541 13.6889C96.6854 13.6889 97.1814 13.8606 97.5421 14.204C97.9029 14.5474 98.0832 15.0263 98.0832 15.6408C98.0832 16.2191 97.8939 16.689 97.5151 17.0505C97.1543 17.3939 96.6673 17.5656 96.0541 17.5656ZM94.3496 33.3707V19.8157H97.7045V33.3707H94.3496Z" fill="#181422"/>
<path d="M109.095 19.5446L108.852 22.7165C108.744 22.6803 108.554 22.6623 108.284 22.6623C107.165 22.6623 106.237 22.9876 105.497 23.6382C104.776 24.2889 104.415 25.1745 104.415 26.295V33.3707H101.06V19.8157H104.415V22.093C104.721 21.37 105.245 20.7646 105.984 20.2766C106.724 19.7886 107.616 19.5446 108.663 19.5446H109.095Z" fill="#181422"/>
<path d="M121.256 14.3937H124.611V33.3707H121.256V32.0694C120.643 32.6116 119.957 33.0273 119.2 33.3165C118.442 33.6056 117.658 33.7502 116.846 33.7502C115.475 33.7502 114.276 33.443 113.248 32.8285C112.219 32.214 111.426 31.3646 110.867 30.2802C110.326 29.1958 110.055 27.9758 110.055 26.6203C110.055 25.2648 110.326 24.0449 110.867 22.9605C111.426 21.8761 112.219 21.0266 113.248 20.4121C114.276 19.7796 115.475 19.4633 116.846 19.4633C117.658 19.4633 118.433 19.6169 119.173 19.9242C119.93 20.2133 120.625 20.62 121.256 21.1441V14.3937ZM117.279 30.5241C118.018 30.5241 118.686 30.3615 119.281 30.0362C119.894 29.6928 120.372 29.2229 120.715 28.6265C121.076 28.03 121.256 27.3523 121.256 26.5932C121.256 25.4546 120.868 24.5238 120.093 23.8009C119.335 23.078 118.397 22.7165 117.279 22.7165C116.143 22.7165 115.205 23.087 114.465 23.828C113.744 24.5509 113.383 25.4817 113.383 26.6203C113.383 27.7589 113.744 28.6987 114.465 29.4397C115.205 30.1627 116.143 30.5241 117.279 30.5241Z" fill="#181422"/>
<path d="M145.969 33.3707L142.262 26.8101H138.745V33.3707H135.201V14.3937H142.884C144.003 14.3937 145.04 14.6739 145.996 15.2341C146.952 15.7763 147.7 16.5264 148.241 17.4843C148.801 18.4422 149.08 19.4814 149.08 20.6019C149.08 21.7586 148.792 22.8159 148.214 23.7738C147.637 24.7317 146.862 25.4817 145.888 26.0239L150 33.3707H145.969ZM138.745 17.7554V23.4213H142.884C143.66 23.4213 144.327 23.1502 144.887 22.608C145.446 22.0478 145.725 21.3791 145.725 20.6019C145.725 19.8067 145.446 19.138 144.887 18.5958C144.345 18.0355 143.678 17.7554 142.884 17.7554H138.745Z" fill="#181422"/>
</svg>
