<svg width="110" height="110" viewBox="0 0 110 110" fill="none" xmlns="http://www.w3.org/2000/svg">
<mask id="mask0_1052_13502" style="mask-type:luminance" maskUnits="userSpaceOnUse" x="0" y="0" width="110" height="110">
<path d="M0.200966 0.489258H110V110H0.200966V0.489258Z" fill="white"/>
</mask>
<g mask="url(#mask0_1052_13502)">
<path d="M104.553 32.135L105.23 32.0026H106.361C106.304 31.9137 106.241 31.8287 106.171 31.748C105.928 31.3915 105.663 31.0554 105.399 30.7295C105.101 30.9852 104.866 31.3019 104.711 31.6563C104.665 31.7684 104.63 31.8843 104.606 32.0026C104.577 32.0419 104.558 32.0874 104.553 32.135Z" stroke="#231F20" stroke-miterlimit="10"/>
<path d="M109.281 36.9425H109.398H109.514L109.44 36.8203L109.366 36.912L109.281 36.9425Z" stroke="#231F20" stroke-miterlimit="10"/>
<path d="M34.6711 131.879L41.4192 127.713L50.4307 117.864C49.7784 116.083 49.2622 114.258 48.8864 112.405L49.0663 112.211C49.4421 114.202 49.9832 116.16 50.6845 118.068L41.673 127.917L34.9038 132.032C34.7232 132.148 34.5038 132.192 34.2899 132.159C34.0759 132.124 33.8833 132.013 33.751 131.848C33.8832 131.942 34.0418 131.995 34.2061 132.001C34.3704 132.006 34.5324 131.963 34.6711 131.879ZM76.048 91.5048C76.4388 91.1235 76.658 90.6094 76.658 90.0737C76.658 89.538 76.4388 89.024 76.048 88.6427L74.747 87.2677L74.6201 87.1455C74.7568 87.2432 74.8842 87.3522 75.0009 87.4714L76.3018 88.8464C76.6926 89.2277 76.9118 89.7417 76.9118 90.2775C76.9118 90.8131 76.6926 91.3272 76.3018 91.7085L70.4211 97.5344L70.1672 97.3307L76.048 91.5048ZM65.122 94.5603C66.7629 95.0749 68.2932 95.8721 69.6384 96.9131C68.2544 95.9016 66.6922 95.1392 65.0268 94.6622L65.122 94.5603ZM111.153 151.098C111.016 149.723 110.92 148.348 110.867 146.963C110.931 148.348 111.058 149.723 111.153 151.098Z" stroke="#231F20" stroke-miterlimit="10"/>
<path d="M99.1168 40.9247L98.7783 40.3747M109.366 36.8506H109.535C115.476 47.0574 119.86 58.0339 122.555 69.4432C122.978 71.2052 123.264 72.4987 123.433 73.3848H123.338C123.137 72.3663 122.745 70.4719 122.09 67.8848C119.402 57.043 115.173 46.6101 109.524 36.8811H109.408H109.292L109.366 36.8506Z" stroke="#231F20" stroke-miterlimit="10" stroke-linecap="round"/>
<path d="M1.18486 163.942C3.30024 154.775 5.20408 152.738 6.17716 151.852C7.02043 151.065 7.96192 150.38 8.98004 149.815C9.13012 149.836 9.27854 149.867 9.42428 149.907C8.33289 150.506 7.32675 151.239 6.43101 152.086C5.45794 152.993 3.60697 154.989 1.4387 164.176C-0.0737984 170.573 -0.824762 173.771 -0.0420693 176.663C0.218521 177.604 0.572726 178.518 1.01562 179.393H0.867547C0.828187 179.331 0.792865 179.267 0.76178 179.199C0.318882 178.324 -0.0353231 177.411 -0.295913 176.47C-1.05745 173.536 -0.327642 170.338 1.18486 163.942ZM11.0637 131.258C11.0637 131.105 11.0637 130.962 11.0637 130.82C11.8041 114.32 15.1464 103.585 16.1512 100.499C16.3099 99.9996 16.4685 99.5412 16.606 99.1338L16.9868 98.981C16.807 99.4801 16.6166 99.9996 16.4051 100.702C15.3474 103.758 12.058 114.523 11.3176 131.023L11.0637 131.258ZM26.3791 49.7764L31.3397 45.2338L37.2839 46.731L37.3474 46.8838L31.5935 45.4375L26.633 49.9801L17.4205 48.3607H17.1666V48.1977L26.3791 49.7764ZM17.9176 59.5949C19.6404 59.7675 21.3773 59.7675 23.1003 59.5949C25.7762 59.4014 26.2099 58.8718 26.3474 58.5764C26.7281 57.6597 25.4801 56.3866 25.0781 55.9792C24.9124 55.8091 24.7358 55.6492 24.5493 55.5005C24.8277 55.7086 25.0894 55.9367 25.332 56.1829C25.7339 56.5903 26.982 57.8635 26.6012 58.7801C26.4637 59.106 26.0301 59.6357 23.3541 59.7986C21.6311 59.9712 19.8943 59.9712 18.1714 59.7986C16.8912 59.6923 15.6761 59.2086 14.6916 58.4135C15.6322 59.0545 16.7288 59.451 17.8753 59.5644L17.9176 59.5949ZM26.3791 30.944C27.3205 31.2394 28.357 31.5246 29.4358 31.7996C37.1042 33.5471 44.8746 34.8497 52.7051 35.7005L53.308 35.7718C64.8685 37.0959 77.7618 37.707 85.9378 37.8088C92.3685 37.8699 97.8051 38.1144 101.803 38.0635H103.019L104.204 38.0125H104.521C104.888 38.0125 105.241 37.982 105.579 37.9209L106.118 37.8496C106.446 37.8113 106.771 37.7534 107.092 37.6764L107.419 37.5949L107.716 37.5134C107.877 37.4635 108.036 37.4058 108.192 37.3403L108.477 37.157L108.646 37.0551C108.704 37.0297 108.758 36.9952 108.805 36.9533C108.886 36.9003 108.96 36.8388 109.027 36.7699L109.26 36.6579C109.299 36.7202 109.335 36.7849 109.366 36.8514H109.249L109.059 37.157C109.012 37.1989 108.958 37.2334 108.9 37.2588L108.731 37.3607L108.435 37.5033C108.279 37.5688 108.121 37.6265 107.959 37.6764L107.663 37.7579L107.335 37.8394C107.039 37.9107 106.721 37.9616 106.362 38.0125L105.822 38.0838L104.765 38.1755H104.447H103.263H102.036C98.0166 38.1755 92.5801 37.982 86.1705 37.9209C77.9945 37.8496 65.1012 37.2385 53.5406 35.8838L52.9378 35.8125C45.1072 34.9618 37.3369 33.6592 29.6685 31.9116C28.6108 31.6366 27.5531 31.3514 26.6118 31.056C24.7799 30.582 23.0525 29.7918 21.5137 28.7236C23.0054 29.7035 24.647 30.4527 26.3791 30.944ZM34.6714 131.777L41.4195 127.611L50.431 117.762C49.7786 115.982 49.2625 114.157 48.8868 112.303L49.0666 112.11C49.4423 114.101 49.9835 116.059 50.6849 117.966L41.6733 127.815L34.9041 132.032C34.7235 132.148 34.5041 132.193 34.2901 132.159C34.0762 132.124 33.8836 132.014 33.7512 131.848C33.8834 131.942 34.0422 131.996 34.2064 132.001C34.3706 132.006 34.5328 131.965 34.6714 131.879V131.777ZM55.7406 55.6023L62.4041 56.9468H62.6791L69.2262 56.4375L71.1301 44.8875L95.457 42.8505L95.5945 43.0644L71.4051 45.1014L69.4589 56.631L62.6368 57.1607L56.0156 55.8162L39.9281 52.5366L39.8647 52.3736L55.7406 55.6023ZM65.1224 94.5505C66.7633 95.065 68.2936 95.8622 69.6387 96.9033C68.2547 95.8919 66.6925 95.1293 65.0272 94.6523L65.1224 94.5505ZM76.0483 91.4949C76.4391 91.1137 76.6582 90.5996 76.6582 90.0639C76.6582 89.5283 76.4391 89.0141 76.0483 88.6329L74.7474 87.2579L74.6205 87.1357C74.757 87.2334 74.8845 87.3424 75.0012 87.4616L76.3022 88.8366C76.6929 89.2178 76.9121 89.732 76.9121 90.2676C76.9121 90.8033 76.6929 91.3174 76.3022 91.6986L70.4214 97.5246L70.1676 97.3209L76.0483 91.4949ZM98.3656 39.7134L98.757 40.3551L99.0955 40.9051L99.233 41.119C99.381 41.3635 99.5397 41.6384 99.7407 41.9542L100.164 42.657C100.382 43.0033 100.626 43.4005 100.894 43.8486L101.2 44.2866L101.824 45.3051L102.364 46.181L103.252 47.6375L99.106 48.1468L98.958 47.9329L102.998 47.4338L102.11 45.9773L101.539 45.1218L100.915 44.1033L100.629 43.6347C100.361 43.1866 100.118 42.7894 99.8993 42.4431L99.4762 41.7403C99.2753 41.4246 99.1166 41.1496 98.9685 40.9051L98.831 40.6912L98.4926 40.1412L98.2282 39.7033L98.3656 39.7134ZM111.64 167.364C112.842 167.581 114.07 167.635 115.289 167.527C115.291 167.551 115.291 167.575 115.289 167.598L115.373 167.741C114.209 167.814 113.039 167.742 111.893 167.527C109.661 167.361 107.529 166.56 105.769 165.225C107.484 166.446 109.516 167.187 111.64 167.364Z" fill="#F5F5F5" stroke="#231F20" stroke-miterlimit="10" stroke-linecap="round"/>
<path d="M1.43851 164.145C3.55389 154.978 5.45774 152.941 6.43082 152.055C7.32655 151.207 8.33271 150.475 9.42409 149.876C9.27835 149.835 9.12992 149.804 8.97985 149.784L9.17024 149.672C9.8517 149.297 10.5908 149.029 11.3596 148.878C11.3596 148.694 11.3596 148.531 11.3596 148.348C10.9491 142.664 10.8644 136.961 11.1058 131.267L11.3808 131.033C12.1212 114.533 15.4635 103.798 16.4683 100.712C16.6798 100.06 16.8702 99.4895 17.05 98.9904L16.6692 99.1432L16.7962 98.7867C17.9808 95.395 18.3933 94.9163 19.0385 92.4107C17.8644 91.6774 16.5212 90.7709 14.9346 89.7015C11.2433 87.2061 7.36159 84.6089 4.53755 79.5163C1.82788 74.48 0.881787 68.7351 1.84043 63.1385C2.37985 59.258 3.14139 53.7987 7.50966 51.1709C9.62505 49.8978 11.7404 49.8163 14.1308 49.745C15.1507 49.7152 16.1716 49.7458 17.1875 49.8367C17.1875 49.2969 17.1875 48.8182 17.1875 48.2682H17.4413L26.6539 49.8978L31.6144 45.3552L37.3683 46.8015L39.674 52.2404H39.8539L39.9173 52.4033L55.9942 55.8052L62.6154 57.1496L69.4375 56.62L71.3837 45.0904L95.5731 43.0533L98.8519 47.9524H98.9577L99.1058 48.1663L103.252 47.657L102.363 46.2006L101.824 45.3043L101.2 44.2858L100.914 43.8172C100.647 43.3691 100.403 42.9719 100.185 42.6256L99.7615 41.9228C99.5606 41.607 99.4019 41.332 99.2538 41.0876L99.1163 40.8737L98.7779 40.3237L98.3865 39.682H98.2596L98.1327 39.4783L63.7471 40.4459L53.5827 38.9182L18.3404 33.632C18.8496 31.5285 19.5033 29.4597 20.2971 27.4395C20.4758 27.713 20.6774 27.9719 20.9 28.2135C21.0772 28.4101 21.2757 28.5877 21.4923 28.7432C23.0311 29.8113 24.7585 30.6015 26.5904 31.0756C27.5317 31.3709 28.5683 31.6561 29.6471 31.9311C37.3155 33.6787 45.0859 34.9814 52.9163 35.832L53.5192 35.9033C65.0798 37.2274 77.9731 37.8385 86.149 37.9404C92.5798 38.0015 98.0163 38.2459 102.014 38.195H103.273L104.458 38.1746H104.775L105.833 38.083L106.372 38.0117C106.732 37.9608 107.049 37.9098 107.345 37.8385L107.673 37.757L107.969 37.6756C108.131 37.6258 108.29 37.568 108.445 37.5024L108.741 37.3598L108.942 37.2274C108.984 37.2082 109.023 37.1842 109.059 37.1561L109.281 36.9728H109.397C118.842 52.8719 122.333 69.5654 123.084 73.2422H123.179V73.4256C123.179 73.507 123.179 73.5885 123.179 73.6598C123.242 73.9756 123.295 74.2913 123.359 74.5969C123.422 74.9024 123.475 75.1978 123.528 75.5033C123.581 75.8089 123.528 75.8395 123.443 76.0024C119.932 97.1672 112.517 106.558 112.105 114.228L111.978 116.366C111.893 117.782 111.798 119.178 111.692 120.563C111.692 121.255 111.597 121.948 111.544 122.6V123.038C111.544 123.241 111.544 123.435 111.544 123.639C111.449 124.8 111.364 125.94 111.28 127.071C111.28 127.407 111.227 127.753 111.206 128.09C111.121 129.108 111.047 130.127 110.984 131.145C110.931 131.919 110.878 132.683 110.836 133.447C110.74 134.975 110.666 136.503 110.613 137.979C110.613 138.733 110.613 139.477 110.55 140.22C110.55 142.42 110.55 144.6 110.613 146.769C110.666 148.154 110.762 149.529 110.899 150.904C109.919 150.626 108.88 150.599 107.885 150.823C106.953 151.084 106.087 151.526 105.339 152.122C104.591 152.716 103.978 153.454 103.537 154.286C102.74 155.756 102.385 157.411 102.512 159.065C102.639 160.719 103.243 162.306 104.257 163.646C104.682 164.235 105.191 164.762 105.769 165.215C107.527 166.553 109.659 167.358 111.893 167.527C113.061 167.74 114.252 167.805 115.437 167.72C115.712 168.178 116.008 168.667 116.336 169.166C116.663 169.665 116.833 169.94 117.097 170.328C115.785 172.632 114.178 174.77 112.316 176.693C107.313 181.592 101.507 183.395 93.2779 185.534C80.9135 188.753 74.7365 190.352 68.4327 191.126C57.0731 192.521 55.9308 190.678 38.6692 191.126C38.2644 191.139 37.8612 191.184 37.4635 191.258C32.9577 192.093 28.801 192.643 19.0067 190.565C10.6615 188.803 7.60485 186.665 6.31447 185.626C4.0442 183.925 2.17943 181.775 0.846202 179.321H0.994279C0.551381 178.446 0.197176 177.532 -0.063414 176.591C-0.824952 173.74 -0.0739929 170.582 1.43851 164.145ZM65.0269 94.6515C66.6923 95.1286 68.2545 95.891 69.6385 96.9024C69.8394 97.0654 70.0192 97.1978 70.1673 97.3302L70.4212 97.5339L76.3019 91.708C76.6927 91.3267 76.9119 90.8127 76.9119 90.277C76.9119 89.7413 76.6927 89.2272 76.3019 88.8459L75.001 87.4709C74.8843 87.3518 74.7568 87.2427 74.6202 87.145C74.3925 86.9358 74.123 86.7732 73.8281 86.6673C73.5332 86.5613 73.219 86.5139 72.9045 86.5282C72.5902 86.5426 72.282 86.6181 71.9987 86.7503C71.7155 86.8826 71.4631 87.0689 71.2567 87.2978L64.7308 94.4274L65.0798 94.5293L65.0269 94.6515ZM33.7615 131.878C33.894 132.043 34.0866 132.154 34.3005 132.189C34.5145 132.223 34.7339 132.177 34.9144 132.062L41.6625 127.896L50.674 118.047C49.9727 116.139 49.4316 114.181 49.0558 112.19L48.876 112.384C48.876 112.252 48.876 112.119 48.8019 111.987L38.0769 123.73L33.4971 130.626C33.4147 130.719 33.3555 130.83 33.3239 130.95C33.2922 131.069 33.289 131.193 33.3145 131.313C33.3398 131.434 33.3933 131.547 33.4708 131.645C33.5482 131.743 33.6476 131.822 33.7615 131.878ZM23.2692 59.8283C25.9452 59.6348 26.3788 59.1052 26.5163 58.8098C26.8971 57.8932 25.649 56.62 25.2471 56.2126C25.0046 55.9664 24.7429 55.7383 24.4644 55.5302C23.1675 54.5399 21.6047 53.9253 19.9587 53.758C19.0929 53.6477 18.2184 53.6135 17.3462 53.6561C15.5692 53.7274 13.7606 54.145 13.2952 55.3163C13.2073 55.6615 13.1938 56.0204 13.2556 56.3708C13.3175 56.7211 13.4533 57.0556 13.6548 57.3533C13.8967 57.7519 14.2206 58.0985 14.6067 58.3719C15.5913 59.1671 16.8064 59.6507 18.0865 59.757C19.807 59.9533 21.5438 59.9773 23.2692 59.8283Z" fill="white" stroke="#231F20" stroke-miterlimit="10" stroke-linecap="round"/>
<path d="M103.918 107.984C103.918 108.198 104.013 108.412 104.056 108.626C105.113 114.085 101.94 118.556 99.2008 122.539C95.9273 127.213 91.3982 130.945 86.096 133.335C82.3623 134.995 74.6412 138.428 65.9998 135.372C63.018 134.359 60.295 132.744 58.0132 130.637C55.7313 128.529 53.9431 125.976 52.7681 123.15C52.3873 122.131 51.5412 120.268 50.7056 117.976M36.6806 157.647C33.571 156.7 31.0431 159.806 26.2835 158.167C23.6075 157.24 21.2489 155.172 18.721 152.962C15.8229 150.426 15.421 149.407 13.7287 149.061C13.0307 148.924 12.3113 148.924 11.6133 149.061M82.1085 96.2812C80.6436 96.6707 79.2857 97.3662 78.1316 98.3183C76.8052 99.4506 75.7851 100.877 75.1594 102.474C73.9087 100.549 72.3027 98.8612 70.421 97.4933" stroke="#231F20" stroke-miterlimit="10"/>
<path d="M29.5206 54.0125C26.559 51.8024 21.9264 50.4274 17.4629 50.0811M25.6071 94.7125C23.8619 95.0792 22.0533 94.3255 19.3139 92.6144" stroke="#231F20" stroke-miterlimit="10"/>
<path d="M65.1221 94.5502C66.763 95.0647 68.2932 95.8619 69.6384 96.9029C69.8394 97.0659 70.0192 97.1983 70.1673 97.3307L76.048 91.5048C76.4389 91.1235 76.658 90.6094 76.658 90.0738C76.658 89.5381 76.4389 89.024 76.048 88.6427L74.7471 87.2677L74.6201 87.1455C74.1479 86.8239 73.5686 86.6824 72.9943 86.7482C72.4198 86.814 71.8912 87.0826 71.5105 87.502L65.1221 94.5502Z" fill="#C4B9DB" stroke="#231F20" stroke-miterlimit="10"/>
<path d="M76.0487 91.5048L70.168 97.3307L70.4218 97.5344L76.3026 91.7085C76.6933 91.3272 76.9124 90.8131 76.9124 90.2775C76.9124 89.7417 76.6933 89.2277 76.3026 88.8464L75.0016 87.4714C74.8849 87.3522 74.7574 87.2432 74.6209 87.1455L74.7478 87.2677L76.0487 88.6427C76.4394 89.024 76.6586 89.538 76.6586 90.0737C76.6586 90.6094 76.4394 91.1235 76.0487 91.5048Z" stroke="#231F20" stroke-miterlimit="10"/>
<path d="M65.0273 94.6517C66.6927 95.1286 68.2549 95.8912 69.6389 96.9026C68.2937 95.8616 66.7634 95.0644 65.1225 94.5498L65.0273 94.6517Z" stroke="#231F20" stroke-miterlimit="10"/>
<path d="M11.3388 131.023C12.0792 114.523 15.4215 103.788 16.4263 100.702C16.6378 100.05 16.8282 99.4795 17.008 98.9805L16.6273 99.1332C16.4898 99.5407 16.3311 99.999 16.1725 100.498C15.1148 103.553 11.8253 114.319 11.085 130.819C11.085 130.962 11.085 131.104 11.085 131.257L11.3388 131.023Z" stroke="#231F20" stroke-miterlimit="10"/>
<path d="M13.9514 57.5268C14.1362 57.8424 14.3718 58.1277 14.6495 58.3722C15.598 59.0343 16.7104 59.4452 17.8754 59.5639C19.5984 59.7363 21.3353 59.7363 23.0581 59.5639C25.7341 59.3703 26.1678 58.8407 26.3053 58.5453C26.686 57.6287 25.4379 56.3555 25.036 55.9481C24.8704 55.778 24.6938 55.6181 24.5072 55.4694C23.2623 54.6018 21.8041 54.0612 20.2764 53.9009C19.4107 53.7905 18.5362 53.7564 17.6639 53.799C15.887 53.8703 14.0783 54.2879 13.6129 55.4592C13.5173 55.8076 13.4981 56.1713 13.5564 56.5272C13.6146 56.8832 13.7492 57.2236 13.9514 57.5268Z" fill="#20262E" stroke="#231F20" stroke-miterlimit="10"/>
<path d="M14.6494 58.413C15.6339 59.2081 16.849 59.6918 18.1292 59.7981C19.8521 59.9707 21.5889 59.9707 23.3119 59.7981C25.9879 59.6046 26.4215 59.075 26.559 58.7796C26.9398 57.863 25.6917 56.5898 25.2898 56.1824C25.0472 55.9362 24.7855 55.7081 24.5071 55.5C24.6936 55.6488 24.8702 55.8087 25.036 55.9787C25.4379 56.3861 26.686 57.6593 26.3052 58.5759C26.1677 58.9019 25.734 59.4315 23.0581 59.5944C21.3351 59.767 19.5982 59.767 17.8754 59.5944C16.7113 59.4789 15.599 59.0715 14.6494 58.413Z" stroke="#231F20" stroke-miterlimit="10"/>
<path d="M26.3795 49.776L31.3401 45.2334L37.2843 46.7306L37.3478 46.8834L31.5939 45.4371L26.6333 49.9797L17.4208 48.3603H17.167V48.1973L26.3795 49.776ZM62.341 56.9056H62.616V57.1297L55.9949 55.7853L39.9074 52.5056L39.8439 52.3427L55.7093 55.5816L62.341 56.9056Z" stroke="#231F20" stroke-miterlimit="10"/>
<path d="M18.5951 33.8667L53.8374 39.1936L64.0018 40.7213L62.7114 55.9991L62.6374 56.9667H62.3624L55.7412 55.6223L39.8759 52.3834L37.5807 46.9547L37.3903 46.9038L37.3268 46.751L31.3826 45.2538L26.422 49.7963L17.2095 48.1667V48.3602L13.5287 47.7084L12.5557 33.001L18.5951 33.8667ZM38.4374 45.3047L43.3028 51.4158L55.572 53.4528L58.0576 53.8704L58.4172 43.1149L54.1864 42.3713L38.4585 39.6417L38.4374 45.3047ZM14.8085 46.5473L17.3682 46.9445L25.248 48.1667L29.6162 44.2862V37.8084L18.0557 36.3213L14.8826 35.9038L14.8085 46.5473Z" fill="#C4B9DB" stroke="#231F20" stroke-miterlimit="10"/>
<path d="M38.4365 39.5801V45.3042L43.3019 51.4153L55.5711 53.4523L58.0567 53.8699L58.4163 43.1143L54.1856 42.3708L38.4365 39.5801Z" fill="#2B328C" stroke="#231F20" stroke-miterlimit="10"/>
<path d="M14.8506 35.9033V46.557L17.4102 46.9542L25.29 48.1663L29.616 44.2654V37.8181L18.0554 36.3311L14.8506 35.9033Z" fill="#DF1C4E" stroke="#231F20" stroke-miterlimit="10"/>
<path d="M19.768 25.1485C19.7094 26.0533 19.9868 26.9486 20.5507 27.6745C20.7292 27.9479 20.9309 28.2068 21.1536 28.4485C21.2555 28.5671 21.3689 28.6762 21.492 28.7745C22.9832 29.7203 24.6172 30.4383 26.3363 30.9032C27.2776 31.1985 28.3141 31.4837 29.393 31.7587C37.0614 33.5063 44.8317 34.8089 52.6622 35.6597L53.2651 35.731C64.8257 37.055 77.719 37.6661 85.8949 37.768C92.3257 37.8291 97.7622 38.0735 101.76 38.0226H103.019L104.204 37.9717H104.521C104.888 37.9717 105.24 37.9411 105.579 37.88L106.118 37.8087C106.446 37.7704 106.771 37.7126 107.091 37.6356L107.419 37.5541L107.715 37.4726C107.877 37.4227 108.036 37.365 108.191 37.2995L108.477 37.1569L108.646 37.055C108.704 37.0296 108.758 36.9951 108.805 36.9532C108.885 36.9002 108.96 36.8387 109.027 36.7698L109.259 36.6578C109.298 36.7201 109.334 36.7847 109.365 36.8513L109.45 36.7495L109.524 36.8717C109.947 36.7087 110.412 36.505 110.888 36.2708C111.862 36.9695 112.737 37.7878 113.49 38.705C113.487 38.7253 113.487 38.7459 113.49 38.7661L113.554 38.8476L114.082 39.5708C115.043 40.9561 115.721 42.5045 116.081 44.1337C116.338 45.4505 116.374 46.7986 116.187 48.1263C116.193 48.1839 116.193 48.2418 116.187 48.2995H118.43H120.143H120.577C120.577 48.1671 120.577 48.0347 120.577 47.8921C120.577 47.5763 120.577 47.2402 120.577 46.8735C120.572 46.8567 120.572 46.8393 120.577 46.8226C120.492 45.5834 120.266 44.357 119.9 43.1661C119.884 43.1036 119.862 43.0423 119.836 42.9828C119.567 42.0682 119.212 41.1786 118.779 40.3245C117.709 38.0371 115.957 36.1081 113.744 34.7837C112.842 34.1452 111.794 33.7259 110.687 33.5615C110.781 33.0314 110.7 32.4861 110.455 32.0032H110C110.144 32.0133 110.29 32.0133 110.433 32.0032C110.387 31.9189 110.33 31.8403 110.264 31.7689C109.418 30.893 107.472 31.4022 106.171 31.7689C106.241 31.8495 106.304 31.9346 106.361 32.0235H105.23L104.553 32.156C99.7189 33.0726 96.017 32.6652 87.6295 32.0235C85.8209 31.8809 83.8113 31.7384 81.5161 31.5856C67.3747 30.6587 58.9132 30.1291 52.9584 29.7115C46.2526 29.243 42.7093 28.9171 37.7699 28.3059C33.9178 27.6659 30.172 26.5321 26.6324 24.9347C25.0036 24.2319 23.6497 23.5698 22.7613 23.1217C22.3982 22.9427 22.0451 22.7456 21.7036 22.5309C20.7728 21.8791 19.3343 23.1319 19.768 25.1485Z" fill="#2D7B3C" stroke="#231F20" stroke-miterlimit="10"/>
<path d="M21.5342 28.8145C23.073 29.8826 24.8003 30.6728 26.6323 31.1469C27.5736 31.4422 28.6101 31.7274 29.689 32.0024C37.3574 33.75 45.1277 35.0527 52.9582 35.9033L53.5611 35.9746C65.1217 37.2987 78.015 37.9098 86.1909 38.0117C92.6217 38.0728 98.0582 38.3172 102.056 38.2663H103.273L104.457 38.1746H104.775L105.832 38.083L106.372 38.0117C106.731 37.9607 107.049 37.9098 107.345 37.8385L107.673 37.757L107.969 37.6756C108.131 37.6258 108.289 37.568 108.445 37.5024L108.741 37.3598L108.942 37.2274C108.983 37.2082 109.022 37.1842 109.058 37.1561L109.28 36.9728L109.365 36.8506C109.334 36.7841 109.298 36.7195 109.259 36.657L109.027 36.7385C108.96 36.8075 108.885 36.869 108.804 36.9219C108.758 36.9639 108.704 36.9982 108.646 37.0237L108.477 37.1256L108.18 37.2682C108.025 37.3337 107.866 37.3915 107.704 37.4413L107.408 37.5228L107.08 37.6043C106.76 37.6813 106.435 37.7391 106.107 37.7774L105.568 37.8487C105.243 37.8895 104.891 37.92 104.51 37.9404H104.193L103.008 37.9913H101.781C97.7621 37.9913 92.3255 37.7978 85.9159 37.7367C77.7399 37.6654 64.8467 37.0543 53.2861 35.6996L52.6832 35.6283C44.8527 34.7777 37.0824 33.475 29.414 31.7274C28.3563 31.4524 27.2986 31.1672 26.3573 30.8719C24.6498 30.4274 23.0233 29.7335 21.5342 28.8145Z" stroke="#231F20" stroke-miterlimit="10"/>
<path d="M105.23 32.0027H106.362C106.305 31.9138 106.242 31.8287 106.172 31.748L105.23 32.0027Z" stroke="#231F20" stroke-miterlimit="10"/>
<path d="M104.553 32.135L105.23 32.0026H106.361C106.304 31.9137 106.241 31.8287 106.171 31.748C105.928 31.3915 105.663 31.0554 105.399 30.7295C105.101 30.9852 104.866 31.3019 104.711 31.6563C104.665 31.7684 104.63 31.8843 104.606 32.0026C104.577 32.0419 104.558 32.0874 104.553 32.135Z" stroke="#231F20" stroke-miterlimit="10"/>
<path d="M109.281 36.9425H109.398H109.514L109.44 36.8203L109.366 36.912L109.281 36.9425Z" stroke="#231F20" stroke-miterlimit="10"/>
<path d="M105.399 30.7088C105.664 31.0551 105.928 31.3912 106.172 31.7273C107.473 31.3505 109.419 30.8412 110.265 31.7273C110.33 31.7987 110.388 31.8774 110.434 31.9616C110.68 32.4446 110.761 32.9899 110.667 33.5199C111.747 33.6648 112.775 34.052 113.671 34.6505C115.894 35.9773 117.655 37.9139 118.726 40.2116C119.16 41.0658 119.514 41.9554 119.784 42.8699C119.81 42.9295 119.831 42.9907 119.848 43.0533L121.836 42.6459C121.836 42.5644 121.836 42.4727 121.836 42.3709C121.725 41.1702 121.476 39.985 121.096 38.8366V38.7857C120.657 37.4483 120.019 36.179 119.202 35.0172L118.79 34.4264L118.409 33.9273L118.176 33.6523C117.184 32.3949 115.953 31.3303 114.549 30.5153C114.344 30.3913 114.132 30.279 113.914 30.1792C113.75 30.0958 113.581 30.0243 113.406 29.9653C112.888 29.7543 112.35 29.594 111.799 29.4866C110.55 29.2348 109.258 29.2627 108.023 29.5681C107.072 29.7595 106.177 30.1488 105.399 30.7088Z" fill="#3A5144" stroke="#231F20" stroke-miterlimit="10"/>
<path d="M109.281 36.9425H109.398H109.514L109.44 36.8203L109.366 36.912L109.281 36.9425Z" stroke="#231F20" stroke-miterlimit="10"/>
<path d="M62.6367 56.9253L69.1838 56.416L71.13 44.8864L95.4569 42.8494L95.5944 43.0633H95.7108L98.9579 47.9522L102.998 47.4531L102.11 45.9966L101.539 45.1207L100.915 44.1021L100.629 43.6336C100.361 43.1855 100.118 42.7883 99.8992 42.442L99.4761 41.7392C99.2752 41.4234 99.1165 41.1484 98.9685 40.904L98.831 40.6901L98.4925 40.1401L98.2281 39.7021L63.9694 40.7207L62.679 55.9984L62.6367 56.9253Z" fill="#C4B9DB" stroke="#231F20" stroke-miterlimit="10"/>
<path d="M98.3652 39.7129H98.2383L98.5027 40.1509L98.8412 40.7009L98.9787 40.9147C99.1267 41.1592 99.2854 41.4342 99.4864 41.7499L99.9094 42.4527C100.128 42.799 100.371 43.1962 100.639 43.6444L100.925 44.1129L101.549 45.1314L102.088 46.0073L102.977 47.4638L98.9364 47.9629L99.0844 48.1768L103.231 47.6675L102.342 46.211L101.824 45.3046L101.2 44.286L100.914 43.8175C100.646 43.3694 100.403 42.9722 100.184 42.6259L99.7614 41.9231C99.5604 41.6073 99.4017 41.3323 99.2537 41.0879L99.1162 40.874L98.7777 40.324L98.3652 39.7129Z" stroke="#231F20" stroke-miterlimit="10"/>
<path d="M62.6152 57.15L69.4374 56.6204L71.3835 45.0908L95.5729 43.0537L95.4354 42.8398L71.1085 44.8769L69.1623 56.4065L62.6152 56.9158V57.15Z" stroke="#231F20" stroke-miterlimit="10"/>
<path d="M104.553 32.135L105.23 32.0026H106.361C106.304 31.9137 106.241 31.8287 106.171 31.748C105.928 31.3915 105.663 31.0554 105.399 30.7295C105.101 30.9852 104.866 31.3019 104.711 31.6563C104.665 31.7684 104.63 31.8843 104.606 32.0026C104.577 32.0419 104.558 32.0874 104.553 32.135Z" stroke="#231F20" stroke-miterlimit="10"/>
<path d="M71.3945 11.6927C71.5262 10.9923 71.5262 10.2747 71.3945 9.57422" stroke="#231F20" stroke-miterlimit="10"/>
<path d="M59.0728 7.9043C58.7177 8.73014 58.5448 9.61807 58.5651 10.5117" stroke="#231F20" stroke-miterlimit="10"/>
<path d="M36.7237 9.80906C36.7936 10.2058 36.8926 10.5971 37.0198 10.9804C43.4717 8.2711 48.5592 8.63777 48.6544 8.15906C48.4503 7.25419 48.0581 6.39844 47.5015 5.64332C47.2054 5.22573 45.2487 2.58777 42.0121 2.79147C41.0901 2.87745 40.2002 3.16307 39.4089 3.62693C38.6177 4.09079 37.9456 4.72091 37.4429 5.47017C36.6528 6.78059 36.3965 8.32692 36.7237 9.80906Z" fill="#EEEEEE" stroke="#231F20" stroke-miterlimit="10"/>
<path d="M48.5908 8.15919C48.6136 8.25331 48.6312 8.3485 48.6437 8.44437C49.7014 8.29159 50.7591 8.16937 51.8168 8.08789C50.7697 8.16937 49.6485 8.00641 48.5908 8.15919Z" stroke="#231F20" stroke-miterlimit="10"/>
<path d="M36.5967 11.143L37.0198 10.9902" stroke="#231F20" stroke-miterlimit="10"/>
<path d="M22.7617 23.1413C23.6502 23.5895 25.004 24.2515 26.6329 24.9543C30.1584 26.5299 33.886 27.6465 37.7175 28.2746C42.6569 28.8858 46.179 29.2117 52.906 29.6802C58.8608 30.0978 67.3223 30.6274 81.4636 31.5543C83.7588 31.7071 85.7684 31.8496 87.5771 31.9922C96.0386 32.6339 99.7194 33.0108 104.5 32.1246C104.489 32.0812 104.489 32.0358 104.5 31.9922C104.559 31.8737 104.63 31.761 104.712 31.6561C104.87 31.2924 105.112 30.9683 105.42 30.7089C104.219 29.13 102.923 27.6199 101.539 26.1867C101.116 25.7487 100.333 24.9645 99.1906 23.9358C93.9834 19.3306 88.0041 15.6079 81.5059 12.9256C78.2212 11.5421 74.8209 10.428 71.3415 9.59506C71.108 8.47549 70.5964 7.42706 69.8502 6.5395C69.3849 6.00901 68.8393 5.54893 68.2319 5.17468C67.0499 4.39135 65.6205 4.03102 64.1915 4.15617C63.2806 4.25161 62.4048 4.54785 61.6319 5.02191C60.9142 5.45305 60.2894 6.01324 59.7915 6.67191C59.5156 7.0496 59.2849 7.45622 59.104 7.88394C56.6764 7.80224 54.2457 7.87028 51.8271 8.08765C50.7694 8.16913 49.7117 8.29135 48.654 8.44413C48.6415 8.34825 48.6239 8.25306 48.6011 8.15894C48.5377 8.63765 43.4502 8.27098 36.9665 10.9802L36.5752 11.133C34.1205 12.0895 31.8282 13.394 29.7742 15.0033C28.6365 15.8864 27.5753 16.8573 26.6011 17.9061C25.1228 19.5081 23.8351 21.264 22.7617 23.1413Z" fill="white" stroke="#231F20" stroke-miterlimit="10"/>
<path d="M36.9873 10.9902H36.9966" stroke="#231F20" stroke-miterlimit="10"/>
<path d="M104.585 32.0026H106.362C106.305 31.9137 106.241 31.8287 106.171 31.748C105.928 31.3915 105.664 31.0554 105.399 30.7295C105.101 30.9852 104.866 31.3019 104.712 31.6563C104.658 31.7677 104.616 31.8837 104.585 32.0026Z" stroke="#231F20" stroke-miterlimit="10"/>
<path d="M65.0269 94.6512C64.0742 94.3961 63.0953 94.2424 62.1077 94.1928C60.1553 94.0544 58.1952 94.3322 56.3671 95.0064C54.5388 95.6807 52.8876 96.7348 51.5308 98.0937C50.2107 99.5791 49.2575 101.333 48.7427 103.224C48.2279 105.116 48.165 107.095 48.5587 109.012L49.1087 112.2" stroke="#231F20" stroke-miterlimit="10"/>
<path opacity="0.21" d="M104.553 32.135L105.23 32.0026H106.361C106.304 31.9137 106.241 31.8287 106.171 31.748C105.928 31.3915 105.663 31.0554 105.399 30.7295C105.101 30.9852 104.866 31.3019 104.711 31.6563C104.665 31.7684 104.63 31.8843 104.606 32.0026C104.577 32.0419 104.558 32.0874 104.553 32.135Z" stroke="#231F20" stroke-miterlimit="10"/>
<path opacity="0.21" d="M109.281 36.9425H109.398H109.514L109.44 36.8203L109.366 36.912L109.281 36.9425Z" stroke="#231F20" stroke-miterlimit="10"/>
<path opacity="0.21" d="M33.7191 130.86L38.2989 123.965L48.8758 112.354L49.0557 112.16C49.4314 114.151 49.9726 116.109 50.6739 118.017L41.6624 127.866L34.9037 132.032C34.735 132.123 34.5394 132.159 34.3474 132.133C34.1555 132.106 33.978 132.02 33.8428 131.886C33.7075 131.752 33.6219 131.578 33.5996 131.393C33.5773 131.208 33.6193 131.02 33.7191 130.86ZM65.122 94.5502L71.5528 87.502C71.9334 87.0826 72.4621 86.814 73.0365 86.7482C73.6108 86.6824 74.1901 86.8239 74.6624 87.1455C74.799 87.2432 74.9265 87.3523 75.0432 87.4714L76.3441 88.8464C76.7349 89.2277 76.9541 89.7418 76.9541 90.2775C76.9541 90.8131 76.7349 91.3273 76.3441 91.7085L70.4633 97.5344L70.2095 97.3307C70.0614 97.1983 69.8816 97.0659 69.6807 96.9029C68.2967 95.8915 66.7344 95.129 65.0691 94.652L65.122 94.5502ZM111.153 151.098C111.015 149.723 110.92 148.348 110.867 146.963C110.931 148.348 111.058 149.723 111.153 151.098Z" stroke="#231F20" stroke-miterlimit="10"/>
<path opacity="0.21" d="M99.1168 40.9043L98.7783 40.3543M109.366 36.8506H109.535L109.609 36.9728C109.874 37.4108 110.127 37.8487 110.381 38.2867L111.132 39.6108C111.608 40.4765 112.074 41.3423 112.528 42.1978C112.983 43.0534 113.438 43.9904 113.861 44.8765C114.073 45.3145 114.284 45.7423 114.485 46.1802C115.289 47.9219 116.04 49.633 116.717 51.2728C116.96 51.8635 117.203 52.4543 117.426 53.0348C117.997 54.5015 118.483 55.9376 119.002 57.3126C119.107 57.6182 119.213 57.9135 119.308 58.2089C119.403 58.5043 119.509 58.7997 119.604 59.095L119.89 59.9608C119.985 60.246 120.08 60.5311 120.165 60.8061C120.366 61.4376 120.556 62.0487 120.736 62.6497C120.916 63.2506 121.011 63.5663 121.138 64.0145C121.35 64.7784 121.561 65.5117 121.741 66.2043C121.804 66.4385 121.868 66.6626 121.921 66.8867C121.974 67.1108 122.037 67.3247 122.09 67.5487C122.259 68.1904 122.407 68.7913 122.545 69.3617C122.968 71.1237 123.253 72.4173 123.423 73.3034H123.327C123.127 72.2848 122.735 70.3904 122.079 67.8034C121.028 63.6402 119.761 59.5303 118.282 55.4895L118.219 55.3367C115.967 49.075 113.134 43.0211 109.757 37.2478C109.757 37.2478 109.63 37.0136 109.556 36.9015H109.44H109.324L109.366 36.8506Z" stroke="#231F20" stroke-miterlimit="10" stroke-linecap="round"/>
<path opacity="0.21" d="M103.918 107.984C103.918 108.198 104.013 108.412 104.056 108.626C105.113 114.085 101.94 118.556 99.2008 122.539C95.9273 127.213 91.3982 130.945 86.096 133.335C82.3623 134.995 74.6412 138.428 65.9998 135.372C63.018 134.359 60.295 132.744 58.0132 130.637C55.7313 128.529 53.9431 125.976 52.7681 123.15C52.3873 122.131 51.5412 120.268 50.7056 117.976M36.6806 157.647C33.571 156.7 31.0431 159.806 26.2835 158.167C23.6075 157.24 21.2489 155.172 18.721 152.962C15.8229 150.426 15.421 149.407 13.7287 149.061C13.0307 148.924 12.3113 148.924 11.6133 149.061M82.1085 96.2812C80.6436 96.6707 79.2857 97.3662 78.1316 98.3183C76.8052 99.4506 75.7851 100.877 75.1594 102.474C73.9087 100.549 72.3027 98.8612 70.421 97.4933" stroke="#231F20" stroke-miterlimit="10"/>
<path opacity="0.21" d="M29.5206 54.0125C26.559 51.8024 21.9264 50.4274 17.4629 50.0811M25.6071 94.7125C23.8619 95.0792 22.0533 94.3255 19.3139 92.6144" stroke="#231F20" stroke-miterlimit="10"/>
<path opacity="0.21" d="M65.0273 94.652C66.6926 95.129 68.2548 95.8915 69.6389 96.9029C69.8398 97.0659 70.0197 97.1983 70.1677 97.3307L70.4216 97.5344L76.3023 91.7085C76.6931 91.3273 76.9122 90.8131 76.9122 90.2775C76.9122 89.7418 76.6931 89.2277 76.3023 88.8464L75.0014 87.4714C74.8846 87.3523 74.7572 87.2432 74.6206 87.1455C74.1484 86.8239 73.5689 86.6824 72.9946 86.7482C72.4202 86.814 71.8917 87.0826 71.511 87.502L65.0802 94.5502L65.0273 94.652Z" stroke="#231F20" stroke-miterlimit="10"/>
<path opacity="0.21" d="M11.3388 131.023C12.0792 114.523 15.4215 103.788 16.4263 100.702C16.6378 100.05 16.8282 99.4795 17.008 98.9805L16.6273 99.1332C16.4898 99.5407 16.3311 99.999 16.1725 100.498C15.1148 103.553 11.8253 114.319 11.085 130.819C11.085 130.962 11.085 131.104 11.085 131.257L11.3388 131.023Z" stroke="#231F20" stroke-miterlimit="10"/>
<path opacity="0.21" d="M13.9515 57.5262C14.1363 57.8418 14.3719 58.1271 14.6496 58.3716C15.6341 59.1667 16.8492 59.6504 18.1294 59.7568C19.8523 59.9293 21.5891 59.9293 23.3121 59.7568C25.9881 59.5632 26.4217 59.0336 26.5592 58.7382C26.94 57.8216 25.6919 56.5484 25.29 56.141C25.0474 55.8948 24.7857 55.6667 24.5073 55.4586C23.2623 54.591 21.8043 54.0505 20.2765 53.8901C19.4107 53.7798 18.5362 53.7457 17.664 53.7882C15.8871 53.8595 14.0785 54.2771 13.6131 55.4484C13.5159 55.7984 13.4958 56.1639 13.5541 56.5218C13.6123 56.8797 13.7477 57.2218 13.9515 57.5262Z" stroke="#231F20" stroke-miterlimit="10"/>
<path opacity="0.21" d="M18.5944 33.8667L53.8367 39.1936L64.0012 40.7213L62.7108 55.9991L62.6367 56.9667V57.1908L56.0156 55.8463L39.9281 52.5667L39.854 52.4038L37.5588 46.9751L37.3685 46.9241L31.6146 45.4778L26.654 50.0204L17.4204 48.3602H17.1665L13.4858 47.7084L12.5127 33.001L18.5944 33.8667ZM38.4367 45.3047L43.3021 51.4158L55.5713 53.4528L58.0569 53.8704L58.4165 43.1149L54.1858 42.3713L38.4579 39.6417L38.4367 45.3047ZM14.8079 46.5473L17.3675 46.9445L25.2473 48.1667L29.6156 44.2862V37.8084L18.055 36.3213L14.8819 35.9038L14.8079 46.5473Z" stroke="#231F20" stroke-miterlimit="10"/>
<path opacity="0.21" d="M38.4365 39.5801V45.3042L43.3019 51.4153L55.5711 53.4523L58.0567 53.8699L58.4163 43.1143L54.1856 42.3708L38.4365 39.5801Z" stroke="#231F20" stroke-miterlimit="10"/>
<path opacity="0.21" d="M14.8506 35.9033V46.5468L17.4102 46.9441L25.29 48.1663L29.616 44.2552V37.8079L18.0554 36.3209L14.8506 35.9033Z" stroke="#231F20" stroke-miterlimit="10"/>
<path opacity="0.21" d="M19.768 25.1485C19.7094 26.0533 19.9868 26.9486 20.5507 27.6745C20.7292 27.9479 20.9309 28.2068 21.1536 28.4485C21.2555 28.5671 21.3689 28.6762 21.492 28.7745C22.9832 29.7203 24.6172 30.4383 26.3363 30.9032C27.2776 31.1985 28.3141 31.4837 29.393 31.7587C37.0614 33.5063 44.8317 34.8089 52.6622 35.6597L53.2651 35.7309C64.8257 37.055 77.719 37.6661 85.8949 37.768C92.3257 37.8291 97.7622 38.0735 101.76 38.0226H103.019L104.204 37.9717H104.521C104.888 37.9717 105.24 37.9411 105.579 37.88L106.118 37.8087C106.446 37.7704 106.771 37.7126 107.091 37.6356L107.419 37.5541L107.715 37.4726C107.877 37.4227 108.036 37.365 108.191 37.2995L108.477 37.1569L108.646 37.055C108.704 37.0296 108.758 36.9951 108.805 36.9532C108.885 36.9002 108.96 36.8387 109.027 36.7698L109.26 36.6578C109.299 36.7201 109.334 36.7847 109.365 36.8513L109.45 36.7495L109.524 36.8717C109.386 36.5661 109.249 36.2606 109.122 35.9143C108.559 34.4388 108.166 32.9087 107.948 31.3513H107.885L107.472 31.4328L107.007 31.5347L106.562 31.6569L106.139 31.7689C106.208 31.8495 106.273 31.9346 106.33 32.0235H105.23L104.553 32.1559C103.791 32.2985 103.061 32.4106 102.342 32.4921C102.046 32.4921 101.739 32.5532 101.443 32.5837C97.8363 32.8791 94.1449 32.5226 87.5766 32.0235C85.768 31.8809 83.7584 31.7384 81.4632 31.5856C67.3218 30.6587 58.8603 30.1291 52.9055 29.7115C46.1997 29.243 42.6565 28.9171 37.717 28.3059C33.883 27.6615 30.1553 26.5278 26.6324 24.9347C25.0036 24.2319 23.6497 23.5698 22.7613 23.1217C22.3982 22.9427 22.0451 22.7456 21.7036 22.5309C20.7728 21.8791 19.3343 23.1319 19.768 25.1485Z" fill="#E6E7E8" stroke="#231F20" stroke-miterlimit="10"/>
<path opacity="0.21" d="M21.5342 28.8145C23.073 29.8826 24.8003 30.6728 26.6323 31.1469C27.5736 31.4422 28.6101 31.7274 29.689 32.0024C37.3574 33.75 45.1277 35.0527 52.9582 35.9033L53.5611 35.9746C65.1217 37.2987 78.015 37.9098 86.1909 38.0117C92.6217 38.0728 98.0582 38.3172 102.056 38.2663H103.273L104.457 38.1746H104.775L105.832 38.083L106.372 38.0117C106.731 37.9607 107.049 37.9098 107.345 37.8385L107.673 37.757L107.969 37.6756C108.131 37.6258 108.289 37.568 108.445 37.5024L108.741 37.3598L108.942 37.2274C108.983 37.2082 109.022 37.1842 109.058 37.1561L109.28 36.9728L109.365 36.8506C109.334 36.7841 109.298 36.7195 109.259 36.657L109.027 36.7385C108.96 36.8075 108.885 36.869 108.804 36.9219C108.758 36.9639 108.704 36.9982 108.646 37.0237L108.477 37.1256L108.18 37.2682C108.025 37.3337 107.866 37.3915 107.704 37.4413L107.408 37.5228L107.08 37.6043C106.76 37.6813 106.435 37.7391 106.107 37.7774L105.568 37.8487C105.243 37.8895 104.891 37.92 104.51 37.9404H104.193L103.008 37.9913H101.781C97.7621 37.9913 92.3255 37.7978 85.9159 37.7367C77.7399 37.6654 64.8467 37.0543 53.2861 35.6996L52.6832 35.6283C44.8527 34.7777 37.0824 33.475 29.414 31.7274C28.3563 31.4524 27.2986 31.1672 26.3573 30.8719C24.6498 30.4274 23.0233 29.7335 21.5342 28.8145Z" stroke="#231F20" stroke-miterlimit="10"/>
<path opacity="0.21" d="M105.23 32.0027H106.362C106.305 31.9138 106.242 31.8287 106.172 31.748L105.23 32.0027Z" stroke="#231F20" stroke-miterlimit="10"/>
<path opacity="0.21" d="M104.553 32.135L105.23 32.0026H106.361C106.304 31.9137 106.241 31.8287 106.171 31.748C105.928 31.3915 105.663 31.0554 105.399 30.7295C105.101 30.9852 104.866 31.3019 104.711 31.6563C104.665 31.7684 104.63 31.8843 104.606 32.0026C104.577 32.0419 104.558 32.0874 104.553 32.135Z" stroke="#231F20" stroke-miterlimit="10"/>
<path opacity="0.21" d="M109.281 36.9425H109.398H109.514L109.44 36.8203L109.366 36.912L109.281 36.9425Z" stroke="#231F20" stroke-miterlimit="10"/>
<path opacity="0.21" d="M109.281 36.9425H109.398H109.514L109.44 36.8203L109.366 36.912L109.281 36.9425Z" stroke="#231F20" stroke-miterlimit="10"/>
<path opacity="0.21" d="M62.6152 57.1502L69.4374 56.6206L71.3835 45.091L95.5729 43.0539H95.6893L98.9575 47.953L99.1056 48.1669L103.252 47.6576L102.363 46.2011L101.824 45.3048L101.2 44.2863L100.914 43.8178C100.646 43.3697 100.403 42.9724 100.184 42.6261L99.7614 41.9234C99.5604 41.6076 99.4018 41.3326 99.2537 41.0882L99.1162 40.8743L98.7777 40.3243L98.3864 39.6826H98.2595L64.0008 40.7011L62.7104 55.9789L62.6364 56.9465L62.6152 57.1502Z" stroke="#231F20" stroke-miterlimit="10"/>
<path opacity="0.21" d="M104.553 32.135L105.23 32.0026H106.361C106.304 31.9137 106.241 31.8287 106.171 31.748C105.928 31.3915 105.663 31.0554 105.399 30.7295C105.101 30.9852 104.866 31.3019 104.711 31.6563C104.665 31.7684 104.63 31.8843 104.606 32.0026C104.577 32.0419 104.558 32.0874 104.553 32.135Z" stroke="#231F20" stroke-miterlimit="10"/>
<path opacity="0.21" d="M71.3945 11.6927C71.5262 10.9923 71.5262 10.2747 71.3945 9.57422" stroke="#231F20" stroke-miterlimit="10"/>
<path opacity="0.21" d="M59.0728 7.9043C58.7177 8.73014 58.5448 9.61807 58.5651 10.5117" stroke="#231F20" stroke-miterlimit="10"/>
<path opacity="0.21" d="M36.7237 9.80906C36.7936 10.2058 36.8926 10.5971 37.0198 10.9804C43.4717 8.2711 48.5592 8.63777 48.6544 8.15906C48.4503 7.25419 48.0581 6.39844 47.5015 5.64332C47.2054 5.22573 45.2487 2.58777 42.0121 2.79147C41.0901 2.87745 40.2002 3.16307 39.4089 3.62693C38.6177 4.09079 37.9456 4.72091 37.4429 5.47017C36.6528 6.78059 36.3965 8.32692 36.7237 9.80906Z" fill="#F5F5F5" stroke="#231F20" stroke-miterlimit="10"/>
<path opacity="0.21" d="M36.9873 10.9902H36.9966" stroke="#231F20" stroke-miterlimit="10"/>
<path opacity="0.21" d="M36.5967 11.1434L37.0198 10.9805" stroke="#231F20" stroke-miterlimit="10" stroke-linecap="round"/>
<path opacity="0.21" d="M51.8274 8.08789C50.7697 8.16937 49.712 8.00641 48.6543 8.15919" stroke="#231F20" stroke-miterlimit="10" stroke-linecap="round"/>
<path opacity="0.21" d="M104.585 32.0026H106.362C106.305 31.9137 106.241 31.8287 106.171 31.748C105.928 31.3915 105.664 31.0554 105.399 30.7295C105.101 30.9852 104.866 31.3019 104.712 31.6563C104.658 31.7677 104.616 31.8837 104.585 32.0026Z" stroke="#231F20" stroke-miterlimit="10"/>
<path d="M104.553 32.135L105.23 32.0026H106.361C106.304 31.9137 106.241 31.8287 106.171 31.748C105.928 31.3915 105.663 31.0554 105.399 30.7295C105.101 30.9852 104.866 31.3019 104.711 31.6563C104.665 31.7684 104.63 31.8843 104.606 32.0026C104.577 32.0419 104.558 32.0874 104.553 32.135Z" fill="#E6E7E8"/>
<path opacity="0.69" d="M19.3135 47.0766L21.8096 47.6164L22.0529 36.8404L19.6837 36.4229L19.3135 47.0766Z" fill="#E6E7E8"/>
<path opacity="0.69" d="M17.5479 46.9745L18.4258 47.0865L18.6797 36.3207L17.8123 36.168L17.5479 46.9745Z" fill="#E6E7E8"/>
<path opacity="0.69" d="M43.958 51.518L46.4647 52.0476L46.708 41.2819L44.3388 40.8643L43.958 51.518Z" fill="#E6E7E8"/>
<path opacity="0.69" d="M42.001 50.9369L42.8894 51.0591L43.1327 40.2934L42.2654 40.1406L42.001 50.9369Z" fill="#E6E7E8"/>
<path opacity="0.69" d="M19.0389 53.8401C19.2668 53.9949 19.4575 54.1951 19.5979 54.427C19.7385 54.659 19.8255 54.9173 19.8533 55.1846C19.8132 55.5298 19.685 55.8603 19.4801 56.1464C19.2753 56.4325 19.0002 56.6654 18.6793 56.8244C18.201 57.0069 17.6869 57.086 17.1733 57.0561C16.6596 57.0263 16.1591 56.8879 15.7072 56.6512C15.0408 56.417 14.3428 56.1623 14.0889 55.5309C13.962 55.1416 13.9884 54.721 14.163 54.3494C14.8822 53.0966 17.6639 52.7096 19.0389 53.8401Z" fill="#E6E7E8"/>
<path opacity="0.2" d="M37.3472 46.8834C37.4107 48.2991 38.6799 49.6436 38.7434 51.0593C35.9405 50.7436 29.4357 50.2954 26.6328 49.9797L31.3395 45.2334C32.5136 45.7223 36.1732 46.4047 37.3472 46.8834Z" fill="#18122B"/>
<path opacity="0.3" d="M45.7131 3.92188C45.2557 4.15705 44.8499 4.47525 44.518 4.85891C43.6295 5.87743 43.1006 7.71076 43.8516 8.54595C44.6026 9.38113 46.6968 9.37095 48.5266 7.8941L45.7131 3.92188Z" fill="#18122B"/>
<path opacity="0.3" d="M68.8773 6.1628C68.3697 6.31557 68.0206 6.95724 67.46 8.30168C67.0165 9.3309 66.6629 10.3938 66.4023 11.4795C68.4331 12.0193 73.5946 11.8767 73.9648 11.9989C73.9805 12.009 73.9989 12.0144 74.0177 12.0144C74.0366 12.0144 74.055 12.009 74.0706 11.9989C74.1975 11.9072 77.2437 11.8767 76.9264 11.4184C76.0697 10.0434 73.8908 10.5119 73.8908 10.5119C73.3137 10.4211 72.7719 10.1849 72.3204 9.82705C71.869 9.46924 71.524 9.00269 71.3206 8.47483C70.1571 6.26465 69.4485 5.98965 68.8773 6.1628Z" fill="#18122B"/>
<path opacity="0.1" d="M64.7736 94.4482C63.4515 94.4482 63.5679 96.7806 63.4621 98.8788C63.3528 101.586 64.146 104.256 65.7256 106.497C66.9207 108.27 74.7477 112.894 76.3025 113.087C78.7457 113.393 75.4246 107.577 76.3025 105.957C76.6158 104.851 76.4836 103.673 75.9323 102.657C74.4304 99.3677 65.9054 94.4686 64.7736 94.4482Z" fill="#18122B"/>
<path opacity="0.3" d="M75.8051 88.2861L68.5176 96.1797L70.4214 97.0861L76.9157 90.2926L75.8051 88.2861Z" fill="#18122B"/>
<path d="M73.4675 86.7383L72.6954 87.3698L70.9396 88.8161L68.6445 90.7003C68.6445 90.7003 68.1157 91.1892 65.958 93.6438L67.0157 94.5299C67.5989 93.7725 68.2313 93.0514 68.909 92.3707C69.6055 91.6085 70.3896 90.9252 71.2465 90.3337C72.5686 89.4985 73.2771 89.5392 73.9541 88.6022C74.1127 88.3781 74.6627 87.5837 74.356 87.1457C74.2479 87.0194 74.1122 86.9174 73.9587 86.8471C73.8052 86.7767 73.6376 86.7395 73.4675 86.7383Z" fill="white"/>
<path d="M104.553 32.135L105.23 32.0026H106.361C106.304 31.9137 106.241 31.8287 106.171 31.748C105.928 31.3915 105.663 31.0554 105.399 30.7295C105.101 30.9852 104.866 31.3019 104.711 31.6563C104.665 31.7684 104.63 31.8843 104.606 32.0026C104.577 32.0419 104.558 32.0874 104.553 32.135Z" stroke="#231F20" stroke-miterlimit="10"/>
<path d="M109.281 36.9425H109.398H109.514L109.44 36.8203L109.366 36.912L109.281 36.9425Z" stroke="#231F20" stroke-miterlimit="10"/>
<path d="M33.4657 130.86L38.0773 123.913L48.6542 112.302L48.834 112.109C49.2097 114.1 49.7509 116.059 50.4523 117.965L41.4196 127.804L34.6715 131.97C34.5084 132.054 34.3219 132.086 34.1386 132.062C33.9554 132.038 33.7847 131.959 33.6511 131.835C33.5174 131.712 33.4275 131.552 33.3942 131.377C33.3609 131.202 33.386 131.021 33.4657 130.86ZM64.8686 94.4988L71.2994 87.4507C71.6757 87.0266 72.2022 86.7522 72.7768 86.6807C73.3514 86.6092 73.933 86.7457 74.409 87.0636C74.5456 87.1613 74.673 87.2704 74.7898 87.3896L76.0907 88.7951C76.4815 89.1764 76.7006 89.6905 76.7006 90.2261C76.7006 90.7619 76.4815 91.2759 76.0907 91.6572L70.21 97.4831L69.9561 97.2794C69.808 97.147 69.6282 97.0146 69.4273 96.8516C68.0433 95.8402 66.4811 95.0778 64.8157 94.6007L64.8686 94.4988ZM110.899 151.047C110.762 149.672 110.667 148.297 110.614 146.912C110.677 148.297 110.762 149.672 110.899 151.047Z" stroke="#231F20" stroke-miterlimit="10"/>
<path d="M99.1168 40.9043L98.7783 40.3543M109.366 36.8506H109.535C115.476 47.0574 119.86 58.0339 122.555 69.4432C122.978 71.2052 123.264 72.4987 123.433 73.3848H123.338C123.137 72.3663 122.745 70.4719 122.09 67.8848C119.402 57.043 115.173 46.6101 109.524 36.8811H109.408H109.292L109.366 36.8506Z" stroke="#231F20" stroke-miterlimit="10" stroke-linecap="round"/>
<path d="M1.43851 164.145C3.55389 154.978 5.45774 152.941 6.43082 152.055C7.32655 151.207 8.33271 150.475 9.42409 149.876C9.27835 149.835 9.12992 149.804 8.97985 149.784L9.17024 149.672C9.8517 149.297 10.5908 149.029 11.3596 148.878C11.3596 148.694 11.3596 148.531 11.3596 148.348C10.9491 142.664 10.8644 136.961 11.1058 131.267L11.3808 131.033C12.1212 114.533 15.4635 103.798 16.4683 100.712C16.6798 100.06 16.8702 99.4895 17.05 98.9904L16.6692 99.1432L16.7962 98.7867C17.9808 95.395 18.3933 94.9163 19.0385 92.4107C17.8644 91.6774 16.5212 90.7709 14.9346 89.7015C11.2433 87.2061 7.36159 84.6089 4.53755 79.5163C1.82788 74.48 0.881787 68.7351 1.84043 63.1385C2.37985 59.258 3.14139 53.7987 7.50966 51.1709C9.62505 49.8978 11.7404 49.8163 14.1308 49.745C15.1507 49.7152 16.1716 49.7458 17.1875 49.8367C17.1875 49.2969 17.1875 48.8182 17.1875 48.2682H17.4413L26.6539 49.8978L31.6144 45.3552L37.3683 46.8015L39.674 52.2404H39.8539L39.9279 52.4033L55.9942 55.8052L62.6154 57.1496L69.4375 56.62L71.3837 45.0904L95.5731 43.0533L98.8519 47.9524H98.9577L99.1058 48.1663L103.252 47.657L102.363 46.2006L101.824 45.3043L101.2 44.2858L100.914 43.8172C100.647 43.3691 100.403 42.9719 100.185 42.6256L99.7615 41.9228C99.5606 41.607 99.4019 41.332 99.2538 41.0876L99.1163 40.8737L98.7779 40.3237L98.3865 39.682H98.2596L98.1327 39.4783L63.7471 40.4459L53.5827 38.9182L18.3404 33.632C18.8496 31.5285 19.5033 29.4597 20.2971 27.4395C20.4758 27.713 20.6774 27.9719 20.9 28.2135C21.0772 28.4101 21.2757 28.5877 21.4923 28.7432C23.0311 29.8113 24.7585 30.6015 26.5904 31.0756C27.5317 31.3709 28.5683 31.6561 29.6471 31.9311C37.3155 33.6787 45.0859 34.9814 52.9163 35.832L53.5192 35.9033C65.0798 37.2274 77.9731 37.8385 86.149 37.9404C92.5798 38.0015 98.0163 38.2459 102.014 38.195H103.273L104.458 38.1746H104.775L105.833 38.083L106.372 38.0117C106.732 37.9608 107.049 37.9098 107.345 37.8385L107.673 37.757L107.969 37.6756C108.131 37.6258 108.29 37.568 108.445 37.5024L108.741 37.3598L108.942 37.2274C108.984 37.2082 109.023 37.1842 109.059 37.1561L109.281 36.9728H109.397C118.842 52.8719 122.333 69.5654 123.084 73.2422H123.179V73.4256C123.179 73.507 123.179 73.5885 123.179 73.6598C123.242 73.9756 123.295 74.2913 123.359 74.5969C123.422 74.9024 123.475 75.1978 123.528 75.5033C123.581 75.8089 123.528 75.8395 123.443 76.0024C119.932 97.1672 112.517 106.558 112.105 114.228L111.978 116.366C111.893 117.782 111.798 119.178 111.692 120.563C111.692 121.255 111.597 121.948 111.544 122.6V123.038C111.544 123.241 111.544 123.435 111.544 123.639C111.449 124.8 111.364 125.94 111.28 127.071C111.28 127.407 111.227 127.753 111.206 128.09C111.121 129.108 111.047 130.127 110.984 131.145C110.931 131.919 110.878 132.683 110.836 133.447C110.74 134.975 110.666 136.503 110.613 137.979C110.613 138.733 110.613 139.477 110.55 140.22C110.55 142.42 110.55 144.6 110.613 146.769C110.666 148.154 110.762 149.529 110.899 150.904C109.919 150.626 108.88 150.599 107.885 150.823C106.953 151.084 106.087 151.526 105.339 152.122C104.591 152.716 103.978 153.454 103.537 154.286C102.74 155.756 102.385 157.411 102.512 159.065C102.639 160.719 103.243 162.306 104.257 163.646C104.682 164.235 105.191 164.762 105.769 165.215C107.527 166.554 109.658 167.36 111.893 167.527C113.061 167.74 114.252 167.805 115.437 167.72C115.712 168.178 116.008 168.667 116.336 169.166C116.663 169.665 116.833 169.94 117.097 170.328C115.785 172.632 114.178 174.77 112.316 176.693C107.313 181.592 101.507 183.395 93.2779 185.534C80.9135 188.753 74.7365 190.352 68.4327 191.126C57.0731 192.521 55.9308 190.678 38.6692 191.126C38.2644 191.139 37.8612 191.184 37.4635 191.258C32.9577 192.093 28.801 192.643 19.0067 190.565C10.6615 188.803 7.60485 186.665 6.31447 185.626C4.0442 183.925 2.17943 181.775 0.846202 179.321H0.994279C0.551381 178.446 0.197176 177.532 -0.063414 176.591C-0.824952 173.74 -0.0739929 170.582 1.43851 164.145ZM65.0269 94.6515C66.6923 95.1286 68.2545 95.891 69.6385 96.9024C69.8394 97.0654 70.0192 97.1978 70.1673 97.3302L70.4212 97.5339L76.3019 91.708C76.6927 91.3267 76.9119 90.8127 76.9119 90.277C76.9119 89.7413 76.6927 89.2272 76.3019 88.8459L75.001 87.4709C74.8843 87.3518 74.7568 87.2427 74.6202 87.145C74.3925 86.9358 74.123 86.7732 73.8281 86.6673C73.5332 86.5613 73.219 86.5139 72.9045 86.5282C72.5902 86.5426 72.282 86.6181 71.9987 86.7503C71.7155 86.8826 71.4631 87.0689 71.2567 87.2978L64.7308 94.4274L65.0798 94.5293L65.0269 94.6515ZM33.7721 131.878C33.9045 132.043 34.0972 132.154 34.3111 132.189C34.5251 132.223 34.7445 132.177 34.925 132.062L41.6731 127.896L50.6846 118.047C49.9833 116.139 49.4421 114.181 49.0664 112.19L48.8865 112.384C48.8865 112.252 48.8865 112.119 48.8125 111.987L38.0769 123.73L33.4971 130.626C33.4171 130.721 33.36 130.832 33.3303 130.952C33.3005 131.071 33.2988 131.195 33.3251 131.315C33.3515 131.435 33.4052 131.547 33.4825 131.645C33.5599 131.743 33.6588 131.822 33.7721 131.878ZM23.2692 59.8283C25.9452 59.6348 26.3788 59.1052 26.5163 58.8098C26.8971 57.8932 25.649 56.62 25.2471 56.2126C25.0046 55.9664 24.7429 55.7383 24.4644 55.5302C23.1675 54.5399 21.6047 53.9253 19.9587 53.758C19.0929 53.6477 18.2184 53.6135 17.3462 53.6561C15.5692 53.7274 13.7606 54.145 13.2952 55.3163C13.2073 55.6615 13.1938 56.0204 13.2556 56.3708C13.3175 56.7211 13.4533 57.0556 13.6548 57.3533C13.8967 57.7519 14.2206 58.0985 14.6067 58.3719C15.5913 59.1671 16.8064 59.6507 18.0865 59.757C19.807 59.9533 21.5438 59.9773 23.2692 59.8283Z" stroke="#231F20" stroke-miterlimit="10" stroke-linecap="round"/>
<path d="M103.918 107.984C103.918 108.198 104.013 108.412 104.056 108.626C105.113 114.085 101.94 118.556 99.2008 122.539C95.9273 127.213 91.3982 130.945 86.096 133.335C82.3623 134.995 74.6412 138.428 65.9998 135.372C63.018 134.359 60.295 132.744 58.0132 130.637C55.7313 128.529 53.9431 125.976 52.7681 123.15C52.3873 122.131 51.5412 120.268 50.7056 117.976M36.6806 157.647C33.571 156.7 31.0431 159.806 26.2835 158.167C23.6075 157.24 21.2489 155.172 18.721 152.962C15.8229 150.426 15.421 149.407 13.7287 149.061C13.0307 148.924 12.3113 148.924 11.6133 149.061M82.1085 96.2812C80.6436 96.6707 79.2857 97.3662 78.1316 98.3183C76.8052 99.4506 75.7851 100.877 75.1594 102.474C73.9087 100.549 72.3027 98.8612 70.421 97.4933" stroke="#231F20" stroke-miterlimit="10"/>
<path d="M29.5206 54.0125C26.559 51.8024 21.9264 50.4274 17.4629 50.0811M25.6071 94.7125C23.8619 95.0792 22.0533 94.3255 19.3139 92.6144" stroke="#231F20" stroke-miterlimit="10"/>
<path d="M65.0273 94.652C66.6926 95.129 68.2548 95.8915 69.6389 96.9029C69.8398 97.0659 70.0197 97.1983 70.1677 97.3307L70.4216 97.5344L76.3023 91.7085C76.6931 91.3273 76.9122 90.8131 76.9122 90.2775C76.9122 89.7418 76.6931 89.2277 76.3023 88.8464L75.0014 87.4714C74.8846 87.3523 74.7572 87.2432 74.6206 87.1455C74.1484 86.8239 73.5689 86.6824 72.9946 86.7482C72.4202 86.814 71.8917 87.0826 71.511 87.502L65.0802 94.5502L65.0273 94.652Z" stroke="#231F20" stroke-miterlimit="10"/>
<path d="M11.3388 131.023C12.0792 114.523 15.4215 103.788 16.4263 100.702C16.6378 100.05 16.8282 99.4795 17.008 98.9805L16.6273 99.1332C16.4898 99.5407 16.3311 99.999 16.1725 100.498C15.1148 103.553 11.8253 114.319 11.085 130.819C11.085 130.962 11.085 131.104 11.085 131.257L11.3388 131.023Z" stroke="#231F20" stroke-miterlimit="10"/>
<path d="M13.9515 57.5262C14.1363 57.8418 14.3719 58.1271 14.6496 58.3716C15.6341 59.1667 16.8492 59.6504 18.1294 59.7568C19.8523 59.9293 21.5891 59.9293 23.3121 59.7568C25.9881 59.5632 26.4217 59.0336 26.5592 58.7382C26.94 57.8216 25.6919 56.5484 25.29 56.141C25.0474 55.8948 24.7857 55.6667 24.5073 55.4586C23.2623 54.591 21.8043 54.0505 20.2765 53.8901C19.4107 53.7798 18.5362 53.7457 17.664 53.7882C15.8871 53.8595 14.0785 54.2771 13.6131 55.4484C13.5159 55.7984 13.4958 56.1639 13.5541 56.5218C13.6123 56.8797 13.7477 57.2218 13.9515 57.5262Z" stroke="#231F20" stroke-miterlimit="10"/>
<path d="M18.5944 33.8667L53.8367 39.1936L64.0012 40.7213L62.7108 55.9991L62.6367 56.9667V57.1908L56.0156 55.8463L39.9281 52.5667L39.854 52.4038L37.5588 46.9751L37.3685 46.9241L31.6146 45.4778L26.654 50.0204L17.4204 48.3602H17.1665L13.4858 47.7084L12.5127 33.001L18.5944 33.8667ZM38.4367 45.3047L43.3021 51.4158L55.5713 53.4528L58.0569 53.8704L58.4165 43.1149L54.1858 42.3713L38.4579 39.6417L38.4367 45.3047ZM14.8079 46.5473L17.3675 46.9445L25.2473 48.1667L29.6156 44.2862V37.8084L18.055 36.3213L14.8819 35.9038L14.8079 46.5473Z" stroke="#231F20" stroke-miterlimit="10"/>
<path d="M38.4365 39.5801V45.3042L43.3019 51.4153L55.5711 53.4523L58.0567 53.8699L58.4163 43.1143L54.1856 42.3708L38.4365 39.5801Z" stroke="#231F20" stroke-miterlimit="10"/>
<path d="M14.8506 35.9033V46.5468L17.4102 46.9441L25.29 48.1663L29.616 44.2552V37.8079L18.0554 36.3209L14.8506 35.9033Z" stroke="#231F20" stroke-miterlimit="10"/>
<path d="M110 32.0029H110.455C110.304 32.0138 110.151 32.0138 110 32.0029Z" stroke="#231F20" stroke-miterlimit="10"/>
<path d="M19.768 25.1485C19.7094 26.0533 19.9868 26.9486 20.5507 27.6745C20.7292 27.9479 20.9309 28.2068 21.1536 28.4485C21.2555 28.5671 21.3689 28.6762 21.492 28.7745C23.0309 29.8426 24.7582 30.6329 26.5901 31.1069C27.5315 31.4022 28.568 31.6874 29.6468 31.9624C37.3152 33.71 45.0855 35.0126 52.9161 35.8634L53.519 35.9347C65.0795 37.2587 77.9728 37.8698 86.1488 37.9717C92.5795 38.0328 98.0161 38.2772 102.014 38.2263H103.273L104.457 38.1754H104.775L105.832 38.0837L106.372 38.0124C106.731 37.9615 107.049 37.9106 107.345 37.8393L107.673 37.7578L107.969 37.6763C108.131 37.6264 108.289 37.5687 108.445 37.5032L108.741 37.3606L108.942 37.2282C108.983 37.2088 109.022 37.1849 109.058 37.1569L109.28 36.9735L109.365 36.8513L109.45 36.7495L109.524 36.8717C109.947 36.7087 110.412 36.505 110.888 36.2708C111.862 36.9695 112.737 37.7878 113.49 38.705C113.487 38.7253 113.487 38.7459 113.49 38.7661L113.554 38.8476L114.082 39.5708C115.043 40.9561 115.721 42.5045 116.081 44.1337C116.338 45.4505 116.374 46.7986 116.187 48.1263C116.193 48.1839 116.193 48.2418 116.187 48.2995H118.43H120.143H120.577C120.577 48.1671 120.577 48.0347 120.577 47.8921C120.577 47.5763 120.577 47.2402 120.577 46.8735C120.572 46.8567 120.572 46.8393 120.577 46.8226C120.492 45.5834 120.266 44.357 119.9 43.1661C119.884 43.1036 119.862 43.0423 119.836 42.9828C119.567 42.0682 119.212 41.1786 118.779 40.3245C117.709 38.0371 115.957 36.1081 113.744 34.7837C112.842 34.1452 111.794 33.7259 110.687 33.5615C110.781 33.0314 110.7 32.4861 110.455 32.0032H110C110.144 32.0133 110.29 32.0133 110.433 32.0032C110.387 31.9189 110.33 31.8403 110.264 31.7689C109.418 30.893 107.472 31.4022 106.171 31.7689C106.241 31.8495 106.304 31.9346 106.361 32.0235H105.23L104.553 32.156C99.7189 33.0726 96.017 32.6652 87.6295 32.0235C85.8209 31.8809 83.8113 31.7384 81.5161 31.5856C67.3747 30.6587 58.9132 30.1291 52.9584 29.7115C46.2526 29.243 42.7093 28.9171 37.7699 28.3059C33.9178 27.6659 30.172 26.5321 26.6324 24.9347C25.0036 24.2319 23.6497 23.5698 22.7613 23.1217C22.3982 22.9427 22.0451 22.7456 21.7036 22.5309C20.7728 21.8791 19.3343 23.1319 19.768 25.1485Z" stroke="#231F20" stroke-miterlimit="10"/>
<path d="M105.23 32.0027H106.362C106.305 31.9138 106.242 31.8287 106.172 31.748L105.23 32.0027Z" stroke="#231F20" stroke-miterlimit="10"/>
<path d="M110 32.0029H110.455C110.304 32.0138 110.151 32.0138 110 32.0029Z" stroke="#231F20" stroke-miterlimit="10"/>
<path d="M104.553 32.135L105.23 32.0026H106.361C106.304 31.9137 106.241 31.8287 106.171 31.748C105.928 31.3915 105.663 31.0554 105.399 30.7295C105.101 30.9852 104.866 31.3019 104.711 31.6563C104.665 31.7684 104.63 31.8843 104.606 32.0026C104.577 32.0419 104.558 32.0874 104.553 32.135Z" stroke="#231F20" stroke-miterlimit="10"/>
<path d="M109.281 36.9425H109.398H109.514L109.44 36.8203L109.366 36.912L109.281 36.9425Z" stroke="#231F20" stroke-miterlimit="10"/>
<path d="M105.399 30.7088C105.664 31.0551 105.928 31.3912 106.172 31.7273C107.473 31.3505 109.419 30.8412 110.265 31.7273C110.33 31.7987 110.388 31.8774 110.434 31.9616C110.68 32.4446 110.761 32.9899 110.667 33.5199C111.747 33.6648 112.775 34.052 113.671 34.6505C115.894 35.9773 117.655 37.9139 118.726 40.2116C119.16 41.0658 119.514 41.9554 119.784 42.8699C119.81 42.9295 119.831 42.9907 119.848 43.0533L121.836 42.6459C121.836 42.5644 121.836 42.4727 121.836 42.3709C121.725 41.1702 121.476 39.985 121.096 38.8366V38.7857C120.657 37.4483 120.019 36.179 119.202 35.0172L118.79 34.4264L118.409 33.9273L118.176 33.6523C117.184 32.3949 115.953 31.3303 114.549 30.5153C114.344 30.3913 114.132 30.279 113.914 30.1792C113.75 30.0958 113.581 30.0243 113.406 29.9653C112.888 29.7543 112.35 29.594 111.799 29.4866C110.55 29.2348 109.258 29.2627 108.023 29.5681C107.072 29.7595 106.177 30.1488 105.399 30.7088Z" stroke="#231F20" stroke-miterlimit="10"/>
<path d="M110 32.0029H110.455C110.304 32.0138 110.151 32.0138 110 32.0029Z" stroke="#231F20" stroke-miterlimit="10"/>
<path d="M109.281 36.9425H109.398H109.514L109.44 36.8203L109.366 36.912L109.281 36.9425Z" stroke="#231F20" stroke-miterlimit="10"/>
<path d="M62.6152 57.1502L69.4374 56.6206L71.3835 45.091L95.5729 43.0539H95.6893L98.9575 47.953L99.1056 48.1669L103.252 47.6576L102.363 46.2011L101.824 45.3048L101.2 44.2863L100.914 43.8178C100.646 43.3697 100.403 42.9724 100.184 42.6261L99.7614 41.9234C99.5604 41.6076 99.4018 41.3326 99.2537 41.0882L99.1162 40.8743L98.7777 40.3243L98.3864 39.6826H98.2595L64.0008 40.7011L62.7104 55.9789L62.6364 56.9465L62.6152 57.1502Z" stroke="#231F20" stroke-miterlimit="10"/>
<path d="M104.553 32.135L105.23 32.0026H106.361C106.304 31.9137 106.241 31.8287 106.171 31.748C105.928 31.3915 105.663 31.0554 105.399 30.7295C105.101 30.9852 104.866 31.3019 104.711 31.6563C104.665 31.7684 104.63 31.8843 104.606 32.0026C104.577 32.0419 104.558 32.0874 104.553 32.135Z" stroke="#231F20" stroke-miterlimit="10"/>
<path d="M71.3945 11.6927C71.5262 10.9923 71.5262 10.2747 71.3945 9.57422" stroke="#231F20" stroke-miterlimit="10"/>
<path d="M59.0728 7.9043C58.7177 8.73014 58.5448 9.61807 58.5651 10.5117" stroke="#231F20" stroke-miterlimit="10"/>
<path d="M36.7237 9.80906C36.7936 10.2058 36.8926 10.5971 37.0198 10.9804C43.4717 8.2711 48.5592 8.63777 48.6544 8.15906C48.4503 7.25419 48.0581 6.39844 47.5015 5.64332C47.2054 5.22573 45.2487 2.58777 42.0121 2.79147C41.0901 2.87745 40.2002 3.16307 39.4089 3.62693C38.6177 4.09079 37.9456 4.72091 37.4429 5.47017C36.6528 6.78059 36.3965 8.32692 36.7237 9.80906Z" stroke="#231F20" stroke-miterlimit="10"/>
<path d="M22.7617 23.1413C23.6502 23.5895 25.004 24.2515 26.6329 24.9543C30.1584 26.5299 33.886 27.6465 37.7175 28.2746C42.6569 28.8858 46.179 29.2117 52.906 29.6802C58.8608 30.0978 67.3223 30.6274 81.4636 31.5543C83.7588 31.7071 85.7684 31.8496 87.5771 31.9922C96.0386 32.6339 99.7194 33.0108 104.5 32.1246C104.489 32.0812 104.489 32.0358 104.5 31.9922C104.559 31.8737 104.63 31.761 104.712 31.6561C104.87 31.2924 105.112 30.9683 105.42 30.7089C104.219 29.13 102.923 27.6199 101.539 26.1867C101.116 25.7487 100.333 24.9645 99.1906 23.9358C93.9834 19.3306 88.0041 15.6079 81.5059 12.9256C78.2212 11.5421 74.8209 10.428 71.3415 9.59506C71.108 8.47549 70.5964 7.42706 69.8502 6.5395C69.3849 6.00901 68.8393 5.54893 68.2319 5.17468C67.0499 4.39135 65.6205 4.03102 64.1915 4.15617C63.2806 4.25161 62.4048 4.54785 61.6319 5.02191C60.9142 5.45305 60.2894 6.01324 59.7915 6.67191C59.5156 7.0496 59.2849 7.45622 59.104 7.88394C56.6764 7.80224 54.2457 7.87028 51.8271 8.08765C50.7694 8.16913 49.7117 8.29135 48.654 8.44413C48.6415 8.34825 48.6239 8.25306 48.6011 8.15894C48.5377 8.63765 43.4502 8.27098 36.9665 10.9802L36.5752 11.133C34.1205 12.0895 31.8282 13.394 29.7742 15.0033C28.6365 15.8864 27.5753 16.8573 26.6011 17.9061C25.1228 19.5081 23.8351 21.264 22.7617 23.1413Z" stroke="#231F20" stroke-miterlimit="10"/>
<path d="M36.9873 10.9902H36.9966" stroke="#231F20" stroke-miterlimit="10"/>
<path d="M36.5967 11.1434L37.0198 10.9805" stroke="#231F20" stroke-miterlimit="10" stroke-linecap="round"/>
<path d="M51.8274 8.08789C50.7697 8.16937 49.712 8.00641 48.6543 8.15919" stroke="#231F20" stroke-miterlimit="10" stroke-linecap="round"/>
<path d="M110 32.0029H110.455C110.304 32.0138 110.151 32.0138 110 32.0029Z" stroke="#231F20" stroke-miterlimit="10"/>
<path d="M104.585 32.0026H106.362C106.305 31.9137 106.241 31.8287 106.171 31.748C105.928 31.3915 105.664 31.0554 105.399 30.7295C105.101 30.9852 104.866 31.3019 104.712 31.6563C104.658 31.7677 104.616 31.8837 104.585 32.0026Z" stroke="#231F20" stroke-miterlimit="10"/>
<path d="M65.0269 94.6512C64.0742 94.3961 63.0953 94.2424 62.1077 94.1928C60.1553 94.0544 58.1952 94.3322 56.3671 95.0064C54.5388 95.6807 52.8876 96.7348 51.5308 98.0937C50.2107 99.5791 49.2575 101.333 48.7427 103.224C48.2279 105.116 48.165 107.095 48.5587 109.012L49.1087 112.2" stroke="#231F20" stroke-miterlimit="10"/>
<path d="M21.8838 85.8618C22.2117 84.8942 25.3848 84.7109 30.2607 85.0266" stroke="#231F20" stroke-miterlimit="10"/>
<path d="M28.4102 20.4224C28.4102 17.6622 31.4669 15.6659 33.138 14.5659C37.1678 11.9177 41.24 11.2863 44.614 10.7974C46.9303 10.4613 49.564 10.2881 49.6063 10.5427C49.6486 10.7974 45.8727 11.8363 42.8582 12.5798C39.315 13.4964 38.3525 13.5983 36.7871 14.5252C35.4783 15.3098 34.2954 16.274 33.2755 17.3872C30.6419 20.1066 29.8803 22.3983 29.0448 22.1946C28.5582 22.1131 28.4102 21.115 28.4102 20.4224Z" fill="#F4E9EA"/>
<path d="M12.8828 51.1097C12.3108 50.9171 11.7036 50.8402 11.0994 50.884C10.4951 50.9278 9.90677 51.0914 9.37121 51.3644C8.41444 51.7097 7.54534 52.248 6.82217 52.9431C6.46207 53.2946 6.13962 53.6803 5.85967 54.094C4.942 55.2591 4.50832 56.7117 4.64332 58.1681C4.81255 59.1866 5.39428 60.2968 5.85967 60.2051C6.32505 60.1134 6.12409 58.5347 6.91736 56.956C8.69428 53.544 14.0885 53.3606 13.9404 52.0162C13.9193 51.5782 13.3058 51.3032 12.8828 51.1097Z" fill="#F4E9EA"/>
<path d="M61.3471 94.6619C62.9125 94.9572 62.9654 95.1304 62.9654 95.1813C62.9654 95.2322 62.9019 95.4563 61.0721 95.9656C59.8436 96.206 58.629 96.5086 57.4336 96.872C56.5622 97.2875 55.7828 97.8616 55.1384 98.5628C53.15 100.437 52.8009 101.924 52.1663 101.812C51.5317 101.7 51.1086 100.294 51.3519 99.0822C51.6904 97.3711 53.3509 96.4239 54.7471 95.6193C55.9284 94.8543 57.3025 94.4109 58.724 94.3359C59.6084 94.3483 60.4885 94.4575 61.3471 94.6619Z" fill="#F4E9EA"/>
</g>
</svg>
