<svg width="156" height="120" viewBox="0 0 156 120" fill="none" xmlns="http://www.w3.org/2000/svg">
<g clip-path="url(#clip0_1052_13243)">
<path d="M139.836 69.4439C139.825 69.3919 139.825 69.3383 139.836 69.2863C136.97 52.7924 133 40.9844 126.595 30.81C127.934 29.4631 128.961 27.8391 129.604 26.0525C129.977 25.035 132.055 18.8874 128.272 14.4738C127.131 13.2771 125.745 12.3412 124.209 11.7302C122.673 11.1193 121.023 10.8477 119.373 10.9342H119.287C116.695 10.9175 114.15 11.6221 111.935 12.9691L111.706 13.1411L111.563 12.9978C102.219 4.29941 90.2968 4.38539 82.9885 3.49692C75.5748 2.50363 68.0617 2.50363 60.6479 3.49692C54.4717 4.38539 47.3066 5.24519 40.2562 9.21462L40.1416 9.28627C34.5735 12.5255 29.2045 16.0953 24.0632 19.9765L23.877 20.1341C20.667 22.7709 18.016 26.8979 15.5082 30.7384C25.2956 25.1353 35.4556 30.4375 35.9142 30.7384C40.6851 33.356 44.3154 37.6501 46.1029 42.79C46.8976 44.7295 47.2783 46.8137 47.2206 48.9089C47.2277 48.9612 47.2277 49.0142 47.2206 49.0665C47.2439 50.0779 47.1816 51.0894 47.0343 52.0902C47.0066 52.3315 46.9635 52.5708 46.9054 52.8067H46.7764C46.7844 52.8877 46.7844 52.9693 46.7764 53.0503H46.4325C43.7619 53.2453 41.135 53.8345 38.6369 54.7986C34.6781 56.282 31.2066 58.8312 28.6059 62.1642C28.4339 62.3792 28.2906 62.5941 28.133 62.8234C27.5392 63.6895 27.0214 64.6052 26.5853 65.5605C26.2987 66.0369 26.0403 66.5297 25.8115 67.0365C25.5392 67.7816 25.2956 68.4695 25.0807 69.3006H24.9804C24.9804 69.3866 24.9804 69.4726 24.9087 69.5585C23.5328 69.4638 22.1696 69.2334 20.839 68.8707C17.1081 67.7582 13.7422 65.6692 11.0893 62.8198C8.43645 59.9705 6.59293 56.4641 5.74942 52.6634C3.52299 60.2579 2.08242 68.0609 1.4504 75.9498C-0.269212 96.4131 11.7251 111.775 13.4733 115.443L13.6596 115.873C20.2228 115.873 30.7124 121.147 40.8008 121.419C53.6978 121.777 64.1158 121.419 85.5536 114.354C98.2872 110.274 110.356 104.355 121.379 96.7857C125.297 94.3038 128.791 91.2071 131.725 87.6144L132.198 86.9982C132.442 86.683 132.671 86.3534 132.9 86.0381L133.66 84.9061C133.889 84.5478 134.104 84.2039 134.304 83.86L134.82 82.9572C137.285 78.5005 138.174 74.7174 139.377 72.5822C139.455 72.4293 139.541 72.281 139.635 72.138C139.73 71.9622 139.845 71.7986 139.979 71.6507C140.023 71.5609 140.081 71.4787 140.151 71.4071C140.079 70.7479 139.951 70.0888 139.836 69.4439ZM42.6923 67.5237C41.4456 68.5984 38.8232 69.9598 36.9603 68.7417C36.4788 68.4036 36.0897 67.9504 35.8282 67.4234C35.2797 66.4583 35.0443 65.3467 35.1547 64.2421C35.1788 63.8735 35.2869 63.5153 35.4707 63.1949C35.6545 62.8745 35.9091 62.6004 36.2151 62.3935C37.6978 61.5531 39.3108 60.9671 40.9871 60.6596C41.8446 60.4838 42.7208 60.4164 43.5951 60.4589C44.1253 60.4589 44.4979 60.6166 44.6269 60.8315C45.6443 62.5798 44.7272 65.7611 42.6923 67.5237ZM94.3666 63.3393C88.6345 69.4582 79.2197 68.8134 75.8235 68.5841C73.6925 68.4774 71.5739 68.1946 69.4896 67.7386H69.4036H69.2889C67.6943 67.4785 66.1359 67.0311 64.646 66.4059C62.0186 65.1972 59.7588 63.3132 58.0972 60.9462C55.3799 56.6974 54.4335 51.5538 55.4604 46.6161C55.5751 45.9569 55.6897 45.4267 55.7757 45.0398C56.1599 43.2675 56.7365 41.5424 57.4953 39.8953C58.4372 38.5726 59.5724 37.3987 60.8629 36.4131C64.8036 33.4611 69.2173 33.3608 74.1612 33.2462C79.6066 33.1315 84.4931 33.0169 88.4912 36.5421C93.8364 41.3283 93.1342 49.0092 93.0052 50.1986C92.6744 52.9549 91.6919 55.5927 90.1392 57.8939C91.786 55.5373 92.8247 52.8101 93.1628 49.955C93.2918 48.7656 93.994 41.0847 88.6489 36.2985C84.7081 32.7733 79.8215 32.8879 74.3188 33.0025C69.3749 33.1172 64.9613 33.2175 61.0205 36.1695C59.73 37.1551 58.5948 38.3289 57.6529 39.6517C59.841 34.5411 63.8796 30.4463 68.9594 28.1876C69.5039 27.9584 79.6066 23.774 88.4626 29.1621C99.8836 36.1408 102.391 54.7269 94.3666 63.3393Z" fill="white" stroke="#231F20" stroke-miterlimit="10"/>
<path d="M11.6529 119.484C11.5214 119.666 11.3277 119.794 11.1084 119.843L11.6529 119.484Z" stroke="#231F20" stroke-miterlimit="10"/>
<path d="M38.5935 54.584C38.5935 54.584 38.5935 54.6986 38.5935 54.7559C34.6347 56.2394 31.1632 58.7885 28.5625 62.1216L28.7345 61.878C31.2976 58.5965 34.7058 56.075 38.5935 54.584Z" stroke="#231F20" stroke-miterlimit="10"/>
<path d="M47.0342 49.2529C47.0574 50.2643 46.9951 51.2757 46.8479 52.2766C46.8331 52.4364 46.8044 52.5947 46.7619 52.7495C46.7699 52.8305 46.7699 52.9121 46.7619 52.9931H46.418C46.418 52.9214 46.418 52.8354 46.418 52.7638C46.4244 52.7259 46.4244 52.6871 46.418 52.6492C46.5113 52.3625 46.5878 52.0706 46.6472 51.775C46.6472 51.5457 46.7476 51.3021 46.7905 51.0585C46.8335 50.8149 46.8765 50.514 46.9052 50.2274C46.9339 49.9408 47.0198 49.5825 47.0342 49.2529Z" stroke="#231F20" stroke-miterlimit="10"/>
<path d="M47.0491 49.0948C47.0562 49.1471 47.0562 49.2002 47.0491 49.2525C47.0075 47.1143 46.6104 44.998 45.874 42.9902C46.6864 44.9211 47.0866 47.0004 47.0491 49.0948Z" stroke="#231F20" stroke-miterlimit="10"/>
<path d="M156.215 135.949C156.072 134.001 155.943 132.037 155.828 130.045L155.656 127.036C155.097 116.289 145.052 103.033 140.295 73.2554C140.295 73.0261 140.223 72.7825 140.18 72.5532C140.137 72.3239 140.08 71.9513 140.037 71.6504C139.903 71.7983 139.787 71.9619 139.693 72.1376C139.598 72.2807 139.512 72.429 139.435 72.5818C138.288 74.803 137.386 78.5718 134.878 82.9568L134.362 83.8596C134.161 84.2035 133.946 84.5475 133.717 84.9057L132.958 86.0378C132.728 86.353 132.499 86.6826 132.255 86.9979L131.782 87.6141C128.824 91.3153 125.269 94.4972 121.264 97.0289C110.227 104.619 98.1377 110.552 85.3817 114.641C63.8866 121.662 53.5976 122.064 40.6289 121.705C30.5405 121.39 20.0796 116.16 13.4877 116.074C12.7569 116.074 12.5133 118.467 11.6821 119.427C11.5506 119.609 11.3569 119.736 11.1376 119.785C10.9836 119.887 10.8353 119.997 10.6934 120.115L65.7495 127.538L67.4691 158.362L73.6883 158.247L73.5164 158.978C72.825 161.712 73.2314 164.608 74.6485 167.046C76.755 170.327 80.7817 171.158 84.1636 171.803C86.0538 172.162 87.9719 172.354 89.8957 172.376C90.7167 172.42 91.5394 172.42 92.3604 172.376H92.4751C97.738 172.006 102.894 170.711 107.708 168.55C109.774 167.692 111.776 166.686 113.698 165.541C112.58 166.043 127.311 156.943 130.02 151.34C130.908 150.106 131.901 148.951 132.986 147.886C132.227 148.961 131.381 150.079 130.464 151.225L132.585 150.623H132.671L135.867 149.678C149.853 145.379 153.908 141.954 156.172 139.346L156.516 138.944C156.316 137.898 156.215 136.924 156.215 135.949ZM139.019 136.551C142.172 128.799 143.017 122.823 142.286 117.636C144.078 123.009 142.329 128.813 139.019 136.551Z" fill="#20262E" stroke="#231F20" stroke-miterlimit="10"/>
<path d="M11.1093 119.843C10.9553 119.944 10.807 120.055 10.665 120.172L10.0488 120.086L11.1093 119.843Z" stroke="#231F20" stroke-miterlimit="10"/>
<path d="M140.452 71.2783C140.452 71.7082 140.294 72.1238 140.222 72.5537C140.222 72.2528 140.122 71.9518 140.079 71.6509C140.185 71.5094 140.31 71.3839 140.452 71.2783Z" stroke="#231F20" stroke-miterlimit="10"/>
<path d="M24.1491 20.3924C23.1321 19.356 22.4059 18.07 22.0436 16.6638C21.6814 15.2576 21.6959 13.7808 22.0856 12.3819C23.4183 7.45237 29.093 6.177 30.2537 5.91906C31.4145 5.66111 35.6275 4.701 38.5509 7.25175C39.2818 7.93446 39.8879 8.73947 40.3421 9.63054" fill="white"/>
<path d="M24.1491 20.3924C23.1321 19.356 22.4059 18.07 22.0436 16.6638C21.6814 15.2576 21.6959 13.7808 22.0856 12.3819C23.4183 7.45237 29.093 6.177 30.2537 5.91906C31.4145 5.66111 35.6275 4.701 38.5509 7.25175C39.2818 7.93446 39.8879 8.73947 40.3421 9.63054" stroke="#231F20" stroke-miterlimit="10"/>
<path d="M45.8739 42.9903C44.8527 40.6083 43.3251 38.4771 41.3974 36.7449C39.4697 35.0127 37.188 33.7209 34.7108 32.9592C26.7576 30.4371 20.0798 35.1374 19.3776 35.6819C18.6754 36.2265 11.5534 41.5572 12.0836 50.5709C12.0836 51.3447 12.7571 59.5272 19.8935 63.7402C21.8505 64.8963 24.0469 65.5876 26.3133 65.7607C26.0665 66.2775 25.8512 66.8086 25.6685 67.3514C25.4249 68.0106 25.2099 68.6841 25.0093 69.3576C23.6671 69.2655 22.3374 69.0399 21.0399 68.6841C18.0667 67.8059 15.3129 66.3088 12.9592 64.2911C10.6056 62.2733 8.70538 59.7805 7.38332 56.9764C6.65651 55.4591 6.1083 53.8625 5.74969 52.2188V52.663V52.4624C5.08027 49.3791 5.15889 46.1803 5.97897 43.1336C7.44005 38.011 10.8371 33.658 15.4512 30.996C25.2386 25.3929 35.3986 30.695 35.8572 30.996C40.5524 33.6323 44.1167 37.9003 45.8739 42.9903Z" fill="white" stroke="#231F20" stroke-miterlimit="10"/>
<path d="M25.0086 69.2859C25.0086 69.3718 25.0086 69.4578 24.937 69.5438C23.5611 69.449 22.1979 69.2186 20.8672 68.856C17.1329 67.749 13.7622 65.6642 11.1042 62.8171C8.44612 59.9701 6.59728 56.4645 5.74902 52.663V52.2188C6.09455 53.8356 6.62341 55.4077 7.32533 56.9047C8.64739 59.7088 10.5476 62.2016 12.9013 64.2193C15.2549 66.2371 18.0087 67.7342 20.9819 68.6124C22.298 68.9719 23.6471 69.1976 25.0086 69.2859Z" stroke="#231F20" stroke-miterlimit="10"/>
<path d="M38.5935 54.584C38.5935 54.584 38.5935 54.6986 38.5935 54.7559C34.6347 56.2394 31.1632 58.7885 28.5625 62.1216L28.7345 61.878C31.2976 58.5965 34.7058 56.075 38.5935 54.584Z" stroke="#231F20" stroke-miterlimit="10"/>
<path d="M47.0342 49.2529C47.0574 50.2643 46.9951 51.2757 46.8479 52.2766C46.8331 52.4364 46.8044 52.5947 46.7619 52.7495C46.7699 52.8305 46.7699 52.9121 46.7619 52.9931H46.418C46.418 52.9214 46.418 52.8354 46.418 52.7638C46.4244 52.7259 46.4244 52.6871 46.418 52.6492C46.5113 52.3625 46.5878 52.0706 46.6472 51.775C46.6472 51.5457 46.7476 51.3021 46.7905 51.0585C46.8335 50.8149 46.8765 50.514 46.9052 50.2274C46.9339 49.9408 47.0198 49.5825 47.0342 49.2529Z" stroke="#231F20" stroke-miterlimit="10"/>
<path d="M46.7188 53.0214C48.3196 52.9211 49.9262 52.9642 51.5193 53.1503" stroke="#231F20" stroke-miterlimit="10"/>
<path d="M30.7838 96.5281C24.1633 89.707 22.1857 79.1458 24.9371 69.5303" stroke="#231F20" stroke-miterlimit="10"/>
<path d="M38.5935 54.584C38.5935 54.584 38.5935 54.6986 38.5935 54.7559C34.6347 56.2394 31.1632 58.7885 28.5625 62.1216L28.7345 61.878C31.2976 58.5965 34.7058 56.075 38.5935 54.584Z" stroke="#231F20" stroke-miterlimit="10"/>
<path d="M40.2564 44.6963C39.1428 45.3751 37.8872 45.7871 36.5879 45.9" stroke="#231F20" stroke-miterlimit="10"/>
<path d="M20.3379 46.8594H17.085" stroke="#231F20" stroke-miterlimit="10"/>
<path d="M81.6986 44.6963C81.102 45.1163 80.438 45.4313 79.7354 45.6277" stroke="#231F20" stroke-miterlimit="10"/>
<path d="M59.8883 47.9629H57.4092" stroke="#231F20" stroke-miterlimit="10"/>
<path d="M47.0339 49.2528C47.0339 49.5824 47.0339 49.9263 46.9622 50.2416C46.8906 50.5569 46.9622 50.8005 46.8476 51.0727C46.733 51.345 46.7616 51.56 46.7043 51.7893C46.6449 52.0848 46.5683 52.3767 46.475 52.6634C46.4814 52.7013 46.4814 52.7401 46.475 52.778C43.8174 52.9499 41.2 53.515 38.7081 54.4546L38.5505 54.5263C38.8399 51.7426 38.2698 48.9371 36.9169 46.4871C36.8309 46.3438 36.7162 46.1289 36.5443 45.8566C31.1564 46.5539 25.7265 46.8747 20.294 46.8167C19.6931 48.1065 19.3639 49.5062 19.3269 50.9286C19.2899 52.351 19.5459 53.7659 20.079 55.0852C21.021 57.7259 22.9389 59.9054 25.4385 61.1754C26.3928 61.6289 27.4056 61.9472 28.4478 62.1212C28.2758 62.3362 28.1325 62.5511 27.9749 62.7804C27.3075 63.7166 26.7317 64.7147 26.2553 65.7611C23.9889 65.5879 21.7925 64.8966 19.8354 63.7405C12.6704 59.5275 12.0685 51.345 12.0255 50.5712C11.5526 41.5576 18.646 36.2555 19.3769 35.6823C20.1077 35.1091 26.7569 30.4374 34.7674 32.9595C37.2341 33.7284 39.5045 35.0235 41.4219 36.7554C43.3393 38.4873 44.858 40.6146 45.8732 42.9906C46.6047 44.9992 46.9969 47.1155 47.0339 49.2528Z" fill="white"/>
<path d="M47.0343 49.253C47.0343 49.8262 46.9626 50.3994 46.8766 50.9726C46.7907 51.5458 46.6617 52.1047 46.5327 52.6779V52.8069C45.2274 52.95 43.9374 53.2089 42.6779 53.5807C41.4279 53.9592 40.2106 54.4384 39.0381 55.0137H38.9664L38.1496 55.5439V54.4692C38.2008 53.0172 38.0218 51.5662 37.6194 50.1701C37.4188 49.4823 37.1608 48.8231 36.9029 48.1639C36.6038 47.5363 36.2489 46.9368 35.8425 46.3727L36.7166 46.7596C33.9953 47.1611 31.2543 47.4146 28.5055 47.5191C25.7828 47.648 23.0601 47.7054 20.3373 47.734L21.0968 47.2611C20.4703 48.6573 20.1815 50.1815 20.2537 51.7101C20.3259 53.2387 20.7571 54.7288 21.5124 56.0598C22.2158 57.4277 23.2202 58.6182 24.4501 59.542C25.704 60.4403 27.1525 61.0295 28.6774 61.2616L30.0245 61.4909L29.2077 62.6516C28.8207 63.1818 28.4195 63.7407 28.0756 64.3139C27.721 64.8944 27.4051 65.4975 27.1298 66.1195L26.8719 66.6497H26.2843C22.8054 66.3802 19.5143 64.9639 16.9268 62.623C14.4078 60.2778 12.6254 57.2506 11.7966 53.9103C10.8935 50.6013 11.054 47.092 12.2552 43.8792C13.4754 40.6825 15.493 37.8509 18.1162 35.6538C20.7879 33.4921 23.9798 32.0691 27.3734 31.5267C30.7852 30.9941 34.2783 31.4931 37.4045 32.9597C38.9535 33.6601 40.3655 34.6306 41.5745 35.8257C42.802 36.9767 43.8501 38.305 44.6841 39.7665C45.5405 41.2078 46.1508 42.7818 46.4897 44.4238C46.8401 46.01 47.0226 47.6286 47.0343 49.253ZM47.0343 49.253C47.0787 45.9947 46.0179 42.8175 44.025 40.2394C42.0545 37.7762 39.531 35.8124 36.6593 34.5074C33.853 33.1802 30.713 32.7259 27.6457 33.2033C24.569 33.684 21.6676 34.9472 19.2196 36.8718C16.8204 38.8928 14.9758 41.4919 13.8602 44.4238C12.7698 47.3288 12.6293 50.5048 13.4589 53.4947C14.2036 56.5124 15.8062 59.2498 18.0732 61.3763C20.3877 63.4265 23.3033 64.6732 26.3846 64.9301L25.5392 65.4317C25.8431 64.7524 26.1876 64.092 26.5709 63.4541C26.9578 62.8093 27.3877 62.2217 27.832 61.6055L28.3622 63.0385C26.5833 62.757 24.8968 62.0566 23.4418 60.9953C21.9867 59.9339 20.8048 58.5418 19.9934 56.9339C19.1678 55.3509 18.6798 53.6138 18.5604 51.8324C18.4184 50.0135 18.7751 48.1902 19.5922 46.559L19.8215 46.0861H20.3517C23.0457 46.0861 25.7541 46.0001 28.4625 45.8711C31.1395 45.7683 33.8088 45.5195 36.4587 45.126L37.0319 45.04L37.3328 45.5272C37.7665 46.2026 38.145 46.9119 38.4649 47.648C38.7712 48.3936 38.9876 49.1729 39.1097 49.9695C39.3818 51.5389 39.3818 53.1434 39.1097 54.7128L38.3216 54.1682L38.5939 54.0679C39.8756 53.6773 41.1827 53.3757 42.506 53.1651C43.821 52.9606 45.146 52.8266 46.4754 52.7639V52.6779C46.6605 52.1355 46.8042 51.5798 46.9053 51.0156C46.9483 50.3994 46.9913 49.8262 47.0343 49.253Z" fill="#231F20"/>
<path d="M46.4465 52.778C46.4607 52.8682 46.4607 52.9601 46.4465 53.0503H46.3462C45.7415 53.4141 45.1145 53.7396 44.4689 54.0247C43.8279 54.0985 43.1916 54.2086 42.563 54.3543C41.3013 54.6397 40.0611 55.0132 38.8515 55.4721L37.5762 55.9736L37.6765 54.6839V54.512V53.9388L38.1064 53.7381L38.4503 53.5948H38.3357C39.6075 53.0992 40.9153 52.7015 42.2478 52.4054C42.9058 52.2353 43.5769 52.1203 44.254 52.0615C45.0087 52.2198 45.7439 52.4601 46.4465 52.778ZM46.4465 52.778L44.5979 53.8098C43.9817 53.9674 43.3512 54.0391 42.7207 54.1967C41.4741 54.4689 40.252 54.8427 39.0665 55.3144H38.9662L39.4391 54.555V54.7269L38.264 53.9244C39.555 53.4239 40.8819 53.0215 42.2334 52.7207C42.8926 52.5631 43.5805 52.4628 44.254 52.3195C44.9826 52.3942 45.6968 52.5727 46.3748 52.8497L46.2745 52.9357C46.3426 52.8961 46.4012 52.8424 46.4465 52.778Z" fill="#231F20"/>
<path d="M38.5935 54.584C38.5935 54.584 38.5935 54.6986 38.5935 54.7559C34.6347 56.2394 31.1632 58.7885 28.5625 62.1216L28.7345 61.878C31.2976 58.5965 34.7058 56.075 38.5935 54.584Z" stroke="#231F20" stroke-miterlimit="10"/>
<path d="M47.0491 49.0948C47.0562 49.1471 47.0562 49.2002 47.0491 49.2525C47.0075 47.1143 46.6104 44.998 45.874 42.9902C46.6864 44.9211 47.0866 47.0004 47.0491 49.0948Z" stroke="#231F20" stroke-miterlimit="10"/>
<path d="M122.998 33.4893C123.825 33.0503 124.607 32.532 125.334 31.9416C125.77 31.5923 126.181 31.2141 126.566 30.8096" stroke="#231F20" stroke-miterlimit="10"/>
<path d="M111.677 13.1406C111.167 13.527 110.743 14.0149 110.431 14.5736" stroke="#231F20" stroke-miterlimit="10"/>
<path d="M111.678 13.1406C111.168 13.527 110.743 14.0149 110.431 14.5736C110.329 14.7603 110.248 14.9572 110.187 15.1612M46.4473 52.7776H46.7625M126.567 30.8096C126.182 31.2141 125.77 31.5923 125.334 31.9417" stroke="#231F20" stroke-miterlimit="10"/>
<path d="M42.6921 67.5234C41.4454 68.5981 38.823 69.9595 36.9601 68.7414C36.4786 68.4033 36.0894 67.9501 35.828 67.423C35.2795 66.458 35.0441 65.3464 35.1545 64.2418C35.1786 63.8732 35.2866 63.515 35.4704 63.1946C35.6542 62.8742 35.9089 62.6 36.2149 62.3932C37.6976 61.5528 39.3105 60.9667 40.9868 60.6593C41.8444 60.4835 42.7206 60.4161 43.5949 60.4586C44.1251 60.4586 44.4977 60.6163 44.6267 60.8312C45.6441 62.5795 44.727 65.7608 42.6921 67.5234Z" fill="#20262E" stroke="#231F20" stroke-miterlimit="10"/>
<path d="M38.5935 54.5835C34.6849 56.0654 31.2559 58.5876 28.6771 61.8775L28.5051 62.1211C27.463 61.9471 26.4501 61.6287 25.4958 61.1753C22.9746 59.9168 21.0348 57.7358 20.0791 55.085C19.5518 53.7748 19.2977 52.3707 19.3322 50.9587C19.3667 49.5468 19.6891 48.1568 20.2797 46.8739C25.7326 46.9155 31.1818 46.5756 36.5873 45.8564C36.7593 46.1287 36.8739 46.3437 36.9599 46.487C38.3244 48.9535 38.8949 51.7808 38.5935 54.5835Z" fill="#20262E" stroke="#231F20" stroke-miterlimit="10"/>
<path d="M94.367 63.3397C88.6349 69.4587 79.2201 68.8138 75.8238 68.5845C73.6929 68.4778 71.5743 68.195 69.49 67.7391C71.3865 68.038 73.315 68.0765 75.222 67.8537C79.6525 67.2447 83.7502 65.1656 86.858 61.9497C87.5458 61.2762 88.0187 60.7173 88.291 60.4164C88.5633 60.1155 88.9502 59.6282 89.3514 59.098L89.6954 58.6395C89.81 58.4962 89.9246 58.3242 90.0393 58.1522C90.1539 57.9803 90.1682 57.9659 90.2399 57.8656C91.8468 55.5078 92.8506 52.7916 93.1632 49.9554C93.2922 48.766 93.9944 41.0851 88.6493 36.2989C84.7085 32.7737 79.8219 32.8883 74.3192 33.003C69.3753 33.1176 64.9617 33.2179 61.0209 36.1699C59.7304 37.1556 58.5952 38.3294 57.6533 39.6521C59.8414 34.5416 63.88 30.4467 68.9597 28.1881C69.5043 27.9588 79.607 23.7744 88.463 29.1625C99.884 36.1412 102.392 54.7274 94.367 63.3397Z" fill="white" stroke="#231F20" stroke-miterlimit="10"/>
<path d="M89.2508 59.126C88.8496 59.6562 88.477 60.1004 88.1904 60.4443C87.9038 60.7883 87.4596 61.3041 86.7574 61.9777C83.6496 65.1935 79.5519 67.2727 75.1214 67.8816C73.2144 68.1045 71.2859 68.0659 69.3894 67.767H69.3034H69.1888C67.648 67.3975 66.1496 66.8692 64.7178 66.1907C68.0464 67.5498 71.6652 68.0429 75.236 67.6237C79.6666 67.0147 83.7643 64.9356 86.8721 61.7197C87.5599 61.0462 88.0328 60.4873 88.3051 60.1864L89.2508 59.126Z" stroke="#231F20" stroke-miterlimit="10"/>
<path d="M88.3627 60.1864C88.1047 60.4873 87.6319 61.0462 86.9297 61.7197C83.8219 64.9356 79.7242 67.0147 75.2937 67.6237C71.7228 68.0429 68.104 67.5498 64.7754 66.1907C66.2072 66.8692 67.7056 67.3975 69.2464 67.767H69.361H69.447C71.3436 68.0659 73.272 68.1045 75.179 67.8816C79.6095 67.2727 83.7072 65.1935 86.815 61.9777C87.5029 61.3041 87.9758 60.7453 88.248 60.4443C88.5203 60.1434 88.9072 59.6562 89.3085 59.126L88.3627 60.1864Z" stroke="#231F20" stroke-miterlimit="10"/>
<path d="M88.4343 36.5417C84.4935 33.0165 79.607 33.1311 74.1042 33.2458C69.1603 33.3604 64.7467 33.4607 60.8059 36.4127C59.5154 37.3984 58.3802 38.5722 57.4383 39.8949C56.6795 41.542 56.1029 43.2671 55.7187 45.0394C55.6327 45.4263 55.5181 45.9565 55.4035 46.6157C54.3766 51.5534 55.323 56.697 58.0402 60.9458C59.7019 63.3129 61.9617 65.1968 64.589 66.4055C66.0789 67.0308 67.6373 67.4781 69.232 67.7382C67.6912 67.3687 66.1929 66.8404 64.761 66.1619C68.0896 67.5211 71.7084 68.0141 75.2793 67.5949C79.7098 66.986 83.8075 64.9068 86.9153 61.691C87.6031 61.0174 88.076 60.4586 88.3483 60.1576L89.2368 59.0829L89.5807 58.6243C89.6953 58.481 89.81 58.3091 89.9246 58.1371C90.0392 57.9651 90.0536 57.9508 90.1252 57.8505C91.678 55.5493 92.6604 52.9115 92.9912 50.1552C93.0772 49.0088 93.7794 41.3279 88.4343 36.5417ZM77.4001 59.4985C76.8096 60.156 76.1237 60.7212 75.3653 61.1751C73.609 62.2022 71.5943 62.7024 69.5616 62.616C67.5289 62.5296 65.564 61.8603 63.9012 60.6878C62.4644 59.4666 61.4055 57.8609 60.8489 56.0592C60.324 54.5681 59.9823 53.0186 59.8315 51.445C59.7104 50.2922 59.7104 49.1299 59.8315 47.9771C68.974 47.8051 76.2251 46.7734 79.7073 45.6413C80.5447 47.9548 80.7723 50.445 80.3682 52.872C79.9641 55.299 78.9419 57.5811 77.4001 59.4985Z" fill="white" stroke="#231F20" stroke-miterlimit="10"/>
<path d="M77.3997 59.4988C76.8091 60.1564 76.1232 60.7215 75.3648 61.1754C73.6085 62.2025 71.5939 62.7027 69.5612 62.6163C67.5285 62.5299 65.5635 61.8606 63.9007 60.6882C62.4639 59.4669 61.4051 57.8613 60.8484 56.0596C60.3235 54.5684 59.9819 53.0189 59.831 51.4453C59.71 50.2925 59.71 49.1302 59.831 47.9774C68.9736 47.8054 76.2246 46.7737 79.7068 45.6416C80.5442 47.9551 80.7718 50.4453 80.3677 52.8723C79.9636 55.2993 78.9415 57.5814 77.3997 59.4988Z" fill="#20262E" stroke="#231F20" stroke-miterlimit="10"/>
<path d="M111.907 12.9688L111.677 13.1407L111.534 12.9974L111.907 12.9688Z" stroke="#231F20" stroke-miterlimit="10"/>
<path opacity="0.21" d="M11.6529 119.484C11.5214 119.666 11.3277 119.794 11.1084 119.843L11.6529 119.484Z" stroke="#231F20" stroke-miterlimit="10"/>
<path opacity="0.21" d="M38.5935 54.584C38.5935 54.584 38.5935 54.6986 38.5935 54.7559C34.6347 56.2394 31.1632 58.7885 28.5625 62.1216L28.7345 61.878C31.2976 58.5965 34.7058 56.075 38.5935 54.584Z" stroke="#231F20" stroke-miterlimit="10"/>
<path opacity="0.21" d="M47.0342 49.2529C47.0574 50.2643 46.9951 51.2757 46.8479 52.2766C46.8331 52.4364 46.8044 52.5947 46.7619 52.7495C46.7699 52.8305 46.7699 52.9121 46.7619 52.9931H46.418C46.418 52.9214 46.418 52.8354 46.418 52.7638C46.5207 52.4388 46.6068 52.1088 46.6759 51.775C46.6759 51.5457 46.7762 51.3021 46.8192 51.0585C46.8622 50.8149 46.9052 50.514 46.9339 50.2274C46.9625 49.9408 47.0198 49.5825 47.0342 49.2529Z" stroke="#231F20" stroke-miterlimit="10"/>
<path opacity="0.21" d="M47.0491 49.0805C47.0562 49.1328 47.0562 49.1858 47.0491 49.2381C47.0059 47.1048 46.6089 44.9935 45.874 42.9902C46.6844 44.9167 47.0846 46.9908 47.0491 49.0805Z" stroke="#231F20" stroke-miterlimit="10"/>
<path opacity="0.21" d="M156.215 135.949C156.072 134.001 155.943 132.037 155.828 130.045L155.656 127.036C155.097 116.289 145.052 103.033 140.295 73.2554C140.295 73.0261 140.223 72.7825 140.18 72.5532C140.137 72.3239 140.08 71.9513 140.037 71.6504C139.903 71.7983 139.787 71.9619 139.693 72.1376C139.598 72.2807 139.512 72.429 139.435 72.5818C138.288 74.803 137.386 78.5718 134.878 82.9568L134.362 83.8596C134.161 84.2035 133.946 84.5475 133.717 84.9057L132.958 86.0378C132.728 86.353 132.499 86.6826 132.255 86.9979L131.782 87.6141C128.824 91.3153 125.269 94.4972 121.264 97.0289C110.227 104.619 98.1377 110.552 85.3817 114.641C63.8866 121.662 53.5976 122.064 40.6289 121.705C30.5405 121.39 20.0796 116.16 13.4877 116.074C12.7569 116.074 12.5133 118.467 11.6821 119.427C11.5506 119.609 11.3569 119.736 11.1376 119.785C10.9836 119.887 10.8353 119.997 10.6934 120.115L65.7495 127.538L67.4691 158.362L73.6883 158.247L73.5164 158.978C72.825 161.712 73.2314 164.608 74.6485 167.046C76.755 170.327 80.7817 171.158 84.1636 171.803C86.0538 172.162 87.9719 172.354 89.8957 172.376C90.7167 172.42 91.5394 172.42 92.3604 172.376H92.4751C97.738 172.006 102.894 170.711 107.708 168.55C109.774 167.692 111.776 166.686 113.698 165.541C112.58 166.043 127.311 156.943 130.02 151.34C130.908 150.106 131.901 148.951 132.986 147.886C132.227 148.961 131.381 150.079 130.464 151.225L132.585 150.623H132.671L135.867 149.678C149.853 145.379 153.908 141.954 156.172 139.346L156.516 138.944C156.316 137.898 156.215 136.924 156.215 135.949ZM139.019 136.551C142.172 128.799 143.017 122.823 142.286 117.636C144.078 123.009 142.329 128.813 139.019 136.551Z" stroke="#231F20" stroke-miterlimit="10"/>
<path opacity="0.21" d="M11.1093 119.843C10.9553 119.944 10.807 120.055 10.665 120.172L10.0488 120.086L11.1093 119.843Z" stroke="#231F20" stroke-miterlimit="10"/>
<path opacity="0.21" d="M140.452 71.2783C140.452 71.7082 140.294 72.1238 140.222 72.5537C140.222 72.2528 140.122 71.9518 140.079 71.6509C140.185 71.5094 140.31 71.3839 140.452 71.2783Z" stroke="#231F20" stroke-miterlimit="10"/>
<path opacity="0.21" d="M45.8739 42.9903C44.8527 40.6083 43.3251 38.4771 41.3974 36.7449C39.4697 35.0127 37.188 33.7209 34.7108 32.9592C26.7576 30.4371 20.0798 35.1374 19.3776 35.6819C18.6754 36.2265 11.5534 41.5572 12.0836 50.5709C12.0836 51.3447 12.7571 59.5272 19.8935 63.7402C21.8505 64.8963 24.0469 65.5876 26.3133 65.7607C26.0665 66.2775 25.8512 66.8086 25.6685 67.3514C25.4249 68.0106 25.2099 68.6841 25.0093 69.3576C25.0093 69.4436 25.0093 69.5295 24.9377 69.6155C23.5617 69.5208 22.1985 69.2904 20.8679 68.9277C17.1246 67.8148 13.7478 65.7191 11.089 62.8587C8.43021 59.9983 6.58649 56.4776 5.74969 52.663V52.4624C5.08027 49.3791 5.15889 46.1803 5.97897 43.1336C7.44005 38.011 10.8371 33.658 15.4512 30.996C25.2386 25.3929 35.3986 30.695 35.8572 30.996C40.5524 33.6323 44.1167 37.9003 45.8739 42.9903Z" stroke="#231F20" stroke-miterlimit="10"/>
<path opacity="0.21" d="M38.5935 54.584C38.5935 54.584 38.5935 54.6986 38.5935 54.7559C34.6347 56.2394 31.1632 58.7885 28.5625 62.1216L28.7345 61.878C31.2976 58.5965 34.7058 56.075 38.5935 54.584Z" stroke="#231F20" stroke-miterlimit="10"/>
<path opacity="0.21" d="M47.0342 49.2529C47.0574 50.2643 46.9951 51.2757 46.8479 52.2766C46.8331 52.4364 46.8044 52.5947 46.7619 52.7495C46.7699 52.8305 46.7699 52.9121 46.7619 52.9931H46.418C46.418 52.9214 46.418 52.8354 46.418 52.7638C46.5207 52.4388 46.6068 52.1088 46.6759 51.775C46.6759 51.5457 46.7762 51.3021 46.8192 51.0585C46.8622 50.8149 46.9052 50.514 46.9339 50.2274C46.9625 49.9408 47.0198 49.5825 47.0342 49.2529Z" stroke="#231F20" stroke-miterlimit="10"/>
<path opacity="0.21" d="M46.7188 53.0214C48.3196 52.9211 49.9262 52.9642 51.5193 53.1503" stroke="#231F20" stroke-miterlimit="10"/>
<path opacity="0.21" d="M30.7838 96.5281C24.1633 89.707 22.1857 79.1458 24.9371 69.5303" stroke="#231F20" stroke-miterlimit="10"/>
<path opacity="0.21" d="M38.5935 54.584C38.5935 54.584 38.5935 54.6986 38.5935 54.7559C34.6347 56.2394 31.1632 58.7885 28.5625 62.1216L28.7345 61.878C31.2976 58.5965 34.7058 56.075 38.5935 54.584Z" stroke="#231F20" stroke-miterlimit="10"/>
<path opacity="0.21" d="M40.2564 44.6963C39.1428 45.3751 37.8872 45.7871 36.5879 45.9" stroke="#231F20" stroke-miterlimit="10"/>
<path opacity="0.21" d="M20.3379 46.8594H17.085" stroke="#231F20" stroke-miterlimit="10"/>
<path opacity="0.21" d="M81.6986 44.6963C81.102 45.1163 80.438 45.4313 79.7354 45.6277" stroke="#231F20" stroke-miterlimit="10"/>
<path opacity="0.21" d="M59.8883 47.9629H57.4092" stroke="#231F20" stroke-miterlimit="10"/>
<g opacity="0.21">
<path d="M47.0343 49.253C47.0343 49.8405 46.9626 50.4424 46.8766 51.0299C46.7907 51.6175 46.6474 52.205 46.5041 52.7925V53.0218C45.1864 53.1838 43.8833 53.4473 42.6063 53.81C41.3364 54.1846 40.0998 54.6639 38.9091 55.243L38.1496 55.6012V54.4548C38.2129 53.0033 38.0386 51.5512 37.6337 50.1558C37.4188 49.4823 37.1895 48.8088 36.9316 48.1496C36.6226 47.5258 36.2581 46.9311 35.8425 46.3727L36.7166 46.7596C33.9953 47.1611 31.2543 47.4146 28.5055 47.5191C25.7828 47.648 23.0601 47.7054 20.3373 47.734L21.0968 47.2611C20.4703 48.6573 20.1815 50.1815 20.2537 51.7101C20.3259 53.2387 20.7571 54.7288 21.5124 56.0598C22.2158 57.4277 23.2202 58.6182 24.4501 59.542C25.704 60.4403 27.1525 61.0295 28.6774 61.2616L30.0245 61.4909L29.2077 62.6516C28.8207 63.1818 28.4195 63.7407 28.0756 64.3139C27.721 64.8944 27.4051 65.4975 27.1298 66.1195L26.8719 66.6497H26.2843C22.8054 66.3802 19.5143 64.9639 16.9268 62.623C14.4078 60.2778 12.6254 57.2506 11.7966 53.9103C10.8935 50.6013 11.054 47.092 12.2552 43.8792C13.4754 40.6825 15.493 37.8509 18.1162 35.6538C20.7879 33.4921 23.9798 32.0691 27.3734 31.5267C30.7852 30.9941 34.2783 31.4931 37.4045 32.9597C38.9535 33.6601 40.3655 34.6306 41.5745 35.8257C42.7977 36.977 43.8411 38.3054 44.6698 39.7665C45.5397 41.2013 46.1508 42.7776 46.4754 44.4238C46.8375 46.0083 47.0249 47.6277 47.0343 49.253ZM47.0343 49.253C47.0787 45.9947 46.0179 42.8175 44.025 40.2394C42.0579 37.7727 39.5335 35.8082 36.6593 34.5074C33.853 33.1802 30.713 32.7259 27.6457 33.2033C24.569 33.684 21.6676 34.9472 19.2196 36.8718C16.8204 38.8928 14.9758 41.4919 13.8602 44.4238C12.7698 47.3288 12.6293 50.5048 13.4589 53.4947C14.2036 56.5124 15.8062 59.2498 18.0732 61.3763C20.3877 63.4265 23.3033 64.6732 26.3846 64.9301L25.5392 65.4317C25.8431 64.7524 26.1876 64.092 26.5709 63.4541C26.9578 62.8093 27.3877 62.2217 27.832 61.6055L28.3622 63.0385C26.5833 62.757 24.8968 62.0566 23.4418 60.9953C21.9867 59.9339 20.8048 58.5418 19.9934 56.9339C19.1678 55.3509 18.6798 53.6138 18.5604 51.8324C18.4184 50.0135 18.7751 48.1902 19.5922 46.559L19.8215 46.0861H20.3517C23.0457 46.0861 25.7541 46.0001 28.4625 45.8711C31.1395 45.7683 33.8088 45.5195 36.4587 45.126L37.0462 45.04L37.3328 45.5272C37.761 46.2058 38.1393 46.9146 38.4649 47.648C38.7821 48.3919 39.0083 49.1714 39.1384 49.9695C39.4035 51.5395 39.4035 53.1428 39.1384 54.7128V54.8274L38.3789 54.3115C40.9733 53.5184 43.6631 53.0797 46.3751 53.0075V52.7782C46.56 52.2152 46.7084 51.6408 46.8193 51.0586C46.934 50.4424 46.9913 49.8405 47.0343 49.253Z" fill="#231F20"/>
</g>
<path opacity="0.21" d="M38.5935 54.584C38.5935 54.584 38.5935 54.6986 38.5935 54.7559C34.6347 56.2394 31.1632 58.7885 28.5625 62.1216L28.7345 61.878C31.2976 58.5965 34.7058 56.075 38.5935 54.584Z" stroke="#231F20" stroke-miterlimit="10"/>
<path opacity="0.21" d="M47.0491 49.0805C47.0562 49.1328 47.0562 49.1858 47.0491 49.2381C47.0059 47.1048 46.6089 44.9935 45.874 42.9902C46.6844 44.9167 47.0846 46.9908 47.0491 49.0805Z" stroke="#231F20" stroke-miterlimit="10"/>
<path opacity="0.21" d="M122.998 33.4893C123.825 33.0503 124.607 32.532 125.334 31.9416C125.77 31.5923 126.181 31.2141 126.566 30.8096" stroke="#231F20" stroke-miterlimit="10"/>
<path opacity="0.21" d="M111.677 13.1406C111.167 13.527 110.743 14.0149 110.431 14.5736" stroke="#231F20" stroke-miterlimit="10"/>
<path opacity="0.21" d="M5.74902 52.663V52.2187C6.09455 53.8356 6.62341 55.4077 7.32533 56.9047C8.64739 59.7088 10.5476 62.2016 12.9013 64.2193C15.2549 66.2371 18.0087 67.7342 20.9819 68.6123C22.2794 68.9681 23.6091 69.1938 24.9513 69.2858M38.5362 54.5832L38.7082 54.4542C41.1743 53.5018 43.7672 52.9176 46.4034 52.7203H46.7187M111.677 13.1406C111.167 13.527 110.742 14.0149 110.43 14.5736C110.328 14.7603 110.247 14.9572 110.187 15.1612M126.566 30.8096C126.181 31.2141 125.769 31.5923 125.333 31.9417" stroke="#231F20" stroke-miterlimit="10"/>
<path opacity="0.21" d="M126.566 30.8098C128.244 29.1009 129.432 26.9728 130.005 24.6479C129.377 26.9511 128.197 29.0662 126.566 30.8098ZM128.243 14.4736C128.085 14.3016 127.942 14.1296 127.77 13.972C128.675 14.9266 129.382 16.0519 129.848 17.2822C129.495 16.2529 128.951 15.2998 128.243 14.4736ZM119.344 10.934H119.258C118.529 10.9522 117.801 11.0145 117.08 11.1203H116.994C116.414 11.2067 115.84 11.3263 115.274 11.4786C117.212 11.1285 119.18 10.9701 121.149 11.0057C120.55 10.9409 119.947 10.917 119.344 10.934ZM44.6555 60.817C44.5265 60.602 44.154 60.4731 43.6238 60.4444C42.7494 60.4019 41.8732 60.4693 41.0157 60.645C39.3394 60.9525 37.7264 61.5386 36.2438 62.379C35.9377 62.5858 35.6831 62.8599 35.4993 63.1804C35.3155 63.5008 35.2074 63.859 35.1833 64.2276C35.0656 65.3354 35.296 66.4524 35.8425 67.4232C36.104 67.9502 36.4931 68.4034 36.9746 68.7415C38.8375 69.9596 41.4599 68.5982 42.7066 67.5235C44.7272 65.7609 45.6443 62.5796 44.6555 60.817Z" stroke="#231F20" stroke-miterlimit="10"/>
<path opacity="0.21" d="M42.6921 67.5234C41.4454 68.5981 38.823 69.9595 36.9601 68.7414C36.4786 68.4033 36.0894 67.9501 35.828 67.423C35.2795 66.458 35.0441 65.3464 35.1545 64.2418C35.1786 63.8732 35.2866 63.515 35.4704 63.1946C35.6542 62.8742 35.9089 62.6 36.2149 62.3932C37.6976 61.5528 39.3105 60.9667 40.9868 60.6593C41.8444 60.4835 42.7206 60.4161 43.5949 60.4586C44.1251 60.4586 44.4977 60.6163 44.6267 60.8312C45.6441 62.5795 44.727 65.7608 42.6921 67.5234Z" stroke="#231F20" stroke-miterlimit="10"/>
<path opacity="0.21" d="M38.5935 54.5691C34.6849 56.0511 31.2559 58.5733 28.6771 61.8631L28.5051 62.1067C27.463 61.9327 26.4501 61.6144 25.4958 61.161C22.9746 59.9025 21.0348 57.7215 20.0791 55.0707C19.5518 53.7604 19.2977 52.3563 19.3322 50.9444C19.3667 49.5325 19.6891 48.1425 20.2797 46.8596C25.7323 46.906 31.1815 46.5708 36.5873 45.8564C36.7593 46.1287 36.8739 46.3437 36.9599 46.487C38.3215 48.9493 38.8919 51.7712 38.5935 54.5691Z" stroke="#231F20" stroke-miterlimit="10"/>
<path opacity="0.21" d="M94.367 63.3397C88.6349 69.4587 79.2201 68.8138 75.8238 68.5845C73.6929 68.4778 71.5743 68.195 69.49 67.7391C71.3865 68.038 73.315 68.0765 75.222 67.8537C79.6525 67.2447 83.7502 65.1656 86.858 61.9497C87.5458 61.2762 88.0187 60.7173 88.291 60.4164C88.5633 60.1155 88.9502 59.6282 89.3514 59.098L89.6954 58.6395C89.81 58.4962 89.9246 58.3242 90.0393 58.1522C90.1539 57.9803 90.1682 57.9659 90.2399 57.8656C91.8468 55.5078 92.8506 52.7916 93.1632 49.9554C93.2922 48.766 93.9944 41.0851 88.6493 36.2989C84.7085 32.7737 79.8219 32.8883 74.3192 33.003C69.3753 33.1176 64.9617 33.2179 61.0209 36.1699C59.7304 37.1556 58.5952 38.3294 57.6533 39.6521C59.8414 34.5416 63.88 30.4467 68.9597 28.1881C69.5043 27.9588 79.607 23.7744 88.463 29.1625C99.884 36.1412 102.392 54.7274 94.367 63.3397Z" stroke="#231F20" stroke-miterlimit="10"/>
<path opacity="0.21" d="M89.2508 59.126C88.8496 59.6562 88.477 60.1004 88.1904 60.4443C87.9038 60.7883 87.4596 61.3041 86.7574 61.9777C83.6496 65.1935 79.5519 67.2727 75.1214 67.8816C73.2144 68.1045 71.2859 68.0659 69.3894 67.767H69.3034H69.1888C67.648 67.3975 66.1496 66.8692 64.7178 66.1907C68.0464 67.5498 71.6652 68.0429 75.236 67.6237C79.6666 67.0147 83.7643 64.9356 86.8721 61.7197C87.5599 61.0462 88.0328 60.4873 88.3051 60.1864L89.2508 59.126Z" stroke="#231F20" stroke-miterlimit="10"/>
<path opacity="0.21" d="M88.3627 60.1864C88.1047 60.4873 87.6319 61.0462 86.9297 61.7197C83.8219 64.9356 79.7242 67.0147 75.2937 67.6237C71.7228 68.0429 68.104 67.5498 64.7754 66.1907C66.2072 66.8692 67.7056 67.3975 69.2464 67.767H69.361H69.447C71.3436 68.0659 73.272 68.1045 75.179 67.8816C79.6095 67.2727 83.7072 65.1935 86.815 61.9777C87.5029 61.3041 87.9758 60.7453 88.248 60.4443C88.5203 60.1434 88.9072 59.6562 89.3085 59.126L88.3627 60.1864Z" stroke="#231F20" stroke-miterlimit="10"/>
<path opacity="0.21" d="M88.4343 36.5417C84.4935 33.0165 79.607 33.1311 74.1042 33.2458C69.1603 33.3604 64.7467 33.4607 60.8059 36.4127C59.5154 37.3984 58.3802 38.5722 57.4383 39.8949C56.6795 41.542 56.1029 43.2671 55.7187 45.0394C55.6327 45.4263 55.5181 45.9565 55.4035 46.6157C54.3766 51.5534 55.323 56.697 58.0402 60.9458C59.7019 63.3129 61.9617 65.1968 64.589 66.4055C66.0789 67.0308 67.6373 67.4781 69.232 67.7382C67.6912 67.3687 66.1929 66.8404 64.761 66.1619C68.0896 67.5211 71.7084 68.0141 75.2793 67.5949C79.7098 66.986 83.8075 64.9068 86.9153 61.691C87.6031 61.0174 88.076 60.4586 88.3483 60.1576L89.2368 59.0829L89.5807 58.6243C89.6953 58.481 89.81 58.3091 89.9246 58.1371C90.0392 57.9651 90.0536 57.9508 90.1252 57.8505C91.678 55.5493 92.6604 52.9115 92.9912 50.1552C93.0772 49.0088 93.7794 41.3279 88.4343 36.5417ZM77.4001 59.4985C76.8096 60.156 76.1237 60.7212 75.3653 61.1751C73.609 62.2022 71.5943 62.7024 69.5616 62.616C67.5289 62.5296 65.564 61.8603 63.9012 60.6878C62.4644 59.4666 61.4055 57.8609 60.8489 56.0592C60.324 54.5681 59.9823 53.0186 59.8315 51.445C59.7104 50.2922 59.7104 49.1299 59.8315 47.9771C68.974 47.8051 76.2251 46.7734 79.7073 45.6413C80.5447 47.9548 80.7723 50.445 80.3682 52.872C79.9641 55.299 78.9419 57.5811 77.4001 59.4985Z" stroke="#231F20" stroke-miterlimit="10"/>
<path opacity="0.21" d="M77.3997 59.4988C76.8091 60.1564 76.1232 60.7215 75.3648 61.1754C73.6085 62.2025 71.5939 62.7027 69.5612 62.6163C67.5285 62.5299 65.5635 61.8606 63.9007 60.6882C62.4639 59.4669 61.4051 57.8613 60.8484 56.0596C60.3235 54.5684 59.9819 53.0189 59.831 51.4453C59.71 50.2925 59.71 49.1302 59.831 47.9774C68.9736 47.8054 76.2246 46.7737 79.7068 45.6416C80.5442 47.9551 80.7718 50.4453 80.3677 52.8723C79.9636 55.2993 78.9415 57.5814 77.3997 59.4988Z" stroke="#231F20" stroke-miterlimit="10"/>
<path opacity="0.1" d="M23.1606 19.1595C24.0061 18.9875 24.8516 18.8442 25.697 18.7009L33.5356 12.5533C32.4421 11.5989 31.21 10.8162 29.8814 10.2318C28.3224 9.49287 26.6026 9.15778 24.8802 9.25741C24.4175 9.27077 23.9631 9.38316 23.5475 9.587C23.0431 10.0222 22.6385 10.5612 22.3616 11.1671C22.0846 11.773 21.9416 12.4316 21.9426 13.0979C21.7362 14.2723 21.7703 15.4765 22.0429 16.6374C22.2721 17.5346 22.6499 18.387 23.1606 19.1595Z" fill="#18122B"/>
<path opacity="0.1" d="M125.735 18.2856C125.535 17.3122 125.119 16.3964 124.517 15.6058C123.683 14.7056 122.632 14.0345 121.465 13.6569C118.699 12.4389 117.309 11.8227 115.862 11.8084C113.268 11.8084 112.265 13.0408 110.66 12.2096C110.66 12.2096 110.001 11.7081 108.854 10.7766C107.192 9.44391 106.705 9.02833 106.418 9.18597C106.131 9.3436 106.189 9.87381 106.26 10.3324L106.475 10.6906C109.869 13.8583 112.572 17.6929 114.414 21.9541C115.303 23.0861 116.22 24.2039 117.108 25.3503C118.607 26.9446 119.919 28.7042 121.02 30.5951C121.69 30.537 122.34 30.3367 122.926 30.0076C125.52 28.5746 125.893 24.8344 126.108 22.8425C126.262 21.3135 126.136 19.7692 125.735 18.2856Z" fill="#18122B"/>
<path opacity="0.3" d="M120.39 29.7783C120.476 29.9072 120.533 30.0362 120.619 30.1508L121.006 30.5807C119.905 28.6898 118.592 26.9303 117.094 25.3359C118.24 26.7833 119.358 28.2593 120.39 29.7783Z" fill="#18122B"/>
<path opacity="0.36" d="M138.432 62.1925C140.209 62.4075 139.75 68.985 141.986 80.4777C143.197 86.5833 144.815 92.601 146.829 98.4906C148.262 102.79 148.792 103.563 151.974 112.477C153.382 116.066 154.574 119.736 155.542 123.468C156.5 128.181 156.88 132.993 156.674 137.798C156.733 145.323 157.212 152.839 158.107 160.311C156.727 159.527 155.48 158.531 154.41 157.359C151.315 153.919 150.756 149.907 150.211 145.106C148.893 133.542 149.265 131.321 148.191 124.07C147.617 120.158 146.643 116.991 145.812 112.606C144.809 107.175 143.806 106.96 141.241 100.354C140.253 97.6914 138.312 95.4906 135.795 94.1772C133.789 93.1741 123.428 95.9972 124.231 95.7392C125.821 95.2377 131.998 88.5742 131.768 87.7287C131.381 86.0808 136.354 80.8073 135.967 79.1307C135.653 77.9743 135.4 76.8025 135.208 75.6198C134.6 73.2277 134.473 70.7386 134.835 68.2971C135.423 65.5744 137.099 62.0206 138.432 62.1925Z" fill="white"/>
<path d="M69.8195 53.638C70.3735 53.638 70.8226 53.1889 70.8226 52.6349C70.8226 52.0809 70.3735 51.6318 69.8195 51.6318C69.2655 51.6318 68.8164 52.0809 68.8164 52.6349C68.8164 53.1889 69.2655 53.638 69.8195 53.638Z" fill="white"/>
<path d="M66.007 56.4891C66.9251 56.4891 67.6693 55.5332 67.6693 54.3539C67.6693 53.1747 66.9251 52.2188 66.007 52.2188C65.089 52.2188 64.3447 53.1747 64.3447 54.3539C64.3447 55.5332 65.089 56.4891 66.007 56.4891Z" fill="white"/>
<path opacity="0.49" d="M11.0371 34.221C8.47917 36.7676 6.65284 39.955 5.74933 43.4496C4.79808 47.6121 5.19969 51.9696 6.89574 55.8881C8.20539 58.8063 10.0973 61.4263 12.4555 63.5874C14.8137 65.7484 17.5884 67.405 20.6096 68.4556C22.0055 68.9421 23.4453 69.2924 24.9086 69.5017C25.477 67.2823 26.4065 65.1715 27.66 63.2538C28.9633 61.332 30.5533 59.6213 32.3746 58.1809C36.5087 54.9124 41.5564 53.0095 46.8193 52.7355C47.0992 51.0493 47.1426 49.3322 46.9483 47.634C46.6337 45.0639 45.8052 42.5833 44.5122 40.34C42.9427 37.5244 40.8169 35.0574 38.2643 33.089C36.105 31.1327 33.5484 29.6662 30.7696 28.7899C27.5547 27.9255 24.1685 27.9255 20.9535 28.7899C17.2157 29.6649 13.7872 31.5426 11.0371 34.221Z" fill="#3998B9"/>
<path opacity="0.49" d="M58.857 37.3446C57.1681 40.0409 56.033 43.0466 55.5181 46.1863C55.1599 48.4074 54.2428 53.9675 56.9511 58.983C61.2502 67.0939 71.9691 68.2116 75.8238 68.6128C79.9939 69.0427 85.9409 69.6589 91.3576 65.7468C95.2352 62.8051 97.8768 58.5234 98.7663 53.7382C99.8472 48.461 99.0354 42.9717 96.4735 38.2331C94.4746 33.7224 90.8838 30.1064 86.3871 28.0761C81.8905 26.0459 76.8034 25.7438 72.098 27.2276C66.5768 28.8301 61.8541 32.4386 58.857 37.3446Z" fill="#3998B9"/>
<path opacity="0.69" d="M67.0533 66.2622L64.001 66.0759L82.0712 26.7686L85.4101 27.7287L67.0533 66.2622Z" fill="#E6E7E8"/>
<path opacity="0.69" d="M75.0643 68.9566L70.1777 67.5809L88.4486 28.8037L92.0168 31.6984L75.0643 68.9566Z" fill="#E6E7E8"/>
<path opacity="0.69" d="M19.3778 67.6812L14.4912 66.3198L32.1602 28.8037L36.3302 30.423L19.3778 67.6812Z" fill="#E6E7E8"/>
<path opacity="0.69" d="M12.5565 64.2848L10.1777 62.5078L26.0841 27.915L29.423 28.8752L12.5565 64.2848Z" fill="#E6E7E8"/>
<path d="M11.6529 119.484C11.5214 119.666 11.3277 119.794 11.1084 119.843L11.6529 119.484Z" stroke="#231F20" stroke-miterlimit="10"/>
<path d="M38.5935 54.584C38.5935 54.584 38.5935 54.6986 38.5935 54.7559C34.6347 56.2394 31.1632 58.7885 28.5625 62.1216L28.7345 61.878C31.2976 58.5965 34.7058 56.075 38.5935 54.584Z" stroke="#231F20" stroke-miterlimit="10"/>
<path d="M47.0342 49.2529C47.0574 50.2643 46.9951 51.2757 46.8479 52.2766C46.8331 52.4364 46.8044 52.5947 46.7619 52.7495C46.7699 52.8305 46.7699 52.9121 46.7619 52.9931H46.418C46.418 52.9214 46.418 52.8354 46.418 52.7638C46.5207 52.4388 46.6068 52.1088 46.6759 51.775C46.6759 51.5457 46.7762 51.3021 46.8192 51.0585C46.8622 50.8149 46.9052 50.514 46.9339 50.2274C46.9625 49.9408 47.0198 49.5825 47.0342 49.2529Z" stroke="#231F20" stroke-miterlimit="10"/>
<path d="M47.0491 49.0805C47.0562 49.1328 47.0562 49.1858 47.0491 49.2381C47.0059 47.1048 46.6089 44.9935 45.874 42.9902C46.6844 44.9167 47.0846 46.9908 47.0491 49.0805Z" stroke="#231F20" stroke-miterlimit="10"/>
<path d="M156.215 135.949C156.072 134.001 155.943 132.037 155.828 130.045L155.656 127.036C155.097 116.289 145.052 103.033 140.295 73.2554C140.295 73.0261 140.223 72.7825 140.18 72.5532C140.137 72.3239 140.08 71.9513 140.037 71.6504C139.903 71.7983 139.787 71.9619 139.693 72.1376C139.598 72.2807 139.512 72.429 139.435 72.5818C138.288 74.803 137.386 78.5718 134.878 82.9568L134.362 83.8596C134.161 84.2035 133.946 84.5475 133.717 84.9057L132.958 86.0378C132.728 86.353 132.499 86.6826 132.255 86.9979L131.782 87.6141C128.824 91.3153 125.269 94.4972 121.264 97.0289C110.227 104.619 98.1377 110.552 85.3817 114.641C63.8866 121.662 53.5976 122.064 40.6289 121.705C30.5405 121.39 20.0796 116.16 13.4877 116.074C12.7569 116.074 12.5133 118.467 11.6821 119.427C11.5506 119.609 11.3569 119.736 11.1376 119.785C10.9836 119.887 10.8353 119.997 10.6934 120.115L65.7495 127.538L67.4691 158.362L73.6883 158.247L73.5164 158.978C72.825 161.712 73.2314 164.608 74.6485 167.046C76.755 170.327 80.7817 171.158 84.1636 171.803C86.0538 172.162 87.9719 172.354 89.8957 172.376C90.7167 172.42 91.5394 172.42 92.3604 172.376H92.4751C97.738 172.006 102.894 170.711 107.708 168.55C109.774 167.692 111.776 166.686 113.698 165.541C112.58 166.043 127.311 156.943 130.02 151.34C130.908 150.106 131.901 148.951 132.986 147.886C132.227 148.961 131.381 150.079 130.464 151.225L132.585 150.623H132.671L135.867 149.678C149.853 145.379 153.908 141.954 156.172 139.346L156.516 138.944C156.316 137.898 156.215 136.924 156.215 135.949ZM139.019 136.551C142.172 128.799 143.017 122.823 142.286 117.636C144.078 123.009 142.329 128.813 139.019 136.551Z" stroke="#231F20" stroke-miterlimit="10"/>
<path d="M11.1093 119.843C10.9553 119.944 10.807 120.055 10.665 120.172L10.0488 120.086L11.1093 119.843Z" stroke="#231F20" stroke-miterlimit="10"/>
<path d="M140.452 71.2783C140.452 71.7082 140.294 72.1238 140.222 72.5537C140.222 72.2528 140.122 71.9518 140.079 71.6509C140.185 71.5094 140.31 71.3839 140.452 71.2783Z" stroke="#231F20" stroke-miterlimit="10"/>
<path d="M24.1491 20.3924C23.1321 19.356 22.4059 18.07 22.0436 16.6638C21.6814 15.2576 21.6959 13.7808 22.0856 12.3819C23.4183 7.45237 29.093 6.177 30.2537 5.91906C31.4145 5.66111 35.6275 4.701 38.5509 7.25175C39.2818 7.93446 39.8879 8.73947 40.3421 9.63054" stroke="#231F20" stroke-miterlimit="10"/>
<path d="M38.5935 54.584C38.5935 54.584 38.5935 54.6986 38.5935 54.7559C34.6347 56.2394 31.1632 58.7885 28.5625 62.1216L28.7345 61.878C31.2976 58.5965 34.7058 56.075 38.5935 54.584Z" stroke="#231F20" stroke-miterlimit="10"/>
<path d="M47.0342 49.2529C47.0574 50.2643 46.9951 51.2757 46.8479 52.2766C46.8331 52.4364 46.8044 52.5947 46.7619 52.7495C46.7699 52.8305 46.7699 52.9121 46.7619 52.9931H46.418C46.418 52.9214 46.418 52.8354 46.418 52.7638C46.5207 52.4388 46.6068 52.1088 46.6759 51.775C46.6759 51.5457 46.7762 51.3021 46.8192 51.0585C46.8622 50.8149 46.9052 50.514 46.9339 50.2274C46.9625 49.9408 47.0198 49.5825 47.0342 49.2529Z" stroke="#231F20" stroke-miterlimit="10"/>
<path d="M46.7188 53.0214C48.3196 52.9211 49.9262 52.9642 51.5193 53.1503" stroke="#231F20" stroke-miterlimit="10"/>
<path d="M30.7838 96.5281C24.1633 89.707 22.1857 79.1458 24.9371 69.5303" stroke="#231F20" stroke-miterlimit="10"/>
<path d="M38.5935 54.584C38.5935 54.584 38.5935 54.6986 38.5935 54.7559C34.6347 56.2394 31.1632 58.7885 28.5625 62.1216L28.7345 61.878C31.2976 58.5965 34.7058 56.075 38.5935 54.584Z" stroke="#231F20" stroke-miterlimit="10"/>
<path d="M40.2564 44.6963C39.1428 45.3751 37.8872 45.7871 36.5879 45.9" stroke="#231F20" stroke-miterlimit="10"/>
<path d="M20.3379 46.8594H17.085" stroke="#231F20" stroke-miterlimit="10"/>
<path d="M81.6986 44.6963C81.102 45.1163 80.438 45.4313 79.7354 45.6277" stroke="#231F20" stroke-miterlimit="10"/>
<path d="M59.8883 47.9629H57.4092" stroke="#231F20" stroke-miterlimit="10"/>
<path d="M38.5935 54.584C38.5935 54.584 38.5935 54.6986 38.5935 54.7559C34.6347 56.2394 31.1632 58.7885 28.5625 62.1216L28.7345 61.878C31.2976 58.5965 34.7058 56.075 38.5935 54.584Z" stroke="#231F20" stroke-miterlimit="10"/>
<path d="M47.0491 49.0805C47.0562 49.1328 47.0562 49.1858 47.0491 49.2381C47.0059 47.1048 46.6089 44.9935 45.874 42.9902C46.6844 44.9167 47.0846 46.9908 47.0491 49.0805Z" stroke="#231F20" stroke-miterlimit="10"/>
<path d="M122.998 33.4893C123.825 33.0503 124.607 32.532 125.334 31.9416C125.77 31.5923 126.181 31.2141 126.566 30.8096" stroke="#231F20" stroke-miterlimit="10"/>
<path d="M111.677 13.1406C111.167 13.527 110.743 14.0149 110.431 14.5736" stroke="#231F20" stroke-miterlimit="10"/>
<path d="M126.566 30.8096C126.181 31.2141 125.769 31.5923 125.333 31.9417M5.74902 52.663V52.2187C6.09455 53.8356 6.62341 55.4077 7.32533 56.9047C8.64739 59.7088 10.5476 62.2016 12.9013 64.2193C15.2549 66.2371 18.0087 67.7342 20.9819 68.6124C22.2794 68.9682 23.6091 69.1938 24.9513 69.2859M46.7617 52.749H46.4464C43.7971 52.9329 41.1894 53.5075 38.7082 54.4542L38.5506 54.5259M110.201 15.1182C110.261 14.9143 110.343 14.7173 110.445 14.5307C110.757 13.9719 111.181 13.484 111.691 13.0977" stroke="#231F20" stroke-miterlimit="10"/>
<path d="M42.6921 67.5234C41.4454 68.5981 38.823 69.9595 36.9601 68.7414C36.4786 68.4033 36.0894 67.9501 35.828 67.423C35.2795 66.458 35.0441 65.3464 35.1545 64.2418C35.1786 63.8732 35.2866 63.515 35.4704 63.1946C35.6542 62.8742 35.9089 62.6 36.2149 62.3932C37.6976 61.5528 39.3105 60.9667 40.9868 60.6593C41.8444 60.4835 42.7206 60.4161 43.5949 60.4586C44.1251 60.4586 44.4977 60.6163 44.6267 60.8312C45.6441 62.5795 44.727 65.7608 42.6921 67.5234Z" stroke="#231F20" stroke-miterlimit="10"/>
<path d="M38.5935 54.5691C34.6849 56.0511 31.2559 58.5733 28.6771 61.8631L28.5051 62.1067C27.463 61.9327 26.4501 61.6144 25.4958 61.161C22.9746 59.9025 21.0348 57.7215 20.0791 55.0707C19.5518 53.7604 19.2977 52.3563 19.3322 50.9444C19.3667 49.5325 19.6891 48.1425 20.2797 46.8596C25.7323 46.906 31.1815 46.5708 36.5873 45.8564C36.7593 46.1287 36.8739 46.3437 36.9599 46.487C38.3215 48.9493 38.8919 51.7712 38.5935 54.5691Z" stroke="#231F20" stroke-miterlimit="10"/>
<path d="M94.367 63.3397C88.6349 69.4587 79.2201 68.8138 75.8238 68.5845C73.6929 68.4778 71.5743 68.195 69.49 67.7391C71.3865 68.038 73.315 68.0765 75.222 67.8537C79.6525 67.2447 83.7502 65.1656 86.858 61.9497C87.5458 61.2762 88.0187 60.7173 88.291 60.4164C88.5633 60.1155 88.9502 59.6282 89.3514 59.098L89.6954 58.6395C89.81 58.4962 89.9246 58.3242 90.0393 58.1522C90.1539 57.9803 90.1682 57.9659 90.2399 57.8656C91.8468 55.5078 92.8506 52.7916 93.1632 49.9554C93.2922 48.766 93.9944 41.0851 88.6493 36.2989C84.7085 32.7737 79.8219 32.8883 74.3192 33.003C69.3753 33.1176 64.9617 33.2179 61.0209 36.1699C59.7304 37.1556 58.5952 38.3294 57.6533 39.6521C59.8414 34.5416 63.88 30.4467 68.9597 28.1881C69.5043 27.9588 79.607 23.7744 88.463 29.1625C99.884 36.1412 102.392 54.7274 94.367 63.3397Z" stroke="#231F20" stroke-miterlimit="10"/>
<path d="M89.2508 59.126C88.8496 59.6562 88.477 60.1004 88.1904 60.4443C87.9038 60.7883 87.4596 61.3041 86.7574 61.9777C83.6496 65.1935 79.5519 67.2727 75.1214 67.8816C73.2144 68.1045 71.2859 68.0659 69.3894 67.767H69.3034H69.1888C67.648 67.3975 66.1496 66.8692 64.7178 66.1907C68.0464 67.5498 71.6652 68.0429 75.236 67.6237C79.6666 67.0147 83.7643 64.9356 86.8721 61.7197C87.5599 61.0462 88.0328 60.4873 88.3051 60.1864L89.2508 59.126Z" stroke="#231F20" stroke-miterlimit="10"/>
<path d="M88.3627 60.1864C88.1047 60.4873 87.6319 61.0462 86.9297 61.7197C83.8219 64.9356 79.7242 67.0147 75.2937 67.6237C71.7228 68.0429 68.104 67.5498 64.7754 66.1907C66.2072 66.8692 67.7056 67.3975 69.2464 67.767H69.361H69.447C71.3436 68.0659 73.272 68.1045 75.179 67.8816C79.6095 67.2727 83.7072 65.1935 86.815 61.9777C87.5029 61.3041 87.9758 60.7453 88.248 60.4443C88.5203 60.1434 88.9072 59.6562 89.3085 59.126L88.3627 60.1864Z" stroke="#231F20" stroke-miterlimit="10"/>
<path d="M88.4343 36.5417C84.4935 33.0165 79.607 33.1311 74.1042 33.2458C69.1603 33.3604 64.7467 33.4607 60.8059 36.4127C59.5154 37.3984 58.3802 38.5722 57.4383 39.8949C56.6795 41.542 56.1029 43.2671 55.7187 45.0394C55.6327 45.4263 55.5181 45.9565 55.4035 46.6157C54.3766 51.5534 55.323 56.697 58.0402 60.9458C59.7019 63.3129 61.9617 65.1968 64.589 66.4055C66.0789 67.0308 67.6373 67.4781 69.232 67.7382C67.6912 67.3687 66.1929 66.8404 64.761 66.1619C68.0896 67.5211 71.7084 68.0141 75.2793 67.5949C79.7098 66.986 83.8075 64.9068 86.9153 61.691C87.6031 61.0174 88.076 60.4586 88.3483 60.1576L89.2368 59.0829L89.5807 58.6243C89.6953 58.481 89.81 58.3091 89.9246 58.1371C90.0392 57.9651 90.0536 57.9508 90.1252 57.8505C91.678 55.5493 92.6604 52.9115 92.9912 50.1552C93.0772 49.0088 93.7794 41.3279 88.4343 36.5417ZM77.4001 59.4985C76.8096 60.156 76.1237 60.7212 75.3653 61.1751C73.609 62.2022 71.5943 62.7024 69.5616 62.616C67.5289 62.5296 65.564 61.8603 63.9012 60.6878C62.4644 59.4666 61.4055 57.8609 60.8489 56.0592C60.324 54.5681 59.9823 53.0186 59.8315 51.445C59.7104 50.2922 59.7104 49.1299 59.8315 47.9771C68.974 47.8051 76.2251 46.7734 79.7073 45.6413C80.5447 47.9548 80.7723 50.445 80.3682 52.872C79.9641 55.299 78.9419 57.5811 77.4001 59.4985Z" stroke="#231F20" stroke-miterlimit="10"/>
<path d="M77.3997 59.4988C76.8091 60.1564 76.1232 60.7215 75.3648 61.1754C73.6085 62.2025 71.5939 62.7027 69.5612 62.6163C67.5285 62.5299 65.5635 61.8606 63.9007 60.6882C62.4639 59.4669 61.4051 57.8613 60.8484 56.0596C60.3235 54.5684 59.9819 53.0189 59.831 51.4453C59.71 50.2925 59.71 49.1302 59.831 47.9774C68.9736 47.8054 76.2246 46.7737 79.7068 45.6416C80.5442 47.9551 80.7718 50.4453 80.3677 52.8723C79.9636 55.2993 78.9415 57.5814 77.3997 59.4988Z" stroke="#231F20" stroke-miterlimit="10"/>
<path d="M98.9668 47.7914L123.113 39.6806C123.696 39.586 124.293 39.6191 124.862 39.7774C125.431 39.9357 125.958 40.2156 126.409 40.5977C126.794 40.9484 127.105 41.3723 127.324 41.8448C127.543 42.3173 127.665 42.8287 127.684 43.3491" stroke="#F05A7B" stroke-miterlimit="10"/>
<path d="M47.2061 50.1555C47.5561 49.5708 48.0324 49.0717 48.6002 48.6949C49.168 48.318 49.8129 48.0728 50.4876 47.9773C51.1948 47.9063 51.9087 47.9986 52.5746 48.2471C53.2404 48.4955 53.8403 48.8935 54.3281 49.4103" stroke="#F05A7B" stroke-miterlimit="10"/>
<path d="M41.3457 87.3138C44.8119 88.0138 48.3873 87.9699 51.8353 87.1848C53.471 86.4145 54.77 85.0747 55.4895 83.416" stroke="#231F20" stroke-miterlimit="10"/>
</g>
<defs>
<clipPath id="clip0_1052_13243">
<rect width="155.983" height="120" fill="white" transform="translate(0.0175781)"/>
</clipPath>
</defs>
</svg>
