<svg width="96" height="109" viewBox="0 0 96 109" fill="none" xmlns="http://www.w3.org/2000/svg">
<g clip-path="url(#clip0_1074_2012)">
<mask id="mask0_1074_2012" style="mask-type:luminance" maskUnits="userSpaceOnUse" x="0" y="0" width="102" height="109">
<path d="M69.3762 0L0 27.7497L31.7856 108.954L101.162 81.204L69.3762 0Z" fill="white"/>
</mask>
<g mask="url(#mask0_1074_2012)">
<path d="M32.4607 58.5464C36.0164 57.1246 37.302 52.3716 35.6214 48.0782C33.9429 43.7902 29.7741 41.2175 26.2278 42.6361C22.6809 44.0548 21.3889 48.8049 23.0697 53.0988C24.7503 57.3923 28.9049 59.9693 32.4607 58.5464Z" stroke="white" stroke-width="2"/>
<path d="M63.5004 46.132C67.0563 44.7098 68.3417 39.9569 66.6618 35.6634C64.983 31.3764 60.83 28.7964 57.272 30.2196C53.715 31.6427 52.4291 36.3902 54.1095 40.6839C55.7904 44.9775 59.9456 47.5544 63.5004 46.132Z" stroke="white" stroke-width="2"/>
<path d="M67.3256 73.1746C71.1571 68.9515 72.719 63.7097 70.9459 59.1789C69.1727 54.648 64.4859 51.9104 58.832 51.4766" stroke="white" stroke-width="2"/>
<path d="M39.5 58.998C35.6689 63.22 34.0932 68.6875 35.8667 73.2183C37.64 77.7481 42.328 80.4909 47.98 80.92" stroke="white" stroke-width="2"/>
<path d="M58.8327 51.4803C55.2447 51.2729 51.656 51.8578 48.3147 53.1942C44.9734 54.5304 41.9602 56.5872 39.4844 59.2194M67.3253 73.1783C64.85 75.8106 61.8365 77.8674 58.4951 79.2036C55.1546 80.5398 51.5651 81.1249 47.9777 80.9169" stroke="white" stroke-width="2"/>
<path d="M42.8481 39.2261C46.4037 37.8039 47.6894 33.051 46.0097 28.7596C44.3301 24.469 40.1745 21.8816 36.6161 23.3049C33.0576 24.7283 31.7785 29.4895 33.4579 33.7801C35.1378 38.0715 39.2924 40.6483 42.8481 39.2261Z" stroke="white" stroke-width="2"/>
<path d="M63.9875 94.2394C67.552 92.809 70.8934 91.346 73.9326 89.7985C82.66 85.3511 89.1307 80.0725 91.0249 72.5106C92.9181 64.9562 90.1405 55.5347 81.4668 43.0684L81.4657 43.0674C77.2602 37.0377 71.7982 30.1243 65.5505 24.5485C59.3167 18.987 52.1932 14.659 44.668 13.9961C41.84 13.7392 38.9896 14.0344 36.2719 14.8656M63.9875 94.2394L63.9832 94.2416M63.9875 94.2394L63.9907 94.2383M63.9875 94.2394C60.81 95.5431 57.5189 96.5411 54.1571 97.2206L54.1496 97.2217C45.5735 98.8873 37.6092 97.7744 31.2857 92.7255C24.9822 87.6918 20.4994 78.8989 18.5421 65.6162M36.2719 14.8656C31.6646 16.2383 27.6092 19.0583 24.6935 22.917M36.2719 14.8656L36.268 14.8667M36.2719 14.8656L36.2756 14.8645M18.5421 65.6162L18.542 65.6151M18.5421 65.6162C17.3286 57.4008 16.9776 49.2154 17.8648 41.8527C18.7509 34.4994 20.8812 27.8948 24.6935 22.917M24.6935 22.917L24.6913 22.9199M24.6935 22.917L24.6957 22.9141" stroke="white" stroke-width="2"/>
</g>
</g>
<defs>
<clipPath id="clip0_1074_2012">
<rect width="96" height="109" fill="white"/>
</clipPath>
</defs>
</svg>
