<svg width="16" height="16" viewBox="0 0 16 16" fill="none" xmlns="http://www.w3.org/2000/svg">
<path d="M7.51988 0.944478C7.65958 0.463918 8.34041 0.463916 8.48012 0.944476L9.80359 5.49689C9.86567 5.71043 10.0613 5.85731 10.2837 5.85731H14.675C15.1459 5.85731 15.3557 6.44867 14.9902 6.74546L11.3454 9.70515C11.1893 9.8319 11.1243 10.0398 11.1804 10.2329L12.5496 14.9425C12.6864 15.4131 12.1347 15.7791 11.7543 15.4702L8.31518 12.6776C8.13152 12.5284 7.86848 12.5284 7.68482 12.6776L4.24572 15.4702C3.86525 15.7791 3.3136 15.4131 3.45042 14.9425L4.81958 10.2329C4.8757 10.0398 4.81072 9.8319 4.65464 9.70515L1.00977 6.74546C0.644279 6.44867 0.854141 5.85731 1.32496 5.85731H5.71629C5.93867 5.85731 6.13433 5.71043 6.19641 5.49689L7.51988 0.944478Z" fill="white"/>
</svg>
