<svg width="30" height="31" viewBox="0 0 30 31" fill="none" xmlns="http://www.w3.org/2000/svg">
<path d="M26 24.668V9.66797H10V8.73047C10 7.17984 11.346 5.91797 13 5.91797H16V0.292969H13C10.6139 0.29545 8.32622 1.1852 6.63896 2.767C4.95171 4.3488 4.00265 6.49347 4 8.73047V9.66797H0V15.293H4V24.668H0V30.293H14V24.668H10V15.293H20.056V24.668H16V30.293H30V24.668H26Z" fill="white"/>
<path d="M23 5.91797C24.6569 5.91797 26 4.65877 26 3.10547C26 1.55217 24.6569 0.292969 23 0.292969C21.3431 0.292969 20 1.55217 20 3.10547C20 4.65877 21.3431 5.91797 23 5.91797Z" fill="white"/>
</svg>
