<svg width="30" height="31" viewBox="0 0 30 31" fill="none" xmlns="http://www.w3.org/2000/svg">
<path d="M27.7817 0.293178H2.21831C1.93095 0.289212 1.64563 0.341549 1.37862 0.447202C1.11162 0.552855 0.868164 0.709754 0.662169 0.908938C0.456175 1.10812 0.291672 1.34569 0.178056 1.60807C0.0644402 1.87046 0.00393621 2.15252 0 2.43815V28.1478C0.00393621 28.4334 0.0644402 28.7155 0.178056 28.9779C0.291672 29.2402 0.456175 29.4778 0.662169 29.677C0.868164 29.8762 1.11162 30.0331 1.37862 30.1387C1.64563 30.2444 1.93095 30.2967 2.21831 30.2928H27.7817C28.069 30.2967 28.3544 30.2444 28.6214 30.1387C28.8884 30.0331 29.1318 29.8762 29.3378 29.677C29.5438 29.4778 29.7083 29.2402 29.8219 28.9779C29.9356 28.7155 29.9961 28.4334 30 28.1478V2.43815C29.9961 2.15252 29.9356 1.87046 29.8219 1.60807C29.7083 1.34569 29.5438 1.10812 29.3378 0.908938C29.1318 0.709754 28.8884 0.552855 28.6214 0.447202C28.3544 0.341549 28.069 0.289212 27.7817 0.293178ZM9.0996 25.4028H4.57243V11.903H9.0996V25.4028ZM6.83602 10.013C6.21166 10.013 5.61288 9.76651 5.1714 9.32768C4.72991 8.88885 4.48189 8.29367 4.48189 7.67308C4.48189 7.05248 4.72991 6.4573 5.1714 6.01847C5.61288 5.57964 6.21166 5.33311 6.83602 5.33311C7.16755 5.29574 7.50328 5.32839 7.82124 5.42893C8.1392 5.52947 8.4322 5.69564 8.68107 5.91654C8.92994 6.13745 9.12906 6.40811 9.2654 6.71081C9.40173 7.01351 9.47221 7.34142 9.47221 7.67308C9.47221 8.00473 9.40173 8.33264 9.2654 8.63534C9.12906 8.93804 8.92994 9.2087 8.68107 9.42961C8.4322 9.65051 8.1392 9.81668 7.82124 9.91722C7.50328 10.0178 7.16755 10.0504 6.83602 10.013ZM25.4276 25.4028H20.9004V18.1579C20.9004 16.343 20.2515 15.158 18.6066 15.158C18.0976 15.1617 17.6019 15.3204 17.1864 15.6127C16.7708 15.9051 16.4555 16.317 16.2827 16.7929C16.1646 17.1455 16.1134 17.5168 16.1318 17.8879V25.3878H11.6046C11.6046 25.3878 11.6046 13.118 11.6046 11.888H16.1318V13.793C16.5431 13.0837 17.1412 12.4993 17.8618 12.1028C18.5825 11.7063 19.3982 11.5128 20.2213 11.543C23.2394 11.543 25.4276 13.478 25.4276 17.6329V25.4028Z" fill="white"/>
</svg>
