<svg width="30" height="31" viewBox="0 0 30 31" fill="none" xmlns="http://www.w3.org/2000/svg">
<path d="M15 11.573C14.2643 11.573 13.545 11.7911 12.9333 12.1999C12.3215 12.6087 11.8447 13.1896 11.5632 13.8694C11.2816 14.5491 11.2079 15.2971 11.3515 16.0187C11.495 16.7403 11.8493 17.4032 12.3696 17.9234C12.8898 18.4437 13.5527 18.798 14.2743 18.9415C14.9959 19.085 15.7438 19.0114 16.4236 18.7298C17.1033 18.4482 17.6843 17.9714 18.0931 17.3597C18.5018 16.7479 18.72 16.0287 18.72 15.293C18.72 14.8045 18.6238 14.3207 18.4368 13.8694C18.2499 13.4181 17.9759 13.008 17.6304 12.6625C17.285 12.3171 16.8749 12.0431 16.4236 11.8561C15.9723 11.6692 15.4885 11.573 15 11.573ZM29.895 7.89797C29.8871 6.73961 29.6738 5.59183 29.265 4.50797C28.9639 3.71486 28.4981 2.99461 27.8982 2.39475C27.2984 1.79488 26.5781 1.32905 25.785 1.02797C24.7011 0.619164 23.5534 0.40586 22.395 0.397969C20.46 0.292969 19.89 0.292969 15 0.292969C10.11 0.292969 9.54 0.292969 7.605 0.397969C6.44664 0.40586 5.29886 0.619164 4.215 1.02797C3.42189 1.32905 2.70164 1.79488 2.10178 2.39475C1.50192 2.99461 1.03608 3.71486 0.735 4.50797C0.326196 5.59183 0.112891 6.73961 0.105 7.89797C-1.00583e-07 9.83297 0 10.403 0 15.293C0 20.183 -1.00583e-07 20.753 0.105 22.688C0.121146 23.8504 0.334161 25.0017 0.735 26.093C1.03474 26.8825 1.50019 27.5985 2.1 28.193C2.69729 28.7964 3.41908 29.2623 4.215 29.558C5.29886 29.9668 6.44664 30.1801 7.605 30.188C9.54 30.293 10.11 30.293 15 30.293C19.89 30.293 20.46 30.293 22.395 30.188C23.5534 30.1801 24.7011 29.9668 25.785 29.558C26.5809 29.2623 27.3027 28.7964 27.9 28.193C28.4998 27.5985 28.9653 26.8825 29.265 26.093C29.6734 25.0038 29.8867 23.8512 29.895 22.688C30 20.753 30 20.183 30 15.293C30 10.403 30 9.83297 29.895 7.89797ZM26.085 19.898C26.0369 20.8236 25.8393 21.7354 25.5 22.598C25.2088 23.3175 24.7759 23.9711 24.227 24.52C23.6782 25.0689 23.0245 25.5018 22.305 25.793C21.4343 26.1134 20.5174 26.2907 19.59 26.318C18.405 26.318 18.09 26.318 15 26.318C11.91 26.318 11.595 26.318 10.41 26.318C9.4826 26.2907 8.56573 26.1134 7.695 25.793C6.95115 25.5165 6.27942 25.0756 5.73 24.503C5.1865 23.9648 4.76677 23.3148 4.5 22.598C4.17834 21.7281 4.00591 20.8102 3.99 19.883C3.99 18.698 3.99 18.383 3.99 15.293C3.99 12.203 3.99 11.888 3.99 10.703C4.00591 9.77571 4.17834 8.8578 4.5 7.98797C4.77642 7.24412 5.21741 6.57238 5.79 6.02297C6.3305 5.4824 6.9799 5.06311 7.695 4.79297C8.56573 4.47258 9.4826 4.29528 10.41 4.26797C11.595 4.26797 11.91 4.26797 15 4.26797C18.09 4.26797 18.405 4.26797 19.59 4.26797C20.5174 4.29528 21.4343 4.47258 22.305 4.79297C23.0488 5.06939 23.7206 5.51038 24.27 6.08297C24.8135 6.62109 25.2332 7.27117 25.5 7.98797C25.8204 8.8587 25.9977 9.77556 26.025 10.703C26.025 11.888 26.025 12.203 26.025 15.293C26.025 18.383 26.13 18.698 26.085 19.883V19.898ZM23.685 8.73797C23.5064 8.25345 23.2248 7.81343 22.8597 7.44829C22.4945 7.08315 22.0545 6.80156 21.57 6.62297C20.9047 6.39236 20.204 6.28065 19.5 6.29297C18.33 6.29297 18 6.29297 15 6.29297C12 6.29297 11.67 6.29297 10.5 6.29297C9.7924 6.29988 9.0916 6.43192 8.43 6.68297C7.95289 6.85345 7.51754 7.12354 7.15288 7.47527C6.78821 7.827 6.50259 8.25233 6.315 8.72297C6.09716 9.39102 5.99074 10.0904 6 10.793C6 11.963 6 12.293 6 15.293C6 18.293 6 18.623 6 19.793C6.01487 20.4998 6.14665 21.1992 6.39 21.863C6.5686 22.3475 6.85018 22.7875 7.21532 23.1526C7.58046 23.5178 8.02048 23.7994 8.505 23.978C9.145 24.2133 9.81848 24.345 10.5 24.368C11.67 24.368 12 24.368 15 24.368C18 24.368 18.33 24.368 19.5 24.368C20.2076 24.3611 20.9084 24.229 21.57 23.978C22.0545 23.7994 22.4945 23.5178 22.8597 23.1526C23.2248 22.7875 23.5064 22.3475 23.685 21.863C23.9361 21.2014 24.0681 20.5006 24.075 19.793C24.075 18.623 24.075 18.293 24.075 15.293C24.075 12.293 24.075 11.963 24.075 10.793C24.0754 10.0847 23.9432 9.38255 23.685 8.72297V8.73797ZM15 21.023C14.2482 21.023 13.5038 20.8747 12.8095 20.5865C12.1151 20.2984 11.4845 19.8761 10.9536 19.3438C10.4227 18.8115 10.002 18.1797 9.71572 17.4846C9.42939 16.7895 9.28303 16.0447 9.285 15.293C9.285 14.159 9.62144 13.0506 10.2517 12.108C10.882 11.1654 11.7778 10.431 12.8257 9.99772C13.8736 9.56447 15.0265 9.45188 16.1384 9.67419C17.2503 9.8965 18.2713 10.4437 19.072 11.2466C19.8728 12.0494 20.4173 13.0718 20.6367 14.1843C20.8561 15.2968 20.7405 16.4494 20.3045 17.4962C19.8685 18.5429 19.1318 19.4368 18.1875 20.0646C17.2432 20.6924 16.1339 21.0259 15 21.023ZM21 10.688C20.6684 10.6529 20.3615 10.4963 20.1385 10.2484C19.9155 10.0005 19.7921 9.67891 19.7921 9.34547C19.7921 9.01203 19.9155 8.69039 20.1385 8.44251C20.3615 8.19464 20.6684 8.03807 21 8.00297C21.3316 8.03807 21.6385 8.19464 21.8615 8.44251C22.0845 8.69039 22.2079 9.01203 22.2079 9.34547C22.2079 9.67891 22.0845 10.0005 21.8615 10.2484C21.6385 10.4963 21.3316 10.6529 21 10.688Z" fill="white"/>
</svg>
