<svg width="30" height="31" viewBox="0 0 30 31" fill="none" xmlns="http://www.w3.org/2000/svg">
<path d="M15 30.293C23.2843 30.293 30 23.5772 30 15.293C30 7.0087 23.2843 0.292969 15 0.292969C6.71573 0.292969 0 7.0087 0 15.293C0 23.5772 6.71573 30.293 15 30.293Z" fill="white"/>
<path d="M24.6177 9.3262C23.9102 9.64015 23.1503 9.85239 22.3513 9.94779C23.1667 9.45949 23.7914 8.6857 24.0864 7.76477C23.3118 8.22484 22.464 8.54874 21.58 8.72238C20.8606 7.95552 19.8347 7.47674 18.6996 7.47674C16.5211 7.47674 14.7542 9.24287 14.7542 11.4227C14.7542 11.7316 14.789 12.0329 14.8559 12.3222C11.5763 12.1574 8.66874 10.5865 6.72256 8.19939C6.38273 8.78238 6.18822 9.4602 6.18822 10.1834C6.18822 11.5523 6.88494 12.76 7.9436 13.4675C7.31689 13.448 6.70394 13.2789 6.15598 12.9741V13.024C6.15598 14.936 7.51596 16.5304 9.32126 16.893C8.98963 16.9838 8.6416 17.0313 8.28155 17.0313C8.02698 17.0313 7.78 17.0072 7.53873 16.9618C8.04088 18.529 9.4982 19.6698 11.2244 19.702C9.87394 20.7607 8.17224 21.3917 6.32401 21.3917C6.00567 21.3917 5.69105 21.3727 5.38219 21.3355C7.12876 22.4554 9.20253 23.1092 11.431 23.1092C18.6889 23.1092 22.6583 17.0964 22.6583 11.882C22.6583 11.7108 22.6545 11.5409 22.6462 11.3716C23.4196 10.8122 24.0872 10.1196 24.6177 9.3262Z" fill="black"/>
</svg>
